<svg width="512" height="512" viewBox="0 0 512 512" fill="none" xmlns="http://www.w3.org/2000/svg">
<path d="M59.9928 184.915L102.964 185.309L130.174 215.727L123.217 180.773L151.793 155.69L193.603 152.298L165.791 141.692L192.926 100.004L151.238 127.14L127.987 70.9348L121.083 129.355L98.6721 106.944L102.278 142.629L65.8709 133.051L99.1958 166.376L59.9928 184.915Z" fill="#FFD789" stroke="black" stroke-width="1.5"/>
<path d="M274.5 218V184" stroke="black" stroke-width="4" stroke-linecap="round"/>
<path d="M265 184L285.5 184" stroke="black" stroke-width="4" stroke-linecap="round"/>
<path d="M396.001 172.627L409.465 156" stroke="black" stroke-width="8" stroke-linecap="round"/>
<mask id="path-5-inside-1_92_13929" fill="white">
<path fill-rule="evenodd" clip-rule="evenodd" d="M430.672 251.605L302.422 177.559C325.255 149.499 365.712 141.354 398.047 160.022C430.382 178.691 443.556 217.801 430.672 251.605Z"/>
</mask>
<path fill-rule="evenodd" clip-rule="evenodd" d="M430.672 251.605L302.422 177.559C325.255 149.499 365.712 141.354 398.047 160.022C430.382 178.691 443.556 217.801 430.672 251.605Z" fill="#9296FF"/>
<path d="M430.672 251.605L432.074 252.139L431.447 253.784L429.922 252.904L430.672 251.605ZM302.422 177.559L301.672 178.859L300.147 177.978L301.259 176.613L302.422 177.559ZM429.922 252.904L301.672 178.859L303.172 176.26L431.422 250.306L429.922 252.904ZM397.297 161.321C365.61 143.027 325.961 151.008 303.586 178.506L301.259 176.613C324.549 147.99 365.814 139.681 398.797 158.723L397.297 161.321ZM429.27 251.07C441.897 217.944 428.984 179.616 397.297 161.321L398.797 158.723C431.78 177.766 445.216 217.658 432.074 252.139L429.27 251.07Z" fill="black" mask="url(#path-5-inside-1_92_13929)"/>
<mask id="path-7-inside-2_92_13929" fill="white">
<path d="M302.394 177.336C299.665 182.062 326.145 202.458 361.539 222.893C396.933 243.327 427.837 256.062 430.565 251.336C433.294 246.61 406.814 226.213 371.42 205.779C336.026 185.344 305.122 172.61 302.394 177.336Z"/>
</mask>
<path d="M302.394 177.336C299.665 182.062 326.145 202.458 361.539 222.893C396.933 243.327 427.837 256.062 430.565 251.336C433.294 246.61 406.814 226.213 371.42 205.779C336.026 185.344 305.122 172.61 302.394 177.336Z" fill="#9296FF"/>
<path d="M303.693 178.086C303.755 177.979 303.555 178.181 304.038 179.134C304.48 180.005 305.323 181.152 306.613 182.561C309.178 185.363 313.259 188.932 318.586 193.035C329.222 201.228 344.631 211.399 362.289 221.594L360.789 224.192C343.053 213.952 327.526 203.708 316.755 195.412C311.379 191.271 307.139 187.578 304.401 184.587C303.039 183.1 301.985 181.719 301.362 180.49C300.781 179.344 300.351 177.874 301.095 176.586L303.693 178.086ZM362.289 221.594C379.947 231.789 396.46 240.048 408.873 245.163C415.09 247.724 420.222 249.474 423.93 250.294C425.796 250.707 427.211 250.864 428.186 250.811C429.253 250.753 429.328 250.479 429.266 250.586L431.864 252.086C431.121 253.374 429.633 253.736 428.35 253.806C426.974 253.882 425.251 253.659 423.282 253.224C419.323 252.347 414.005 250.522 407.73 247.936C395.16 242.757 378.525 234.432 360.789 224.192L362.289 221.594ZM429.266 250.586C429.205 250.693 429.404 250.491 428.921 249.538C428.48 248.666 427.636 247.519 426.346 246.11C423.781 243.309 419.7 239.739 414.373 235.636C403.737 227.444 388.328 217.273 370.67 207.078L372.17 204.48C389.906 214.72 405.433 224.964 416.204 233.26C421.58 237.401 425.82 241.094 428.559 244.084C429.92 245.572 430.975 246.953 431.597 248.182C432.178 249.328 432.608 250.797 431.864 252.086L429.266 250.586ZM370.67 207.078C353.012 196.883 336.499 188.624 324.086 183.509C317.869 180.947 312.737 179.198 309.029 178.377C307.164 177.964 305.749 177.808 304.773 177.861C303.706 177.919 303.631 178.193 303.693 178.086L301.095 176.586C301.839 175.297 303.326 174.935 304.61 174.865C305.985 174.79 307.708 175.012 309.677 175.448C313.636 176.324 318.954 178.15 325.229 180.735C337.799 185.915 354.434 194.24 372.17 204.48L370.67 207.078Z" fill="black" mask="url(#path-7-inside-2_92_13929)"/>
<path d="M388.735 443.543L379.542 452.735C376.711 455.566 372.121 455.566 369.289 452.735L339.06 422.506L358.506 403.061L388.735 433.289C391.566 436.121 391.566 440.711 388.735 443.543Z" fill="black" stroke="black" stroke-width="1.5"/>
<path d="M398.735 442.543L389.542 451.735C386.711 454.566 382.121 454.566 379.289 451.735L349.06 421.506L368.506 402.061L398.735 432.289C401.566 435.121 401.566 439.711 398.735 442.543Z" fill="#9296FF" stroke="black" stroke-width="1.5"/>
<mask id="path-11-inside-3_92_13929" fill="white">
<path fill-rule="evenodd" clip-rule="evenodd" d="M304 445.237C353.017 427.294 388 380.232 388 325C388 269.768 353.017 222.706 304 204.763V197H260H254V197.138C186.093 200.272 132 256.319 132 325C132 393.681 186.093 449.728 254 452.862V453H260H304V445.237Z"/>
</mask>
<path fill-rule="evenodd" clip-rule="evenodd" d="M304 445.237C353.017 427.294 388 380.232 388 325C388 269.768 353.017 222.706 304 204.763V197H260H254V197.138C186.093 200.272 132 256.319 132 325C132 393.681 186.093 449.728 254 452.862V453H260H304V445.237Z" fill="black"/>
<path d="M304 445.237L303.484 443.828L302.5 444.189V445.237H304ZM304 204.763H302.5V205.811L303.484 206.172L304 204.763ZM304 197H305.5V195.5H304V197ZM254 197V195.5H252.5V197H254ZM254 197.138L254.069 198.637L255.5 198.571V197.138H254ZM254 452.862H255.5V451.429L254.069 451.363L254 452.862ZM254 453H252.5V454.5H254V453ZM304 453V454.5H305.5V453H304ZM386.5 325C386.5 379.583 351.929 426.095 303.484 443.828L304.516 446.646C354.105 428.493 389.5 380.882 389.5 325H386.5ZM303.484 206.172C351.929 223.905 386.5 270.417 386.5 325H389.5C389.5 269.118 354.105 221.507 304.516 203.354L303.484 206.172ZM302.5 197V204.763H305.5V197H302.5ZM260 198.5H304V195.5H260V198.5ZM254 198.5H260V195.5H254V198.5ZM255.5 197.138V197H252.5V197.138H255.5ZM133.5 325C133.5 257.124 186.959 201.733 254.069 198.637L253.931 195.64C185.227 198.81 130.5 255.513 130.5 325H133.5ZM254.069 451.363C186.959 448.267 133.5 392.876 133.5 325H130.5C130.5 394.487 185.227 451.19 253.931 454.36L254.069 451.363ZM255.5 453V452.862H252.5V453H255.5ZM260 451.5H254V454.5H260V451.5ZM304 451.5H260V454.5H304V451.5ZM302.5 445.237V453H305.5V445.237H302.5Z" fill="black" mask="url(#path-11-inside-3_92_13929)"/>
<path d="M162.187 443.322L171.38 452.514C174.211 455.346 178.801 455.346 181.633 452.514L217.641 416.506L198.196 397.06L162.187 433.069C159.356 435.9 159.356 440.491 162.187 443.322Z" fill="black" stroke="black" stroke-width="1.5"/>
<path d="M168.187 442.543L177.38 451.735C180.211 454.566 184.801 454.566 187.633 451.735L217.861 421.506L198.416 402.061L168.187 432.289C165.356 435.121 165.356 439.711 168.187 442.543Z" fill="#9296FF" stroke="black" stroke-width="1.5"/>
<path d="M152.464 143.627L139 127" stroke="black" stroke-width="8" stroke-linecap="round"/>
<mask id="path-16-inside-4_92_13929" fill="white">
<path fill-rule="evenodd" clip-rule="evenodd" d="M113.5 221.605L241.75 147.559C218.917 119.499 178.459 111.354 146.125 130.022C113.79 148.691 100.615 187.801 113.5 221.605Z"/>
</mask>
<path fill-rule="evenodd" clip-rule="evenodd" d="M113.5 221.605L241.75 147.559C218.917 119.499 178.459 111.354 146.125 130.022C113.79 148.691 100.615 187.801 113.5 221.605Z" fill="#9296FF"/>
<path d="M113.5 221.605L112.098 222.139L112.725 223.784L114.25 222.904L113.5 221.605ZM241.75 147.559L242.5 148.859L244.024 147.978L242.913 146.613L241.75 147.559ZM114.25 222.904L242.5 148.859L241 146.26L112.75 220.306L114.25 222.904ZM146.875 131.321C178.562 113.027 218.211 121.008 240.586 148.506L242.913 146.613C219.623 117.99 178.357 109.681 145.375 128.723L146.875 131.321ZM114.901 221.07C102.275 187.944 115.188 149.616 146.875 131.321L145.375 128.723C112.392 147.766 98.9556 187.658 112.098 222.139L114.901 221.07Z" fill="black" mask="url(#path-16-inside-4_92_13929)"/>
<path d="M241.022 147.98C241.406 148.643 241.492 149.553 241.158 150.777C240.823 152.003 240.085 153.467 238.936 155.145C236.641 158.497 232.809 162.559 227.708 167.065C217.516 176.07 202.378 186.745 184.711 196.946C167.044 207.146 150.229 214.917 137.335 219.242C130.882 221.406 125.449 222.694 121.398 223.006C119.371 223.161 117.734 223.069 116.504 222.746C115.277 222.423 114.533 221.893 114.15 221.23C113.766 220.566 113.68 219.656 114.014 218.432C114.349 217.206 115.087 215.742 116.236 214.064C118.531 210.712 122.363 206.65 127.464 202.144C137.656 193.14 152.794 182.464 170.461 172.264C188.128 162.064 204.942 154.292 217.837 149.967C224.29 147.803 229.723 146.515 233.774 146.204C235.801 146.048 237.438 146.141 238.668 146.464C239.895 146.786 240.639 147.316 241.022 147.98Z" fill="black" stroke="black" stroke-width="1.5"/>
<mask id="path-19-inside-5_92_13929" fill="white">
<path fill-rule="evenodd" clip-rule="evenodd" d="M118.69 209.736C114.078 214.994 112.096 219.173 113.5 221.605C117.642 228.779 149.692 218.029 185.085 197.595C220.479 177.16 245.813 154.779 241.671 147.605C240.385 145.377 236.41 144.877 230.48 145.858C221.484 156.113 202.483 170.472 179.085 183.981C154.679 198.072 131.863 207.557 118.69 209.736Z"/>
</mask>
<path fill-rule="evenodd" clip-rule="evenodd" d="M118.69 209.736C114.078 214.994 112.096 219.173 113.5 221.605C117.642 228.779 149.692 218.029 185.085 197.595C220.479 177.16 245.813 154.779 241.671 147.605C240.385 145.377 236.41 144.877 230.48 145.858C221.484 156.113 202.483 170.472 179.085 183.981C154.679 198.072 131.863 207.557 118.69 209.736Z" fill="#9296FF"/>
<path d="M118.69 209.736L118.446 208.256L117.917 208.344L117.563 208.747L118.69 209.736ZM230.48 145.858L230.235 144.379L229.706 144.466L229.353 144.869L230.48 145.858ZM114.799 220.855C114.46 220.269 114.379 219.198 115.208 217.342C116.017 215.534 117.555 213.305 119.818 210.726L117.563 208.747C115.213 211.426 113.454 213.915 112.469 216.118C111.505 218.275 111.135 220.509 112.2 222.355L114.799 220.855ZM184.335 196.296C166.698 206.479 149.93 214.226 137.096 218.531C130.667 220.687 125.301 221.953 121.34 222.258C119.356 222.41 117.811 222.314 116.694 222.02C115.582 221.728 115.047 221.285 114.799 220.855L112.2 222.355C112.987 223.717 114.36 224.508 115.932 224.922C117.499 225.333 119.414 225.415 121.57 225.249C125.889 224.917 131.525 223.564 138.05 221.375C151.125 216.99 168.079 209.146 185.835 198.894L184.335 196.296ZM240.372 148.355C240.621 148.785 240.737 149.47 240.434 150.579C240.13 151.693 239.441 153.079 238.317 154.721C236.073 157.999 232.293 162.013 227.211 166.503C217.066 175.465 201.973 186.113 184.335 196.296L185.835 198.894C203.592 188.642 218.862 177.882 229.197 168.751C234.356 164.194 238.345 159.991 240.792 156.416C242.014 154.632 242.901 152.932 243.328 151.369C243.756 149.802 243.757 148.217 242.97 146.855L240.372 148.355ZM230.725 147.338C233.62 146.859 235.922 146.764 237.598 147.012C239.301 147.265 240.064 147.82 240.372 148.355L242.97 146.855C241.993 145.162 240.125 144.354 238.037 144.045C235.921 143.731 233.271 143.876 230.235 144.379L230.725 147.338ZM229.353 144.869C220.518 154.94 201.684 169.201 178.335 182.682L179.835 185.28C203.282 171.743 222.45 157.286 231.608 146.848L229.353 144.869ZM178.335 182.682C153.97 196.749 131.344 206.123 118.446 208.256L118.935 211.216C132.381 208.992 155.389 199.394 179.835 185.28L178.335 182.682Z" fill="black" mask="url(#path-19-inside-5_92_13929)"/>
<circle cx="277" cy="325" r="127.25" fill="black" stroke="black" stroke-width="1.5"/>
<circle cx="294" cy="325" r="127.25" fill="#FFD789" stroke="black" stroke-width="1.5"/>
<circle cx="294" cy="325" r="99.25" fill="#9296FF" stroke="black" stroke-width="1.5"/>
<path d="M288.091 392.994C271.557 391.557 256.114 384.145 244.65 372.145C233.186 360.144 226.487 344.378 225.807 327.796C225.127 311.214 230.513 294.953 240.955 282.054C251.398 269.156 266.183 260.504 282.543 257.718" stroke="black" stroke-width="1.5"/>
<mask id="path-25-inside-6_92_13929" fill="white">
<path fill-rule="evenodd" clip-rule="evenodd" d="M276.5 423.645C323.877 415.779 360 374.608 360 325C360 275.392 323.877 234.221 276.5 226.355C281.868 225.464 287.38 225 293 225C348.228 225 393 269.772 393 325C393 380.228 348.228 425 293 425C287.38 425 281.868 424.536 276.5 423.645Z"/>
</mask>
<path fill-rule="evenodd" clip-rule="evenodd" d="M276.5 423.645C323.877 415.779 360 374.608 360 325C360 275.392 323.877 234.221 276.5 226.355C281.868 225.464 287.38 225 293 225C348.228 225 393 269.772 393 325C393 380.228 348.228 425 293 425C287.38 425 281.868 424.536 276.5 423.645Z" fill="black"/>
<path d="M276.5 423.645L276.254 422.165L276.254 425.125L276.5 423.645ZM276.5 226.355L276.254 224.875L276.254 227.835L276.5 226.355ZM358.5 325C358.5 373.863 322.92 414.418 276.254 422.165L276.746 425.125C324.835 417.141 361.5 375.354 361.5 325H358.5ZM276.254 227.835C322.92 235.582 358.5 276.137 358.5 325H361.5C361.5 274.646 324.835 232.859 276.746 224.875L276.254 227.835ZM276.746 227.835C282.032 226.957 287.462 226.5 293 226.5V223.5C287.297 223.5 281.703 223.97 276.254 224.875L276.746 227.835ZM293 226.5C347.4 226.5 391.5 270.6 391.5 325H394.5C394.5 268.943 349.057 223.5 293 223.5V226.5ZM391.5 325C391.5 379.4 347.4 423.5 293 423.5V426.5C349.057 426.5 394.5 381.057 394.5 325H391.5ZM293 423.5C287.462 423.5 282.032 423.043 276.746 422.165L276.254 425.125C281.703 426.03 287.297 426.5 293 426.5V423.5Z" fill="black" mask="url(#path-25-inside-6_92_13929)"/>
<path d="M326.775 371L286.061 330.286L286.061 291" stroke="black" stroke-width="8" stroke-linecap="round"/>
<path d="M192 200.5L178 180" stroke="black" stroke-width="8" stroke-linecap="round"/>
<path d="M138.234 338.847C138.162 338.499 137.855 338.25 137.5 338.25C137.145 338.25 136.838 338.499 136.766 338.847L131.516 364.096L105.852 369.265C105.502 369.335 105.25 369.643 105.25 370C105.25 370.357 105.502 370.665 105.852 370.735L131.516 375.904L136.766 401.153C136.838 401.501 137.145 401.75 137.5 401.75C137.855 401.75 138.162 401.501 138.234 401.153L143.484 375.904L169.148 370.735C169.498 370.665 169.75 370.357 169.75 370C169.75 369.643 169.498 369.335 169.148 369.265L143.484 364.096L138.234 338.847Z" fill="white" stroke="black" stroke-width="1.5" stroke-linejoin="round"/>
<path d="M357.234 117.847C357.162 117.499 356.855 117.25 356.5 117.25C356.145 117.25 355.838 117.499 355.766 117.847L350.516 143.096L324.852 148.265C324.502 148.335 324.25 148.643 324.25 149C324.25 149.357 324.502 149.665 324.852 149.735L350.516 154.904L355.766 180.153C355.838 180.501 356.145 180.75 356.5 180.75C356.855 180.75 357.162 180.501 357.234 180.153L362.484 154.904L388.148 149.735C388.498 149.665 388.75 149.357 388.75 149C388.75 148.643 388.498 148.335 388.148 148.265L362.484 143.096L357.234 117.847Z" fill="white" stroke="black" stroke-width="1.5" stroke-linejoin="round"/>
</svg>
