<svg width="512" height="512" viewBox="0 0 512 512" fill="none" xmlns="http://www.w3.org/2000/svg">
<mask id="path-1-inside-1_92_13892" fill="white">
<path fill-rule="evenodd" clip-rule="evenodd" d="M105.551 369C106.926 366.515 110.836 364.165 116.81 362.032L120.784 313.159C120.928 311.389 120.94 309.61 120.822 307.839L117.85 263.407C114.143 207.99 158.095 161 213.636 161L219.364 161C274.905 161 318.857 207.99 315.15 263.407L312.178 307.839C312.06 309.61 312.072 311.389 312.216 313.159L316.19 362.032C322.164 364.165 326.074 366.515 327.449 369H327.5L337.5 391H337C337 403.15 282.826 413 216 413C149.174 413 95 403.15 95 391C95 389.693 95.6268 388.413 96.8287 387.168L105.5 369H105.551Z"/>
</mask>
<path fill-rule="evenodd" clip-rule="evenodd" d="M105.551 369C106.926 366.515 110.836 364.165 116.81 362.032L120.784 313.159C120.928 311.389 120.94 309.61 120.822 307.839L117.85 263.407C114.143 207.99 158.095 161 213.636 161L219.364 161C274.905 161 318.857 207.99 315.15 263.407L312.178 307.839C312.06 309.61 312.072 311.389 312.216 313.159L316.19 362.032C322.164 364.165 326.074 366.515 327.449 369H327.5L337.5 391H337C337 403.15 282.826 413 216 413C149.174 413 95 403.15 95 391C95 389.693 95.6268 388.413 96.8287 387.168L105.5 369H105.551Z" fill="black"/>
<path d="M116.81 362.032L117.315 363.445L118.227 363.119L118.305 362.154L116.81 362.032ZM105.551 369V370.5H106.435L106.863 369.726L105.551 369ZM120.784 313.159L122.279 313.28L122.279 313.28L120.784 313.159ZM120.822 307.839L122.319 307.739L122.319 307.739L120.822 307.839ZM117.85 263.407L119.347 263.307L117.85 263.407ZM213.636 161L213.636 159.5L213.636 161ZM219.364 161L219.364 162.5L219.364 161ZM315.15 263.407L313.653 263.307L313.653 263.307L315.15 263.407ZM312.178 307.839L310.681 307.739L312.178 307.839ZM312.216 313.159L310.721 313.28L310.721 313.28L312.216 313.159ZM316.19 362.032L314.695 362.154L314.773 363.119L315.685 363.445L316.19 362.032ZM327.449 369L326.137 369.726L326.565 370.5H327.449V369ZM327.5 369L328.866 368.379L328.466 367.5H327.5V369ZM337.5 391V392.5H339.83L338.866 390.379L337.5 391ZM337 391V389.5H335.5V391H337ZM96.8287 387.168L97.9076 388.211L98.0772 388.035L98.1824 387.815L96.8287 387.168ZM105.5 369V367.5H104.554L104.146 368.354L105.5 369ZM116.306 360.619C113.262 361.706 110.686 362.868 108.671 364.106C106.677 365.33 105.106 366.705 104.238 368.274L106.863 369.726C107.37 368.81 108.442 367.767 110.241 366.662C112.018 365.571 114.385 364.491 117.315 363.445L116.306 360.619ZM119.289 313.037L115.315 361.91L118.305 362.154L122.279 313.28L119.289 313.037ZM119.325 307.939C119.439 309.637 119.427 311.341 119.289 313.037L122.279 313.28C122.429 311.436 122.442 309.584 122.319 307.739L119.325 307.939ZM116.353 263.507L119.325 307.939L122.319 307.739L119.347 263.307L116.353 263.507ZM213.636 159.5C157.227 159.5 112.589 207.224 116.353 263.507L119.347 263.307C115.698 208.756 158.963 162.5 213.636 162.5L213.636 159.5ZM219.364 159.5L213.636 159.5L213.636 162.5L219.364 162.5L219.364 159.5ZM316.647 263.507C320.411 207.224 275.773 159.5 219.364 159.5L219.364 162.5C274.037 162.5 317.302 208.756 313.653 263.307L316.647 263.507ZM313.675 307.939L316.647 263.507L313.653 263.307L310.681 307.739L313.675 307.939ZM313.711 313.037C313.573 311.341 313.561 309.637 313.675 307.939L310.681 307.739C310.558 309.584 310.571 311.436 310.721 313.28L313.711 313.037ZM317.685 361.91L313.711 313.037L310.721 313.28L314.695 362.154L317.685 361.91ZM328.762 368.274C327.894 366.705 326.323 365.33 324.329 364.106C322.314 362.868 319.738 361.706 316.694 360.619L315.685 363.445C318.615 364.491 320.982 365.571 322.759 366.662C324.558 367.767 325.63 368.81 326.137 369.726L328.762 368.274ZM327.5 367.5H327.449V370.5H327.5V367.5ZM338.866 390.379L328.866 368.379L326.134 369.621L336.134 391.621L338.866 390.379ZM337 392.5H337.5V389.5H337V392.5ZM335.5 391C335.5 391.918 334.993 393.026 333.545 394.312C332.103 395.594 329.89 396.9 326.899 398.185C320.928 400.752 312.196 403.098 301.292 405.081C279.508 409.041 249.352 411.5 216 411.5V414.5C249.475 414.5 279.819 412.034 301.828 408.032C312.821 406.034 321.809 403.639 328.084 400.941C331.215 399.595 333.756 398.138 335.538 396.555C337.314 394.977 338.5 393.12 338.5 391H335.5ZM216 411.5C182.648 411.5 152.492 409.041 130.708 405.081C119.804 403.098 111.072 400.752 105.101 398.185C102.11 396.9 99.8965 395.594 98.4546 394.312C97.0065 393.026 96.5 391.918 96.5 391H93.5C93.5 393.12 94.6864 394.977 96.462 396.555C98.2437 398.138 100.785 399.595 103.916 400.941C110.191 403.639 119.179 406.034 130.172 408.032C152.181 412.034 182.525 414.5 216 414.5V411.5ZM96.5 391C96.5 390.209 96.8728 389.282 97.9076 388.211L95.7498 386.126C94.3808 387.544 93.5 389.178 93.5 391H96.5ZM104.146 368.354L95.475 386.522L98.1824 387.815L106.854 369.646L104.146 368.354ZM105.551 367.5H105.5V370.5H105.551V367.5Z" fill="black" mask="url(#path-1-inside-1_92_13892)"/>
<path d="M234.364 156.75L228.636 156.75C173.529 156.75 129.92 203.373 133.598 258.357L136.57 302.789C136.691 304.597 136.678 306.412 136.531 308.219L131.813 366.25L331.187 366.25L326.469 308.219C326.322 306.413 326.309 304.597 326.43 302.789L329.402 258.357C333.08 203.373 289.471 156.75 234.364 156.75Z" fill="#FFD789" stroke="black" stroke-width="1.5"/>
<rect x="0.75" y="-0.75" width="32.5" height="69.5" rx="16.25" transform="matrix(1 -1.19209e-07 -9.8538e-08 -1 163 287.5)" fill="white" stroke="black" stroke-width="1.5"/>
<rect x="0.75" y="-0.75" width="32.5" height="23.5" rx="11.75" transform="matrix(1 -1.19209e-07 -9.8538e-08 -1 163 320.5)" fill="white" stroke="black" stroke-width="1.5"/>
<mask id="path-6-inside-2_92_13892" fill="white">
<path fill-rule="evenodd" clip-rule="evenodd" d="M120.551 364C126.145 353.893 173.683 346 231.5 346C289.317 346 336.855 353.893 342.449 364H342.5L352.5 386H231.5H110L120.5 364H120.551Z"/>
</mask>
<path fill-rule="evenodd" clip-rule="evenodd" d="M120.551 364C126.145 353.893 173.683 346 231.5 346C289.317 346 336.855 353.893 342.449 364H342.5L352.5 386H231.5H110L120.5 364H120.551Z" fill="#FFD789"/>
<path d="M120.551 364V365.5C121.096 365.5 121.599 365.204 121.863 364.726L120.551 364ZM342.449 364L341.137 364.726C341.401 365.204 341.904 365.5 342.449 365.5V364ZM342.5 364L343.866 363.379C343.622 362.844 343.088 362.5 342.5 362.5V364ZM352.5 386V387.5C353.01 387.5 353.485 387.241 353.761 386.812C354.037 386.383 354.077 385.844 353.866 385.379L352.5 386ZM110 386L108.646 385.354C108.424 385.819 108.457 386.365 108.731 386.8C109.006 387.236 109.485 387.5 110 387.5V386ZM120.5 364V362.5C119.922 362.5 119.395 362.832 119.146 363.354L120.5 364ZM121.863 364.726C122.379 363.794 123.479 362.732 125.331 361.607C127.16 360.497 129.597 359.399 132.614 358.339C138.644 356.218 146.822 354.302 156.684 352.69C176.396 349.47 202.651 347.5 231.5 347.5V344.5C202.533 344.5 176.11 346.477 156.2 349.73C146.251 351.355 137.881 353.307 131.618 355.509C128.488 356.609 125.842 357.787 123.774 359.043C121.73 360.284 120.12 361.68 119.238 363.274L121.863 364.726ZM231.5 347.5C260.349 347.5 286.604 349.47 306.316 352.69C316.178 354.302 324.356 356.218 330.386 358.339C333.403 359.399 335.84 360.497 337.669 361.607C339.521 362.732 340.621 363.794 341.137 364.726L343.762 363.274C342.88 361.68 341.27 360.284 339.226 359.043C337.158 357.787 334.512 356.609 331.382 355.509C325.119 353.307 316.749 351.355 306.8 349.73C286.89 346.477 260.467 344.5 231.5 344.5V347.5ZM342.449 365.5H342.5V362.5H342.449V365.5ZM341.134 364.621L351.134 386.621L353.866 385.379L343.866 363.379L341.134 364.621ZM352.5 384.5H231.5V387.5H352.5V384.5ZM231.5 384.5H110V387.5H231.5V384.5ZM111.354 386.646L121.854 364.646L119.146 363.354L108.646 385.354L111.354 386.646ZM120.5 365.5H120.551V362.5H120.5V365.5Z" fill="black" mask="url(#path-6-inside-2_92_13892)"/>
<path d="M352.25 386C352.25 387.217 351.571 388.512 350.035 389.872C348.501 391.229 346.196 392.573 343.157 393.874C337.084 396.473 328.252 398.832 317.28 400.818C295.349 404.789 265.021 407.25 231.5 407.25C197.979 407.25 167.651 404.789 145.72 400.818C134.748 398.832 125.916 396.473 119.843 393.874C116.804 392.573 114.499 391.229 112.965 389.872C111.429 388.512 110.75 387.217 110.75 386C110.75 384.783 111.429 383.488 112.965 382.128C114.499 380.771 116.804 379.427 119.843 378.126C125.916 375.527 134.748 373.168 145.72 371.182C167.651 367.211 197.979 364.75 231.5 364.75C265.021 364.75 295.349 367.211 317.28 371.182C328.252 373.168 337.084 375.527 343.157 378.126C346.196 379.427 348.501 380.771 350.035 382.128C351.571 383.488 352.25 384.783 352.25 386Z" fill="#FFD789" stroke="black" stroke-width="1.5"/>
<path d="M335.25 386.5C335.25 387.292 334.738 388.211 333.41 389.23C332.097 390.239 330.114 391.244 327.487 392.219C322.243 394.168 314.612 395.936 305.13 397.426C286.178 400.405 259.968 402.25 231 402.25C202.032 402.25 175.822 400.405 156.87 397.426C147.388 395.936 139.757 394.168 134.513 392.219C131.886 391.244 129.903 390.239 128.59 389.23C127.262 388.211 126.75 387.292 126.75 386.5C126.75 385.708 127.262 384.789 128.59 383.77C129.903 382.761 131.886 381.756 134.513 380.781C139.757 378.832 147.388 377.064 156.87 375.574C175.822 372.595 202.032 370.75 231 370.75C259.968 370.75 286.178 372.595 305.13 375.574C314.612 377.064 322.243 378.832 327.487 380.781C330.114 381.756 332.097 382.761 333.41 383.77C334.738 384.789 335.25 385.708 335.25 386.5Z" fill="black" stroke="black" stroke-width="1.5"/>
<mask id="path-10-inside-3_92_13892" fill="white">
<path fill-rule="evenodd" clip-rule="evenodd" d="M136.267 379.32C129.686 381.503 126 383.948 126 386.53C126 395.751 173.01 403.227 231 403.227C288.99 403.227 336 395.751 336 386.53C336 383.948 332.314 381.503 325.733 379.32C308.812 384.932 272.752 388.807 231 388.807C189.248 388.807 153.188 384.932 136.267 379.32Z"/>
</mask>
<path fill-rule="evenodd" clip-rule="evenodd" d="M136.267 379.32C129.686 381.503 126 383.948 126 386.53C126 395.751 173.01 403.227 231 403.227C288.99 403.227 336 395.751 336 386.53C336 383.948 332.314 381.503 325.733 379.32C308.812 384.932 272.752 388.807 231 388.807C189.248 388.807 153.188 384.932 136.267 379.32Z" fill="#FFD789"/>
<path d="M136.267 379.32L136.739 377.897L136.267 377.74L135.795 377.897L136.267 379.32ZM325.733 379.32L326.205 377.897L325.733 377.74L325.261 377.897L325.733 379.32ZM127.5 386.53C127.5 386.002 127.89 385.136 129.519 384.009C131.092 382.92 133.504 381.817 136.739 380.744L135.795 377.897C132.449 379.006 129.727 380.217 127.812 381.542C125.953 382.828 124.5 384.476 124.5 386.53H127.5ZM231 401.727C202.059 401.727 175.891 399.861 156.989 396.855C147.527 395.35 139.953 393.57 134.779 391.625C132.184 390.649 130.281 389.664 129.054 388.711C127.799 387.736 127.5 386.997 127.5 386.53H124.5C124.5 388.368 125.67 389.881 127.213 391.079C128.783 392.3 131.006 393.411 133.724 394.433C139.176 396.483 146.98 398.301 156.518 399.818C175.619 402.855 201.951 404.727 231 404.727V401.727ZM334.5 386.53C334.5 386.997 334.201 387.736 332.946 388.711C331.719 389.664 329.816 390.649 327.221 391.625C322.047 393.57 314.473 395.35 305.011 396.855C286.109 399.861 259.941 401.727 231 401.727V404.727C260.049 404.727 286.381 402.855 305.482 399.818C315.02 398.301 322.824 396.483 328.276 394.433C330.994 393.411 333.217 392.3 334.787 391.079C336.33 389.881 337.5 388.368 337.5 386.53H334.5ZM325.261 380.744C328.496 381.817 330.908 382.92 332.481 384.009C334.11 385.136 334.5 386.002 334.5 386.53H337.5C337.5 384.476 336.047 382.828 334.188 381.542C332.273 380.217 329.551 379.006 326.205 377.897L325.261 380.744ZM325.261 377.897C308.584 383.427 272.731 387.307 231 387.307V390.307C272.773 390.307 309.04 386.437 326.205 380.744L325.261 377.897ZM231 387.307C189.269 387.307 153.416 383.427 136.739 377.897L135.795 380.744C152.96 386.437 189.227 390.307 231 390.307V387.307Z" fill="black" mask="url(#path-10-inside-3_92_13892)"/>
<mask id="path-12-inside-4_92_13892" fill="white">
<path fill-rule="evenodd" clip-rule="evenodd" d="M182.731 376C180.962 381.004 180 386.39 180 392C180 418.51 201.49 440 228 440C254.51 440 276 418.51 276 392C276 386.39 275.038 381.004 273.269 376H182.731Z"/>
</mask>
<path fill-rule="evenodd" clip-rule="evenodd" d="M182.731 376C180.962 381.004 180 386.39 180 392C180 418.51 201.49 440 228 440C254.51 440 276 418.51 276 392C276 386.39 275.038 381.004 273.269 376H182.731Z" fill="black"/>
<path d="M182.731 376V374.5H181.671L181.317 375.5L182.731 376ZM273.269 376L274.683 375.5L274.329 374.5H273.269V376ZM181.5 392C181.5 386.562 182.433 381.346 184.146 376.5L181.317 375.5C179.492 380.663 178.5 386.217 178.5 392H181.5ZM228 438.5C202.319 438.5 181.5 417.681 181.5 392H178.5C178.5 419.338 200.662 441.5 228 441.5V438.5ZM274.5 392C274.5 417.681 253.681 438.5 228 438.5V441.5C255.338 441.5 277.5 419.338 277.5 392H274.5ZM271.854 376.5C273.567 381.346 274.5 386.562 274.5 392H277.5C277.5 386.217 276.508 380.663 274.683 375.5L271.854 376.5ZM273.269 374.5H182.731V377.5H273.269V374.5Z" fill="black" mask="url(#path-12-inside-4_92_13892)"/>
<mask id="path-14-inside-5_92_13892" fill="white">
<path fill-rule="evenodd" clip-rule="evenodd" d="M188.731 376C186.962 381.004 186 386.39 186 392C186 418.51 207.49 440 234 440C260.51 440 282 418.51 282 392C282 386.39 281.038 381.004 279.269 376H188.731Z"/>
</mask>
<path fill-rule="evenodd" clip-rule="evenodd" d="M188.731 376C186.962 381.004 186 386.39 186 392C186 418.51 207.49 440 234 440C260.51 440 282 418.51 282 392C282 386.39 281.038 381.004 279.269 376H188.731Z" fill="#9296FF"/>
<path d="M188.731 376V374.5H187.671L187.317 375.5L188.731 376ZM279.269 376L280.683 375.5L280.329 374.5H279.269V376ZM187.5 392C187.5 386.562 188.433 381.346 190.146 376.5L187.317 375.5C185.492 380.663 184.5 386.217 184.5 392H187.5ZM234 438.5C208.319 438.5 187.5 417.681 187.5 392H184.5C184.5 419.338 206.662 441.5 234 441.5V438.5ZM280.5 392C280.5 417.681 259.681 438.5 234 438.5V441.5C261.338 441.5 283.5 419.338 283.5 392H280.5ZM277.854 376.5C279.567 381.346 280.5 386.562 280.5 392H283.5C283.5 386.217 282.508 380.663 280.683 375.5L277.854 376.5ZM279.269 374.5H188.731V377.5H279.269V374.5Z" fill="black" mask="url(#path-14-inside-5_92_13892)"/>
<circle cx="302" cy="171" r="98.25" fill="black" stroke="black" stroke-width="1.5"/>
<circle cx="318" cy="171" r="98.25" fill="#9296FF" stroke="black" stroke-width="1.5"/>
<circle cx="318" cy="171" r="76.25" fill="#9296FF" stroke="black" stroke-width="1.5"/>
<mask id="path-19-inside-6_92_13892" fill="white">
<path fill-rule="evenodd" clip-rule="evenodd" d="M402.037 100.116C395.789 93.8681 385.658 93.8681 379.41 100.116L301.721 177.805L262.105 138.189C255.856 131.941 245.726 131.941 239.477 138.189L237.686 139.98C231.438 146.228 231.438 156.359 237.686 162.607L289.958 214.879C291.885 216.806 294.181 218.139 296.619 218.877C302.246 220.86 308.761 219.602 313.262 215.101L403.828 124.535C410.077 118.286 410.077 108.156 403.828 101.907L402.037 100.116Z"/>
</mask>
<path fill-rule="evenodd" clip-rule="evenodd" d="M402.037 100.116C395.789 93.8681 385.658 93.8681 379.41 100.116L301.721 177.805L262.105 138.189C255.856 131.941 245.726 131.941 239.477 138.189L237.686 139.98C231.438 146.228 231.438 156.359 237.686 162.607L289.958 214.879C291.885 216.806 294.181 218.139 296.619 218.877C302.246 220.86 308.761 219.602 313.262 215.101L403.828 124.535C410.077 118.286 410.077 108.156 403.828 101.907L402.037 100.116Z" fill="black"/>
<path d="M379.41 100.116L380.471 101.177L380.471 101.177L379.41 100.116ZM402.037 100.116L400.977 101.177L400.977 101.177L402.037 100.116ZM301.721 177.805L300.66 178.866L301.721 179.927L302.782 178.866L301.721 177.805ZM262.105 138.189L263.165 137.128L263.165 137.128L262.105 138.189ZM239.477 138.189L240.538 139.25L240.538 139.25L239.477 138.189ZM237.686 139.98L236.626 138.919L236.626 138.919L237.686 139.98ZM237.686 162.607L236.626 163.668L236.626 163.668L237.686 162.607ZM289.958 214.879L291.019 213.819L291.019 213.819L289.958 214.879ZM296.619 218.877L297.117 217.463L297.086 217.451L297.054 217.442L296.619 218.877ZM313.262 215.101L314.323 216.161L313.262 215.101ZM403.828 124.535L402.768 123.474L402.768 123.474L403.828 124.535ZM403.828 101.907L404.889 100.847L404.889 100.847L403.828 101.907ZM380.471 101.177C386.133 95.5145 395.314 95.5145 400.977 101.177L403.098 99.0558C396.264 92.2216 385.183 92.2216 378.349 99.0558L380.471 101.177ZM302.782 178.866L380.471 101.177L378.349 99.0558L300.66 176.745L302.782 178.866ZM261.044 139.25L300.66 178.866L302.782 176.745L263.165 137.128L261.044 139.25ZM240.538 139.25C246.2 133.587 255.381 133.587 261.044 139.25L263.165 137.128C256.331 130.294 245.251 130.294 238.417 137.128L240.538 139.25ZM238.747 141.04L240.538 139.25L238.417 137.128L236.626 138.919L238.747 141.04ZM238.747 161.547C233.084 155.884 233.084 146.703 238.747 141.04L236.626 138.919C229.791 145.753 229.791 156.834 236.626 163.668L238.747 161.547ZM291.019 213.819L238.747 161.547L236.626 163.668L288.898 215.94L291.019 213.819ZM297.054 217.442C294.847 216.773 292.767 215.567 291.019 213.819L288.898 215.94C291.003 218.046 293.516 219.505 296.184 220.313L297.054 217.442ZM312.201 214.04C308.124 218.117 302.221 219.261 297.117 217.463L296.12 220.292C302.272 222.46 309.398 221.086 314.323 216.161L312.201 214.04ZM402.768 123.474L312.201 214.04L314.323 216.161L404.889 125.595L402.768 123.474ZM402.768 102.968C408.43 108.631 408.43 117.811 402.768 123.474L404.889 125.595C411.723 118.761 411.723 107.681 404.889 100.847L402.768 102.968ZM400.977 101.177L402.768 102.968L404.889 100.847L403.098 99.0558L400.977 101.177Z" fill="black" mask="url(#path-19-inside-6_92_13892)"/>
<mask id="path-21-inside-7_92_13892" fill="white">
<path fill-rule="evenodd" clip-rule="evenodd" d="M410.967 98.6863C404.719 92.4379 394.588 92.4379 388.34 98.6863L310.651 176.375L271.034 136.759C264.786 130.51 254.655 130.51 248.407 136.759L246.616 138.55C240.368 144.798 240.368 154.929 246.616 161.177L298.888 213.449C300.815 215.376 303.111 216.709 305.548 217.447C311.176 219.43 317.691 218.171 322.192 213.671L412.758 123.105C419.006 116.856 419.006 106.726 412.758 100.477L410.967 98.6863Z"/>
</mask>
<path fill-rule="evenodd" clip-rule="evenodd" d="M410.967 98.6863C404.719 92.4379 394.588 92.4379 388.34 98.6863L310.651 176.375L271.034 136.759C264.786 130.51 254.655 130.51 248.407 136.759L246.616 138.55C240.368 144.798 240.368 154.929 246.616 161.177L298.888 213.449C300.815 215.376 303.111 216.709 305.548 217.447C311.176 219.43 317.691 218.171 322.192 213.671L412.758 123.105C419.006 116.856 419.006 106.726 412.758 100.477L410.967 98.6863Z" fill="#FFD789"/>
<path d="M388.34 98.6863L389.4 99.747L389.4 99.747L388.34 98.6863ZM410.967 98.6863L409.906 99.7469L409.906 99.7469L410.967 98.6863ZM310.651 176.375L309.59 177.436L310.651 178.497L311.711 177.436L310.651 176.375ZM271.034 136.759L272.095 135.698L272.095 135.698L271.034 136.759ZM248.407 136.759L249.468 137.819L249.468 137.819L248.407 136.759ZM246.616 138.55L245.555 137.489L245.555 137.489L246.616 138.55ZM246.616 161.177L245.555 162.238L245.555 162.238L246.616 161.177ZM298.888 213.449L299.949 212.389L299.949 212.389L298.888 213.449ZM305.548 217.447L306.047 216.032L306.015 216.021L305.983 216.012L305.548 217.447ZM322.192 213.671L323.252 214.731L322.192 213.671ZM412.758 123.105L411.697 122.044L411.697 122.044L412.758 123.105ZM412.758 100.477L413.819 99.4165L413.819 99.4165L412.758 100.477ZM389.4 99.747C395.063 94.0844 404.244 94.0843 409.906 99.7469L412.028 97.6256C405.194 90.7914 394.113 90.7915 387.279 97.6256L389.4 99.747ZM311.711 177.436L389.4 99.747L387.279 97.6256L309.59 175.315L311.711 177.436ZM269.974 137.819L309.59 177.436L311.711 175.315L272.095 135.698L269.974 137.819ZM249.468 137.819C255.13 132.157 264.311 132.157 269.974 137.819L272.095 135.698C265.261 128.864 254.18 128.864 247.346 135.698L249.468 137.819ZM247.677 139.61L249.468 137.819L247.346 135.698L245.555 137.489L247.677 139.61ZM247.677 160.116C242.014 154.454 242.014 145.273 247.677 139.61L245.555 137.489C238.721 144.323 238.721 155.404 245.555 162.238L247.677 160.116ZM299.949 212.389L247.677 160.116L245.555 162.238L297.827 214.51L299.949 212.389ZM305.983 216.012C303.776 215.343 301.697 214.137 299.949 212.389L297.827 214.51C299.933 216.615 302.445 218.074 305.113 218.883L305.983 216.012ZM321.131 212.61C317.054 216.687 311.151 217.831 306.047 216.032L305.05 218.862C311.201 221.03 318.328 219.656 323.252 214.731L321.131 212.61ZM411.697 122.044L321.131 212.61L323.252 214.731L413.819 124.165L411.697 122.044ZM411.697 101.538C417.36 107.2 417.36 116.381 411.697 122.044L413.819 124.165C420.653 117.331 420.653 106.251 413.819 99.4165L411.697 101.538ZM409.906 99.7469L411.697 101.538L413.819 99.4165L412.028 97.6256L409.906 99.7469Z" fill="black" mask="url(#path-21-inside-7_92_13892)"/>
<path d="M368.766 375.847C368.838 375.499 369.145 375.25 369.5 375.25C369.855 375.25 370.162 375.499 370.234 375.847L375.484 401.096L401.148 406.265C401.498 406.335 401.75 406.643 401.75 407C401.75 407.357 401.498 407.665 401.148 407.735L375.484 412.904L370.234 438.153C370.162 438.501 369.855 438.75 369.5 438.75C369.145 438.75 368.838 438.501 368.766 438.153L363.516 412.904L337.852 407.735C337.502 407.665 337.25 407.357 337.25 407C337.25 406.643 337.502 406.335 337.852 406.265L363.516 401.096L368.766 375.847Z" fill="white" stroke="black" stroke-width="1.5" stroke-linejoin="round"/>
<path d="M125.766 110.847C125.838 110.499 126.145 110.25 126.5 110.25C126.855 110.25 127.162 110.499 127.234 110.847L132.484 136.096L158.148 141.265C158.498 141.335 158.75 141.643 158.75 142C158.75 142.357 158.498 142.665 158.148 142.735L132.484 147.904L127.234 173.153C127.162 173.501 126.855 173.75 126.5 173.75C126.145 173.75 125.838 173.501 125.766 173.153L120.516 147.904L94.8519 142.735C94.5018 142.665 94.25 142.357 94.25 142C94.25 141.643 94.5018 141.335 94.8519 141.265L120.516 136.096L125.766 110.847Z" fill="white" stroke="black" stroke-width="1.5" stroke-linejoin="round"/>
</svg>
