<svg width="512" height="512" viewBox="0 0 512 512" fill="none" xmlns="http://www.w3.org/2000/svg">
<mask id="path-1-inside-1_92_13855" fill="white">
<path fill-rule="evenodd" clip-rule="evenodd" d="M145.551 334C146.926 331.515 150.836 329.165 156.81 327.032L160.784 278.159C160.928 276.389 160.94 274.61 160.822 272.839L157.85 228.407C154.143 172.99 198.095 126 253.636 126L259.364 126C314.905 126 358.857 172.99 355.15 228.407L352.178 272.839C352.06 274.61 352.072 276.389 352.216 278.159L356.19 327.032C362.164 329.165 366.074 331.515 367.449 334H367.5L377.5 356H377C377 368.15 322.826 378 256 378C189.174 378 135 368.15 135 356C135 354.693 135.627 353.413 136.829 352.168L145.5 334H145.551Z"/>
</mask>
<path fill-rule="evenodd" clip-rule="evenodd" d="M145.551 334C146.926 331.515 150.836 329.165 156.81 327.032L160.784 278.159C160.928 276.389 160.94 274.61 160.822 272.839L157.85 228.407C154.143 172.99 198.095 126 253.636 126L259.364 126C314.905 126 358.857 172.99 355.15 228.407L352.178 272.839C352.06 274.61 352.072 276.389 352.216 278.159L356.19 327.032C362.164 329.165 366.074 331.515 367.449 334H367.5L377.5 356H377C377 368.15 322.826 378 256 378C189.174 378 135 368.15 135 356C135 354.693 135.627 353.413 136.829 352.168L145.5 334H145.551Z" fill="black"/>
<path d="M156.81 327.032L157.315 328.445L158.227 328.119L158.305 327.154L156.81 327.032ZM145.551 334V335.5H146.435L146.863 334.726L145.551 334ZM160.784 278.159L162.279 278.28L162.279 278.28L160.784 278.159ZM160.822 272.839L162.319 272.739L162.319 272.739L160.822 272.839ZM157.85 228.407L159.347 228.307L157.85 228.407ZM253.636 126L253.636 124.5L253.636 126ZM259.364 126L259.364 127.5L259.364 126ZM355.15 228.407L353.653 228.307L353.653 228.307L355.15 228.407ZM352.178 272.839L350.681 272.739L352.178 272.839ZM352.216 278.159L350.721 278.28L350.721 278.28L352.216 278.159ZM356.19 327.032L354.695 327.154L354.773 328.119L355.685 328.445L356.19 327.032ZM367.449 334L366.137 334.726L366.565 335.5H367.449V334ZM367.5 334L368.866 333.379L368.466 332.5H367.5V334ZM377.5 356V357.5H379.83L378.866 355.379L377.5 356ZM377 356V354.5H375.5V356H377ZM136.829 352.168L137.908 353.211L138.077 353.035L138.182 352.815L136.829 352.168ZM145.5 334V332.5H144.554L144.146 333.354L145.5 334ZM156.306 325.619C153.262 326.706 150.686 327.868 148.671 329.106C146.677 330.33 145.106 331.705 144.238 333.274L146.863 334.726C147.37 333.81 148.442 332.767 150.241 331.662C152.018 330.571 154.385 329.491 157.315 328.445L156.306 325.619ZM159.289 278.037L155.315 326.91L158.305 327.154L162.279 278.28L159.289 278.037ZM159.325 272.939C159.439 274.637 159.427 276.341 159.289 278.037L162.279 278.28C162.429 276.436 162.442 274.584 162.319 272.739L159.325 272.939ZM156.353 228.507L159.325 272.939L162.319 272.739L159.347 228.307L156.353 228.507ZM253.636 124.5C197.227 124.5 152.589 172.224 156.353 228.507L159.347 228.307C155.698 173.756 198.963 127.5 253.636 127.5L253.636 124.5ZM259.364 124.5L253.636 124.5L253.636 127.5L259.364 127.5L259.364 124.5ZM356.647 228.507C360.411 172.224 315.773 124.5 259.364 124.5L259.364 127.5C314.037 127.5 357.302 173.756 353.653 228.307L356.647 228.507ZM353.675 272.939L356.647 228.507L353.653 228.307L350.681 272.739L353.675 272.939ZM353.711 278.037C353.573 276.341 353.561 274.637 353.675 272.939L350.681 272.739C350.558 274.584 350.571 276.436 350.721 278.28L353.711 278.037ZM357.685 326.91L353.711 278.037L350.721 278.28L354.695 327.154L357.685 326.91ZM368.762 333.274C367.894 331.705 366.323 330.33 364.329 329.106C362.314 327.868 359.738 326.706 356.694 325.619L355.685 328.445C358.615 329.491 360.982 330.571 362.759 331.662C364.558 332.767 365.63 333.81 366.137 334.726L368.762 333.274ZM367.5 332.5H367.449V335.5H367.5V332.5ZM378.866 355.379L368.866 333.379L366.134 334.621L376.134 356.621L378.866 355.379ZM377 357.5H377.5V354.5H377V357.5ZM375.5 356C375.5 356.918 374.993 358.026 373.545 359.312C372.103 360.594 369.89 361.9 366.899 363.185C360.928 365.752 352.196 368.098 341.292 370.081C319.508 374.041 289.352 376.5 256 376.5V379.5C289.475 379.5 319.819 377.034 341.828 373.032C352.821 371.034 361.809 368.639 368.084 365.941C371.215 364.595 373.756 363.138 375.538 361.555C377.314 359.977 378.5 358.12 378.5 356H375.5ZM256 376.5C222.648 376.5 192.492 374.041 170.708 370.081C159.804 368.098 151.072 365.752 145.101 363.185C142.11 361.9 139.897 360.594 138.455 359.312C137.007 358.026 136.5 356.918 136.5 356H133.5C133.5 358.12 134.686 359.977 136.462 361.555C138.244 363.138 140.785 364.595 143.916 365.941C150.191 368.639 159.179 371.034 170.172 373.032C192.181 377.034 222.525 379.5 256 379.5V376.5ZM136.5 356C136.5 355.209 136.873 354.282 137.908 353.211L135.75 351.126C134.381 352.544 133.5 354.178 133.5 356H136.5ZM144.146 333.354L135.475 351.522L138.182 352.815L146.854 334.646L144.146 333.354ZM145.551 332.5H145.5V335.5H145.551V332.5Z" fill="black" mask="url(#path-1-inside-1_92_13855)"/>
<mask id="path-3-inside-2_92_13855" fill="white">
<path fill-rule="evenodd" clip-rule="evenodd" d="M249 94L249 201L249.194 201C249.194 201.046 249.194 201.091 249.194 201.137C249.194 209.421 255.686 216.137 263.694 216.137C271.702 216.137 278.194 209.421 278.194 201.137C278.194 200.3 278.128 199.479 278 198.679L278 94.0073C278 94.0048 278 94.0024 278 94C278 86.268 271.508 80 263.5 80C255.492 80 249 86.268 249 94Z"/>
</mask>
<path fill-rule="evenodd" clip-rule="evenodd" d="M249 94L249 201L249.194 201C249.194 201.046 249.194 201.091 249.194 201.137C249.194 209.421 255.686 216.137 263.694 216.137C271.702 216.137 278.194 209.421 278.194 201.137C278.194 200.3 278.128 199.479 278 198.679L278 94.0073C278 94.0048 278 94.0024 278 94C278 86.268 271.508 80 263.5 80C255.492 80 249 86.268 249 94Z" fill="black"/>
<path d="M249 201L247.5 201L247.5 202.5L249 202.5L249 201ZM249 94L247.5 94L247.5 94L249 94ZM249.194 201L250.694 201.013L250.707 199.5L249.194 199.5L249.194 201ZM278 198.679L276.5 198.679L276.5 198.797L276.519 198.915L278 198.679ZM278 94.0073L276.5 94.0073L278 94.0073ZM278 94L276.5 94V94L278 94ZM250.5 201L250.5 94L247.5 94L247.5 201L250.5 201ZM249.194 199.5L249 199.5L249 202.5L249.194 202.5L249.194 199.5ZM247.694 200.987C247.694 201.037 247.694 201.087 247.694 201.137L250.694 201.137C250.694 201.096 250.694 201.054 250.694 201.013L247.694 200.987ZM247.694 201.137C247.694 210.202 254.81 217.637 263.694 217.637L263.694 214.637C256.562 214.637 250.694 208.641 250.694 201.137L247.694 201.137ZM263.694 217.637C272.578 217.637 279.694 210.202 279.694 201.137L276.694 201.137C276.694 208.641 270.826 214.637 263.694 214.637L263.694 217.637ZM279.694 201.137C279.694 200.221 279.621 199.32 279.481 198.442L276.519 198.915C276.634 199.637 276.694 200.379 276.694 201.137L279.694 201.137ZM276.5 94.0073L276.5 198.679L279.5 198.679L279.5 94.0073L276.5 94.0073ZM279.5 94.0073C279.5 94.0072 279.5 94.0072 279.5 94.0072C279.5 94.0072 279.5 94.0072 279.5 94.0072C279.5 94.0072 279.5 94.0072 279.5 94.0072C279.5 94.0072 279.5 94.0072 279.5 94.0072C279.5 94.0072 279.5 94.0072 279.5 94.0072C279.5 94.0072 279.5 94.0072 279.5 94.0072C279.5 94.0072 279.5 94.0072 279.5 94.0072C279.5 94.0072 279.5 94.0071 279.5 94.0071C279.5 94.0071 279.5 94.0071 279.5 94.0071C279.5 94.0071 279.5 94.0071 279.5 94.0071C279.5 94.0071 279.5 94.0071 279.5 94.0071C279.5 94.0071 279.5 94.0071 279.5 94.0071C279.5 94.0071 279.5 94.0071 279.5 94.0071C279.5 94.0071 279.5 94.0071 279.5 94.0071C279.5 94.0071 279.5 94.007 279.5 94.007C279.5 94.007 279.5 94.007 279.5 94.007C279.5 94.007 279.5 94.007 279.5 94.007C279.5 94.007 279.5 94.007 279.5 94.007C279.5 94.007 279.5 94.007 279.5 94.007C279.5 94.007 279.5 94.007 279.5 94.007C279.5 94.007 279.5 94.007 279.5 94.007C279.5 94.007 279.5 94.0069 279.5 94.0069C279.5 94.0069 279.5 94.0069 279.5 94.0069C279.5 94.0069 279.5 94.0069 279.5 94.0069C279.5 94.0069 279.5 94.0069 279.5 94.0069C279.5 94.0069 279.5 94.0069 279.5 94.0069C279.5 94.0069 279.5 94.0069 279.5 94.0069C279.5 94.0069 279.5 94.0069 279.5 94.0069C279.5 94.0069 279.5 94.0068 279.5 94.0068C279.5 94.0068 279.5 94.0068 279.5 94.0068C279.5 94.0068 279.5 94.0068 279.5 94.0068C279.5 94.0068 279.5 94.0068 279.5 94.0068C279.5 94.0068 279.5 94.0068 279.5 94.0068C279.5 94.0068 279.5 94.0068 279.5 94.0068C279.5 94.0068 279.5 94.0068 279.5 94.0068C279.5 94.0068 279.5 94.0067 279.5 94.0067C279.5 94.0067 279.5 94.0067 279.5 94.0067C279.5 94.0067 279.5 94.0067 279.5 94.0067C279.5 94.0067 279.5 94.0067 279.5 94.0067C279.5 94.0067 279.5 94.0067 279.5 94.0067C279.5 94.0067 279.5 94.0067 279.5 94.0067C279.5 94.0067 279.5 94.0067 279.5 94.0067C279.5 94.0067 279.5 94.0066 279.5 94.0066C279.5 94.0066 279.5 94.0066 279.5 94.0066C279.5 94.0066 279.5 94.0066 279.5 94.0066C279.5 94.0066 279.5 94.0066 279.5 94.0066C279.5 94.0066 279.5 94.0066 279.5 94.0066C279.5 94.0066 279.5 94.0066 279.5 94.0066C279.5 94.0066 279.5 94.0066 279.5 94.0066C279.5 94.0066 279.5 94.0066 279.5 94.0065C279.5 94.0065 279.5 94.0065 279.5 94.0065C279.5 94.0065 279.5 94.0065 279.5 94.0065C279.5 94.0065 279.5 94.0065 279.5 94.0065C279.5 94.0065 279.5 94.0065 279.5 94.0065C279.5 94.0065 279.5 94.0065 279.5 94.0065C279.5 94.0065 279.5 94.0065 279.5 94.0065C279.5 94.0065 279.5 94.0065 279.5 94.0064C279.5 94.0064 279.5 94.0064 279.5 94.0064C279.5 94.0064 279.5 94.0064 279.5 94.0064C279.5 94.0064 279.5 94.0064 279.5 94.0064C279.5 94.0064 279.5 94.0064 279.5 94.0064C279.5 94.0064 279.5 94.0064 279.5 94.0064C279.5 94.0064 279.5 94.0064 279.5 94.0064C279.5 94.0064 279.5 94.0064 279.5 94.0063C279.5 94.0063 279.5 94.0063 279.5 94.0063C279.5 94.0063 279.5 94.0063 279.5 94.0063C279.5 94.0063 279.5 94.0063 279.5 94.0063C279.5 94.0063 279.5 94.0063 279.5 94.0063C279.5 94.0063 279.5 94.0063 279.5 94.0063C279.5 94.0063 279.5 94.0063 279.5 94.0063C279.5 94.0063 279.5 94.0063 279.5 94.0062C279.5 94.0062 279.5 94.0062 279.5 94.0062C279.5 94.0062 279.5 94.0062 279.5 94.0062C279.5 94.0062 279.5 94.0062 279.5 94.0062C279.5 94.0062 279.5 94.0062 279.5 94.0062C279.5 94.0062 279.5 94.0062 279.5 94.0062C279.5 94.0062 279.5 94.0062 279.5 94.0062C279.5 94.0062 279.5 94.0062 279.5 94.0061C279.5 94.0061 279.5 94.0061 279.5 94.0061C279.5 94.0061 279.5 94.0061 279.5 94.0061C279.5 94.0061 279.5 94.0061 279.5 94.0061C279.5 94.0061 279.5 94.0061 279.5 94.0061C279.5 94.0061 279.5 94.0061 279.5 94.0061C279.5 94.0061 279.5 94.0061 279.5 94.0061C279.5 94.0061 279.5 94.0061 279.5 94.006C279.5 94.006 279.5 94.006 279.5 94.006C279.5 94.006 279.5 94.006 279.5 94.006C279.5 94.006 279.5 94.006 279.5 94.006C279.5 94.006 279.5 94.006 279.5 94.006C279.5 94.006 279.5 94.006 279.5 94.006C279.5 94.006 279.5 94.006 279.5 94.006C279.5 94.006 279.5 94.006 279.5 94.006C279.5 94.0059 279.5 94.0059 279.5 94.0059C279.5 94.0059 279.5 94.0059 279.5 94.0059C279.5 94.0059 279.5 94.0059 279.5 94.0059C279.5 94.0059 279.5 94.0059 279.5 94.0059C279.5 94.0059 279.5 94.0059 279.5 94.0059C279.5 94.0059 279.5 94.0059 279.5 94.0059C279.5 94.0059 279.5 94.0059 279.5 94.0059C279.5 94.0058 279.5 94.0058 279.5 94.0058C279.5 94.0058 279.5 94.0058 279.5 94.0058C279.5 94.0058 279.5 94.0058 279.5 94.0058C279.5 94.0058 279.5 94.0058 279.5 94.0058C279.5 94.0058 279.5 94.0058 279.5 94.0058C279.5 94.0058 279.5 94.0058 279.5 94.0058C279.5 94.0058 279.5 94.0058 279.5 94.0058C279.5 94.0057 279.5 94.0057 279.5 94.0057C279.5 94.0057 279.5 94.0057 279.5 94.0057C279.5 94.0057 279.5 94.0057 279.5 94.0057C279.5 94.0057 279.5 94.0057 279.5 94.0057C279.5 94.0057 279.5 94.0057 279.5 94.0057C279.5 94.0057 279.5 94.0057 279.5 94.0057C279.5 94.0057 279.5 94.0057 279.5 94.0057C279.5 94.0056 279.5 94.0056 279.5 94.0056C279.5 94.0056 279.5 94.0056 279.5 94.0056C279.5 94.0056 279.5 94.0056 279.5 94.0056C279.5 94.0056 279.5 94.0056 279.5 94.0056C279.5 94.0056 279.5 94.0056 279.5 94.0056C279.5 94.0056 279.5 94.0056 279.5 94.0056C279.5 94.0056 279.5 94.0056 279.5 94.0056C279.5 94.0055 279.5 94.0055 279.5 94.0055C279.5 94.0055 279.5 94.0055 279.5 94.0055C279.5 94.0055 279.5 94.0055 279.5 94.0055C279.5 94.0055 279.5 94.0055 279.5 94.0055C279.5 94.0055 279.5 94.0055 279.5 94.0055C279.5 94.0055 279.5 94.0055 279.5 94.0055C279.5 94.0055 279.5 94.0055 279.5 94.0055C279.5 94.0054 279.5 94.0054 279.5 94.0054C279.5 94.0054 279.5 94.0054 279.5 94.0054C279.5 94.0054 279.5 94.0054 279.5 94.0054C279.5 94.0054 279.5 94.0054 279.5 94.0054C279.5 94.0054 279.5 94.0054 279.5 94.0054C279.5 94.0054 279.5 94.0054 279.5 94.0054C279.5 94.0054 279.5 94.0054 279.5 94.0054C279.5 94.0054 279.5 94.0053 279.5 94.0053C279.5 94.0053 279.5 94.0053 279.5 94.0053C279.5 94.0053 279.5 94.0053 279.5 94.0053C279.5 94.0053 279.5 94.0053 279.5 94.0053C279.5 94.0053 279.5 94.0053 279.5 94.0053C279.5 94.0053 279.5 94.0053 279.5 94.0053C279.5 94.0053 279.5 94.0053 279.5 94.0053C279.5 94.0053 279.5 94.0052 279.5 94.0052C279.5 94.0052 279.5 94.0052 279.5 94.0052C279.5 94.0052 279.5 94.0052 279.5 94.0052C279.5 94.0052 279.5 94.0052 279.5 94.0052C279.5 94.0052 279.5 94.0052 279.5 94.0052C279.5 94.0052 279.5 94.0052 279.5 94.0052C279.5 94.0052 279.5 94.0052 279.5 94.0052C279.5 94.0052 279.5 94.0051 279.5 94.0051C279.5 94.0051 279.5 94.0051 279.5 94.0051C279.5 94.0051 279.5 94.0051 279.5 94.0051C279.5 94.0051 279.5 94.0051 279.5 94.0051C279.5 94.0051 279.5 94.0051 279.5 94.0051C279.5 94.0051 279.5 94.0051 279.5 94.0051C279.5 94.0051 279.5 94.0051 279.5 94.0051C279.5 94.0051 279.5 94.005 279.5 94.005C279.5 94.005 279.5 94.005 279.5 94.005C279.5 94.005 279.5 94.005 279.5 94.005C279.5 94.005 279.5 94.005 279.5 94.005C279.5 94.005 279.5 94.005 279.5 94.005C279.5 94.005 279.5 94.005 279.5 94.005C279.5 94.005 279.5 94.005 279.5 94.005C279.5 94.005 279.5 94.0049 279.5 94.0049C279.5 94.0049 279.5 94.0049 279.5 94.0049C279.5 94.0049 279.5 94.0049 279.5 94.0049C279.5 94.0049 279.5 94.0049 279.5 94.0049C279.5 94.0049 279.5 94.0049 279.5 94.0049C279.5 94.0049 279.5 94.0049 279.5 94.0049C279.5 94.0049 279.5 94.0049 279.5 94.0049C279.5 94.0049 279.5 94.0048 279.5 94.0048C279.5 94.0048 279.5 94.0048 279.5 94.0048C279.5 94.0048 279.5 94.0048 279.5 94.0048C279.5 94.0048 279.5 94.0048 279.5 94.0048C279.5 94.0048 279.5 94.0048 279.5 94.0048C279.5 94.0048 279.5 94.0048 279.5 94.0048C279.5 94.0048 279.5 94.0048 279.5 94.0048C279.5 94.0048 279.5 94.0048 279.5 94.0047C279.5 94.0047 279.5 94.0047 279.5 94.0047C279.5 94.0047 279.5 94.0047 279.5 94.0047C279.5 94.0047 279.5 94.0047 279.5 94.0047C279.5 94.0047 279.5 94.0047 279.5 94.0047C279.5 94.0047 279.5 94.0047 279.5 94.0047C279.5 94.0047 279.5 94.0047 279.5 94.0047C279.5 94.0047 279.5 94.0047 279.5 94.0046C279.5 94.0046 279.5 94.0046 279.5 94.0046C279.5 94.0046 279.5 94.0046 279.5 94.0046C279.5 94.0046 279.5 94.0046 279.5 94.0046C279.5 94.0046 279.5 94.0046 279.5 94.0046C279.5 94.0046 279.5 94.0046 279.5 94.0046C279.5 94.0046 279.5 94.0046 279.5 94.0046C279.5 94.0046 279.5 94.0046 279.5 94.0045C279.5 94.0045 279.5 94.0045 279.5 94.0045C279.5 94.0045 279.5 94.0045 279.5 94.0045C279.5 94.0045 279.5 94.0045 279.5 94.0045C279.5 94.0045 279.5 94.0045 279.5 94.0045C279.5 94.0045 279.5 94.0045 279.5 94.0045C279.5 94.0045 279.5 94.0045 279.5 94.0045C279.5 94.0045 279.5 94.0045 279.5 94.0044C279.5 94.0044 279.5 94.0044 279.5 94.0044C279.5 94.0044 279.5 94.0044 279.5 94.0044C279.5 94.0044 279.5 94.0044 279.5 94.0044C279.5 94.0044 279.5 94.0044 279.5 94.0044C279.5 94.0044 279.5 94.0044 279.5 94.0044C279.5 94.0044 279.5 94.0044 279.5 94.0044C279.5 94.0044 279.5 94.0044 279.5 94.0043C279.5 94.0043 279.5 94.0043 279.5 94.0043C279.5 94.0043 279.5 94.0043 279.5 94.0043C279.5 94.0043 279.5 94.0043 279.5 94.0043C279.5 94.0043 279.5 94.0043 279.5 94.0043C279.5 94.0043 279.5 94.0043 279.5 94.0043C279.5 94.0043 279.5 94.0043 279.5 94.0043C279.5 94.0043 279.5 94.0043 279.5 94.0042C279.5 94.0042 279.5 94.0042 279.5 94.0042C279.5 94.0042 279.5 94.0042 279.5 94.0042C279.5 94.0042 279.5 94.0042 279.5 94.0042C279.5 94.0042 279.5 94.0042 279.5 94.0042C279.5 94.0042 279.5 94.0042 279.5 94.0042C279.5 94.0042 279.5 94.0042 279.5 94.0042C279.5 94.0042 279.5 94.0042 279.5 94.0042C279.5 94.0041 279.5 94.0041 279.5 94.0041C279.5 94.0041 279.5 94.0041 279.5 94.0041C279.5 94.0041 279.5 94.0041 279.5 94.0041C279.5 94.0041 279.5 94.0041 279.5 94.0041C279.5 94.0041 279.5 94.0041 279.5 94.0041C279.5 94.0041 279.5 94.0041 279.5 94.0041C279.5 94.0041 279.5 94.0041 279.5 94.0041C279.5 94.004 279.5 94.004 279.5 94.004C279.5 94.004 279.5 94.004 279.5 94.004C279.5 94.004 279.5 94.004 279.5 94.004C279.5 94.004 279.5 94.004 279.5 94.004C279.5 94.004 279.5 94.004 279.5 94.004C279.5 94.004 279.5 94.004 279.5 94.004C279.5 94.004 279.5 94.004 279.5 94.004C279.5 94.0039 279.5 94.0039 279.5 94.0039C279.5 94.0039 279.5 94.0039 279.5 94.0039C279.5 94.0039 279.5 94.0039 279.5 94.0039C279.5 94.0039 279.5 94.0039 279.5 94.0039C279.5 94.0039 279.5 94.0039 279.5 94.0039C279.5 94.0039 279.5 94.0039 279.5 94.0039C279.5 94.0039 279.5 94.0039 279.5 94.0039C279.5 94.0038 279.5 94.0038 279.5 94.0038C279.5 94.0038 279.5 94.0038 279.5 94.0038C279.5 94.0038 279.5 94.0038 279.5 94.0038C279.5 94.0038 279.5 94.0038 279.5 94.0038C279.5 94.0038 279.5 94.0038 279.5 94.0038C279.5 94.0038 279.5 94.0038 279.5 94.0038C279.5 94.0038 279.5 94.0038 279.5 94.0038C279.5 94.0037 279.5 94.0037 279.5 94.0037C279.5 94.0037 279.5 94.0037 279.5 94.0037C279.5 94.0037 279.5 94.0037 279.5 94.0037C279.5 94.0037 279.5 94.0037 279.5 94.0037C279.5 94.0037 279.5 94.0037 279.5 94.0037C279.5 94.0037 279.5 94.0037 279.5 94.0037C279.5 94.0037 279.5 94.0037 279.5 94.0037C279.5 94.0037 279.5 94.0036 279.5 94.0036C279.5 94.0036 279.5 94.0036 279.5 94.0036C279.5 94.0036 279.5 94.0036 279.5 94.0036C279.5 94.0036 279.5 94.0036 279.5 94.0036C279.5 94.0036 279.5 94.0036 279.5 94.0036C279.5 94.0036 279.5 94.0036 279.5 94.0036C279.5 94.0036 279.5 94.0036 279.5 94.0036C279.5 94.0036 279.5 94.0035 279.5 94.0035C279.5 94.0035 279.5 94.0035 279.5 94.0035C279.5 94.0035 279.5 94.0035 279.5 94.0035C279.5 94.0035 279.5 94.0035 279.5 94.0035C279.5 94.0035 279.5 94.0035 279.5 94.0035C279.5 94.0035 279.5 94.0035 279.5 94.0035C279.5 94.0035 279.5 94.0035 279.5 94.0035C279.5 94.0035 279.5 94.0034 279.5 94.0034C279.5 94.0034 279.5 94.0034 279.5 94.0034C279.5 94.0034 279.5 94.0034 279.5 94.0034C279.5 94.0034 279.5 94.0034 279.5 94.0034C279.5 94.0034 279.5 94.0034 279.5 94.0034C279.5 94.0034 279.5 94.0034 279.5 94.0034C279.5 94.0034 279.5 94.0034 279.5 94.0034C279.5 94.0034 279.5 94.0033 279.5 94.0033C279.5 94.0033 279.5 94.0033 279.5 94.0033C279.5 94.0033 279.5 94.0033 279.5 94.0033C279.5 94.0033 279.5 94.0033 279.5 94.0033C279.5 94.0033 279.5 94.0033 279.5 94.0033C279.5 94.0033 279.5 94.0033 279.5 94.0033C279.5 94.0033 279.5 94.0033 279.5 94.0033C279.5 94.0033 279.5 94.0032 279.5 94.0032C279.5 94.0032 279.5 94.0032 279.5 94.0032C279.5 94.0032 279.5 94.0032 279.5 94.0032C279.5 94.0032 279.5 94.0032 279.5 94.0032C279.5 94.0032 279.5 94.0032 279.5 94.0032C279.5 94.0032 279.5 94.0032 279.5 94.0032C279.5 94.0032 279.5 94.0032 279.5 94.0032C279.5 94.0032 279.5 94.0031 279.5 94.0031C279.5 94.0031 279.5 94.0031 279.5 94.0031C279.5 94.0031 279.5 94.0031 279.5 94.0031C279.5 94.0031 279.5 94.0031 279.5 94.0031C279.5 94.0031 279.5 94.0031 279.5 94.0031C279.5 94.0031 279.5 94.0031 279.5 94.0031C279.5 94.0031 279.5 94.0031 279.5 94.0031C279.5 94.0031 279.5 94.0031 279.5 94.003C279.5 94.003 279.5 94.003 279.5 94.003C279.5 94.003 279.5 94.003 279.5 94.003C279.5 94.003 279.5 94.003 279.5 94.003C279.5 94.003 279.5 94.003 279.5 94.003C279.5 94.003 279.5 94.003 279.5 94.003C279.5 94.003 279.5 94.003 279.5 94.003C279.5 94.003 279.5 94.003 279.5 94.0029C279.5 94.0029 279.5 94.0029 279.5 94.0029C279.5 94.0029 279.5 94.0029 279.5 94.0029C279.5 94.0029 279.5 94.0029 279.5 94.0029C279.5 94.0029 279.5 94.0029 279.5 94.0029C279.5 94.0029 279.5 94.0029 279.5 94.0029C279.5 94.0029 279.5 94.0029 279.5 94.0029C279.5 94.0029 279.5 94.0029 279.5 94.0028C279.5 94.0028 279.5 94.0028 279.5 94.0028C279.5 94.0028 279.5 94.0028 279.5 94.0028C279.5 94.0028 279.5 94.0028 279.5 94.0028C279.5 94.0028 279.5 94.0028 279.5 94.0028C279.5 94.0028 279.5 94.0028 279.5 94.0028C279.5 94.0028 279.5 94.0028 279.5 94.0028C279.5 94.0028 279.5 94.0028 279.5 94.0027C279.5 94.0027 279.5 94.0027 279.5 94.0027C279.5 94.0027 279.5 94.0027 279.5 94.0027C279.5 94.0027 279.5 94.0027 279.5 94.0027C279.5 94.0027 279.5 94.0027 279.5 94.0027C279.5 94.0027 279.5 94.0027 279.5 94.0027C279.5 94.0027 279.5 94.0027 279.5 94.0027C279.5 94.0027 279.5 94.0027 279.5 94.0026C279.5 94.0026 279.5 94.0026 279.5 94.0026C279.5 94.0026 279.5 94.0026 279.5 94.0026C279.5 94.0026 279.5 94.0026 279.5 94.0026C279.5 94.0026 279.5 94.0026 279.5 94.0026C279.5 94.0026 279.5 94.0026 279.5 94.0026C279.5 94.0026 279.5 94.0026 279.5 94.0026C279.5 94.0026 279.5 94.0026 279.5 94.0025C279.5 94.0025 279.5 94.0025 279.5 94.0025C279.5 94.0025 279.5 94.0025 279.5 94.0025C279.5 94.0025 279.5 94.0025 279.5 94.0025C279.5 94.0025 279.5 94.0025 279.5 94.0025C279.5 94.0025 279.5 94.0025 279.5 94.0025C279.5 94.0025 279.5 94.0025 279.5 94.0025C279.5 94.0025 279.5 94.0025 279.5 94.0025C279.5 94.0024 279.5 94.0024 279.5 94.0024C279.5 94.0024 279.5 94.0024 279.5 94.0024C279.5 94.0024 279.5 94.0024 279.5 94.0024C279.5 94.0024 279.5 94.0024 279.5 94.0024C279.5 94.0024 279.5 94.0024 279.5 94.0024C279.5 94.0024 279.5 94.0024 279.5 94.0024C279.5 94.0024 279.5 94.0024 279.5 94.0024C279.5 94.0023 279.5 94.0023 279.5 94.0023C279.5 94.0023 279.5 94.0023 279.5 94.0023C279.5 94.0023 279.5 94.0023 279.5 94.0023C279.5 94.0023 279.5 94.0023 279.5 94.0023C279.5 94.0023 279.5 94.0023 279.5 94.0023C279.5 94.0023 279.5 94.0023 279.5 94.0023C279.5 94.0023 279.5 94.0023 279.5 94.0023C279.5 94.0022 279.5 94.0022 279.5 94.0022C279.5 94.0022 279.5 94.0022 279.5 94.0022C279.5 94.0022 279.5 94.0022 279.5 94.0022C279.5 94.0022 279.5 94.0022 279.5 94.0022C279.5 94.0022 279.5 94.0022 279.5 94.0022C279.5 94.0022 279.5 94.0022 279.5 94.0022C279.5 94.0022 279.5 94.0022 279.5 94.0022C279.5 94.0021 279.5 94.0021 279.5 94.0021C279.5 94.0021 279.5 94.0021 279.5 94.0021C279.5 94.0021 279.5 94.0021 279.5 94.0021C279.5 94.0021 279.5 94.0021 279.5 94.0021C279.5 94.0021 279.5 94.0021 279.5 94.0021C279.5 94.0021 279.5 94.0021 279.5 94.0021C279.5 94.0021 279.5 94.0021 279.5 94.0021C279.5 94.002 279.5 94.002 279.5 94.002C279.5 94.002 279.5 94.002 279.5 94.002C279.5 94.002 279.5 94.002 279.5 94.002C279.5 94.002 279.5 94.002 279.5 94.002C279.5 94.002 279.5 94.002 279.5 94.002C279.5 94.002 279.5 94.002 279.5 94.002C279.5 94.002 279.5 94.002 279.5 94.002C279.5 94.0019 279.5 94.0019 279.5 94.0019C279.5 94.0019 279.5 94.0019 279.5 94.0019C279.5 94.0019 279.5 94.0019 279.5 94.0019C279.5 94.0019 279.5 94.0019 279.5 94.0019C279.5 94.0019 279.5 94.0019 279.5 94.0019C279.5 94.0019 279.5 94.0019 279.5 94.0019C279.5 94.0019 279.5 94.0019 279.5 94.0019C279.5 94.0019 279.5 94.0018 279.5 94.0018C279.5 94.0018 279.5 94.0018 279.5 94.0018C279.5 94.0018 279.5 94.0018 279.5 94.0018C279.5 94.0018 279.5 94.0018 279.5 94.0018C279.5 94.0018 279.5 94.0018 279.5 94.0018C279.5 94.0018 279.5 94.0018 279.5 94.0018C279.5 94.0018 279.5 94.0018 279.5 94.0018C279.5 94.0018 279.5 94.0017 279.5 94.0017C279.5 94.0017 279.5 94.0017 279.5 94.0017C279.5 94.0017 279.5 94.0017 279.5 94.0017C279.5 94.0017 279.5 94.0017 279.5 94.0017C279.5 94.0017 279.5 94.0017 279.5 94.0017C279.5 94.0017 279.5 94.0017 279.5 94.0017C279.5 94.0017 279.5 94.0017 279.5 94.0017C279.5 94.0017 279.5 94.0016 279.5 94.0016C279.5 94.0016 279.5 94.0016 279.5 94.0016C279.5 94.0016 279.5 94.0016 279.5 94.0016C279.5 94.0016 279.5 94.0016 279.5 94.0016C279.5 94.0016 279.5 94.0016 279.5 94.0016C279.5 94.0016 279.5 94.0016 279.5 94.0016C279.5 94.0016 279.5 94.0016 279.5 94.0016C279.5 94.0016 279.5 94.0015 279.5 94.0015C279.5 94.0015 279.5 94.0015 279.5 94.0015C279.5 94.0015 279.5 94.0015 279.5 94.0015C279.5 94.0015 279.5 94.0015 279.5 94.0015C279.5 94.0015 279.5 94.0015 279.5 94.0015C279.5 94.0015 279.5 94.0015 279.5 94.0015C279.5 94.0015 279.5 94.0015 279.5 94.0015C279.5 94.0015 279.5 94.0014 279.5 94.0014C279.5 94.0014 279.5 94.0014 279.5 94.0014C279.5 94.0014 279.5 94.0014 279.5 94.0014C279.5 94.0014 279.5 94.0014 279.5 94.0014C279.5 94.0014 279.5 94.0014 279.5 94.0014C279.5 94.0014 279.5 94.0014 279.5 94.0014C279.5 94.0014 279.5 94.0014 279.5 94.0014C279.5 94.0014 279.5 94.0013 279.5 94.0013C279.5 94.0013 279.5 94.0013 279.5 94.0013C279.5 94.0013 279.5 94.0013 279.5 94.0013C279.5 94.0013 279.5 94.0013 279.5 94.0013C279.5 94.0013 279.5 94.0013 279.5 94.0013C279.5 94.0013 279.5 94.0013 279.5 94.0013C279.5 94.0013 279.5 94.0013 279.5 94.0013C279.5 94.0013 279.5 94.0013 279.5 94.0012C279.5 94.0012 279.5 94.0012 279.5 94.0012C279.5 94.0012 279.5 94.0012 279.5 94.0012C279.5 94.0012 279.5 94.0012 279.5 94.0012C279.5 94.0012 279.5 94.0012 279.5 94.0012C279.5 94.0012 279.5 94.0012 279.5 94.0012C279.5 94.0012 279.5 94.0012 279.5 94.0012C279.5 94.0012 279.5 94.0012 279.5 94.0011C279.5 94.0011 279.5 94.0011 279.5 94.0011C279.5 94.0011 279.5 94.0011 279.5 94.0011C279.5 94.0011 279.5 94.0011 279.5 94.0011C279.5 94.0011 279.5 94.0011 279.5 94.0011C279.5 94.0011 279.5 94.0011 279.5 94.0011C279.5 94.0011 279.5 94.0011 279.5 94.0011C279.5 94.0011 279.5 94.0011 279.5 94.001C279.5 94.001 279.5 94.001 279.5 94.001C279.5 94.001 279.5 94.001 279.5 94.001C279.5 94.001 279.5 94.001 279.5 94.001C279.5 94.001 279.5 94.001 279.5 94.001C279.5 94.001 279.5 94.001 279.5 94.001C279.5 94.001 279.5 94.001 279.5 94.001C279.5 94.001 279.5 94.001 279.5 94.0009C279.5 94.0009 279.5 94.0009 279.5 94.0009C279.5 94.0009 279.5 94.0009 279.5 94.0009C279.5 94.0009 279.5 94.0009 279.5 94.0009C279.5 94.0009 279.5 94.0009 279.5 94.0009C279.5 94.0009 279.5 94.0009 279.5 94.0009C279.5 94.0009 279.5 94.0009 279.5 94.0009C279.5 94.0009 279.5 94.0009 279.5 94.0008C279.5 94.0008 279.5 94.0008 279.5 94.0008C279.5 94.0008 279.5 94.0008 279.5 94.0008C279.5 94.0008 279.5 94.0008 279.5 94.0008C279.5 94.0008 279.5 94.0008 279.5 94.0008C279.5 94.0008 279.5 94.0008 279.5 94.0008C279.5 94.0008 279.5 94.0008 279.5 94.0008C279.5 94.0008 279.5 94.0008 279.5 94.0007C279.5 94.0007 279.5 94.0007 279.5 94.0007C279.5 94.0007 279.5 94.0007 279.5 94.0007C279.5 94.0007 279.5 94.0007 279.5 94.0007C279.5 94.0007 279.5 94.0007 279.5 94.0007C279.5 94.0007 279.5 94.0007 279.5 94.0007C279.5 94.0007 279.5 94.0007 279.5 94.0007C279.5 94.0007 279.5 94.0007 279.5 94.0007C279.5 94.0006 279.5 94.0006 279.5 94.0006C279.5 94.0006 279.5 94.0006 279.5 94.0006C279.5 94.0006 279.5 94.0006 279.5 94.0006C279.5 94.0006 279.5 94.0006 279.5 94.0006C279.5 94.0006 279.5 94.0006 279.5 94.0006C279.5 94.0006 279.5 94.0006 279.5 94.0006C279.5 94.0006 279.5 94.0006 279.5 94.0006C279.5 94.0005 279.5 94.0005 279.5 94.0005C279.5 94.0005 279.5 94.0005 279.5 94.0005C279.5 94.0005 279.5 94.0005 279.5 94.0005C279.5 94.0005 279.5 94.0005 279.5 94.0005C279.5 94.0005 279.5 94.0005 279.5 94.0005C279.5 94.0005 279.5 94.0005 279.5 94.0005C279.5 94.0005 279.5 94.0005 279.5 94.0005C279.5 94.0004 279.5 94.0004 279.5 94.0004C279.5 94.0004 279.5 94.0004 279.5 94.0004C279.5 94.0004 279.5 94.0004 279.5 94.0004C279.5 94.0004 279.5 94.0004 279.5 94.0004C279.5 94.0004 279.5 94.0004 279.5 94.0004C279.5 94.0004 279.5 94.0004 279.5 94.0004C279.5 94.0004 279.5 94.0004 279.5 94.0004C279.5 94.0003 279.5 94.0003 279.5 94.0003C279.5 94.0003 279.5 94.0003 279.5 94.0003C279.5 94.0003 279.5 94.0003 279.5 94.0003C279.5 94.0003 279.5 94.0003 279.5 94.0003C279.5 94.0003 279.5 94.0003 279.5 94.0003C279.5 94.0003 279.5 94.0003 279.5 94.0003C279.5 94.0003 279.5 94.0003 279.5 94.0003C279.5 94.0002 279.5 94.0002 279.5 94.0002C279.5 94.0002 279.5 94.0002 279.5 94.0002C279.5 94.0002 279.5 94.0002 279.5 94.0002C279.5 94.0002 279.5 94.0002 279.5 94.0002C279.5 94.0002 279.5 94.0002 279.5 94.0002C279.5 94.0002 279.5 94.0002 279.5 94.0002C279.5 94.0002 279.5 94.0002 279.5 94.0002C279.5 94.0001 279.5 94.0001 279.5 94.0001C279.5 94.0001 279.5 94.0001 279.5 94.0001C279.5 94.0001 279.5 94.0001 279.5 94.0001C279.5 94.0001 279.5 94.0001 279.5 94.0001C279.5 94.0001 279.5 94.0001 279.5 94.0001C279.5 94.0001 279.5 94.0001 279.5 94.0001C279.5 94.0001 279.5 94.0001 279.5 94.0001C279.5 94.0001 279.5 94 279.5 94C279.5 94 279.5 94 279.5 94C279.5 94 279.5 94 279.5 94C279.5 94 279.5 94 279.5 94L276.5 94C276.5 94 276.5 94 276.5 94C276.5 94 276.5 94 276.5 94C276.5 94 276.5 94 276.5 94C276.5 94 276.5 94.0001 276.5 94.0001C276.5 94.0001 276.5 94.0001 276.5 94.0001C276.5 94.0001 276.5 94.0001 276.5 94.0001C276.5 94.0001 276.5 94.0001 276.5 94.0001C276.5 94.0001 276.5 94.0001 276.5 94.0001C276.5 94.0001 276.5 94.0001 276.5 94.0001C276.5 94.0001 276.5 94.0001 276.5 94.0001C276.5 94.0001 276.5 94.0001 276.5 94.0002C276.5 94.0002 276.5 94.0002 276.5 94.0002C276.5 94.0002 276.5 94.0002 276.5 94.0002C276.5 94.0002 276.5 94.0002 276.5 94.0002C276.5 94.0002 276.5 94.0002 276.5 94.0002C276.5 94.0002 276.5 94.0002 276.5 94.0002C276.5 94.0002 276.5 94.0002 276.5 94.0002C276.5 94.0002 276.5 94.0002 276.5 94.0003C276.5 94.0003 276.5 94.0003 276.5 94.0003C276.5 94.0003 276.5 94.0003 276.5 94.0003C276.5 94.0003 276.5 94.0003 276.5 94.0003C276.5 94.0003 276.5 94.0003 276.5 94.0003C276.5 94.0003 276.5 94.0003 276.5 94.0003C276.5 94.0003 276.5 94.0003 276.5 94.0003C276.5 94.0003 276.5 94.0003 276.5 94.0004C276.5 94.0004 276.5 94.0004 276.5 94.0004C276.5 94.0004 276.5 94.0004 276.5 94.0004C276.5 94.0004 276.5 94.0004 276.5 94.0004C276.5 94.0004 276.5 94.0004 276.5 94.0004C276.5 94.0004 276.5 94.0004 276.5 94.0004C276.5 94.0004 276.5 94.0004 276.5 94.0004C276.5 94.0004 276.5 94.0004 276.5 94.0005C276.5 94.0005 276.5 94.0005 276.5 94.0005C276.5 94.0005 276.5 94.0005 276.5 94.0005C276.5 94.0005 276.5 94.0005 276.5 94.0005C276.5 94.0005 276.5 94.0005 276.5 94.0005C276.5 94.0005 276.5 94.0005 276.5 94.0005C276.5 94.0005 276.5 94.0005 276.5 94.0005C276.5 94.0005 276.5 94.0005 276.5 94.0006C276.5 94.0006 276.5 94.0006 276.5 94.0006C276.5 94.0006 276.5 94.0006 276.5 94.0006C276.5 94.0006 276.5 94.0006 276.5 94.0006C276.5 94.0006 276.5 94.0006 276.5 94.0006C276.5 94.0006 276.5 94.0006 276.5 94.0006C276.5 94.0006 276.5 94.0006 276.5 94.0006C276.5 94.0006 276.5 94.0006 276.5 94.0007C276.5 94.0007 276.5 94.0007 276.5 94.0007C276.5 94.0007 276.5 94.0007 276.5 94.0007C276.5 94.0007 276.5 94.0007 276.5 94.0007C276.5 94.0007 276.5 94.0007 276.5 94.0007C276.5 94.0007 276.5 94.0007 276.5 94.0007C276.5 94.0007 276.5 94.0007 276.5 94.0007C276.5 94.0007 276.5 94.0007 276.5 94.0007C276.5 94.0008 276.5 94.0008 276.5 94.0008C276.5 94.0008 276.5 94.0008 276.5 94.0008C276.5 94.0008 276.5 94.0008 276.5 94.0008C276.5 94.0008 276.5 94.0008 276.5 94.0008C276.5 94.0008 276.5 94.0008 276.5 94.0008C276.5 94.0008 276.5 94.0008 276.5 94.0008C276.5 94.0008 276.5 94.0008 276.5 94.0008C276.5 94.0009 276.5 94.0009 276.5 94.0009C276.5 94.0009 276.5 94.0009 276.5 94.0009C276.5 94.0009 276.5 94.0009 276.5 94.0009C276.5 94.0009 276.5 94.0009 276.5 94.0009C276.5 94.0009 276.5 94.0009 276.5 94.0009C276.5 94.0009 276.5 94.0009 276.5 94.0009C276.5 94.0009 276.5 94.0009 276.5 94.0009C276.5 94.001 276.5 94.001 276.5 94.001C276.5 94.001 276.5 94.001 276.5 94.001C276.5 94.001 276.5 94.001 276.5 94.001C276.5 94.001 276.5 94.001 276.5 94.001C276.5 94.001 276.5 94.001 276.5 94.001C276.5 94.001 276.5 94.001 276.5 94.001C276.5 94.001 276.5 94.001 276.5 94.001C276.5 94.0011 276.5 94.0011 276.5 94.0011C276.5 94.0011 276.5 94.0011 276.5 94.0011C276.5 94.0011 276.5 94.0011 276.5 94.0011C276.5 94.0011 276.5 94.0011 276.5 94.0011C276.5 94.0011 276.5 94.0011 276.5 94.0011C276.5 94.0011 276.5 94.0011 276.5 94.0011C276.5 94.0011 276.5 94.0011 276.5 94.0011C276.5 94.0012 276.5 94.0012 276.5 94.0012C276.5 94.0012 276.5 94.0012 276.5 94.0012C276.5 94.0012 276.5 94.0012 276.5 94.0012C276.5 94.0012 276.5 94.0012 276.5 94.0012C276.5 94.0012 276.5 94.0012 276.5 94.0012C276.5 94.0012 276.5 94.0012 276.5 94.0012C276.5 94.0012 276.5 94.0012 276.5 94.0012C276.5 94.0013 276.5 94.0013 276.5 94.0013C276.5 94.0013 276.5 94.0013 276.5 94.0013C276.5 94.0013 276.5 94.0013 276.5 94.0013C276.5 94.0013 276.5 94.0013 276.5 94.0013C276.5 94.0013 276.5 94.0013 276.5 94.0013C276.5 94.0013 276.5 94.0013 276.5 94.0013C276.5 94.0013 276.5 94.0013 276.5 94.0013C276.5 94.0013 276.5 94.0014 276.5 94.0014C276.5 94.0014 276.5 94.0014 276.5 94.0014C276.5 94.0014 276.5 94.0014 276.5 94.0014C276.5 94.0014 276.5 94.0014 276.5 94.0014C276.5 94.0014 276.5 94.0014 276.5 94.0014C276.5 94.0014 276.5 94.0014 276.5 94.0014C276.5 94.0014 276.5 94.0014 276.5 94.0014C276.5 94.0014 276.5 94.0015 276.5 94.0015C276.5 94.0015 276.5 94.0015 276.5 94.0015C276.5 94.0015 276.5 94.0015 276.5 94.0015C276.5 94.0015 276.5 94.0015 276.5 94.0015C276.5 94.0015 276.5 94.0015 276.5 94.0015C276.5 94.0015 276.5 94.0015 276.5 94.0015C276.5 94.0015 276.5 94.0015 276.5 94.0015C276.5 94.0015 276.5 94.0016 276.5 94.0016C276.5 94.0016 276.5 94.0016 276.5 94.0016C276.5 94.0016 276.5 94.0016 276.5 94.0016C276.5 94.0016 276.5 94.0016 276.5 94.0016C276.5 94.0016 276.5 94.0016 276.5 94.0016C276.5 94.0016 276.5 94.0016 276.5 94.0016C276.5 94.0016 276.5 94.0016 276.5 94.0016C276.5 94.0016 276.5 94.0017 276.5 94.0017C276.5 94.0017 276.5 94.0017 276.5 94.0017C276.5 94.0017 276.5 94.0017 276.5 94.0017C276.5 94.0017 276.5 94.0017 276.5 94.0017C276.5 94.0017 276.5 94.0017 276.5 94.0017C276.5 94.0017 276.5 94.0017 276.5 94.0017C276.5 94.0017 276.5 94.0017 276.5 94.0017C276.5 94.0017 276.5 94.0018 276.5 94.0018C276.5 94.0018 276.5 94.0018 276.5 94.0018C276.5 94.0018 276.5 94.0018 276.5 94.0018C276.5 94.0018 276.5 94.0018 276.5 94.0018C276.5 94.0018 276.5 94.0018 276.5 94.0018C276.5 94.0018 276.5 94.0018 276.5 94.0018C276.5 94.0018 276.5 94.0018 276.5 94.0018C276.5 94.0018 276.5 94.0019 276.5 94.0019C276.5 94.0019 276.5 94.0019 276.5 94.0019C276.5 94.0019 276.5 94.0019 276.5 94.0019C276.5 94.0019 276.5 94.0019 276.5 94.0019C276.5 94.0019 276.5 94.0019 276.5 94.0019C276.5 94.0019 276.5 94.0019 276.5 94.0019C276.5 94.0019 276.5 94.0019 276.5 94.0019C276.5 94.0019 276.5 94.0019 276.5 94.002C276.5 94.002 276.5 94.002 276.5 94.002C276.5 94.002 276.5 94.002 276.5 94.002C276.5 94.002 276.5 94.002 276.5 94.002C276.5 94.002 276.5 94.002 276.5 94.002C276.5 94.002 276.5 94.002 276.5 94.002C276.5 94.002 276.5 94.002 276.5 94.002C276.5 94.002 276.5 94.002 276.5 94.0021C276.5 94.0021 276.5 94.0021 276.5 94.0021C276.5 94.0021 276.5 94.0021 276.5 94.0021C276.5 94.0021 276.5 94.0021 276.5 94.0021C276.5 94.0021 276.5 94.0021 276.5 94.0021C276.5 94.0021 276.5 94.0021 276.5 94.0021C276.5 94.0021 276.5 94.0021 276.5 94.0021C276.5 94.0021 276.5 94.0021 276.5 94.0022C276.5 94.0022 276.5 94.0022 276.5 94.0022C276.5 94.0022 276.5 94.0022 276.5 94.0022C276.5 94.0022 276.5 94.0022 276.5 94.0022C276.5 94.0022 276.5 94.0022 276.5 94.0022C276.5 94.0022 276.5 94.0022 276.5 94.0022C276.5 94.0022 276.5 94.0022 276.5 94.0022C276.5 94.0022 276.5 94.0022 276.5 94.0023C276.5 94.0023 276.5 94.0023 276.5 94.0023C276.5 94.0023 276.5 94.0023 276.5 94.0023C276.5 94.0023 276.5 94.0023 276.5 94.0023C276.5 94.0023 276.5 94.0023 276.5 94.0023C276.5 94.0023 276.5 94.0023 276.5 94.0023C276.5 94.0023 276.5 94.0023 276.5 94.0023C276.5 94.0023 276.5 94.0023 276.5 94.0024C276.5 94.0024 276.5 94.0024 276.5 94.0024C276.5 94.0024 276.5 94.0024 276.5 94.0024C276.5 94.0024 276.5 94.0024 276.5 94.0024C276.5 94.0024 276.5 94.0024 276.5 94.0024C276.5 94.0024 276.5 94.0024 276.5 94.0024C276.5 94.0024 276.5 94.0024 276.5 94.0024C276.5 94.0024 276.5 94.0024 276.5 94.0025C276.5 94.0025 276.5 94.0025 276.5 94.0025C276.5 94.0025 276.5 94.0025 276.5 94.0025C276.5 94.0025 276.5 94.0025 276.5 94.0025C276.5 94.0025 276.5 94.0025 276.5 94.0025C276.5 94.0025 276.5 94.0025 276.5 94.0025C276.5 94.0025 276.5 94.0025 276.5 94.0025C276.5 94.0025 276.5 94.0025 276.5 94.0025C276.5 94.0026 276.5 94.0026 276.5 94.0026C276.5 94.0026 276.5 94.0026 276.5 94.0026C276.5 94.0026 276.5 94.0026 276.5 94.0026C276.5 94.0026 276.5 94.0026 276.5 94.0026C276.5 94.0026 276.5 94.0026 276.5 94.0026C276.5 94.0026 276.5 94.0026 276.5 94.0026C276.5 94.0026 276.5 94.0026 276.5 94.0026C276.5 94.0027 276.5 94.0027 276.5 94.0027C276.5 94.0027 276.5 94.0027 276.5 94.0027C276.5 94.0027 276.5 94.0027 276.5 94.0027C276.5 94.0027 276.5 94.0027 276.5 94.0027C276.5 94.0027 276.5 94.0027 276.5 94.0027C276.5 94.0027 276.5 94.0027 276.5 94.0027C276.5 94.0027 276.5 94.0027 276.5 94.0027C276.5 94.0028 276.5 94.0028 276.5 94.0028C276.5 94.0028 276.5 94.0028 276.5 94.0028C276.5 94.0028 276.5 94.0028 276.5 94.0028C276.5 94.0028 276.5 94.0028 276.5 94.0028C276.5 94.0028 276.5 94.0028 276.5 94.0028C276.5 94.0028 276.5 94.0028 276.5 94.0028C276.5 94.0028 276.5 94.0028 276.5 94.0028C276.5 94.0029 276.5 94.0029 276.5 94.0029C276.5 94.0029 276.5 94.0029 276.5 94.0029C276.5 94.0029 276.5 94.0029 276.5 94.0029C276.5 94.0029 276.5 94.0029 276.5 94.0029C276.5 94.0029 276.5 94.0029 276.5 94.0029C276.5 94.0029 276.5 94.0029 276.5 94.0029C276.5 94.0029 276.5 94.0029 276.5 94.0029C276.5 94.003 276.5 94.003 276.5 94.003C276.5 94.003 276.5 94.003 276.5 94.003C276.5 94.003 276.5 94.003 276.5 94.003C276.5 94.003 276.5 94.003 276.5 94.003C276.5 94.003 276.5 94.003 276.5 94.003C276.5 94.003 276.5 94.003 276.5 94.003C276.5 94.003 276.5 94.003 276.5 94.003C276.5 94.0031 276.5 94.0031 276.5 94.0031C276.5 94.0031 276.5 94.0031 276.5 94.0031C276.5 94.0031 276.5 94.0031 276.5 94.0031C276.5 94.0031 276.5 94.0031 276.5 94.0031C276.5 94.0031 276.5 94.0031 276.5 94.0031C276.5 94.0031 276.5 94.0031 276.5 94.0031C276.5 94.0031 276.5 94.0031 276.5 94.0031C276.5 94.0031 276.5 94.0032 276.5 94.0032C276.5 94.0032 276.5 94.0032 276.5 94.0032C276.5 94.0032 276.5 94.0032 276.5 94.0032C276.5 94.0032 276.5 94.0032 276.5 94.0032C276.5 94.0032 276.5 94.0032 276.5 94.0032C276.5 94.0032 276.5 94.0032 276.5 94.0032C276.5 94.0032 276.5 94.0032 276.5 94.0032C276.5 94.0032 276.5 94.0033 276.5 94.0033C276.5 94.0033 276.5 94.0033 276.5 94.0033C276.5 94.0033 276.5 94.0033 276.5 94.0033C276.5 94.0033 276.5 94.0033 276.5 94.0033C276.5 94.0033 276.5 94.0033 276.5 94.0033C276.5 94.0033 276.5 94.0033 276.5 94.0033C276.5 94.0033 276.5 94.0033 276.5 94.0033C276.5 94.0033 276.5 94.0034 276.5 94.0034C276.5 94.0034 276.5 94.0034 276.5 94.0034C276.5 94.0034 276.5 94.0034 276.5 94.0034C276.5 94.0034 276.5 94.0034 276.5 94.0034C276.5 94.0034 276.5 94.0034 276.5 94.0034C276.5 94.0034 276.5 94.0034 276.5 94.0034C276.5 94.0034 276.5 94.0034 276.5 94.0034C276.5 94.0034 276.5 94.0035 276.5 94.0035C276.5 94.0035 276.5 94.0035 276.5 94.0035C276.5 94.0035 276.5 94.0035 276.5 94.0035C276.5 94.0035 276.5 94.0035 276.5 94.0035C276.5 94.0035 276.5 94.0035 276.5 94.0035C276.5 94.0035 276.5 94.0035 276.5 94.0035C276.5 94.0035 276.5 94.0035 276.5 94.0035C276.5 94.0035 276.5 94.0036 276.5 94.0036C276.5 94.0036 276.5 94.0036 276.5 94.0036C276.5 94.0036 276.5 94.0036 276.5 94.0036C276.5 94.0036 276.5 94.0036 276.5 94.0036C276.5 94.0036 276.5 94.0036 276.5 94.0036C276.5 94.0036 276.5 94.0036 276.5 94.0036C276.5 94.0036 276.5 94.0036 276.5 94.0036C276.5 94.0036 276.5 94.0037 276.5 94.0037C276.5 94.0037 276.5 94.0037 276.5 94.0037C276.5 94.0037 276.5 94.0037 276.5 94.0037C276.5 94.0037 276.5 94.0037 276.5 94.0037C276.5 94.0037 276.5 94.0037 276.5 94.0037C276.5 94.0037 276.5 94.0037 276.5 94.0037C276.5 94.0037 276.5 94.0037 276.5 94.0037C276.5 94.0037 276.5 94.0037 276.5 94.0038C276.5 94.0038 276.5 94.0038 276.5 94.0038C276.5 94.0038 276.5 94.0038 276.5 94.0038C276.5 94.0038 276.5 94.0038 276.5 94.0038C276.5 94.0038 276.5 94.0038 276.5 94.0038C276.5 94.0038 276.5 94.0038 276.5 94.0038C276.5 94.0038 276.5 94.0038 276.5 94.0038C276.5 94.0038 276.5 94.0038 276.5 94.0039C276.5 94.0039 276.5 94.0039 276.5 94.0039C276.5 94.0039 276.5 94.0039 276.5 94.0039C276.5 94.0039 276.5 94.0039 276.5 94.0039C276.5 94.0039 276.5 94.0039 276.5 94.0039C276.5 94.0039 276.5 94.0039 276.5 94.0039C276.5 94.0039 276.5 94.0039 276.5 94.0039C276.5 94.0039 276.5 94.0039 276.5 94.004C276.5 94.004 276.5 94.004 276.5 94.004C276.5 94.004 276.5 94.004 276.5 94.004C276.5 94.004 276.5 94.004 276.5 94.004C276.5 94.004 276.5 94.004 276.5 94.004C276.5 94.004 276.5 94.004 276.5 94.004C276.5 94.004 276.5 94.004 276.5 94.004C276.5 94.004 276.5 94.004 276.5 94.0041C276.5 94.0041 276.5 94.0041 276.5 94.0041C276.5 94.0041 276.5 94.0041 276.5 94.0041C276.5 94.0041 276.5 94.0041 276.5 94.0041C276.5 94.0041 276.5 94.0041 276.5 94.0041C276.5 94.0041 276.5 94.0041 276.5 94.0041C276.5 94.0041 276.5 94.0041 276.5 94.0041C276.5 94.0041 276.5 94.0041 276.5 94.0042C276.5 94.0042 276.5 94.0042 276.5 94.0042C276.5 94.0042 276.5 94.0042 276.5 94.0042C276.5 94.0042 276.5 94.0042 276.5 94.0042C276.5 94.0042 276.5 94.0042 276.5 94.0042C276.5 94.0042 276.5 94.0042 276.5 94.0042C276.5 94.0042 276.5 94.0042 276.5 94.0042C276.5 94.0042 276.5 94.0042 276.5 94.0043C276.5 94.0043 276.5 94.0043 276.5 94.0043C276.5 94.0043 276.5 94.0043 276.5 94.0043C276.5 94.0043 276.5 94.0043 276.5 94.0043C276.5 94.0043 276.5 94.0043 276.5 94.0043C276.5 94.0043 276.5 94.0043 276.5 94.0043C276.5 94.0043 276.5 94.0043 276.5 94.0043C276.5 94.0043 276.5 94.0043 276.5 94.0043C276.5 94.0044 276.5 94.0044 276.5 94.0044C276.5 94.0044 276.5 94.0044 276.5 94.0044C276.5 94.0044 276.5 94.0044 276.5 94.0044C276.5 94.0044 276.5 94.0044 276.5 94.0044C276.5 94.0044 276.5 94.0044 276.5 94.0044C276.5 94.0044 276.5 94.0044 276.5 94.0044C276.5 94.0044 276.5 94.0044 276.5 94.0044C276.5 94.0045 276.5 94.0045 276.5 94.0045C276.5 94.0045 276.5 94.0045 276.5 94.0045C276.5 94.0045 276.5 94.0045 276.5 94.0045C276.5 94.0045 276.5 94.0045 276.5 94.0045C276.5 94.0045 276.5 94.0045 276.5 94.0045C276.5 94.0045 276.5 94.0045 276.5 94.0045C276.5 94.0045 276.5 94.0045 276.5 94.0045C276.5 94.0046 276.5 94.0046 276.5 94.0046C276.5 94.0046 276.5 94.0046 276.5 94.0046C276.5 94.0046 276.5 94.0046 276.5 94.0046C276.5 94.0046 276.5 94.0046 276.5 94.0046C276.5 94.0046 276.5 94.0046 276.5 94.0046C276.5 94.0046 276.5 94.0046 276.5 94.0046C276.5 94.0046 276.5 94.0046 276.5 94.0046C276.5 94.0047 276.5 94.0047 276.5 94.0047C276.5 94.0047 276.5 94.0047 276.5 94.0047C276.5 94.0047 276.5 94.0047 276.5 94.0047C276.5 94.0047 276.5 94.0047 276.5 94.0047C276.5 94.0047 276.5 94.0047 276.5 94.0047C276.5 94.0047 276.5 94.0047 276.5 94.0047C276.5 94.0047 276.5 94.0047 276.5 94.0047C276.5 94.0048 276.5 94.0048 276.5 94.0048C276.5 94.0048 276.5 94.0048 276.5 94.0048C276.5 94.0048 276.5 94.0048 276.5 94.0048C276.5 94.0048 276.5 94.0048 276.5 94.0048C276.5 94.0048 276.5 94.0048 276.5 94.0048C276.5 94.0048 276.5 94.0048 276.5 94.0048C276.5 94.0048 276.5 94.0048 276.5 94.0048C276.5 94.0049 276.5 94.0049 276.5 94.0049C276.5 94.0049 276.5 94.0049 276.5 94.0049C276.5 94.0049 276.5 94.0049 276.5 94.0049C276.5 94.0049 276.5 94.0049 276.5 94.0049C276.5 94.0049 276.5 94.0049 276.5 94.0049C276.5 94.0049 276.5 94.0049 276.5 94.0049C276.5 94.0049 276.5 94.0049 276.5 94.0049C276.5 94.0049 276.5 94.005 276.5 94.005C276.5 94.005 276.5 94.005 276.5 94.005C276.5 94.005 276.5 94.005 276.5 94.005C276.5 94.005 276.5 94.005 276.5 94.005C276.5 94.005 276.5 94.005 276.5 94.005C276.5 94.005 276.5 94.005 276.5 94.005C276.5 94.005 276.5 94.005 276.5 94.005C276.5 94.005 276.5 94.0051 276.5 94.0051C276.5 94.0051 276.5 94.0051 276.5 94.0051C276.5 94.0051 276.5 94.0051 276.5 94.0051C276.5 94.0051 276.5 94.0051 276.5 94.0051C276.5 94.0051 276.5 94.0051 276.5 94.0051C276.5 94.0051 276.5 94.0051 276.5 94.0051C276.5 94.0051 276.5 94.0051 276.5 94.0051C276.5 94.0051 276.5 94.0052 276.5 94.0052C276.5 94.0052 276.5 94.0052 276.5 94.0052C276.5 94.0052 276.5 94.0052 276.5 94.0052C276.5 94.0052 276.5 94.0052 276.5 94.0052C276.5 94.0052 276.5 94.0052 276.5 94.0052C276.5 94.0052 276.5 94.0052 276.5 94.0052C276.5 94.0052 276.5 94.0052 276.5 94.0052C276.5 94.0052 276.5 94.0053 276.5 94.0053C276.5 94.0053 276.5 94.0053 276.5 94.0053C276.5 94.0053 276.5 94.0053 276.5 94.0053C276.5 94.0053 276.5 94.0053 276.5 94.0053C276.5 94.0053 276.5 94.0053 276.5 94.0053C276.5 94.0053 276.5 94.0053 276.5 94.0053C276.5 94.0053 276.5 94.0053 276.5 94.0053C276.5 94.0053 276.5 94.0054 276.5 94.0054C276.5 94.0054 276.5 94.0054 276.5 94.0054C276.5 94.0054 276.5 94.0054 276.5 94.0054C276.5 94.0054 276.5 94.0054 276.5 94.0054C276.5 94.0054 276.5 94.0054 276.5 94.0054C276.5 94.0054 276.5 94.0054 276.5 94.0054C276.5 94.0054 276.5 94.0054 276.5 94.0054C276.5 94.0054 276.5 94.0054 276.5 94.0055C276.5 94.0055 276.5 94.0055 276.5 94.0055C276.5 94.0055 276.5 94.0055 276.5 94.0055C276.5 94.0055 276.5 94.0055 276.5 94.0055C276.5 94.0055 276.5 94.0055 276.5 94.0055C276.5 94.0055 276.5 94.0055 276.5 94.0055C276.5 94.0055 276.5 94.0055 276.5 94.0055C276.5 94.0055 276.5 94.0055 276.5 94.0056C276.5 94.0056 276.5 94.0056 276.5 94.0056C276.5 94.0056 276.5 94.0056 276.5 94.0056C276.5 94.0056 276.5 94.0056 276.5 94.0056C276.5 94.0056 276.5 94.0056 276.5 94.0056C276.5 94.0056 276.5 94.0056 276.5 94.0056C276.5 94.0056 276.5 94.0056 276.5 94.0056C276.5 94.0056 276.5 94.0056 276.5 94.0057C276.5 94.0057 276.5 94.0057 276.5 94.0057C276.5 94.0057 276.5 94.0057 276.5 94.0057C276.5 94.0057 276.5 94.0057 276.5 94.0057C276.5 94.0057 276.5 94.0057 276.5 94.0057C276.5 94.0057 276.5 94.0057 276.5 94.0057C276.5 94.0057 276.5 94.0057 276.5 94.0057C276.5 94.0057 276.5 94.0057 276.5 94.0058C276.5 94.0058 276.5 94.0058 276.5 94.0058C276.5 94.0058 276.5 94.0058 276.5 94.0058C276.5 94.0058 276.5 94.0058 276.5 94.0058C276.5 94.0058 276.5 94.0058 276.5 94.0058C276.5 94.0058 276.5 94.0058 276.5 94.0058C276.5 94.0058 276.5 94.0058 276.5 94.0058C276.5 94.0058 276.5 94.0058 276.5 94.0059C276.5 94.0059 276.5 94.0059 276.5 94.0059C276.5 94.0059 276.5 94.0059 276.5 94.0059C276.5 94.0059 276.5 94.0059 276.5 94.0059C276.5 94.0059 276.5 94.0059 276.5 94.0059C276.5 94.0059 276.5 94.0059 276.5 94.0059C276.5 94.0059 276.5 94.0059 276.5 94.0059C276.5 94.0059 276.5 94.0059 276.5 94.006C276.5 94.006 276.5 94.006 276.5 94.006C276.5 94.006 276.5 94.006 276.5 94.006C276.5 94.006 276.5 94.006 276.5 94.006C276.5 94.006 276.5 94.006 276.5 94.006C276.5 94.006 276.5 94.006 276.5 94.006C276.5 94.006 276.5 94.006 276.5 94.006C276.5 94.006 276.5 94.006 276.5 94.006C276.5 94.0061 276.5 94.0061 276.5 94.0061C276.5 94.0061 276.5 94.0061 276.5 94.0061C276.5 94.0061 276.5 94.0061 276.5 94.0061C276.5 94.0061 276.5 94.0061 276.5 94.0061C276.5 94.0061 276.5 94.0061 276.5 94.0061C276.5 94.0061 276.5 94.0061 276.5 94.0061C276.5 94.0061 276.5 94.0061 276.5 94.0061C276.5 94.0062 276.5 94.0062 276.5 94.0062C276.5 94.0062 276.5 94.0062 276.5 94.0062C276.5 94.0062 276.5 94.0062 276.5 94.0062C276.5 94.0062 276.5 94.0062 276.5 94.0062C276.5 94.0062 276.5 94.0062 276.5 94.0062C276.5 94.0062 276.5 94.0062 276.5 94.0062C276.5 94.0062 276.5 94.0062 276.5 94.0062C276.5 94.0063 276.5 94.0063 276.5 94.0063C276.5 94.0063 276.5 94.0063 276.5 94.0063C276.5 94.0063 276.5 94.0063 276.5 94.0063C276.5 94.0063 276.5 94.0063 276.5 94.0063C276.5 94.0063 276.5 94.0063 276.5 94.0063C276.5 94.0063 276.5 94.0063 276.5 94.0063C276.5 94.0063 276.5 94.0063 276.5 94.0063C276.5 94.0064 276.5 94.0064 276.5 94.0064C276.5 94.0064 276.5 94.0064 276.5 94.0064C276.5 94.0064 276.5 94.0064 276.5 94.0064C276.5 94.0064 276.5 94.0064 276.5 94.0064C276.5 94.0064 276.5 94.0064 276.5 94.0064C276.5 94.0064 276.5 94.0064 276.5 94.0064C276.5 94.0064 276.5 94.0064 276.5 94.0064C276.5 94.0065 276.5 94.0065 276.5 94.0065C276.5 94.0065 276.5 94.0065 276.5 94.0065C276.5 94.0065 276.5 94.0065 276.5 94.0065C276.5 94.0065 276.5 94.0065 276.5 94.0065C276.5 94.0065 276.5 94.0065 276.5 94.0065C276.5 94.0065 276.5 94.0065 276.5 94.0065C276.5 94.0065 276.5 94.0065 276.5 94.0065C276.5 94.0066 276.5 94.0066 276.5 94.0066C276.5 94.0066 276.5 94.0066 276.5 94.0066C276.5 94.0066 276.5 94.0066 276.5 94.0066C276.5 94.0066 276.5 94.0066 276.5 94.0066C276.5 94.0066 276.5 94.0066 276.5 94.0066C276.5 94.0066 276.5 94.0066 276.5 94.0066C276.5 94.0066 276.5 94.0066 276.5 94.0066C276.5 94.0066 276.5 94.0067 276.5 94.0067C276.5 94.0067 276.5 94.0067 276.5 94.0067C276.5 94.0067 276.5 94.0067 276.5 94.0067C276.5 94.0067 276.5 94.0067 276.5 94.0067C276.5 94.0067 276.5 94.0067 276.5 94.0067C276.5 94.0067 276.5 94.0067 276.5 94.0067C276.5 94.0067 276.5 94.0067 276.5 94.0067C276.5 94.0067 276.5 94.0068 276.5 94.0068C276.5 94.0068 276.5 94.0068 276.5 94.0068C276.5 94.0068 276.5 94.0068 276.5 94.0068C276.5 94.0068 276.5 94.0068 276.5 94.0068C276.5 94.0068 276.5 94.0068 276.5 94.0068C276.5 94.0068 276.5 94.0068 276.5 94.0068C276.5 94.0068 276.5 94.0068 276.5 94.0068C276.5 94.0068 276.5 94.0069 276.5 94.0069C276.5 94.0069 276.5 94.0069 276.5 94.0069C276.5 94.0069 276.5 94.0069 276.5 94.0069C276.5 94.0069 276.5 94.0069 276.5 94.0069C276.5 94.0069 276.5 94.0069 276.5 94.0069C276.5 94.0069 276.5 94.0069 276.5 94.0069C276.5 94.0069 276.5 94.0069 276.5 94.0069C276.5 94.0069 276.5 94.007 276.5 94.007C276.5 94.007 276.5 94.007 276.5 94.007C276.5 94.007 276.5 94.007 276.5 94.007C276.5 94.007 276.5 94.007 276.5 94.007C276.5 94.007 276.5 94.007 276.5 94.007C276.5 94.007 276.5 94.007 276.5 94.007C276.5 94.007 276.5 94.007 276.5 94.007C276.5 94.007 276.5 94.0071 276.5 94.0071C276.5 94.0071 276.5 94.0071 276.5 94.0071C276.5 94.0071 276.5 94.0071 276.5 94.0071C276.5 94.0071 276.5 94.0071 276.5 94.0071C276.5 94.0071 276.5 94.0071 276.5 94.0071C276.5 94.0071 276.5 94.0071 276.5 94.0071C276.5 94.0071 276.5 94.0071 276.5 94.0071C276.5 94.0071 276.5 94.0072 276.5 94.0072C276.5 94.0072 276.5 94.0072 276.5 94.0072C276.5 94.0072 276.5 94.0072 276.5 94.0072C276.5 94.0072 276.5 94.0072 276.5 94.0072C276.5 94.0072 276.5 94.0072 276.5 94.0072C276.5 94.0072 276.5 94.0072 276.5 94.0072C276.5 94.0072 276.5 94.0072 276.5 94.0072C276.5 94.0072 276.5 94.0072 276.5 94.0073L279.5 94.0073ZM279.5 94C279.5 85.3904 272.287 78.5 263.5 78.5L263.5 81.5C270.73 81.5 276.5 87.1456 276.5 94L279.5 94ZM263.5 78.5C254.713 78.5 247.5 85.3904 247.5 94L250.5 94C250.5 87.1456 256.27 81.5 263.5 81.5L263.5 78.5Z" fill="black" mask="url(#path-3-inside-2_92_13855)"/>
<mask id="path-5-inside-3_92_13855" fill="white">
<path fill-rule="evenodd" clip-rule="evenodd" d="M255 94L255 201L255.194 201C255.194 201.046 255.194 201.091 255.194 201.137C255.194 209.421 261.686 216.137 269.694 216.137C277.702 216.137 284.194 209.421 284.194 201.137C284.194 200.3 284.128 199.479 284 198.679L284 94.0073C284 94.0048 284 94.0024 284 94C284 86.268 277.508 80 269.5 80C261.492 80 255 86.268 255 94Z"/>
</mask>
<path fill-rule="evenodd" clip-rule="evenodd" d="M255 94L255 201L255.194 201C255.194 201.046 255.194 201.091 255.194 201.137C255.194 209.421 261.686 216.137 269.694 216.137C277.702 216.137 284.194 209.421 284.194 201.137C284.194 200.3 284.128 199.479 284 198.679L284 94.0073C284 94.0048 284 94.0024 284 94C284 86.268 277.508 80 269.5 80C261.492 80 255 86.268 255 94Z" fill="#9296FF"/>
<path d="M255 201L253.5 201L253.5 202.5L255 202.5L255 201ZM255 94L253.5 94L253.5 94L255 94ZM255.194 201L256.694 201.013L256.707 199.5L255.194 199.5L255.194 201ZM284 198.679L282.5 198.679L282.5 198.797L282.519 198.915L284 198.679ZM284 94L282.5 94V94L284 94ZM256.5 201L256.5 94L253.5 94L253.5 201L256.5 201ZM255.194 199.5L255 199.5L255 202.5L255.194 202.5L255.194 199.5ZM253.694 200.987C253.694 201.037 253.694 201.087 253.694 201.137L256.694 201.137C256.694 201.096 256.694 201.054 256.694 201.013L253.694 200.987ZM253.694 201.137C253.694 210.202 260.81 217.637 269.694 217.637L269.694 214.637C262.562 214.637 256.694 208.641 256.694 201.137L253.694 201.137ZM269.694 217.637C278.578 217.637 285.694 210.202 285.694 201.137L282.694 201.137C282.694 208.641 276.826 214.637 269.694 214.637L269.694 217.637ZM285.694 201.137C285.694 200.221 285.621 199.32 285.481 198.442L282.519 198.915C282.634 199.637 282.694 200.379 282.694 201.137L285.694 201.137ZM282.5 94.0073L282.5 198.679L285.5 198.679L285.5 94.0073L282.5 94.0073ZM285.5 94.0073C285.5 94.006 285.5 94.0048 285.5 94.0036C285.5 94.0024 285.5 94.0012 285.5 94L282.5 94C282.5 94.0012 282.5 94.0024 282.5 94.0036C282.5 94.0048 282.5 94.006 282.5 94.0073L285.5 94.0073ZM285.5 94C285.5 85.3904 278.287 78.5 269.5 78.5L269.5 81.5C276.73 81.5 282.5 87.1456 282.5 94L285.5 94ZM269.5 78.5C260.713 78.5 253.5 85.3904 253.5 94L256.5 94C256.5 87.1456 262.27 81.5 269.5 81.5L269.5 78.5Z" fill="black" mask="url(#path-5-inside-3_92_13855)"/>
<path d="M273.364 119.75L267.636 119.75C212.529 119.75 168.92 166.373 172.598 221.357L175.57 265.789C175.691 267.597 175.678 269.412 175.531 271.219L170.813 329.25L370.187 329.25L365.469 271.219C365.322 269.413 365.309 267.597 365.43 265.789L368.402 221.357C372.08 166.373 328.471 119.75 273.364 119.75Z" fill="#FFD789" stroke="black" stroke-width="1.5"/>
<rect x="0.75" y="-0.75" width="32.5" height="69.5" rx="16.25" transform="matrix(1 -1.19209e-07 -9.8538e-08 -1 202 250.5)" fill="white" stroke="black" stroke-width="1.5"/>
<rect x="0.75" y="-0.75" width="32.5" height="23.5" rx="11.75" transform="matrix(1 -1.19209e-07 -9.8538e-08 -1 202 283.5)" fill="white" stroke="black" stroke-width="1.5"/>
<circle cx="270" cy="96" r="8" fill="black"/>
<mask id="path-11-inside-4_92_13855" fill="white">
<path fill-rule="evenodd" clip-rule="evenodd" d="M159.551 327C165.145 316.893 212.683 309 270.5 309C328.317 309 375.855 316.893 381.449 327H381.5L391.5 349H270.5H149L159.5 327H159.551Z"/>
</mask>
<path fill-rule="evenodd" clip-rule="evenodd" d="M159.551 327C165.145 316.893 212.683 309 270.5 309C328.317 309 375.855 316.893 381.449 327H381.5L391.5 349H270.5H149L159.5 327H159.551Z" fill="#FFD789"/>
<path d="M159.551 327V328.5C160.096 328.5 160.599 328.204 160.863 327.726L159.551 327ZM381.449 327L380.137 327.726C380.401 328.204 380.904 328.5 381.449 328.5V327ZM381.5 327L382.866 326.379C382.622 325.844 382.088 325.5 381.5 325.5V327ZM391.5 349V350.5C392.01 350.5 392.485 350.241 392.761 349.812C393.037 349.383 393.077 348.844 392.866 348.379L391.5 349ZM149 349L147.646 348.354C147.424 348.819 147.457 349.365 147.731 349.8C148.006 350.236 148.485 350.5 149 350.5V349ZM159.5 327V325.5C158.922 325.5 158.395 325.832 158.146 326.354L159.5 327ZM160.863 327.726C161.379 326.794 162.479 325.732 164.331 324.607C166.16 323.497 168.597 322.399 171.614 321.339C177.644 319.218 185.822 317.302 195.684 315.69C215.396 312.47 241.651 310.5 270.5 310.5V307.5C241.533 307.5 215.11 309.477 195.2 312.73C185.251 314.355 176.881 316.307 170.618 318.509C167.488 319.609 164.842 320.787 162.774 322.043C160.73 323.284 159.12 324.68 158.238 326.274L160.863 327.726ZM270.5 310.5C299.349 310.5 325.604 312.47 345.316 315.69C355.178 317.302 363.356 319.218 369.386 321.339C372.403 322.399 374.84 323.497 376.669 324.607C378.521 325.732 379.621 326.794 380.137 327.726L382.762 326.274C381.88 324.68 380.27 323.284 378.226 322.043C376.158 320.787 373.512 319.609 370.382 318.509C364.119 316.307 355.749 314.355 345.8 312.73C325.89 309.477 299.467 307.5 270.5 307.5V310.5ZM381.449 328.5H381.5V325.5H381.449V328.5ZM380.134 327.621L390.134 349.621L392.866 348.379L382.866 326.379L380.134 327.621ZM391.5 347.5H270.5V350.5H391.5V347.5ZM270.5 347.5H149V350.5H270.5V347.5ZM150.354 349.646L160.854 327.646L158.146 326.354L147.646 348.354L150.354 349.646ZM159.5 328.5H159.551V325.5H159.5V328.5Z" fill="black" mask="url(#path-11-inside-4_92_13855)"/>
<path d="M391.25 349C391.25 350.217 390.571 351.512 389.035 352.872C387.501 354.229 385.196 355.573 382.157 356.874C376.084 359.473 367.252 361.832 356.28 363.818C334.349 367.789 304.021 370.25 270.5 370.25C236.979 370.25 206.651 367.789 184.72 363.818C173.748 361.832 164.916 359.473 158.843 356.874C155.804 355.573 153.499 354.229 151.965 352.872C150.429 351.512 149.75 350.217 149.75 349C149.75 347.783 150.429 346.488 151.965 345.128C153.499 343.771 155.804 342.427 158.843 341.126C164.916 338.527 173.748 336.168 184.72 334.182C206.651 330.211 236.979 327.75 270.5 327.75C304.021 327.75 334.349 330.211 356.28 334.182C367.252 336.168 376.084 338.527 382.157 341.126C385.196 342.427 387.501 343.771 389.035 345.128C390.571 346.488 391.25 347.783 391.25 349Z" fill="#FFD789" stroke="black" stroke-width="1.5"/>
<path d="M370.25 349C370.25 349.67 369.789 350.486 368.508 351.416C367.247 352.331 365.341 353.244 362.814 354.131C357.77 355.902 350.429 357.51 341.308 358.865C323.077 361.572 297.865 363.25 270 363.25C242.135 363.25 216.923 361.572 198.692 358.865C189.571 357.51 182.23 355.902 177.186 354.131C174.659 353.244 172.753 352.331 171.492 351.416C170.211 350.486 169.75 349.67 169.75 349C169.75 348.33 170.211 347.514 171.492 346.584C172.753 345.669 174.659 344.756 177.186 343.869C182.23 342.098 189.571 340.49 198.692 339.135C216.923 336.428 242.135 334.75 270 334.75C297.865 334.75 323.077 336.428 341.308 339.135C350.429 340.49 357.77 342.098 362.814 343.869C365.341 344.756 367.247 345.669 368.508 346.584C369.789 347.514 370.25 348.33 370.25 349Z" fill="black" stroke="black" stroke-width="1.5"/>
<mask id="path-15-inside-5_92_13855" fill="white">
<path fill-rule="evenodd" clip-rule="evenodd" d="M178.876 342.409C172.546 344.413 169 346.659 169 349.03C169 357.499 214.219 364.364 270 364.364C325.781 364.364 371 357.499 371 349.03C371 346.659 367.454 344.413 361.124 342.409C344.848 347.562 310.161 351.121 270 351.121C229.839 351.121 195.152 347.562 178.876 342.409Z"/>
</mask>
<path fill-rule="evenodd" clip-rule="evenodd" d="M178.876 342.409C172.546 344.413 169 346.659 169 349.03C169 357.499 214.219 364.364 270 364.364C325.781 364.364 371 357.499 371 349.03C371 346.659 367.454 344.413 361.124 342.409C344.848 347.562 310.161 351.121 270 351.121C229.839 351.121 195.152 347.562 178.876 342.409Z" fill="#FFD789"/>
<path d="M178.876 342.409L179.329 340.979L178.876 340.835L178.423 340.979L178.876 342.409ZM361.124 342.409L361.577 340.979L361.124 340.835L360.671 340.979L361.124 342.409ZM170.5 349.03C170.5 348.64 170.811 347.877 172.391 346.833C173.899 345.837 176.216 344.824 179.329 343.839L178.423 340.979C175.205 341.998 172.584 343.11 170.737 344.33C168.962 345.503 167.5 347.049 167.5 349.03H170.5ZM270 362.864C242.161 362.864 216.99 361.15 198.807 358.389C189.705 357.008 182.42 355.373 177.444 353.587C174.947 352.69 173.12 351.787 171.946 350.916C170.733 350.016 170.5 349.372 170.5 349.03H167.5C167.5 350.805 168.68 352.228 170.158 353.325C171.675 354.45 173.817 355.472 176.43 356.41C181.676 358.293 189.182 359.963 198.357 361.356C216.73 364.145 242.058 365.864 270 365.864V362.864ZM369.5 349.03C369.5 349.372 369.267 350.016 368.054 350.916C366.88 351.787 365.053 352.69 362.556 353.587C357.58 355.373 350.295 357.008 341.193 358.389C323.01 361.15 297.839 362.864 270 362.864V365.864C297.942 365.864 323.27 364.145 341.643 361.356C350.818 359.963 358.324 358.293 363.57 356.41C366.183 355.472 368.325 354.45 369.842 353.325C371.32 352.228 372.5 350.805 372.5 349.03H369.5ZM360.671 343.839C363.784 344.824 366.101 345.837 367.609 346.833C369.189 347.877 369.5 348.64 369.5 349.03H372.5C372.5 347.049 371.038 345.503 369.263 344.33C367.416 343.11 364.795 341.998 361.577 340.979L360.671 343.839ZM360.671 340.979C344.63 346.058 310.142 349.621 270 349.621V352.621C310.181 352.621 345.065 349.067 361.577 343.839L360.671 340.979ZM270 349.621C229.858 349.621 195.37 346.058 179.329 340.979L178.423 343.839C194.935 349.067 229.819 352.621 270 352.621V349.621Z" fill="black" mask="url(#path-15-inside-5_92_13855)"/>
<mask id="path-17-inside-6_92_13855" fill="white">
<path fill-rule="evenodd" clip-rule="evenodd" d="M221.731 339C219.962 344.004 219 349.39 219 355C219 381.51 240.49 403 267 403C293.51 403 315 381.51 315 355C315 349.39 314.038 344.004 312.269 339H221.731Z"/>
</mask>
<path fill-rule="evenodd" clip-rule="evenodd" d="M221.731 339C219.962 344.004 219 349.39 219 355C219 381.51 240.49 403 267 403C293.51 403 315 381.51 315 355C315 349.39 314.038 344.004 312.269 339H221.731Z" fill="black"/>
<path d="M221.731 339V337.5H220.671L220.317 338.5L221.731 339ZM312.269 339L313.683 338.5L313.329 337.5H312.269V339ZM220.5 355C220.5 349.562 221.433 344.346 223.146 339.5L220.317 338.5C218.492 343.663 217.5 349.217 217.5 355H220.5ZM267 401.5C241.319 401.5 220.5 380.681 220.5 355H217.5C217.5 382.338 239.662 404.5 267 404.5V401.5ZM313.5 355C313.5 380.681 292.681 401.5 267 401.5V404.5C294.338 404.5 316.5 382.338 316.5 355H313.5ZM310.854 339.5C312.567 344.346 313.5 349.562 313.5 355H316.5C316.5 349.217 315.508 343.663 313.683 338.5L310.854 339.5ZM312.269 337.5H221.731V340.5H312.269V337.5Z" fill="black" mask="url(#path-17-inside-6_92_13855)"/>
<mask id="path-19-inside-7_92_13855" fill="white">
<path fill-rule="evenodd" clip-rule="evenodd" d="M227.731 339C225.962 344.004 225 349.39 225 355C225 381.51 246.49 403 273 403C299.51 403 321 381.51 321 355C321 349.39 320.038 344.004 318.269 339H227.731Z"/>
</mask>
<path fill-rule="evenodd" clip-rule="evenodd" d="M227.731 339C225.962 344.004 225 349.39 225 355C225 381.51 246.49 403 273 403C299.51 403 321 381.51 321 355C321 349.39 320.038 344.004 318.269 339H227.731Z" fill="#FFD789"/>
<path d="M227.731 339V337.5H226.671L226.317 338.5L227.731 339ZM318.269 339L319.683 338.5L319.329 337.5H318.269V339ZM226.5 355C226.5 349.562 227.433 344.346 229.146 339.5L226.317 338.5C224.492 343.663 223.5 349.217 223.5 355H226.5ZM273 401.5C247.319 401.5 226.5 380.681 226.5 355H223.5C223.5 382.338 245.662 404.5 273 404.5V401.5ZM319.5 355C319.5 380.681 298.681 401.5 273 401.5V404.5C300.338 404.5 322.5 382.338 322.5 355H319.5ZM316.854 339.5C318.567 344.346 319.5 349.562 319.5 355H322.5C322.5 349.217 321.508 343.663 319.683 338.5L316.854 339.5ZM318.269 337.5H227.731V340.5H318.269V337.5Z" fill="black" mask="url(#path-19-inside-7_92_13855)"/>
<path d="M375.265 431.15C375.337 431.499 375.644 431.75 376 431.75C376.356 431.75 376.663 431.499 376.735 431.15L381.732 406.732L406.15 401.735C406.499 401.663 406.75 401.356 406.75 401C406.75 400.644 406.499 400.337 406.15 400.265L381.732 395.268L376.735 370.85C376.663 370.501 376.356 370.25 376 370.25C375.644 370.25 375.337 370.501 375.265 370.85L370.268 395.268L345.85 400.265C345.501 400.337 345.25 400.644 345.25 401C345.25 401.356 345.501 401.663 345.85 401.735L370.268 406.732L375.265 431.15Z" fill="white" stroke="black" stroke-width="1.5" stroke-linejoin="round"/>
<path d="M132.765 203.15C132.837 203.499 133.144 203.75 133.5 203.75C133.856 203.75 134.163 203.499 134.235 203.15L138.807 180.807L161.15 176.235C161.499 176.163 161.75 175.856 161.75 175.5C161.75 175.144 161.499 174.837 161.15 174.765L138.807 170.193L134.235 147.85C134.163 147.501 133.856 147.25 133.5 147.25C133.144 147.25 132.837 147.501 132.765 147.85L128.193 170.193L105.85 174.765C105.501 174.837 105.25 175.144 105.25 175.5C105.25 175.856 105.501 176.163 105.85 176.235L128.193 180.807L132.765 203.15Z" fill="white" stroke="black" stroke-width="1.5" stroke-linejoin="round"/>
</svg>
