<svg width="512" height="512" viewBox="0 0 512 512" fill="none" xmlns="http://www.w3.org/2000/svg">
<path d="M257.471 120.195L409.816 375.932C415.871 386.097 408.546 398.987 396.714 398.987H92.0246C80.1923 398.987 72.8675 386.097 78.9231 375.932L231.268 120.195C237.182 110.268 251.557 110.268 257.471 120.195Z" fill="black" stroke="black" stroke-width="1.5"/>
<path d="M284.471 104.195L436.816 359.932C442.871 370.097 435.546 382.987 423.714 382.987H119.025C107.192 382.987 99.8675 370.097 105.923 359.932L258.268 104.195C264.182 94.2682 278.557 94.2682 284.471 104.195Z" fill="#9296FF" stroke="black" stroke-width="1.5"/>
<path d="M282.081 139.764L406.495 348.629C411.385 356.839 405.47 367.25 395.913 367.25H147.087C137.53 367.25 131.615 356.839 136.505 348.629L260.919 139.764C265.695 131.745 277.305 131.745 282.081 139.764Z" fill="#9296FF" stroke="black" stroke-width="1.5"/>
<path d="M282.081 139.764L406.495 348.629C411.385 356.839 405.47 367.25 395.913 367.25H147.087C137.53 367.25 131.615 356.839 136.505 348.629L260.919 139.764C265.695 131.745 277.305 131.745 282.081 139.764Z" fill="#FFD789" stroke="black" stroke-width="1.5"/>
<mask id="path-5-inside-1_92_13540" fill="white">
<path fill-rule="evenodd" clip-rule="evenodd" d="M377.913 368H395.913C406.052 368 412.328 356.955 407.139 348.245L282.726 139.38C278.296 131.943 268.323 131.008 262.5 136.575C263.337 137.376 264.089 138.311 264.726 139.38L389.139 348.245C394.328 356.955 388.052 368 377.913 368Z"/>
</mask>
<path fill-rule="evenodd" clip-rule="evenodd" d="M377.913 368H395.913C406.052 368 412.328 356.955 407.139 348.245L282.726 139.38C278.296 131.943 268.323 131.008 262.5 136.575C263.337 137.376 264.089 138.311 264.726 139.38L389.139 348.245C394.328 356.955 388.052 368 377.913 368Z" fill="black"/>
<path d="M407.139 348.245L408.428 347.477L408.428 347.477L407.139 348.245ZM282.726 139.38L281.437 140.147L281.437 140.147L282.726 139.38ZM262.5 136.575L261.463 135.491L260.329 136.575L261.463 137.659L262.5 136.575ZM264.726 139.38L263.437 140.147L264.726 139.38ZM389.139 348.245L390.428 347.477L390.428 347.477L389.139 348.245ZM395.913 366.5H377.913V369.5H395.913V366.5ZM405.85 349.012C410.443 356.723 404.888 366.5 395.913 366.5V369.5C407.216 369.5 414.212 357.187 408.428 347.477L405.85 349.012ZM281.437 140.147L405.85 349.012L408.428 347.477L284.014 138.612L281.437 140.147ZM263.537 137.659C268.691 132.731 277.52 133.572 281.437 140.147L284.014 138.612C279.071 130.314 267.955 129.284 261.463 135.491L263.537 137.659ZM261.463 137.659C262.202 138.366 262.869 139.194 263.437 140.147L266.014 138.612C265.308 137.427 264.472 136.385 263.537 135.491L261.463 137.659ZM263.437 140.147L387.85 349.012L390.428 347.477L266.014 138.612L263.437 140.147ZM387.85 349.012C392.443 356.723 386.888 366.5 377.913 366.5V369.5C389.216 369.5 396.212 357.187 390.428 347.477L387.85 349.012Z" fill="black" mask="url(#path-5-inside-1_92_13540)"/>
<path d="M266 287V199" stroke="black" stroke-width="18" stroke-linecap="round"/>
<circle cx="266" cy="328" r="17" fill="black"/>
<path d="M313.766 353.847C313.838 353.499 314.145 353.25 314.5 353.25C314.855 353.25 315.162 353.499 315.234 353.847L320.484 379.096L346.148 384.265C346.498 384.335 346.75 384.643 346.75 385C346.75 385.357 346.498 385.665 346.148 385.735L320.484 390.904L315.234 416.153C315.162 416.501 314.855 416.75 314.5 416.75C314.145 416.75 313.838 416.501 313.766 416.153L308.516 390.904L282.852 385.735C282.502 385.665 282.25 385.357 282.25 385C282.25 384.643 282.502 384.335 282.852 384.265L308.516 379.096L313.766 353.847Z" fill="white" stroke="black" stroke-width="1.5" stroke-linejoin="round"/>
<path d="M164.766 132.847C164.838 132.499 165.145 132.25 165.5 132.25C165.855 132.25 166.162 132.499 166.234 132.847L171.484 158.096L197.148 163.265C197.498 163.335 197.75 163.643 197.75 164C197.75 164.357 197.498 164.665 197.148 164.735L171.484 169.904L166.234 195.153C166.162 195.501 165.855 195.75 165.5 195.75C165.145 195.75 164.838 195.501 164.766 195.153L159.516 169.904L133.852 164.735C133.502 164.665 133.25 164.357 133.25 164C133.25 163.643 133.502 163.335 133.852 163.265L159.516 158.096L164.766 132.847Z" fill="white" stroke="black" stroke-width="1.5" stroke-linejoin="round"/>
</svg>
