<svg width="512" height="512" viewBox="0 0 512 512" fill="none" xmlns="http://www.w3.org/2000/svg">
<path d="M73.7154 355.47L129.9 163.47C132.8 153.56 141.889 146.75 152.215 146.75L358.97 146.75C374.479 146.75 385.64 161.645 381.285 176.53L325.1 368.53C322.2 378.44 313.111 385.25 302.785 385.25L96.0296 385.25C80.521 385.25 69.3598 370.355 73.7154 355.47Z" fill="black" stroke="black" stroke-width="1.5"/>
<path d="M437.285 355.47L381.1 163.47C378.2 153.56 369.111 146.75 358.785 146.75L152.03 146.75C136.521 146.75 125.36 161.645 129.715 176.53L185.9 368.53C188.8 378.44 197.889 385.25 208.215 385.25L414.97 385.25C430.479 385.25 441.64 370.355 437.285 355.47Z" fill="#FFD789" stroke="black" stroke-width="1.5"/>
<path d="M136.795 201.25L392.002 201.25L381.068 163.528C378.187 153.589 369.085 146.75 358.737 146.75L151.944 146.75C136.46 146.75 125.303 161.601 129.613 176.473L136.795 201.25Z" fill="#9296FF" stroke="black" stroke-width="1.5"/>
<path d="M390.398 260.026L379.926 223.026C379.043 219.905 376.194 217.75 372.95 217.75L330.578 217.75C325.769 217.75 322.293 222.347 323.602 226.974L334.074 263.974C334.957 267.095 337.806 269.25 341.05 269.25L383.422 269.25C388.231 269.25 391.707 264.653 390.398 260.026Z" fill="black" stroke="black" stroke-width="1.5"/>
<path d="M393.398 258.026L382.926 221.026C382.043 217.905 379.194 215.75 375.95 215.75L333.578 215.75C328.769 215.75 325.293 220.347 326.602 224.974L337.074 261.974C337.957 265.095 340.806 267.25 344.05 267.25L386.422 267.25C391.231 267.25 394.707 262.653 393.398 258.026Z" fill="#9296FF" stroke="black" stroke-width="1.5"/>
<path d="M309.398 260.026L298.926 223.026C298.043 219.905 295.194 217.75 291.95 217.75L249.578 217.75C244.769 217.75 241.293 222.347 242.602 226.974L253.074 263.974C253.957 267.095 256.806 269.25 260.05 269.25L302.422 269.25C307.231 269.25 310.707 264.653 309.398 260.026Z" fill="black" stroke="black" stroke-width="1.5"/>
<path d="M328.398 326.026L317.926 289.026C317.043 285.905 314.194 283.75 310.95 283.75L268.578 283.75C263.769 283.75 260.293 288.347 261.602 292.974L272.074 329.974C272.957 333.095 275.806 335.25 279.05 335.25L321.422 335.25C326.231 335.25 329.707 330.653 328.398 326.026Z" fill="black" stroke="black" stroke-width="1.5"/>
<path d="M312.398 258.026L301.926 221.026C301.043 217.905 298.194 215.75 294.95 215.75L252.578 215.75C247.769 215.75 244.293 220.347 245.602 224.974L256.074 261.974C256.957 265.095 259.806 267.25 263.05 267.25L305.422 267.25C310.231 267.25 313.707 262.653 312.398 258.026Z" fill="#9296FF" stroke="black" stroke-width="1.5"/>
<path d="M331.398 324.026L320.926 287.026C320.043 283.905 317.194 281.75 313.95 281.75L271.578 281.75C266.769 281.75 263.293 286.347 264.602 290.974L275.074 327.974C275.957 331.095 278.806 333.25 282.05 333.25L324.422 333.25C329.231 333.25 332.707 328.653 331.398 324.026Z" fill="#9296FF" stroke="black" stroke-width="1.5"/>
<path d="M228.398 260.026L217.926 223.026C217.043 219.905 214.194 217.75 210.95 217.75L168.578 217.75C163.769 217.75 160.293 222.347 161.602 226.974L172.074 263.974C172.957 267.095 175.806 269.25 179.05 269.25L221.422 269.25C226.231 269.25 229.707 264.653 228.398 260.026Z" fill="black" stroke="black" stroke-width="1.5"/>
<path d="M247.398 326.026L236.926 289.026C236.043 285.905 233.194 283.75 229.95 283.75L187.578 283.75C182.769 283.75 179.293 288.347 180.602 292.974L191.074 329.974C191.957 333.095 194.806 335.25 198.05 335.25L240.422 335.25C245.231 335.25 248.707 330.653 247.398 326.026Z" fill="black" stroke="black" stroke-width="1.5"/>
<path d="M231.398 258.026L220.926 221.026C220.043 217.905 217.194 215.75 213.95 215.75L171.578 215.75C166.769 215.75 163.293 220.347 164.602 224.974L175.074 261.974C175.957 265.095 178.806 267.25 182.05 267.25L224.422 267.25C229.231 267.25 232.707 262.653 231.398 258.026Z" fill="#9296FF" stroke="black" stroke-width="1.5"/>
<path d="M250.398 324.026L239.926 287.026C239.043 283.905 236.194 281.75 232.95 281.75L190.578 281.75C185.769 281.75 182.293 286.347 183.602 290.974L194.074 327.974C194.957 331.095 197.806 333.25 201.05 333.25L243.422 333.25C248.231 333.25 251.707 328.653 250.398 324.026Z" fill="#9296FF" stroke="black" stroke-width="1.5"/>
<circle cx="179" cy="171" r="8" fill="#FFD789"/>
<circle cx="232" cy="171" r="8" fill="#FFD789"/>
<circle cx="282" cy="171" r="8" fill="#FFD789"/>
<circle cx="335" cy="171" r="8" fill="#FFD789"/>
<path fill-rule="evenodd" clip-rule="evenodd" d="M180.433 178.872C184.167 178.197 187 174.929 187 171C187 166.582 183.418 163 179 163C176.902 163 174.993 163.807 173.566 165.128C174.031 165.044 174.51 165 174.999 165C179.418 165 182.999 168.582 182.999 173C182.999 175.321 182.011 177.411 180.433 178.872Z" fill="black"/>
<path fill-rule="evenodd" clip-rule="evenodd" d="M233.433 178.872C237.167 178.197 240 174.929 240 171C240 166.582 236.418 163 232 163C229.902 163 227.993 163.807 226.566 165.128C227.031 165.044 227.51 165 227.999 165C232.418 165 235.999 168.582 235.999 173C235.999 175.321 235.011 177.411 233.433 178.872Z" fill="black"/>
<path fill-rule="evenodd" clip-rule="evenodd" d="M283.433 178.872C287.167 178.197 290 174.929 290 171C290 166.582 286.418 163 282 163C279.902 163 277.993 163.807 276.566 165.128C277.031 165.044 277.51 165 277.999 165C282.418 165 285.999 168.582 285.999 173C285.999 175.321 285.011 177.411 283.433 178.872Z" fill="black"/>
<path fill-rule="evenodd" clip-rule="evenodd" d="M336.433 178.872C340.167 178.197 343 174.929 343 171C343 166.582 339.418 163 335 163C332.902 163 330.993 163.807 329.566 165.128C330.031 165.044 330.51 165 330.999 165C335.418 165 338.999 168.582 338.999 173C338.999 175.321 338.011 177.411 336.433 178.872Z" fill="black"/>
<path d="M164.079 147.603C164.39 142.911 165.601 138.55 167.487 135.117C169.381 131.671 171.783 129.458 174.234 128.523C176.618 127.613 179.123 127.88 181.505 129.409C183.941 130.972 186.167 133.818 187.744 137.723C189.315 141.612 190.111 146.238 189.988 150.952C189.864 155.667 188.829 160.156 187.072 163.797C185.308 167.452 182.972 169.944 180.52 171.148C178.133 172.321 175.632 172.285 173.245 171.029" stroke="black" stroke-width="4" stroke-linecap="round" stroke-linejoin="round"/>
<path d="M217.579 147.603C217.89 142.911 219.101 138.55 220.987 135.117C222.881 131.671 225.283 129.458 227.734 128.523C230.118 127.613 232.623 127.88 235.005 129.409C237.441 130.972 239.667 133.818 241.244 137.723C242.815 141.612 243.611 146.238 243.488 150.952C243.364 155.667 242.329 160.156 240.572 163.797C238.808 167.452 236.472 169.944 234.02 171.148C231.633 172.321 229.132 172.285 226.745 171.029" stroke="black" stroke-width="4" stroke-linecap="round" stroke-linejoin="round"/>
<path d="M267.579 147.603C267.89 142.911 269.101 138.55 270.987 135.117C272.881 131.671 275.283 129.458 277.734 128.523C280.118 127.613 282.623 127.88 285.005 129.409C287.441 130.972 289.667 133.818 291.244 137.723C292.815 141.612 293.611 146.238 293.488 150.952C293.364 155.667 292.329 160.156 290.572 163.797C288.808 167.452 286.472 169.944 284.02 171.148C281.633 172.321 279.132 172.285 276.745 171.029" stroke="black" stroke-width="4" stroke-linecap="round" stroke-linejoin="round"/>
<path d="M320.579 147.603C320.89 142.911 322.101 138.55 323.987 135.117C325.881 131.671 328.283 129.458 330.734 128.523C333.118 127.613 335.623 127.88 338.005 129.409C340.441 130.972 342.667 133.818 344.244 137.723C345.815 141.612 346.611 146.238 346.488 150.952C346.364 155.667 345.329 160.156 343.572 163.797C341.808 167.452 339.472 169.944 337.02 171.148C334.633 172.321 332.132 172.285 329.745 171.029" stroke="black" stroke-width="4" stroke-linecap="round" stroke-linejoin="round"/>
<path d="M161.5 147.5H167V151H161.5V147.5Z" fill="#9296FF"/>
<path d="M215 147.5H220.5V151H215V147.5Z" fill="#9296FF"/>
<path d="M265 147.5H270.5V151H265V147.5Z" fill="#9296FF"/>
<path d="M318 147.5H323.5V151H318V147.5Z" fill="#9296FF"/>
<path d="M346.766 312.847C346.838 312.499 347.145 312.25 347.5 312.25C347.855 312.25 348.162 312.499 348.234 312.847L353.484 338.096L379.148 343.265C379.498 343.335 379.75 343.643 379.75 344C379.75 344.357 379.498 344.665 379.148 344.735L353.484 349.904L348.234 375.153C348.162 375.501 347.855 375.75 347.5 375.75C347.145 375.75 346.838 375.501 346.766 375.153L341.516 349.904L315.852 344.735C315.502 344.665 315.25 344.357 315.25 344C315.25 343.643 315.502 343.335 315.852 343.265L341.516 338.096L346.766 312.847Z" fill="white" stroke="black" stroke-width="1.5" stroke-linejoin="round"/>
<path d="M124.234 145.847C124.162 145.499 123.855 145.25 123.5 145.25C123.145 145.25 122.838 145.499 122.766 145.847L117.516 171.096L91.8519 176.265C91.5018 176.335 91.25 176.643 91.25 177C91.25 177.357 91.5018 177.665 91.8519 177.735L117.516 182.904L122.766 208.153C122.838 208.501 123.145 208.75 123.5 208.75C123.855 208.75 124.162 208.501 124.234 208.153L129.484 182.904L155.148 177.735C155.498 177.665 155.75 177.357 155.75 177C155.75 176.643 155.498 176.335 155.148 176.265L129.484 171.096L124.234 145.847Z" fill="white" stroke="black" stroke-width="1.5" stroke-linejoin="round"/>
</svg>
