<svg width="512" height="512" viewBox="0 0 512 512" fill="none" xmlns="http://www.w3.org/2000/svg">
<rect x="-0.75" y="-0.75" width="275.5" height="307.5" rx="23.25" transform="matrix(3.41176e-08 -1 -1 -5.60029e-08 405.5 404.5)" fill="black" stroke="black" stroke-width="1.5"/>
<rect x="-0.75" y="-0.75" width="275.5" height="307.5" rx="23.25" transform="matrix(3.41176e-08 -1 -1 -5.60029e-08 432.5 404.5)" fill="#FFD789" stroke="black" stroke-width="1.5"/>
<path d="M416.25 367L416.25 254C416.25 241.159 405.841 230.75 393 230.75L167 230.75C154.159 230.75 143.75 241.159 143.75 254L143.75 367C143.75 379.841 154.159 390.25 167 390.25L393 390.25C405.841 390.25 416.25 379.841 416.25 367Z" fill="#9296FF" stroke="black" stroke-width="1.5"/>
<mask id="path-4-inside-1_92_14088" fill="white">
<path fill-rule="evenodd" clip-rule="evenodd" d="M385.244 230.69H392.783C406.038 230.69 416.783 241.435 416.783 254.69L416.783 366.628C416.783 379.882 406.038 390.628 392.783 390.628H385.249C398.502 390.625 409.244 379.881 409.244 366.628L409.244 254.69C409.244 241.435 398.499 230.69 385.244 230.69Z"/>
</mask>
<path fill-rule="evenodd" clip-rule="evenodd" d="M385.244 230.69H392.783C406.038 230.69 416.783 241.435 416.783 254.69L416.783 366.628C416.783 379.882 406.038 390.628 392.783 390.628H385.249C398.502 390.625 409.244 379.881 409.244 366.628L409.244 254.69C409.244 241.435 398.499 230.69 385.244 230.69Z" fill="black"/>
<path d="M392.783 230.69L392.783 229.19H392.783V230.69ZM416.783 254.69L415.283 254.69V254.69L416.783 254.69ZM416.783 366.628L418.283 366.628V366.628L416.783 366.628ZM385.249 390.628L385.249 389.128L385.249 392.128V390.628ZM409.244 366.628L410.744 366.628L409.244 366.628ZM409.244 254.69L407.744 254.69V254.69L409.244 254.69ZM392.783 229.19H385.244V232.19H392.783V229.19ZM418.283 254.69C418.283 240.607 406.867 229.19 392.783 229.19L392.783 232.19C405.21 232.19 415.283 242.264 415.283 254.69L418.283 254.69ZM418.283 366.628L418.283 254.69L415.283 254.69L415.283 366.628L418.283 366.628ZM392.783 392.128C406.867 392.128 418.283 380.711 418.283 366.628L415.283 366.628C415.283 379.054 405.21 389.128 392.783 389.128V392.128ZM385.249 392.128H392.783V389.128H385.249V392.128ZM385.249 392.128C399.33 392.125 410.744 380.709 410.744 366.628L407.744 366.628C407.744 379.052 397.673 389.125 385.249 389.128L385.249 392.128ZM410.744 366.628L410.744 254.69L407.744 254.69L407.744 366.628L410.744 366.628ZM410.744 254.69C410.744 240.607 399.327 229.19 385.244 229.19L385.244 232.19C397.671 232.19 407.744 242.264 407.744 254.69L410.744 254.69Z" fill="black" mask="url(#path-4-inside-1_92_14088)"/>
<path d="M173 266L287 266" stroke="black" stroke-width="1.5" stroke-linecap="round"/>
<path d="M173 302L287 302" stroke="black" stroke-width="1.5" stroke-linecap="round"/>
<path d="M173 337L287 337" stroke="black" stroke-width="1.5" stroke-linecap="round"/>
<path d="M173 284L233 284" stroke="black" stroke-width="1.5" stroke-linecap="round"/>
<path d="M173 320L233 320" stroke="black" stroke-width="1.5" stroke-linecap="round"/>
<path d="M173 354L233 354" stroke="black" stroke-width="1.5" stroke-linecap="round"/>
<mask id="path-12-inside-2_92_14088" fill="white">
<path fill-rule="evenodd" clip-rule="evenodd" d="M319.054 106.019C314.639 106.166 311.179 109.866 311.326 114.282L313.399 176.247C313.511 179.602 315.674 182.406 318.644 183.494L325.014 373.969C325.179 378.893 326.816 383.421 329.488 387.144L354.99 435.574C356.548 438.531 360.83 438.388 362.186 435.333L384.396 385.308C386.813 381.414 388.144 376.787 387.979 371.863L381.592 180.9C383.936 179.437 385.457 176.8 385.358 173.84L383.286 111.875C383.138 107.459 379.439 103.999 375.023 104.147L374.355 84.158C374.059 75.3263 366.66 68.4063 357.829 68.7017L333.842 69.5039C325.01 69.7993 318.09 77.1982 318.386 86.0298L319.054 106.019Z"/>
</mask>
<path fill-rule="evenodd" clip-rule="evenodd" d="M319.054 106.019C314.639 106.166 311.179 109.866 311.326 114.282L313.399 176.247C313.511 179.602 315.674 182.406 318.644 183.494L325.014 373.969C325.179 378.893 326.816 383.421 329.488 387.144L354.99 435.574C356.548 438.531 360.83 438.388 362.186 435.333L384.396 385.308C386.813 381.414 388.144 376.787 387.979 371.863L381.592 180.9C383.936 179.437 385.457 176.8 385.358 173.84L383.286 111.875C383.138 107.459 379.439 103.999 375.023 104.147L374.355 84.158C374.059 75.3263 366.66 68.4063 357.829 68.7017L333.842 69.5039C325.01 69.7993 318.09 77.1982 318.386 86.0298L319.054 106.019Z" fill="black"/>
<path d="M319.054 106.019L319.104 107.518L320.604 107.468L320.553 105.968L319.054 106.019ZM311.326 114.282L312.825 114.231L312.825 114.231L311.326 114.282ZM313.399 176.247L311.899 176.297L311.899 176.297L313.399 176.247ZM318.644 183.494L320.143 183.444L320.109 182.434L319.16 182.086L318.644 183.494ZM325.014 373.969L323.515 374.019L323.515 374.019L325.014 373.969ZM329.488 387.144L330.815 386.445L330.767 386.354L330.706 386.269L329.488 387.144ZM354.99 435.574L353.663 436.273L353.663 436.273L354.99 435.574ZM362.186 435.333L363.557 435.942L363.557 435.942L362.186 435.333ZM384.396 385.308L383.121 384.516L383.067 384.604L383.025 384.699L384.396 385.308ZM387.979 371.863L386.48 371.913L386.48 371.913L387.979 371.863ZM381.592 180.9L380.798 179.627L380.064 180.085L380.093 180.95L381.592 180.9ZM375.023 104.147L373.524 104.197L373.574 105.696L375.073 105.646L375.023 104.147ZM357.829 68.7017L357.879 70.2009L357.829 68.7017ZM333.842 69.5039L333.792 68.0048L333.842 69.5039ZM318.386 86.0298L319.885 85.9797L319.885 85.9797L318.386 86.0298ZM319.004 104.519C313.76 104.695 309.652 109.088 309.827 114.332L312.825 114.231C312.705 110.644 315.517 107.638 319.104 107.518L319.004 104.519ZM309.827 114.332L311.899 176.297L314.898 176.197L312.825 114.231L309.827 114.332ZM311.899 176.297C312.033 180.284 314.604 183.611 318.128 184.903L319.16 182.086C316.744 181.201 314.989 178.921 314.898 176.197L311.899 176.297ZM317.145 183.544L323.515 374.019L326.513 373.919L320.143 183.444L317.145 183.544ZM323.515 374.019C323.69 379.249 325.429 384.062 328.269 388.019L330.706 386.269C328.202 382.78 326.668 378.537 326.513 373.919L323.515 374.019ZM328.16 387.843L353.663 436.273L356.318 434.875L330.815 386.445L328.16 387.843ZM353.663 436.273C355.804 440.339 361.692 440.142 363.557 435.942L360.815 434.725C359.967 436.634 357.291 436.723 356.318 434.875L353.663 436.273ZM363.557 435.942L385.767 385.916L383.025 384.699L360.815 434.725L363.557 435.942ZM385.67 386.099C388.239 381.961 389.653 377.043 389.478 371.813L386.48 371.913C386.634 376.532 385.387 380.867 383.121 384.516L385.67 386.099ZM389.478 371.813L383.091 180.85L380.093 180.95L386.48 371.913L389.478 371.813ZM382.386 182.172C385.166 180.438 386.975 177.306 386.858 173.79L383.859 173.89C383.94 176.293 382.706 178.437 380.798 179.627L382.386 182.172ZM386.858 173.79L384.785 111.825L381.787 111.925L383.859 173.89L386.858 173.79ZM384.785 111.825C384.61 106.581 380.217 102.472 374.973 102.648L375.073 105.646C378.661 105.526 381.667 108.337 381.787 111.925L384.785 111.825ZM376.522 104.097L375.854 84.1078L372.855 84.2081L373.524 104.197L376.522 104.097ZM375.854 84.1078C375.531 74.4482 367.438 66.8795 357.779 67.2026L357.879 70.2009C365.882 69.9332 372.588 76.2044 372.855 84.2081L375.854 84.1078ZM357.779 67.2026L333.792 68.0048L333.892 71.0031L357.879 70.2009L357.779 67.2026ZM333.792 68.0048C324.132 68.3278 316.564 76.4204 316.887 86.0799L319.885 85.9797C319.617 77.976 325.889 71.2708 333.892 71.0031L333.792 68.0048ZM316.887 86.0799L317.555 106.069L320.553 105.968L319.885 85.9797L316.887 86.0799Z" fill="black" mask="url(#path-12-inside-2_92_14088)"/>
<path d="M387.25 117.25L387.25 85C387.25 76.5777 380.422 69.75 372 69.75L348 69.75C339.578 69.75 332.75 76.5777 332.75 85L332.75 117.25L387.25 117.25Z" fill="#9296FF" stroke="black" stroke-width="1.5"/>
<path d="M391.25 373L391.25 166.75L329.75 166.75L329.75 373C329.75 385.841 340.159 396.25 353 396.25L368 396.25C380.841 396.25 391.25 385.841 391.25 373Z" fill="#FFD789" stroke="black" stroke-width="1.5"/>
<mask id="path-16-inside-3_92_14088" fill="white">
<path fill-rule="evenodd" clip-rule="evenodd" d="M346.777 396.411V165.53L373.703 165.53V396.411C371.879 396.855 369.973 397.09 368.012 397.09H352.468C350.507 397.09 348.602 396.855 346.777 396.411Z"/>
</mask>
<path fill-rule="evenodd" clip-rule="evenodd" d="M346.777 396.411V165.53L373.703 165.53V396.411C371.879 396.855 369.973 397.09 368.012 397.09H352.468C350.507 397.09 348.602 396.855 346.777 396.411Z" fill="#9296FF"/>
<path d="M346.777 396.411H345.277V397.59L346.423 397.869L346.777 396.411ZM346.777 165.53L346.777 164.03L345.277 164.03V165.53H346.777ZM373.703 165.53H375.203V164.03L373.703 164.03L373.703 165.53ZM373.703 396.411L374.057 397.869L375.203 397.59V396.411H373.703ZM348.277 396.411V165.53H345.277V396.411H348.277ZM373.703 164.03L346.777 164.03L346.777 167.03L373.703 167.03L373.703 164.03ZM372.203 165.53V396.411H375.203V165.53H372.203ZM368.012 398.59C370.093 398.59 372.118 398.34 374.057 397.869L373.348 394.953C371.639 395.369 369.853 395.59 368.012 395.59V398.59ZM352.468 398.59H368.012V395.59H352.468V398.59ZM346.423 397.869C348.362 398.34 350.387 398.59 352.468 398.59V395.59C350.628 395.59 348.841 395.369 347.132 394.954L346.423 397.869Z" fill="black" mask="url(#path-16-inside-3_92_14088)"/>
<path d="M363.425 435.245L388.541 383.417C389.587 381.259 388.015 378.75 385.617 378.75L335.383 378.75C332.985 378.75 331.413 381.259 332.459 383.417L357.575 435.245C358.76 437.689 362.24 437.689 363.425 435.245Z" fill="#9296FF" stroke="black" stroke-width="1.5"/>
<path fill-rule="evenodd" clip-rule="evenodd" d="M363.85 435.955C362.394 438.966 358.105 438.966 356.648 435.955L342.02 405.706H378.479L363.85 435.955Z" fill="black"/>
<path d="M395.25 175L395.25 113C395.25 108.996 392.004 105.75 388 105.75L332 105.75C327.996 105.75 324.75 108.996 324.75 113L324.75 175C324.75 179.004 327.996 182.25 332 182.25L388 182.25C392.004 182.25 395.25 179.004 395.25 175Z" fill="#9296FF" stroke="black" stroke-width="1.5"/>
<circle cx="181" cy="151" r="8" fill="#9296FF"/>
<circle cx="181" cy="151" r="8" fill="#9296FF"/>
<circle cx="235" cy="151" r="8" fill="#9296FF"/>
<circle cx="288" cy="151" r="8" fill="#9296FF"/>
<path fill-rule="evenodd" clip-rule="evenodd" d="M182.433 158.872C186.167 158.197 189 154.929 189 151C189 146.582 185.418 143 181 143C178.902 143 176.993 143.807 175.566 145.128C176.031 145.044 176.51 145 176.999 145C181.418 145 184.999 148.582 184.999 153C184.999 155.321 184.011 157.411 182.433 158.872Z" fill="black"/>
<path fill-rule="evenodd" clip-rule="evenodd" d="M182.433 158.872C186.167 158.197 189 154.929 189 151C189 146.582 185.418 143 181 143C178.902 143 176.993 143.807 175.566 145.128C176.031 145.044 176.51 145 176.999 145C181.418 145 184.999 148.582 184.999 153C184.999 155.321 184.011 157.411 182.433 158.872Z" fill="black"/>
<path fill-rule="evenodd" clip-rule="evenodd" d="M236.433 158.872C240.167 158.197 243 154.929 243 151C243 146.582 239.418 143 235 143C232.902 143 230.993 143.807 229.566 145.128C230.031 145.044 230.51 145 230.999 145C235.418 145 238.999 148.582 238.999 153C238.999 155.321 238.011 157.411 236.433 158.872Z" fill="black"/>
<path fill-rule="evenodd" clip-rule="evenodd" d="M289.433 158.872C293.167 158.197 296 154.929 296 151C296 146.582 292.418 143 288 143C285.902 143 283.993 143.807 282.566 145.128C283.031 145.044 283.51 145 283.999 145C288.418 145 291.999 148.582 291.999 153C291.999 155.321 291.011 157.411 289.433 158.872Z" fill="black"/>
<path d="M166.079 127.603C166.39 122.911 167.601 118.55 169.487 115.117C171.381 111.671 173.783 109.458 176.234 108.523C178.618 107.613 181.123 107.88 183.505 109.409C185.941 110.972 188.167 113.818 189.744 117.723C191.315 121.612 192.111 126.238 191.988 130.952C191.864 135.667 190.829 140.156 189.072 143.797C187.308 147.452 184.972 149.944 182.52 151.148C180.133 152.321 177.632 152.285 175.245 151.029" stroke="black" stroke-width="4" stroke-linecap="round" stroke-linejoin="round"/>
<path d="M166.079 127.603C166.39 122.911 167.601 118.55 169.487 115.117C171.381 111.671 173.783 109.458 176.234 108.523C178.618 107.613 181.123 107.88 183.505 109.409C185.941 110.972 188.167 113.818 189.744 117.723C191.315 121.612 192.111 126.238 191.988 130.952C191.864 135.667 190.829 140.156 189.072 143.797C187.308 147.452 184.972 149.944 182.52 151.148C180.133 152.321 177.632 152.285 175.245 151.029" stroke="black" stroke-width="4" stroke-linecap="round" stroke-linejoin="round"/>
<path d="M220.079 127.603C220.39 122.911 221.601 118.55 223.487 115.117C225.381 111.671 227.783 109.458 230.234 108.523C232.618 107.613 235.123 107.88 237.505 109.409C239.941 110.972 242.167 113.818 243.744 117.723C245.315 121.612 246.111 126.238 245.988 130.952C245.864 135.667 244.829 140.156 243.072 143.797C241.308 147.452 238.972 149.944 236.52 151.148C234.133 152.321 231.632 152.285 229.245 151.029" stroke="black" stroke-width="4" stroke-linecap="round" stroke-linejoin="round"/>
<path d="M273.079 127.603C273.39 122.911 274.601 118.55 276.487 115.117C278.381 111.671 280.783 109.458 283.234 108.523C285.618 107.613 288.123 107.88 290.505 109.409C292.941 110.972 295.167 113.818 296.744 117.723C298.315 121.612 299.111 126.238 298.988 130.952C298.864 135.667 297.829 140.156 296.072 143.797C294.308 147.452 291.972 149.944 289.52 151.148C287.133 152.321 284.632 152.285 282.245 151.029" stroke="black" stroke-width="4" stroke-linecap="round" stroke-linejoin="round"/>
<path d="M108.735 120.85C108.663 120.501 108.356 120.25 108 120.25C107.644 120.25 107.337 120.501 107.265 120.85L102.268 145.268L77.8496 150.265C77.5006 150.337 77.25 150.644 77.25 151C77.25 151.356 77.5006 151.663 77.8496 151.735L102.268 156.732L107.265 181.15C107.337 181.499 107.644 181.75 108 181.75C108.356 181.75 108.663 181.499 108.735 181.15L113.732 156.732L138.15 151.735C138.499 151.663 138.75 151.356 138.75 151C138.75 150.644 138.499 150.337 138.15 150.265L113.732 145.268L108.735 120.85Z" fill="white" stroke="black" stroke-width="1.5" stroke-linejoin="round"/>
<path d="M330.235 308.85C330.163 308.501 329.856 308.25 329.5 308.25C329.144 308.25 328.837 308.501 328.765 308.85L324.193 331.193L301.85 335.765C301.501 335.837 301.25 336.144 301.25 336.5C301.25 336.856 301.501 337.163 301.85 337.235L324.193 341.807L328.765 364.15C328.837 364.499 329.144 364.75 329.5 364.75C329.856 364.75 330.163 364.499 330.235 364.15L334.807 341.807L357.15 337.235C357.499 337.163 357.75 336.856 357.75 336.5C357.75 336.144 357.499 335.837 357.15 335.765L334.807 331.193L330.235 308.85Z" fill="white" stroke="black" stroke-width="1.5" stroke-linejoin="round"/>
</svg>
