<svg width="512" height="512" viewBox="0 0 512 512" fill="none" xmlns="http://www.w3.org/2000/svg">
<path d="M114.833 143.647C115.444 137.168 119.411 130.922 126.269 125.174C133.123 119.429 142.8 114.237 154.672 109.87C178.411 101.137 210.787 95.75 246.5 95.75C282.213 95.75 314.589 101.137 338.328 109.87C350.2 114.237 359.877 119.429 366.731 125.174C373.589 130.922 377.556 137.167 378.167 143.647C378.176 143.75 378.205 143.847 378.25 143.934V216.75C378.25 227.732 373.131 238.087 364.406 244.756L285.453 305.101C281.307 308.27 278.875 313.191 278.875 318.409V376C278.875 384.422 272.047 391.25 263.625 391.25H246.5H229.375C220.953 391.25 214.125 384.422 214.125 376V318.409C214.125 313.191 211.693 308.27 207.547 305.101L128.594 244.756C119.869 238.087 114.75 227.732 114.75 216.75V143.934C114.795 143.846 114.824 143.75 114.833 143.647Z" fill="black" stroke="black" stroke-width="1.5"/>
<path d="M132.833 143.647C133.444 137.168 137.411 130.922 144.269 125.174C151.123 119.429 160.8 114.237 172.672 109.87C196.411 101.137 228.787 95.75 264.5 95.75C300.213 95.75 332.589 101.137 356.328 109.87C368.2 114.237 377.877 119.429 384.731 125.174C391.589 130.922 395.556 137.167 396.167 143.647C396.176 143.75 396.205 143.847 396.25 143.934V216.75C396.25 227.732 391.131 238.087 382.406 244.756L303.453 305.101C299.307 308.27 296.875 313.191 296.875 318.409V376C296.875 384.422 290.047 391.25 281.625 391.25H264.5H247.375C238.953 391.25 232.125 384.422 232.125 376V318.409C232.125 313.191 229.693 308.27 225.547 305.101L146.594 244.756C137.869 238.087 132.75 227.732 132.75 216.75V143.934C132.795 143.846 132.824 143.75 132.833 143.647Z" fill="#FFD789" stroke="black" stroke-width="1.5"/>
<path d="M396.25 179.5C396.25 185.834 392.994 192.128 386.652 198.046C380.309 203.965 370.932 209.455 358.843 214.155C334.668 223.553 301.735 228.979 267.118 229.24C232.502 229.501 199.027 224.577 173.886 215.548C161.315 211.033 151.363 205.684 144.398 199.855C137.429 194.023 133.509 187.764 132.85 181.422" stroke="black" stroke-width="1.5"/>
<path d="M396.25 145.5C396.25 152.187 392.71 158.643 386.124 164.601C379.537 170.558 369.964 175.958 358.07 180.508C334.288 189.607 301.383 195.25 265 195.25C228.617 195.25 195.712 189.607 171.93 180.508C160.036 175.958 150.463 170.558 143.876 164.601C137.29 158.643 133.75 152.187 133.75 145.5C133.75 138.813 137.29 132.357 143.876 126.399C150.463 120.442 160.036 115.042 171.93 110.492C195.712 101.393 228.617 95.75 265 95.75C301.383 95.75 334.288 101.393 358.07 110.492C369.964 115.042 379.537 120.442 386.124 126.399C392.71 132.357 396.25 138.813 396.25 145.5Z" fill="#FFD789" stroke="black" stroke-width="1.5"/>
<path d="M378.25 144C378.25 149.065 375.251 154.002 369.57 158.597C363.895 163.187 355.638 167.354 345.367 170.868C324.835 177.892 296.42 182.25 265 182.25C233.58 182.25 205.165 177.892 184.633 170.868C174.362 167.354 166.105 163.187 160.43 158.597C154.749 154.002 151.75 149.065 151.75 144C151.75 138.935 154.749 133.998 160.43 129.403C166.105 124.813 174.362 120.646 184.633 117.132C205.165 110.108 233.58 105.75 265 105.75C296.42 105.75 324.835 110.108 345.367 117.132C355.638 120.646 363.895 124.813 369.57 129.403C375.251 133.998 378.25 138.935 378.25 144Z" fill="#9296FF" stroke="black" stroke-width="1.5"/>
<mask id="path-6-inside-1_92_13627" fill="white">
<path fill-rule="evenodd" clip-rule="evenodd" d="M351.242 169.221C368.404 162.429 378.779 153.588 378.779 143.922C378.779 122.498 327.815 105.13 264.949 105.13C202.082 105.13 151.119 122.498 151.119 143.922C151.119 153.588 161.494 162.429 178.656 169.221C199.53 160.959 230.447 155.728 264.949 155.728C299.451 155.728 330.367 160.959 351.242 169.221Z"/>
</mask>
<path fill-rule="evenodd" clip-rule="evenodd" d="M351.242 169.221C368.404 162.429 378.779 153.588 378.779 143.922C378.779 122.498 327.815 105.13 264.949 105.13C202.082 105.13 151.119 122.498 151.119 143.922C151.119 153.588 161.494 162.429 178.656 169.221C199.53 160.959 230.447 155.728 264.949 155.728C299.451 155.728 330.367 160.959 351.242 169.221Z" fill="black"/>
<path d="M351.242 169.221L350.69 170.616L351.242 170.834L351.794 170.616L351.242 169.221ZM178.656 169.221L178.104 170.616L178.656 170.834L179.208 170.616L178.656 169.221ZM377.279 143.922C377.279 148.176 375.001 152.429 370.442 156.535C365.885 160.639 359.18 164.467 350.69 167.826L351.794 170.616C360.467 167.183 367.53 163.195 372.45 158.764C377.369 154.334 380.279 149.334 380.279 143.922H377.279ZM264.949 106.63C296.263 106.63 324.549 110.958 344.955 117.912C355.165 121.391 363.32 125.501 368.892 129.99C374.478 134.491 377.279 139.208 377.279 143.922H380.279C380.279 137.924 376.709 132.436 370.775 127.654C364.827 122.862 356.312 118.612 345.923 115.072C325.13 107.986 296.501 103.63 264.949 103.63V106.63ZM152.619 143.922C152.619 139.208 155.42 134.491 161.006 129.99C166.578 125.501 174.733 121.391 184.943 117.912C205.348 110.958 233.635 106.63 264.949 106.63V103.63C233.397 103.63 204.768 107.986 183.975 115.072C173.586 118.612 165.071 122.862 159.123 127.654C153.189 132.436 149.619 137.924 149.619 143.922H152.619ZM179.208 167.826C170.718 164.467 164.013 160.639 159.455 156.535C154.897 152.429 152.619 148.176 152.619 143.922H149.619C149.619 149.334 152.529 154.334 157.448 158.764C162.368 163.195 169.431 167.183 178.104 170.616L179.208 167.826ZM179.208 170.616C199.854 162.444 230.57 157.228 264.949 157.228V154.228C230.324 154.228 199.207 159.474 178.104 167.826L179.208 170.616ZM264.949 157.228C299.328 157.228 330.044 162.444 350.69 170.616L351.794 167.826C330.691 159.474 299.574 154.228 264.949 154.228V157.228Z" fill="black" mask="url(#path-6-inside-1_92_13627)"/>
<mask id="path-8-outside-2_92_13627" maskUnits="userSpaceOnUse" x="196.555" y="142" width="61" height="40" fill="black">
<rect fill="white" x="196.555" y="142" width="61" height="40"/>
<path fill-rule="evenodd" clip-rule="evenodd" d="M233.502 179.531C220.806 178.317 209.018 176.387 198.555 173.881L219.149 169.734L224.5 144L229.851 169.734L256 175L233.502 179.531Z"/>
</mask>
<path fill-rule="evenodd" clip-rule="evenodd" d="M233.502 179.531C220.806 178.317 209.018 176.387 198.555 173.881L219.149 169.734L224.5 144L229.851 169.734L256 175L233.502 179.531Z" fill="white"/>
<path d="M233.502 179.531L233.359 181.024C233.506 181.038 233.653 181.03 233.798 181.001L233.502 179.531ZM198.555 173.881L198.259 172.411C197.568 172.55 197.068 173.15 197.055 173.854C197.042 174.558 197.521 175.176 198.205 175.34L198.555 173.881ZM219.149 169.734L219.446 171.204C220.034 171.086 220.496 170.627 220.618 170.039L219.149 169.734ZM224.5 144L225.969 143.695C225.824 142.999 225.211 142.5 224.5 142.5C223.79 142.5 223.176 142.999 223.032 143.695L224.5 144ZM229.851 169.734L228.383 170.039C228.505 170.627 228.966 171.086 229.555 171.204L229.851 169.734ZM256 175L256.296 176.47C256.997 176.329 257.5 175.714 257.5 175C257.5 174.286 256.997 173.671 256.296 173.53L256 175ZM233.644 178.038C221.009 176.829 209.291 174.91 198.904 172.423L198.205 175.34C208.744 177.864 220.603 179.804 233.359 181.024L233.644 178.038ZM218.853 168.263L198.259 172.411L198.851 175.352L219.446 171.204L218.853 168.263ZM223.032 143.695L217.681 169.429L220.618 170.039L225.969 144.305L223.032 143.695ZM231.32 169.429L225.969 143.695L223.032 144.305L228.383 170.039L231.32 169.429ZM256.296 173.53L230.147 168.263L229.555 171.204L255.704 176.47L256.296 173.53ZM233.798 181.001L256.296 176.47L255.704 173.53L233.206 178.06L233.798 181.001Z" fill="black" mask="url(#path-8-outside-2_92_13627)"/>
<circle cx="318" cy="344" r="47.25" fill="black" stroke="black" stroke-width="1.5"/>
<circle cx="331" cy="344" r="47.25" fill="#9296FF" stroke="black" stroke-width="1.5"/>
<circle cx="331" cy="344" r="47.25" fill="#9296FF" stroke="black" stroke-width="1.5"/>
<path d="M281.766 354.847C281.838 354.499 282.145 354.25 282.5 354.25C282.855 354.25 283.162 354.499 283.234 354.847L288.484 380.096L314.148 385.265C314.498 385.335 314.75 385.643 314.75 386C314.75 386.357 314.498 386.665 314.148 386.735L288.484 391.904L283.234 417.153C283.162 417.501 282.855 417.75 282.5 417.75C282.145 417.75 281.838 417.501 281.766 417.153L276.516 391.904L250.852 386.735C250.502 386.665 250.25 386.357 250.25 386C250.25 385.643 250.502 385.335 250.852 385.265L276.516 380.096L281.766 354.847Z" fill="white" stroke="black" stroke-width="1.5" stroke-linejoin="round"/>
</svg>
