<svg width="512" height="512" viewBox="0 0 512 512" fill="none" xmlns="http://www.w3.org/2000/svg">
<rect x="-0.75" y="-0.75" width="276.5" height="322.5" rx="23.25" transform="matrix(4.55907e-08 -1 -1 -4.19096e-08 388.5 380.5)" fill="black" stroke="black" stroke-width="1.5"/>
<rect x="-0.75" y="-0.75" width="267.5" height="322.5" rx="23.25" transform="matrix(4.63709e-08 -1 -1 -4.12045e-08 397.5 363.5)" fill="#FFD789" stroke="black" stroke-width="1.5"/>
<mask id="path-3-inside-1_92_12119" fill="white">
<path fill-rule="evenodd" clip-rule="evenodd" d="M399 345.056C399 358.311 388.255 369.056 375 369.056L99 369.056C85.7452 369.056 75 358.311 75 345.056V136.137H399V345.056Z"/>
</mask>
<path fill-rule="evenodd" clip-rule="evenodd" d="M399 345.056C399 358.311 388.255 369.056 375 369.056L99 369.056C85.7452 369.056 75 358.311 75 345.056V136.137H399V345.056Z" fill="#9296FF"/>
<path d="M375 369.056L375 370.556H375V369.056ZM99 369.056L99 367.556H99V369.056ZM75 136.137V134.637H73.5V136.137H75ZM399 136.137H400.5V134.637H399V136.137ZM375 370.556C389.083 370.556 400.5 359.139 400.5 345.056H397.5C397.5 357.483 387.426 367.556 375 367.556V370.556ZM99 370.556L375 370.556L375 367.556L99 367.556L99 370.556ZM73.5 345.056C73.5 359.139 84.9167 370.556 99 370.556V367.556C86.5736 367.556 76.5 357.483 76.5 345.056H73.5ZM73.5 136.137V345.056H76.5V136.137H73.5ZM75 137.637H399V134.637H75V137.637ZM397.5 136.137V345.056H400.5V136.137H397.5Z" fill="black" mask="url(#path-3-inside-1_92_12119)"/>
<path d="M149.009 260.852C180.401 250.035 203.224 233.678 199.986 224.317C196.748 214.955 168.675 216.135 137.283 226.952C105.891 237.768 83.0681 254.126 86.3061 263.487C89.544 272.848 117.617 271.669 149.009 260.852ZM149.009 260.852C117.617 271.669 94.8474 288.181 98.1515 297.733C101.456 307.285 129.582 306.261 160.974 295.444C192.366 284.628 215.135 268.115 211.831 258.563C208.527 249.011 180.401 250.035 149.009 260.852ZM154.991 278.148C186.383 267.332 209.153 250.819 205.849 241.267C202.545 231.715 174.418 232.739 143.026 243.556C111.635 254.372 88.8649 270.885 92.1689 280.437C95.473 289.989 123.6 288.965 154.991 278.148ZM154.991 278.148C123.6 288.965 100.776 305.322 104.014 314.683C107.252 324.045 135.325 322.865 166.717 312.048C198.109 301.232 220.932 284.874 217.694 275.513C214.456 266.152 186.383 267.332 154.991 278.148Z" stroke="black" stroke-width="1.5"/>
<circle cx="101" cy="119" r="7.25" fill="#FFD789" stroke="black" stroke-width="1.5"/>
<circle cx="125" cy="119" r="7.25" fill="white" stroke="black" stroke-width="1.5"/>
<circle cx="149" cy="119" r="7.25" fill="white" stroke="black" stroke-width="1.5"/>
<rect x="194.75" y="161.75" width="237.5" height="154.5" rx="15.25" fill="black" stroke="black" stroke-width="1.5"/>
<rect x="200.75" y="154.75" width="237.5" height="154.5" rx="15.25" fill="#9296FF" stroke="black" stroke-width="1.5"/>
<path d="M438 239.22H438.75V238.971L438.601 238.772L438 239.22ZM227.52 310L226.855 309.652L226.28 310.75H227.52V310ZM229.607 306.683L229.005 306.235L229.005 306.235L229.607 306.683ZM272.434 249.066L273.036 249.514L273.036 249.514L272.434 249.066ZM310.957 249.066L310.355 249.514L310.355 249.514L310.957 249.066ZM332.004 277.381L331.402 277.828L332.606 276.934L332.004 277.381ZM332.005 277.38L331.415 277.843L332.022 278.614L332.607 277.827L332.005 277.38ZM379.923 212.914L380.525 213.361L380.525 213.361L379.923 212.914ZM418.443 212.909L419.045 212.461L419.045 212.461L418.443 212.909ZM437.25 239.22V294H438.75V239.22H437.25ZM437.25 294C437.25 302.422 430.422 309.25 422 309.25V310.75C431.25 310.75 438.75 303.251 438.75 294H437.25ZM422 309.25H227.52V310.75H422V309.25ZM229.005 306.235C228.181 307.344 227.466 308.486 226.855 309.652L228.184 310.348C228.758 309.252 229.431 308.177 230.209 307.13L229.005 306.235ZM271.832 248.619L229.005 306.235L230.209 307.13L273.036 249.514L271.832 248.619ZM311.559 248.619C301.663 235.305 281.728 235.305 271.832 248.619L273.036 249.514C282.332 237.007 301.059 237.007 310.355 249.514L311.559 248.619ZM332.606 276.933L311.559 248.619L310.355 249.514L331.402 277.828L332.606 276.933ZM332.595 276.916C332.587 276.906 332.579 276.896 332.572 276.887C332.569 276.883 332.562 276.875 332.555 276.866C332.552 276.864 332.541 276.851 332.527 276.836C332.523 276.831 332.502 276.81 332.474 276.785C332.463 276.775 332.425 276.742 332.369 276.709C332.343 276.693 332.282 276.658 332.196 276.633C332.128 276.612 331.911 276.557 331.665 276.672C331.369 276.81 331.268 277.075 331.243 277.228C331.22 277.362 331.241 277.468 331.248 277.505C331.266 277.59 331.295 277.651 331.3 277.664C331.319 277.704 331.337 277.734 331.34 277.739C331.352 277.758 331.362 277.773 331.364 277.776C331.371 277.786 331.377 277.794 331.379 277.798C331.386 277.807 331.394 277.818 331.402 277.828L332.606 276.934C332.602 276.929 332.6 276.926 332.598 276.923C332.596 276.921 332.595 276.92 332.595 276.92C332.595 276.92 332.596 276.921 332.597 276.922C332.598 276.923 332.6 276.927 332.603 276.931C332.605 276.933 332.614 276.947 332.625 276.965C332.628 276.97 332.646 276.999 332.664 277.039C332.67 277.052 332.699 277.113 332.716 277.198C332.724 277.235 332.745 277.341 332.722 277.475C332.696 277.628 332.595 277.893 332.3 278.031C332.054 278.146 331.836 278.091 331.769 278.07C331.683 278.045 331.622 278.01 331.596 277.994C331.54 277.961 331.502 277.928 331.491 277.918C331.463 277.894 331.443 277.872 331.438 277.868C331.425 277.853 331.415 277.842 331.413 277.84C331.41 277.836 331.408 277.833 331.407 277.832C331.406 277.831 331.405 277.83 331.405 277.83C331.405 277.83 331.406 277.831 331.408 277.833C331.41 277.836 331.412 277.839 331.415 277.843L332.595 276.916ZM379.321 212.466L331.403 276.932L332.607 277.827L380.525 213.361L379.321 212.466ZM419.045 212.461C409.148 199.147 389.217 199.153 379.321 212.466L380.525 213.361C389.821 200.854 408.545 200.85 417.841 213.356L419.045 212.461ZM438.601 238.772L419.045 212.461L417.841 213.356L437.398 239.667L438.601 238.772Z" fill="black"/>
<rect x="200.75" y="154.75" width="237.5" height="154.5" rx="15.25" stroke="black" stroke-width="1.5"/>
<circle cx="252" cy="200" r="21.25" stroke="black" stroke-width="1.5"/>
<path d="M85.2648 145.852C85.3353 145.502 85.6429 145.25 86 145.25C86.3571 145.25 86.6647 145.502 86.7352 145.852L91.9035 171.516L117.153 176.766C117.501 176.838 117.75 177.145 117.75 177.5C117.75 177.855 117.501 178.162 117.153 178.234L91.9035 183.484L86.7352 209.148C86.6647 209.498 86.3571 209.75 86 209.75C85.6429 209.75 85.3353 209.498 85.2648 209.148L80.0965 183.484L54.8473 178.234C54.4994 178.162 54.25 177.855 54.25 177.5C54.25 177.145 54.4994 176.838 54.8473 176.766L80.0965 171.516L85.2648 145.852Z" fill="white" stroke="black" stroke-width="1.5" stroke-linejoin="round"/>
<rect x="133.75" y="260.75" width="237.5" height="154.5" rx="15.25" fill="black" stroke="black" stroke-width="1.5"/>
<rect x="139.75" y="253.75" width="237.5" height="154.5" rx="15.25" fill="#9296FF" stroke="black" stroke-width="1.5"/>
<mask id="path-17-inside-2_92_12119" fill="white">
<path fill-rule="evenodd" clip-rule="evenodd" d="M378 338.229V393C378 401.836 370.837 409 362 409H166.529C167.129 407.854 167.835 406.73 168.65 405.639L211.772 347.9C221.37 335.048 240.632 335.048 250.23 347.9L270.004 374.377L318.271 309.747C327.869 296.895 347.127 296.889 356.725 309.741L378 338.229Z"/>
</mask>
<path fill-rule="evenodd" clip-rule="evenodd" d="M378 338.229V393C378 401.836 370.837 409 362 409H166.529C167.129 407.854 167.835 406.73 168.65 405.639L211.772 347.9C221.37 335.048 240.632 335.048 250.23 347.9L270.004 374.377L318.271 309.747C327.869 296.895 347.127 296.889 356.725 309.741L378 338.229Z" fill="#FFD789"/>
<path d="M378 338.229H379.5V337.73L379.202 337.331L378 338.229ZM166.529 409L165.201 408.304L164.05 410.5H166.529V409ZM168.65 405.639L167.448 404.741L167.448 404.741L168.65 405.639ZM211.772 347.9L212.973 348.798L212.973 348.798L211.772 347.9ZM250.23 347.9L251.432 347.002L251.432 347.002L250.23 347.9ZM270.004 374.377L268.802 375.274L270.004 376.884L271.205 375.274L270.004 374.377ZM318.271 309.747L317.069 308.85L317.069 308.85L318.271 309.747ZM356.725 309.741L355.523 310.639L355.523 310.639L356.725 309.741ZM376.5 338.229V393H379.5V338.229H376.5ZM376.5 393C376.5 401.008 370.008 407.5 362 407.5V410.5C371.665 410.5 379.5 402.665 379.5 393H376.5ZM362 407.5H166.529V410.5H362V407.5ZM167.448 404.741C166.586 405.896 165.838 407.087 165.201 408.304L167.858 409.696C168.421 408.621 169.084 407.565 169.852 406.536L167.448 404.741ZM210.57 347.002L167.448 404.741L169.852 406.536L212.973 348.798L210.57 347.002ZM251.432 347.002C241.233 333.347 220.768 333.347 210.57 347.002L212.973 348.798C221.972 336.749 240.03 336.749 249.028 348.798L251.432 347.002ZM271.205 373.479L251.432 347.002L249.028 348.798L268.802 375.274L271.205 373.479ZM317.069 308.85L268.802 373.479L271.205 375.274L319.473 310.645L317.069 308.85ZM357.927 308.844C347.728 295.188 327.267 295.195 317.069 308.85L319.473 310.645C328.472 298.596 346.525 298.591 355.523 310.639L357.927 308.844ZM379.202 337.331L357.927 308.844L355.523 310.639L376.798 339.126L379.202 337.331Z" fill="black" mask="url(#path-17-inside-2_92_12119)"/>
<circle cx="191" cy="299" r="21.25" fill="#FFD789" stroke="black" stroke-width="1.5"/>
<rect x="139.75" y="253.75" width="237.5" height="154.5" rx="15.25" stroke="black" stroke-width="1.5"/>
<path d="M363.235 330.85C363.163 330.501 362.856 330.25 362.5 330.25C362.144 330.25 361.837 330.501 361.765 330.85L357.193 353.193L334.85 357.765C334.501 357.837 334.25 358.144 334.25 358.5C334.25 358.856 334.501 359.163 334.85 359.235L357.193 363.807L361.765 386.15C361.837 386.499 362.144 386.75 362.5 386.75C362.856 386.75 363.163 386.499 363.235 386.15L367.807 363.807L390.15 359.235C390.499 359.163 390.75 358.856 390.75 358.5C390.75 358.144 390.499 357.837 390.15 357.765L367.807 353.193L363.235 330.85Z" fill="white" stroke="black" stroke-width="1.5" stroke-linejoin="round"/>
</svg>
