<svg width="512" height="512" viewBox="0 0 512 512" fill="none" xmlns="http://www.w3.org/2000/svg">
<path d="M177.18 76.0416L209.624 109.087L207.18 153L228.513 121.063L269.402 123.725L303.846 153L290.735 123.725L343.18 112.636L290.735 101.547L315.846 41L266.069 80.2554V46.101L241.624 76.0416L221.18 41V91.7881L177.18 76.0416Z" fill="#FFD789" stroke="black" stroke-width="1.5"/>
<rect x="-0.963342" y="-0.443815" width="191.5" height="288.5" rx="23.25" transform="matrix(-0.346352 -0.938105 -0.938105 0.346352 388.183 369.494)" fill="black" stroke="black" stroke-width="1.5"/>
<rect x="-0.963342" y="-0.443815" width="228.5" height="259.5" rx="23.25" transform="matrix(-0.346352 -0.938105 -0.938105 0.346352 388.183 369.494)" fill="black" stroke="black" stroke-width="1.5"/>
<rect x="-0.963342" y="-0.443815" width="220.5" height="231.5" rx="23.25" transform="matrix(-0.346352 -0.938105 -0.938105 0.346352 371.904 325.403)" fill="black" stroke="black" stroke-width="1.5"/>
<rect x="-0.963342" y="-0.443815" width="220.5" height="171.5" rx="23.25" transform="matrix(-0.346352 -0.938105 -0.938105 0.346352 343.878 289.914)" fill="black" stroke="black" stroke-width="1.5"/>
<rect x="-0.963342" y="-0.443815" width="220.5" height="136.5" rx="23.25" transform="matrix(-0.346352 -0.938105 -0.938105 0.346352 343.878 289.914)" fill="#FFD789" stroke="black" stroke-width="1.5"/>
<rect x="-0.963342" y="-0.443815" width="220.5" height="194.5" rx="23.25" transform="matrix(-0.346352 -0.938105 -0.938105 0.346352 385.976 320.208)" fill="#FFD789" stroke="black" stroke-width="1.5"/>
<rect x="261.548" y="103.175" width="11.8173" height="57.5" rx="5.90864" transform="rotate(69.7357 261.548 103.175)" fill="white" stroke="black" stroke-width="1.5"/>
<mask id="path-9-inside-1_92_12016" fill="white">
<path fill-rule="evenodd" clip-rule="evenodd" d="M216.886 132.565C216.892 132.562 216.898 132.56 216.905 132.558L260.634 116.413C263.842 115.228 265.483 111.667 264.298 108.458C263.114 105.249 259.552 103.609 256.344 104.793L246.044 108.596C249.247 107.425 252.797 109.066 253.979 112.268C255.164 115.477 253.523 119.038 250.314 120.223L216.886 132.565Z"/>
</mask>
<path fill-rule="evenodd" clip-rule="evenodd" d="M216.886 132.565C216.892 132.562 216.898 132.56 216.905 132.558L260.634 116.413C263.842 115.228 265.483 111.667 264.298 108.458C263.114 105.249 259.552 103.609 256.344 104.793L246.044 108.596C249.247 107.425 252.797 109.066 253.979 112.268C255.164 115.477 253.523 119.038 250.314 120.223L216.886 132.565Z" fill="black"/>
<path d="M216.905 132.558L216.385 131.15L216.385 131.15L216.905 132.558ZM216.886 132.565L216.366 131.157L217.401 133.973L216.886 132.565ZM260.634 116.413L261.153 117.82L261.153 117.82L260.634 116.413ZM246.044 108.596L245.524 107.189L246.559 110.005L246.044 108.596ZM250.314 120.223L250.834 121.63L250.834 121.63L250.314 120.223ZM216.385 131.15C216.38 131.152 216.376 131.154 216.371 131.156L217.401 133.973C217.408 133.971 217.416 133.968 217.424 133.965L216.385 131.15ZM260.114 115.006L216.385 131.15L217.424 133.965L261.153 117.82L260.114 115.006ZM262.891 108.978C263.789 111.409 262.546 114.108 260.114 115.006L261.153 117.82C265.139 116.348 267.177 111.924 265.706 107.939L262.891 108.978ZM256.863 106.201C259.295 105.303 261.994 106.546 262.891 108.978L265.706 107.939C264.234 103.953 259.81 101.915 255.824 103.386L256.863 106.201ZM246.563 110.003L256.863 106.201L255.824 103.386L245.524 107.189L246.563 110.003ZM246.559 110.005C248.986 109.118 251.676 110.361 252.572 112.788L255.386 111.748C253.918 107.771 249.508 105.733 245.529 107.187L246.559 110.005ZM252.572 112.788C253.47 115.219 252.226 117.918 249.795 118.815L250.834 121.63C254.82 120.158 256.858 115.734 255.386 111.748L252.572 112.788ZM249.795 118.815L216.366 131.157L217.405 133.972L250.834 121.63L249.795 118.815Z" fill="black" mask="url(#path-9-inside-1_92_12016)"/>
<rect x="-0.963342" y="-0.443815" width="228.5" height="252.5" rx="23.25" transform="matrix(-0.346352 -0.938105 -0.938105 0.346352 429.46 354.254)" fill="#FFD789" stroke="black" stroke-width="1.5"/>
<rect x="-0.963342" y="-0.443815" width="191.5" height="306.5" rx="23.25" transform="matrix(-0.346352 -0.938105 -0.938105 0.346352 458.541 343.517)" fill="#9296FF" stroke="black" stroke-width="1.5"/>
<path d="M83.746 399.871L108.137 390.866C111.893 389.479 113.814 385.31 112.427 381.554L105.154 361.853C103.767 358.097 99.5975 356.176 95.8412 357.563L71.4505 366.568C63.5495 369.485 59.5092 378.255 62.4263 386.156L64.158 390.847C67.0751 398.748 75.845 402.788 83.746 399.871Z" fill="black" stroke="black" stroke-width="1.5"/>
<path d="M87.498 398.485L162.546 370.777C166.303 369.39 168.223 365.221 166.837 361.465L159.563 341.765C158.176 338.008 154.007 336.088 150.251 337.474L75.2025 365.183C67.3014 368.1 63.2611 376.869 66.1782 384.771L67.91 389.461C70.8271 397.362 79.5969 401.402 87.498 398.485Z" fill="#FFD789" stroke="black" stroke-width="1.5"/>
<mask id="path-15-inside-2_92_12016" fill="white">
<path fill-rule="evenodd" clip-rule="evenodd" d="M318.967 210.329L286.133 222.451L286.134 222.453C285.978 222.509 285.823 222.566 285.667 222.623C245.513 237.449 224.979 282.019 239.804 322.173C254.63 362.328 299.2 382.861 339.354 368.036C339.681 367.915 340.006 367.793 340.331 367.668L372.651 355.735L369.679 347.685C388.624 326.964 395.611 296.64 385.217 268.486C374.823 240.333 349.806 221.824 321.941 218.386L318.967 210.329Z"/>
</mask>
<path fill-rule="evenodd" clip-rule="evenodd" d="M318.967 210.329L286.133 222.451L286.134 222.453C285.978 222.509 285.823 222.566 285.667 222.623C245.513 237.449 224.979 282.019 239.804 322.173C254.63 362.328 299.2 382.861 339.354 368.036C339.681 367.915 340.006 367.793 340.331 367.668L372.651 355.735L369.679 347.685C388.624 326.964 395.611 296.64 385.217 268.486C374.823 240.333 349.806 221.824 321.941 218.386L318.967 210.329Z" fill="#FFD789"/>
<path d="M286.133 222.451L285.614 221.044L284.206 221.564L284.726 222.971L286.133 222.451ZM318.967 210.329L320.374 209.809L319.854 208.402L318.447 208.922L318.967 210.329ZM286.134 222.453L286.644 223.863L288.064 223.349L287.541 221.933L286.134 222.453ZM340.331 367.668L339.811 366.261L339.802 366.264L339.793 366.268L340.331 367.668ZM372.651 355.735L373.171 357.142L374.578 356.623L374.058 355.216L372.651 355.735ZM369.679 347.685L368.572 346.673L367.955 347.347L368.272 348.204L369.679 347.685ZM321.941 218.386L320.534 218.905L320.851 219.763L321.758 219.875L321.941 218.386ZM286.653 223.858L319.486 211.736L318.447 208.922L285.614 221.044L286.653 223.858ZM287.541 221.933L287.54 221.932L284.726 222.971L284.726 222.972L287.541 221.933ZM286.187 224.031C286.339 223.974 286.492 223.918 286.644 223.863L285.623 221.042C285.464 221.1 285.306 221.158 285.148 221.216L286.187 224.031ZM241.212 321.654C226.673 282.276 246.809 238.569 286.187 224.031L285.148 221.216C244.216 236.328 223.285 281.761 238.397 322.693L241.212 321.654ZM338.835 366.629C299.457 381.167 255.75 361.031 241.212 321.654L238.397 322.693C253.509 363.624 298.942 384.555 339.874 369.443L338.835 366.629ZM339.793 366.268C339.475 366.39 339.155 366.51 338.835 366.629L339.874 369.443C340.207 369.32 340.538 369.195 340.869 369.068L339.793 366.268ZM372.132 354.328L339.811 366.261L340.85 369.075L373.171 357.142L372.132 354.328ZM368.272 348.204L371.244 356.255L374.058 355.216L371.086 347.165L368.272 348.204ZM383.81 269.006C394.002 296.612 387.153 326.35 368.572 346.673L370.786 348.697C390.095 327.578 397.22 296.667 386.624 267.967L383.81 269.006ZM321.758 219.875C349.087 223.247 373.617 241.399 383.81 269.006L386.624 267.967C376.028 239.266 350.525 220.402 322.125 216.897L321.758 219.875ZM317.56 210.848L320.534 218.905L323.349 217.866L320.374 209.809L317.56 210.848Z" fill="black" mask="url(#path-15-inside-2_92_12016)"/>
<circle cx="345.362" cy="283.268" r="76.75" transform="rotate(-20.2643 345.362 283.268)" fill="#FFD789" stroke="black" stroke-width="1.5"/>
<circle cx="345.361" cy="283.268" r="66.0344" transform="rotate(-20.2643 345.361 283.268)" fill="black"/>
<mask id="path-19-inside-3_92_12016" fill="white">
<path fill-rule="evenodd" clip-rule="evenodd" d="M376.945 341.27C405.316 325.868 418.819 291.571 407.309 260.397C394.678 226.185 356.703 208.69 322.491 221.321C313.589 224.608 305.818 229.61 299.416 235.816C302.182 234.315 305.089 232.993 308.127 231.871C342.34 219.24 380.314 236.734 392.946 270.947C402.29 296.257 395.147 323.626 376.945 341.27Z"/>
</mask>
<path fill-rule="evenodd" clip-rule="evenodd" d="M376.945 341.27C405.316 325.868 418.819 291.571 407.309 260.397C394.678 226.185 356.703 208.69 322.491 221.321C313.589 224.608 305.818 229.61 299.416 235.816C302.182 234.315 305.089 232.993 308.127 231.871C342.34 219.24 380.314 236.734 392.946 270.947C402.29 296.257 395.147 323.626 376.945 341.27Z" fill="#9296FF"/>
<path d="M407.309 260.397L405.902 260.917L407.309 260.397ZM376.945 341.27L375.901 340.193L377.66 342.588L376.945 341.27ZM322.491 221.321L321.971 219.914L322.491 221.321ZM299.416 235.816L298.372 234.739L300.132 237.134L299.416 235.816ZM308.127 231.871L308.647 233.278L308.647 233.278L308.127 231.871ZM392.946 270.947L394.353 270.427L392.946 270.947ZM405.902 260.917C417.15 291.381 403.954 324.9 376.229 339.952L377.66 342.588C406.677 326.835 420.488 291.76 408.716 259.877L405.902 260.917ZM323.01 222.728C356.446 210.384 393.558 227.481 405.902 260.917L408.716 259.877C395.798 224.888 356.961 206.996 321.971 219.914L323.01 222.728ZM300.46 236.893C306.715 230.83 314.308 225.941 323.01 222.728L321.971 219.914C312.869 223.274 304.921 228.391 298.372 234.739L300.46 236.893ZM300.132 237.134C302.834 235.667 305.676 234.375 308.647 233.278L307.608 230.464C304.501 231.611 301.529 232.962 298.7 234.498L300.132 237.134ZM308.647 233.278C342.082 220.934 379.194 238.031 391.538 271.466L394.353 270.427C381.434 235.438 342.597 217.545 307.608 230.464L308.647 233.278ZM391.538 271.466C400.67 296.2 393.692 322.948 375.901 340.193L377.989 342.347C396.602 324.305 403.911 296.315 394.353 270.427L391.538 271.466Z" fill="black" mask="url(#path-19-inside-3_92_12016)"/>
<path d="M342.918 333.149C331.607 332.811 320.817 328.666 312.306 321.39C303.794 314.114 298.062 304.136 296.043 293.082" stroke="#FFD789" stroke-width="4" stroke-linecap="round"/>
<path d="M295.622 278.05C296.036 274.724 296.784 271.441 297.855 268.251" stroke="#FFD789" stroke-width="4" stroke-linecap="round"/>
<circle cx="83.3987" cy="381.61" r="8" transform="rotate(-20.2643 83.3987 381.61)" fill="black"/>
<path d="M378.208 300.61C378.02 300.307 377.645 300.179 377.311 300.302C376.976 300.425 376.775 300.767 376.829 301.119L380.086 322.407L361.789 333.764C361.487 333.952 361.358 334.327 361.481 334.661C361.605 334.995 361.946 335.197 362.298 335.143L383.586 331.886L394.943 350.183C395.131 350.485 395.506 350.614 395.84 350.491C396.175 350.367 396.376 350.026 396.322 349.674L393.065 328.386L411.362 317.028C411.665 316.84 411.793 316.466 411.67 316.131C411.546 315.797 411.205 315.596 410.853 315.65L389.565 318.907L378.208 300.61Z" fill="white" stroke="black" stroke-width="1.5" stroke-linejoin="round"/>
<path d="M337.208 378.61C337.02 378.307 336.645 378.179 336.311 378.302C335.976 378.425 335.775 378.767 335.829 379.119L339.086 400.407L320.789 411.764C320.487 411.952 320.358 412.327 320.481 412.661C320.605 412.995 320.946 413.197 321.298 413.143L342.586 409.886L353.943 428.183C354.131 428.485 354.506 428.614 354.84 428.491C355.175 428.367 355.376 428.026 355.322 427.674L352.065 406.386L370.362 395.028C370.665 394.84 370.793 394.466 370.67 394.131C370.546 393.797 370.205 393.596 369.853 393.65L348.565 396.907L337.208 378.61Z" fill="white" stroke="black" stroke-width="1.5" stroke-linejoin="round"/>
<rect x="-0.963342" y="-0.443815" width="25.5" height="75.5" rx="7.25" transform="matrix(-0.346352 -0.938105 -0.938105 0.346352 254.613 397.489)" fill="white" stroke="black" stroke-width="1.5"/>
<circle cx="160.642" cy="295.433" r="22.25" transform="rotate(-20.2643 160.642 295.433)" fill="black" stroke="black" stroke-width="1.5"/>
<circle cx="168.146" cy="292.662" r="22.25" transform="rotate(-20.2643 168.146 292.662)" fill="#FFD789" stroke="black" stroke-width="1.5"/>
<circle cx="168.148" cy="292.661" r="14.25" transform="rotate(-20.2643 168.148 292.661)" fill="#9296FF" stroke="black" stroke-width="1.5"/>
<mask id="path-30-inside-4_92_12016" fill="white">
<path fill-rule="evenodd" clip-rule="evenodd" d="M170.924 307.404C177.167 303.83 180.101 296.17 177.527 289.198C174.953 282.225 167.745 278.31 160.677 279.65C154.435 283.224 151.5 290.884 154.075 297.857C156.649 304.829 163.857 308.745 170.924 307.404Z"/>
</mask>
<path fill-rule="evenodd" clip-rule="evenodd" d="M170.924 307.404C177.167 303.83 180.101 296.17 177.527 289.198C174.953 282.225 167.745 278.31 160.677 279.65C154.435 283.224 151.5 290.884 154.075 297.857C156.649 304.829 163.857 308.745 170.924 307.404Z" fill="#FFD789"/>
<path d="M170.924 307.404L171.204 308.878L171.451 308.831L171.67 308.706L170.924 307.404ZM160.677 279.65L160.398 278.176L160.151 278.223L159.932 278.348L160.677 279.65ZM176.12 289.717C178.436 295.991 175.797 302.887 170.179 306.102L171.67 308.706C178.538 304.774 181.767 296.349 178.934 288.678L176.12 289.717ZM160.957 281.124C167.317 279.917 173.804 283.443 176.12 289.717L178.934 288.678C176.102 281.007 168.173 276.702 160.398 278.176L160.957 281.124ZM155.482 297.337C153.165 291.063 155.805 284.168 161.423 280.952L159.932 278.348C153.064 282.28 149.835 290.705 152.667 298.376L155.482 297.337ZM170.645 305.93C164.285 307.137 157.798 303.611 155.482 297.337L152.667 298.376C155.5 306.047 163.429 310.353 171.204 308.878L170.645 305.93Z" fill="black" mask="url(#path-30-inside-4_92_12016)"/>
<circle cx="199.044" cy="338.816" r="22.25" transform="rotate(-20.2643 199.044 338.816)" fill="black" stroke="black" stroke-width="1.5"/>
<circle cx="206.55" cy="336.046" r="22.25" transform="rotate(-20.2643 206.55 336.046)" fill="#FFD789" stroke="black" stroke-width="1.5"/>
<circle cx="206.55" cy="336.046" r="14.25" transform="rotate(-20.2643 206.55 336.046)" fill="#9296FF" stroke="black" stroke-width="1.5"/>
<mask id="path-35-inside-5_92_12016" fill="white">
<path fill-rule="evenodd" clip-rule="evenodd" d="M209.329 350.789C215.572 347.215 218.506 339.555 215.932 332.582C213.357 325.61 206.149 321.694 199.082 323.035C192.839 326.609 189.905 334.269 192.479 341.241C195.053 348.214 202.261 352.129 209.329 350.789Z"/>
</mask>
<path fill-rule="evenodd" clip-rule="evenodd" d="M209.329 350.789C215.572 347.215 218.506 339.555 215.932 332.582C213.357 325.61 206.149 321.694 199.082 323.035C192.839 326.609 189.905 334.269 192.479 341.241C195.053 348.214 202.261 352.129 209.329 350.789Z" fill="#FFD789"/>
<path d="M209.329 350.789L209.608 352.263L209.855 352.216L210.074 352.091L209.329 350.789ZM199.082 323.035L198.802 321.561L198.555 321.608L198.337 321.733L199.082 323.035ZM214.524 333.102C216.841 339.376 214.201 346.271 208.583 349.487L210.074 352.091C216.942 348.159 220.171 339.734 217.339 332.063L214.524 333.102ZM199.361 324.509C205.721 323.302 212.208 326.828 214.524 333.102L217.339 332.063C214.506 324.392 206.578 320.086 198.802 321.561L199.361 324.509ZM193.886 340.722C191.57 334.448 194.209 327.552 199.827 324.337L198.337 321.733C191.468 325.665 188.24 334.09 191.072 341.761L193.886 340.722ZM209.049 349.315C202.69 350.521 196.202 346.996 193.886 340.722L191.072 341.761C193.904 349.432 201.833 353.737 209.608 352.263L209.049 349.315Z" fill="black" mask="url(#path-35-inside-5_92_12016)"/>
</svg>
