<svg width="512" height="512" viewBox="0 0 512 512" fill="none" xmlns="http://www.w3.org/2000/svg">
<rect x="-0.75" y="-0.75" width="272.5" height="355.5" rx="23.25" transform="matrix(5.10938e-08 -1 -1 -3.73956e-08 423.5 396.5)" fill="black" stroke="black" stroke-width="1.5"/>
<rect x="-0.75" y="-0.75" width="267.5" height="355.5" rx="23.25" transform="matrix(5.10938e-08 -1 -1 -3.73956e-08 432.5 386.5)" fill="#FFD789" stroke="black" stroke-width="1.5"/>
<mask id="path-3-inside-1_92_12363" fill="white">
<path fill-rule="evenodd" clip-rule="evenodd" d="M434 364C434 377.255 423.255 388 410 388L101 388C87.7452 388 77 377.255 77 364V159H434V364Z"/>
</mask>
<path fill-rule="evenodd" clip-rule="evenodd" d="M434 364C434 377.255 423.255 388 410 388L101 388C87.7452 388 77 377.255 77 364V159H434V364Z" fill="#9296FF"/>
<path d="M410 388L410 389.5H410V388ZM101 388L101 386.5H101V388ZM77 159V157.5H75.5V159H77ZM434 159H435.5V157.5H434V159ZM410 389.5C424.083 389.5 435.5 378.083 435.5 364H432.5C432.5 376.426 422.426 386.5 410 386.5V389.5ZM101 389.5L410 389.5L410 386.5L101 386.5L101 389.5ZM75.5 364C75.5 378.083 86.9167 389.5 101 389.5V386.5C88.5736 386.5 78.5 376.426 78.5 364H75.5ZM75.5 159V364H78.5V159H75.5ZM77 160.5H434V157.5H77V160.5ZM432.5 159V364H435.5V159H432.5Z" fill="black" mask="url(#path-3-inside-1_92_12363)"/>
<rect x="180.75" y="344.25" width="141.5" height="148.5" rx="23.25" transform="rotate(-90 180.75 344.25)" fill="#FFD789" stroke="black" stroke-width="1.5"/>
<path d="M281.25 343V344.25H228.75V343C228.75 328.503 240.503 316.75 255 316.75C269.497 316.75 281.25 328.503 281.25 343Z" fill="#FFD789" stroke="black" stroke-width="1.5" stroke-linejoin="round"/>
<path d="M264.25 320.309V343C264.25 343.69 263.69 344.25 263 344.25H247C246.31 344.25 245.75 343.69 245.75 343V320.309C245.75 319.089 247.319 318.591 248.022 319.588L252.752 326.299C253.848 327.854 256.152 327.854 257.248 326.299L261.978 319.588C262.681 318.591 264.25 319.089 264.25 320.309Z" fill="white" stroke="black" stroke-width="1.5" stroke-linejoin="round"/>
<path d="M263.777 318.254L269.635 329.969C269.916 330.532 269.916 331.194 269.635 331.757L263.777 343.472" stroke="black" stroke-width="1.5" stroke-linejoin="round"/>
<path d="M245.914 318.254L240.057 329.969C239.775 330.532 239.775 331.194 240.057 331.757L245.914 343.472" stroke="black" stroke-width="1.5" stroke-linejoin="round"/>
<circle cx="254.5" cy="307.5" r="8.75" stroke="black" stroke-width="1.5"/>
<path d="M227.37 281.245C230.049 283.81 235.278 287.725 239.127 288.971L238.912 288.284L238.95 288.272L238.95 288.272C239.025 288.249 239.1 288.223 239.177 288.197M227.37 281.245L227.919 280.734C227.914 280.729 227.909 280.724 227.904 280.718M227.37 281.245C223.319 276.895 218.999 268.497 224.863 262.142C230.28 256.271 236.044 259.973 238.61 262.444M227.37 281.245L238.61 262.444M227.904 280.718C229.217 281.973 231.166 283.569 233.261 285.002C235.286 286.388 237.399 287.588 239.177 288.197M227.904 280.718C225.943 278.608 223.939 275.537 223.126 272.265C222.319 269.015 222.69 265.603 225.414 262.651C226.791 261.158 228.158 260.356 229.442 259.994C230.728 259.633 231.982 259.699 233.156 260.019C235.529 260.667 237.525 262.345 238.587 263.489L239.136 264.082L239.686 263.489C240.761 262.331 242.661 260.661 244.931 260.017C246.052 259.699 247.253 259.633 248.5 259.993C249.748 260.353 251.092 261.154 252.473 262.651C255.211 265.618 255.662 268.947 254.95 272.091C254.232 275.261 252.328 278.232 250.368 280.34C249.042 281.608 247.106 283.302 245.032 284.828C243.022 286.307 240.937 287.586 239.177 288.197M227.904 280.718L239.405 288.272C239.33 288.248 239.253 288.223 239.177 288.197M238.61 262.444C238.602 262.452 238.594 262.46 238.587 262.469L239.136 262.979L239.686 262.469C239.678 262.46 239.669 262.45 239.66 262.441L238.61 262.444Z" fill="#FFD789" stroke="black" stroke-width="1.5"/>
<path d="M226.116 247.788C224.732 248.845 223.315 249.749 222.124 250.196C220.916 249.751 219.478 248.901 218.085 247.911C216.617 246.868 215.253 245.707 214.335 244.797C212.968 243.268 211.575 241.046 211.011 238.686C210.451 236.343 210.712 233.908 212.581 231.802C213.533 230.731 214.463 230.17 215.321 229.92C216.178 229.669 217.017 229.714 217.809 229.938C219.424 230.396 220.799 231.591 221.537 232.417L222.096 233.044L222.656 232.417C223.406 231.577 224.714 230.39 226.254 229.936C227.008 229.714 227.808 229.67 228.637 229.918C229.468 230.167 230.384 230.727 231.339 231.802C233.222 233.922 233.535 236.3 233.042 238.562C232.545 240.845 231.222 242.992 229.858 244.519C228.927 245.444 227.569 246.677 226.116 247.788Z" fill="#FFD789" stroke="black" stroke-width="1.5"/>
<path d="M97 178L152.5 178" stroke="black" stroke-width="1.5" stroke-linecap="round"/>
<path d="M97 191L126 191" stroke="black" stroke-width="1.5" stroke-linecap="round"/>
<circle cx="103" cy="142" r="7.25" fill="#FFD789" stroke="black" stroke-width="1.5"/>
<circle cx="127" cy="142" r="7.25" fill="white" stroke="black" stroke-width="1.5"/>
<circle cx="151" cy="142" r="7.25" fill="white" stroke="black" stroke-width="1.5"/>
<rect x="53.75" y="429.25" width="218.5" height="77.5" rx="23.25" transform="rotate(-90 53.75 429.25)" fill="black" stroke="black" stroke-width="1.5"/>
<rect x="58.75" y="422.25" width="218.5" height="77.5" rx="23.25" transform="rotate(-90 58.75 422.25)" fill="#9296FF" stroke="black" stroke-width="1.5"/>
<path d="M103.235 370.85C103.163 370.501 102.856 370.25 102.5 370.25C102.144 370.25 101.837 370.501 101.765 370.85L97.193 393.193L74.8496 397.765C74.5006 397.837 74.25 398.144 74.25 398.5C74.25 398.856 74.5006 399.163 74.8496 399.235L97.193 403.807L101.765 426.15C101.837 426.499 102.144 426.75 102.5 426.75C102.856 426.75 103.163 426.499 103.235 426.15L107.807 403.807L130.15 399.235C130.499 399.163 130.75 398.856 130.75 398.5C130.75 398.144 130.499 397.837 130.15 397.765L107.807 393.193L103.235 370.85Z" fill="white" stroke="black" stroke-width="1.5" stroke-linejoin="round"/>
<rect x="113.25" y="229.75" width="30.5" height="30.5" rx="7.25" transform="rotate(90 113.25 229.75)" fill="#FFD789" stroke="black" stroke-width="1.5"/>
<rect x="113.25" y="281.75" width="30.5" height="30.5" rx="15.25" transform="rotate(90 113.25 281.75)" fill="#FFD789" stroke="black" stroke-width="1.5"/>
<path d="M100.815 335.375L112.074 354.875C113.324 357.042 111.761 359.75 109.259 359.75H86.7423C84.2404 359.75 82.6768 357.042 83.9277 354.875L95.186 335.375C96.437 333.208 99.5643 333.208 100.815 335.375Z" fill="#FFD789" stroke="black" stroke-width="1.5"/>
<rect x="308.75" y="228.25" width="133.5" height="140.5" rx="23.25" transform="rotate(-90 308.75 228.25)" fill="black" stroke="black" stroke-width="1.5"/>
<rect x="317.75" y="223.25" width="133.5" height="140.5" rx="23.25" transform="rotate(-90 317.75 223.25)" fill="#9296FF" stroke="black" stroke-width="1.5"/>
<rect x="429.25" y="143.75" width="54.5" height="54.5" rx="15.25" transform="rotate(90 429.25 143.75)" stroke="black" stroke-width="1.5"/>
<rect x="401.25" y="115.75" width="54.5" height="54.5" rx="15.25" transform="rotate(90 401.25 115.75)" fill="#FFD789" stroke="black" stroke-width="1.5"/>
<path d="M300.735 81.8496C300.663 81.5006 300.356 81.25 300 81.25C299.644 81.25 299.337 81.5006 299.265 81.8496L294.268 106.268L269.85 111.265C269.501 111.337 269.25 111.644 269.25 112C269.25 112.356 269.501 112.663 269.85 112.735L294.268 117.732L299.265 142.15C299.337 142.499 299.644 142.75 300 142.75C300.356 142.75 300.663 142.499 300.735 142.15L305.732 117.732L330.15 112.735C330.499 112.663 330.75 112.356 330.75 112C330.75 111.644 330.499 111.337 330.15 111.265L305.732 106.268L300.735 81.8496Z" fill="white" stroke="black" stroke-width="1.5" stroke-linejoin="round"/>
</svg>
