<svg width="512" height="512" viewBox="0 0 512 512" fill="none" xmlns="http://www.w3.org/2000/svg">
<rect x="-0.75" y="-0.75" width="354.5" height="302.5" rx="23.25" transform="matrix(3.41176e-08 -1 -1 -5.60029e-08 384.5 428.5)" fill="black" stroke="black" stroke-width="1.5"/>
<rect x="-0.75" y="-0.75" width="353.5" height="303.5" rx="23.25" transform="matrix(3.41176e-08 -1 -1 -5.60029e-08 397.5 419.5)" fill="#FFD789" stroke="black" stroke-width="1.5"/>
<rect x="-0.75" y="-0.75" width="293.5" height="276.5" rx="15.25" transform="matrix(3.41176e-08 -1 -1 -5.60029e-08 384.5 384.5)" fill="#9296FF" stroke="black" stroke-width="1.5"/>
<path d="M186.009 231.852C217.401 221.035 240.224 204.678 236.986 195.317C233.748 185.955 205.675 187.135 174.283 197.952C142.891 208.768 120.068 225.126 123.306 234.487C126.544 243.848 154.617 242.669 186.009 231.852ZM186.009 231.852C154.617 242.669 131.847 259.181 135.151 268.733C138.456 278.285 166.582 277.261 197.974 266.444C229.366 255.628 252.135 239.115 248.831 229.563C245.527 220.011 217.401 221.035 186.009 231.852ZM191.991 249.148C223.383 238.332 246.153 221.819 242.849 212.267C239.545 202.715 211.418 203.739 180.026 214.556C148.635 225.372 125.865 241.885 129.169 251.437C132.473 260.989 160.6 259.965 191.991 249.148ZM191.991 249.148C160.6 259.965 137.776 276.322 141.014 285.683C144.252 295.045 172.325 293.865 203.717 283.048C235.109 272.232 257.932 255.874 254.694 246.513C251.456 237.152 223.383 238.332 191.991 249.148Z" stroke="black" stroke-width="1.5"/>
<mask id="path-5-inside-1_92_12542" fill="white">
<path fill-rule="evenodd" clip-rule="evenodd" d="M386.001 370C386.001 378.837 378.837 386 370.001 386H361.032C369.854 385.983 377.001 378.826 377.001 370L377.001 107C377.001 98.1635 369.837 91 361.001 91L123.969 91C123.979 91 123.99 91 124.001 91L370.001 91C378.837 91 386.001 98.1635 386.001 107V370Z"/>
</mask>
<path fill-rule="evenodd" clip-rule="evenodd" d="M386.001 370C386.001 378.837 378.837 386 370.001 386H361.032C369.854 385.983 377.001 378.826 377.001 370L377.001 107C377.001 98.1635 369.837 91 361.001 91L123.969 91C123.979 91 123.99 91 124.001 91L370.001 91C378.837 91 386.001 98.1635 386.001 107V370Z" fill="black"/>
<path d="M361.032 386L361.029 384.5L361.032 387.5V386ZM377.001 370L375.501 370V370H377.001ZM377.001 107L378.501 107V107H377.001ZM361.001 91L361.001 89.5L361.001 91ZM123.969 91L123.966 89.5L123.969 92.5L123.969 91ZM124.001 91L124.001 89.5L124.001 91ZM370.001 91L370.001 92.5H370.001V91ZM370.001 387.5C379.666 387.5 387.501 379.665 387.501 370H384.501C384.501 378.008 378.009 384.5 370.001 384.5V387.5ZM361.032 387.5H370.001V384.5H361.032V387.5ZM361.035 387.5C370.684 387.481 378.501 379.653 378.501 370H375.501C375.501 377.999 369.024 384.485 361.029 384.5L361.035 387.5ZM378.501 370L378.501 107L375.501 107L375.501 370L378.501 370ZM378.501 107C378.501 97.3351 370.666 89.5 361.001 89.5L361.001 92.5C369.009 92.5 375.501 98.9919 375.501 107H378.501ZM361.001 89.5L123.969 89.5L123.969 92.5L361.001 92.5L361.001 89.5ZM124.001 89.5C123.989 89.5 123.977 89.5 123.966 89.5L123.972 92.5C123.981 92.5 123.991 92.5 124.001 92.5L124.001 89.5ZM370.001 89.5L124.001 89.5L124.001 92.5L370.001 92.5L370.001 89.5ZM387.501 107C387.501 97.335 379.666 89.5 370.001 89.5V92.5C378.009 92.5 384.501 98.9919 384.501 107H387.501ZM387.501 370V107H384.501V370H387.501Z" fill="black" mask="url(#path-5-inside-1_92_12542)"/>
<path d="M327.37 393.245C330.049 395.81 335.278 399.725 339.127 400.971L338.912 400.284L338.95 400.272L338.95 400.272C339.025 400.249 339.1 400.223 339.177 400.197M327.37 393.245L327.919 392.734C327.914 392.729 327.909 392.724 327.904 392.718M327.37 393.245C323.319 388.895 318.999 380.497 324.863 374.142C330.28 368.271 336.044 371.973 338.61 374.444M327.37 393.245L338.61 374.444M327.904 392.718C329.217 393.973 331.166 395.569 333.261 397.002C335.286 398.388 337.399 399.588 339.177 400.197M327.904 392.718C325.943 390.608 323.939 387.537 323.126 384.265C322.319 381.015 322.69 377.603 325.414 374.651C326.791 373.158 328.158 372.356 329.442 371.994C330.728 371.633 331.982 371.699 333.156 372.019C335.529 372.667 337.525 374.345 338.587 375.489L339.136 376.082L339.686 375.489C340.761 374.331 342.661 372.661 344.931 372.017C346.052 371.699 347.253 371.633 348.5 371.993C349.748 372.353 351.092 373.154 352.473 374.651C355.211 377.618 355.662 380.947 354.95 384.091C354.232 387.261 352.328 390.232 350.368 392.34C349.042 393.608 347.106 395.302 345.032 396.828C343.022 398.307 340.937 399.586 339.177 400.197M327.904 392.718L339.405 400.272C339.33 400.248 339.253 400.223 339.177 400.197M338.61 374.444C338.602 374.452 338.594 374.46 338.587 374.469L339.136 374.979L339.686 374.469C339.678 374.46 339.669 374.45 339.66 374.441L338.61 374.444Z" fill="#9296FF" stroke="black" stroke-width="1.5"/>
<path d="M150.735 447.15C150.663 447.499 150.356 447.75 150 447.75C149.644 447.75 149.337 447.499 149.265 447.15L144.948 426.052L123.85 421.735C123.501 421.663 123.25 421.356 123.25 421C123.25 420.644 123.501 420.337 123.85 420.265L144.948 415.948L149.265 394.85C149.337 394.501 149.644 394.25 150 394.25C150.356 394.25 150.663 394.501 150.735 394.85L155.052 415.948L176.15 420.265C176.499 420.337 176.75 420.644 176.75 421C176.75 421.356 176.499 421.663 176.15 421.735L155.052 426.052L150.735 447.15Z" fill="white" stroke="black" stroke-width="1.5" stroke-linejoin="round"/>
<circle cx="250" cy="79" r="4.25" fill="black" stroke="black" stroke-width="1.5"/>
<path d="M203 371L279 371" stroke="black" stroke-width="4" stroke-linecap="round"/>
<path d="M164 312L330 312" stroke="black" stroke-width="1.5" stroke-linecap="round"/>
<path d="M164 338L195.5 338" stroke="black" stroke-width="1.5" stroke-linecap="round"/>
<path d="M226 129L307.5 129" stroke="black" stroke-width="1.5" stroke-linecap="round"/>
<path d="M164 325L251 325" stroke="black" stroke-width="1.5" stroke-linecap="round"/>
<path d="M226 142L250 142" stroke="black" stroke-width="1.5" stroke-linecap="round"/>
<rect x="196.75" y="299.25" width="121.5" height="206.5" rx="15.25" transform="rotate(-90 196.75 299.25)" fill="black" stroke="black" stroke-width="1.5"/>
<rect x="203.75" y="299.25" width="121.5" height="225.5" rx="15.25" transform="rotate(-90 203.75 299.25)" fill="#FFD789" stroke="black" stroke-width="1.5"/>
<mask id="path-18-inside-2_92_12542" fill="white">
<path fill-rule="evenodd" clip-rule="evenodd" d="M429.999 273.192V284C429.999 292.837 422.836 300 413.999 300L230.842 300L261.434 258.843C271.03 245.933 290.361 245.933 299.957 258.843L312.879 276.227L353.306 221.84C362.902 208.93 382.227 208.922 391.824 221.832L429.999 273.192Z"/>
</mask>
<path d="M429.999 273.192H431.499V272.695L431.203 272.297L429.999 273.192ZM413.999 300L413.999 298.5L413.999 298.5L413.999 300ZM230.842 300L229.638 299.106L227.858 301.5L230.842 301.5L230.842 300ZM261.434 258.843L262.638 259.738L262.638 259.738L261.434 258.843ZM299.957 258.843L301.161 257.948L301.161 257.948L299.957 258.843ZM312.879 276.227L311.675 277.122L312.879 278.742L314.083 277.122L312.879 276.227ZM353.306 221.84L354.509 222.735L354.509 222.735L353.306 221.84ZM391.824 221.832L390.62 222.727L390.62 222.727L391.824 221.832ZM428.499 273.192V284H431.499V273.192H428.499ZM428.499 284C428.499 292.008 422.007 298.5 413.999 298.5V301.5C423.664 301.5 431.499 293.665 431.499 284H428.499ZM413.999 298.5L230.842 298.5L230.842 301.5L413.999 301.5L413.999 298.5ZM260.23 257.948L229.638 299.106L232.046 300.895L262.638 259.738L260.23 257.948ZM301.161 257.948C290.965 244.231 270.426 244.231 260.23 257.948L262.638 259.738C271.634 247.635 289.757 247.635 298.754 259.738L301.161 257.948ZM314.083 275.333L301.161 257.948L298.754 259.738L311.675 277.122L314.083 275.333ZM352.102 220.945L311.675 275.333L314.083 277.122L354.509 222.735L352.102 220.945ZM393.027 220.937C382.831 207.22 362.297 207.228 352.102 220.945L354.509 222.735C363.506 210.631 381.624 210.624 390.62 222.727L393.027 220.937ZM431.203 272.297L393.027 220.937L390.62 222.727L428.795 274.087L431.203 272.297Z" fill="black" mask="url(#path-18-inside-2_92_12542)"/>
<circle cx="245" cy="214" r="24.25" fill="#FFD789" stroke="black" stroke-width="1.5"/>
<rect x="-0.75" y="-0.75" width="51.5" height="57.5" rx="7.25" transform="matrix(3.41176e-08 -1 -1 -5.60029e-08 212.5 169.5)" fill="#9296FF" stroke="black" stroke-width="1.5"/>
<mask id="path-22-outside-3_92_12542" maskUnits="userSpaceOnUse" x="164" y="125" width="50" height="46" fill="black">
<rect fill="white" x="164" y="125" width="50" height="46"/>
<path fill-rule="evenodd" clip-rule="evenodd" d="M194.046 169L196.417 157.417L212 154.228V151.772L196.417 148.583L192 127L187.583 148.583L166 153L187.583 157.417L189.954 169H194.046Z"/>
</mask>
<path fill-rule="evenodd" clip-rule="evenodd" d="M194.046 169L196.417 157.417L212 154.228V151.772L196.417 148.583L192 127L187.583 148.583L166 153L187.583 157.417L189.954 169H194.046Z" fill="white"/>
<path d="M194.046 169V170.5C194.759 170.5 195.373 169.999 195.516 169.301L194.046 169ZM196.417 157.417L196.116 155.947C195.527 156.068 195.068 156.527 194.947 157.116L196.417 157.417ZM212 154.228L212.301 155.697C212.999 155.555 213.5 154.94 213.5 154.228H212ZM212 151.772H213.5C213.5 151.06 212.999 150.445 212.301 150.303L212 151.772ZM196.417 148.583L194.947 148.884C195.068 149.473 195.527 149.932 196.116 150.053L196.417 148.583ZM192 127L193.47 126.699C193.327 126.001 192.713 125.5 192 125.5C191.287 125.5 190.673 126.001 190.53 126.699L192 127ZM187.583 148.583L187.884 150.053C188.473 149.932 188.932 149.473 189.053 148.884L187.583 148.583ZM166 153L165.699 151.53C165.001 151.673 164.5 152.287 164.5 153C164.5 153.713 165.001 154.327 165.699 154.47L166 153ZM187.583 157.417L189.053 157.116C188.932 156.527 188.473 156.068 187.884 155.947L187.583 157.417ZM189.954 169L188.484 169.301C188.627 169.999 189.241 170.5 189.954 170.5V169ZM195.516 169.301L197.886 157.717L194.947 157.116L192.577 168.699L195.516 169.301ZM196.717 158.886L212.301 155.697L211.699 152.758L196.116 155.947L196.717 158.886ZM213.5 154.228V151.772H210.5V154.228H213.5ZM212.301 150.303L196.717 147.114L196.116 150.053L211.699 153.242L212.301 150.303ZM197.886 148.283L193.47 126.699L190.53 127.301L194.947 148.884L197.886 148.283ZM190.53 126.699L186.114 148.283L189.053 148.884L193.47 127.301L190.53 126.699ZM187.283 147.114L165.699 151.53L166.301 154.47L187.884 150.053L187.283 147.114ZM165.699 154.47L187.283 158.886L187.884 155.947L166.301 151.53L165.699 154.47ZM186.114 157.717L188.484 169.301L191.423 168.699L189.053 157.116L186.114 157.717ZM189.954 170.5H194.046V167.5H189.954V170.5Z" fill="black" mask="url(#path-22-outside-3_92_12542)"/>
</svg>
