<svg width="512" height="512" viewBox="0 0 512 512" fill="none" xmlns="http://www.w3.org/2000/svg">
<rect x="-0.75" y="-0.75" width="356.5" height="234.5" rx="23.25" transform="matrix(7.93709e-09 -1 -1 -2.40729e-07 355.5 433.5)" fill="black" stroke="black" stroke-width="1.5"/>
<rect x="-0.75" y="-0.75" width="356.5" height="205.5" rx="23.25" transform="matrix(7.93709e-09 -1 -1 -2.40729e-07 355.5 433.5)" fill="#9296FF" stroke="black" stroke-width="1.5"/>
<path d="M347.25 407L347.25 103C347.25 93.4731 339.527 85.7501 330 85.7501L314.75 85.7501C307.432 85.7501 301.5 91.6823 301.5 99C301.5 104.385 297.135 108.75 291.75 108.75L253.5 108.75L215.25 108.75C209.865 108.75 205.5 104.385 205.5 99C205.5 91.6822 199.568 85.75 192.25 85.75L177 85.75C167.473 85.75 159.75 93.4731 159.75 103L159.75 407C159.75 416.527 167.473 424.25 177 424.25L330 424.25C339.527 424.25 347.25 416.527 347.25 407Z" fill="#FFD789" stroke="black" stroke-width="1.5"/>
<path fill-rule="evenodd" clip-rule="evenodd" d="M323 85H330C339.941 85 348 93.0589 348 103L348 407C348 416.941 339.941 425 330 425H323.007C332.945 424.996 341 416.939 341 407L341 103C341 93.0589 332.941 85 323 85Z" fill="black"/>
<rect x="129.75" y="140.75" width="13.5" height="44.5" rx="6.75" fill="#9296FF" stroke="black" stroke-width="1.5"/>
<rect x="129.75" y="192.75" width="13.5" height="44.5" rx="6.75" fill="#9296FF" stroke="black" stroke-width="1.5"/>
<circle cx="222" cy="93" r="7.25" fill="white" stroke="black" stroke-width="1.5"/>
<rect x="-0.75" y="-0.75" width="78.5" height="78.5" rx="39.25" transform="matrix(3.41176e-08 -1 -1 -5.60029e-08 257.5 208.5)" fill="black" stroke="black" stroke-width="1.5"/>
<rect x="-0.75" y="-0.75" width="78.5" height="78.5" rx="39.25" transform="matrix(3.41176e-08 -1 -1 -5.60029e-08 263.5 208.5)" fill="#9296FF" stroke="black" stroke-width="1.5"/>
<mask id="path-10-inside-1_92_12611" fill="white">
<path fill-rule="evenodd" clip-rule="evenodd" d="M189.216 187.895C195.236 178.345 205.877 172 218 172H231C243.495 172 254.416 178.74 260.325 188.783C263.309 183.182 265 176.789 265 170C265 147.909 247.091 130 225 130C202.909 130 185 147.909 185 170C185 176.433 186.518 182.51 189.216 187.895Z"/>
</mask>
<path fill-rule="evenodd" clip-rule="evenodd" d="M189.216 187.895C195.236 178.345 205.877 172 218 172H231C243.495 172 254.416 178.74 260.325 188.783C263.309 183.182 265 176.789 265 170C265 147.909 247.091 130 225 130C202.909 130 185 147.909 185 170C185 176.433 186.518 182.51 189.216 187.895Z" fill="#9296FF"/>
<path d="M189.216 187.895L187.875 188.567L189.067 190.945L190.485 188.695L189.216 187.895ZM260.325 188.783L259.032 189.544L260.39 191.851L261.649 189.488L260.325 188.783ZM225 130L225 128.5H225L225 130ZM185 170L183.5 170V170H185ZM218 170.5C205.341 170.5 194.23 177.127 187.947 187.095L190.485 188.695C196.242 179.562 206.413 173.5 218 173.5V170.5ZM231 170.5H218V173.5H231V170.5ZM261.618 188.022C255.45 177.54 244.048 170.5 231 170.5V173.5C242.942 173.5 253.381 179.94 259.032 189.544L261.618 188.022ZM261.649 189.488C264.745 183.676 266.5 177.041 266.5 170H263.5C263.5 176.537 261.872 182.689 259.001 188.078L261.649 189.488ZM266.5 170C266.5 147.08 247.92 128.5 225 128.5L225 131.5C246.263 131.5 263.5 148.737 263.5 170H266.5ZM225 128.5C202.08 128.5 183.5 147.08 183.5 170L186.5 170C186.5 148.737 203.737 131.5 225 131.5L225 128.5ZM183.5 170C183.5 176.671 185.075 182.979 187.875 188.567L190.557 187.223C187.962 182.042 186.5 176.194 186.5 170H183.5Z" fill="black" mask="url(#path-10-inside-1_92_12611)"/>
<path d="M237.25 171.5C237.25 174.882 235.907 178.125 233.516 180.516C231.125 182.907 227.882 184.25 224.5 184.25C221.118 184.25 217.875 182.907 215.484 180.516C213.093 178.125 211.75 174.882 211.75 171.5" stroke="black" stroke-width="1.5" stroke-linejoin="round"/>
<path d="M211 172V207" stroke="black" stroke-width="1.5"/>
<path d="M238 172V207" stroke="black" stroke-width="1.5"/>
<circle cx="224.5" cy="154.5" r="13.75" fill="#9296FF" stroke="black" stroke-width="1.5"/>
<path d="M274 163L329.5 163" stroke="black" stroke-width="1.5" stroke-linecap="round"/>
<path d="M274 176L303 176" stroke="black" stroke-width="1.5" stroke-linecap="round"/>
<rect x="190.75" y="338.25" width="107.5" height="182.5" rx="15.25" transform="rotate(-90 190.75 338.25)" fill="black" stroke="black" stroke-width="1.5"/>
<rect x="197.75" y="338.25" width="107.5" height="182.5" rx="15.25" transform="rotate(-90 197.75 338.25)" fill="#FFD789" stroke="black" stroke-width="1.5"/>
<mask id="path-20-inside-2_92_12611" fill="white">
<path fill-rule="evenodd" clip-rule="evenodd" d="M381.001 292.372V323C381.001 331.837 373.838 339 365.001 339L221.512 339L246.43 305.477C256.026 292.567 275.357 292.567 284.953 305.477L294.212 317.933L327.844 272.685C337.441 259.775 356.768 259.77 366.364 272.68L381.001 292.372Z"/>
</mask>
<path fill-rule="evenodd" clip-rule="evenodd" d="M381.001 292.372V323C381.001 331.837 373.838 339 365.001 339L221.512 339L246.43 305.477C256.026 292.567 275.357 292.567 284.953 305.477L294.212 317.933L327.844 272.685C337.441 259.775 356.768 259.77 366.364 272.68L381.001 292.372Z" fill="#9296FF"/>
<path d="M381.001 292.372H382.501V291.875L382.205 291.477L381.001 292.372ZM365.001 339L365.001 337.5H365.001L365.001 339ZM221.512 339L220.308 338.105L218.528 340.5L221.512 340.5L221.512 339ZM246.43 305.477L247.633 306.372L247.633 306.372L246.43 305.477ZM284.953 305.477L283.749 306.372L283.749 306.372L284.953 305.477ZM294.212 317.933L293.008 318.828L294.212 320.447L295.415 318.828L294.212 317.933ZM327.844 272.685L329.048 273.58L329.048 273.58L327.844 272.685ZM366.364 272.68L365.16 273.575L365.16 273.575L366.364 272.68ZM379.501 292.372V323H382.501V292.372H379.501ZM379.501 323C379.501 331.008 373.009 337.5 365.001 337.5V340.5C374.666 340.5 382.501 332.665 382.501 323H379.501ZM365.001 337.5L221.512 337.5L221.512 340.5L365.001 340.5L365.001 337.5ZM245.226 304.582L220.308 338.105L222.716 339.895L247.633 306.372L245.226 304.582ZM286.157 304.582C275.961 290.865 255.422 290.865 245.226 304.582L247.633 306.372C256.63 294.268 274.753 294.268 283.749 306.372L286.157 304.582ZM295.415 317.038L286.157 304.582L283.749 306.372L293.008 318.828L295.415 317.038ZM326.64 271.79L293.008 317.038L295.415 318.828L329.048 273.58L326.64 271.79ZM367.568 271.785C357.372 258.068 336.836 258.074 326.64 271.79L329.048 273.58C338.045 261.476 356.164 261.472 365.16 273.575L367.568 271.785ZM382.205 291.477L367.568 271.785L365.16 273.575L379.797 293.267L382.205 291.477Z" fill="black" mask="url(#path-20-inside-2_92_12611)"/>
<mask id="path-22-inside-3_92_12611" fill="white">
<path fill-rule="evenodd" clip-rule="evenodd" d="M258.999 265.2C258.989 264.137 257.438 263.984 256.913 264.907C254.16 269.741 248.96 273 243 273C234.163 273 227 265.837 227 257C227 252.933 228.518 249.22 231.017 246.397C231.72 245.603 231.076 244.195 230.07 244.529C221.315 247.432 215 255.686 215 265.415C215 277.565 224.85 287.415 237 287.415C249.15 287.415 259 277.565 259 265.415C259 265.343 259 265.271 258.999 265.2Z"/>
</mask>
<path fill-rule="evenodd" clip-rule="evenodd" d="M258.999 265.2C258.989 264.137 257.438 263.984 256.913 264.907C254.16 269.741 248.96 273 243 273C234.163 273 227 265.837 227 257C227 252.933 228.518 249.22 231.017 246.397C231.72 245.603 231.076 244.195 230.07 244.529C221.315 247.432 215 255.686 215 265.415C215 277.565 224.85 287.415 237 287.415C249.15 287.415 259 277.565 259 265.415C259 265.343 259 265.271 258.999 265.2Z" fill="#9296FF"/>
<path d="M230.07 244.529L229.597 243.105L230.07 244.529ZM256.913 264.907L258.216 265.65L256.913 264.907ZM258.999 265.2L260.499 265.185L258.999 265.2ZM255.609 264.165C253.112 268.549 248.4 271.5 243 271.5V274.5C249.521 274.5 255.207 270.932 258.216 265.65L255.609 264.165ZM243 271.5C234.992 271.5 228.5 265.008 228.5 257H225.5C225.5 266.665 233.335 274.5 243 274.5V271.5ZM228.5 257C228.5 253.313 229.874 249.951 232.14 247.391L229.894 245.403C227.161 248.489 225.5 252.552 225.5 257H228.5ZM216.5 265.415C216.5 256.352 222.382 248.659 230.542 245.953L229.597 243.105C220.248 246.206 213.5 255.02 213.5 265.415H216.5ZM237 285.915C225.678 285.915 216.5 276.737 216.5 265.415H213.5C213.5 278.394 224.021 288.915 237 288.915V285.915ZM257.5 265.415C257.5 276.737 248.322 285.915 237 285.915V288.915C249.979 288.915 260.5 278.394 260.5 265.415H257.5ZM257.499 265.214C257.5 265.281 257.5 265.348 257.5 265.415H260.5C260.5 265.338 260.5 265.262 260.499 265.185L257.499 265.214ZM232.14 247.391C232.958 246.469 232.953 245.247 232.534 244.384C232.317 243.939 231.952 243.502 231.423 243.232C230.867 242.948 230.222 242.898 229.597 243.105L230.542 245.953C230.42 245.993 230.233 245.993 230.059 245.904C229.912 245.829 229.853 245.732 229.835 245.696C229.814 245.652 229.78 245.531 229.894 245.403L232.14 247.391ZM258.216 265.65C258.131 265.799 258.009 265.803 257.967 265.798C257.93 265.793 257.82 265.77 257.702 265.656C257.561 265.521 257.5 265.343 257.499 265.214L260.499 265.185C260.493 264.525 260.234 263.93 259.783 263.496C259.355 263.083 258.823 262.88 258.331 262.82C257.38 262.704 256.22 263.092 255.609 264.165L258.216 265.65Z" fill="black" mask="url(#path-22-inside-3_92_12611)"/>
<path d="M240 367L324 367" stroke="black" stroke-width="1.5" stroke-linecap="round"/>
<path d="M240 380L284 380" stroke="black" stroke-width="1.5" stroke-linecap="round"/>
<path d="M114.234 297.847C114.162 297.499 113.855 297.25 113.5 297.25C113.145 297.25 112.838 297.499 112.766 297.847L107.516 323.096L81.8519 328.265C81.5018 328.335 81.25 328.643 81.25 329C81.25 329.357 81.5018 329.665 81.8519 329.735L107.516 334.904L112.766 360.153C112.838 360.501 113.145 360.75 113.5 360.75C113.855 360.75 114.162 360.501 114.234 360.153L119.484 334.904L145.148 329.735C145.498 329.665 145.75 329.357 145.75 329C145.75 328.643 145.498 328.335 145.148 328.265L119.484 323.096L114.234 297.847Z" fill="white" stroke="black" stroke-width="1.5" stroke-linejoin="round"/>
<path d="M368.234 84.8473C368.162 84.4994 367.855 84.25 367.5 84.25C367.145 84.25 366.838 84.4994 366.766 84.8473L361.516 110.096L335.852 115.265C335.502 115.335 335.25 115.643 335.25 116C335.25 116.357 335.502 116.665 335.852 116.735L361.516 121.904L366.766 147.153C366.838 147.501 367.145 147.75 367.5 147.75C367.855 147.75 368.162 147.501 368.234 147.153L373.484 121.904L399.148 116.735C399.498 116.665 399.75 116.357 399.75 116C399.75 115.643 399.498 115.335 399.148 115.265L373.484 110.096L368.234 84.8473Z" fill="white" stroke="black" stroke-width="1.5" stroke-linejoin="round"/>
<path d="M202.37 381.245C205.049 383.81 210.278 387.725 214.127 388.971L213.912 388.284L213.95 388.272L213.95 388.272C214.025 388.249 214.1 388.223 214.177 388.197M202.37 381.245L202.919 380.734C202.914 380.729 202.909 380.724 202.904 380.718M202.37 381.245C198.319 376.895 193.999 368.497 199.863 362.142C205.28 356.271 211.044 359.973 213.61 362.444M202.37 381.245L213.61 362.444M202.904 380.718C204.217 381.973 206.166 383.569 208.261 385.002C210.286 386.388 212.399 387.588 214.177 388.197M202.904 380.718C200.943 378.608 198.939 375.537 198.126 372.265C197.319 369.015 197.69 365.603 200.414 362.651C201.791 361.158 203.158 360.356 204.442 359.994C205.728 359.633 206.982 359.699 208.156 360.019C210.529 360.667 212.525 362.345 213.587 363.489L214.136 364.082L214.686 363.489C215.761 362.331 217.661 360.661 219.931 360.017C221.052 359.699 222.253 359.633 223.5 359.993C224.748 360.353 226.092 361.154 227.473 362.651C230.211 365.618 230.662 368.947 229.95 372.091C229.232 375.261 227.328 378.232 225.368 380.34C224.042 381.608 222.106 383.302 220.032 384.828C218.022 386.307 215.937 387.586 214.177 388.197M202.904 380.718L214.405 388.272C214.33 388.248 214.253 388.223 214.177 388.197M213.61 362.444C213.602 362.452 213.594 362.46 213.587 362.469L214.136 362.979L214.686 362.469C214.678 362.46 214.669 362.45 214.66 362.441L213.61 362.444Z" fill="black" stroke="black" stroke-width="1.5"/>
</svg>
