<svg width="512" height="512" viewBox="0 0 512 512" fill="none" xmlns="http://www.w3.org/2000/svg">
<path d="M174.75 125L174.75 282C174.75 294.841 185.159 305.25 198 305.25L327 305.25C339.841 305.25 350.25 294.841 350.25 282L350.25 212.427C350.25 206.849 348.244 201.456 344.598 197.233L269.112 109.806C264.695 104.69 258.272 101.75 251.514 101.75L198 101.75C185.159 101.75 174.75 112.159 174.75 125Z" fill="black" stroke="black" stroke-width="1.5"/>
<path d="M183.75 124L183.75 281C183.75 293.841 194.159 304.25 207 304.25L336 304.25C348.841 304.25 359.25 293.841 359.25 281L359.25 155.5C359.25 154.725 358.957 153.978 358.431 153.409L309.789 100.876C309.715 100.796 309.61 100.75 309.5 100.75L207 100.75C194.159 100.75 183.75 111.159 183.75 124Z" fill="#9296FF" stroke="black" stroke-width="1.5"/>
<mask id="path-3-inside-1_92_14672" fill="white">
<path fill-rule="evenodd" clip-rule="evenodd" d="M355.12 155C356.303 153.875 356.493 151.917 355.285 150.581L315.691 106.794C312.044 102.76 306.958 100.321 301.529 100L299.413 100L299.413 100L299.413 139C299.413 147.837 306.577 155 315.413 155L355.12 155Z"/>
</mask>
<path fill-rule="evenodd" clip-rule="evenodd" d="M355.12 155C356.303 153.875 356.493 151.917 355.285 150.581L315.691 106.794C312.044 102.76 306.958 100.321 301.529 100L299.413 100L299.413 100L299.413 139C299.413 147.837 306.577 155 315.413 155L355.12 155Z" fill="black"/>
<path d="M355.12 155L355.12 156.5L355.72 156.5L356.154 156.087L355.12 155ZM355.285 150.581L356.398 149.575L356.398 149.575L355.285 150.581ZM315.691 106.794L314.579 107.8L314.579 107.8L315.691 106.794ZM301.529 100L301.617 98.5026L301.573 98.5L301.529 98.5L301.529 100ZM299.413 100L299.413 98.5L299.413 100ZM299.413 100L299.413 98.5L297.913 98.5L297.913 100L299.413 100ZM299.413 139L297.913 139L299.413 139ZM315.413 155L315.413 153.5H315.413V155ZM356.154 156.087C357.89 154.436 358.185 151.551 356.398 149.575L354.173 151.587C354.802 152.282 354.717 153.314 354.087 153.913L356.154 156.087ZM356.398 149.575L316.804 105.788L314.579 107.8L354.173 151.587L356.398 149.575ZM316.804 105.788C312.893 101.463 307.439 98.8463 301.617 98.5026L301.44 101.497C306.477 101.795 311.195 104.058 314.579 107.8L316.804 105.788ZM301.529 98.5L299.413 98.5L299.413 101.5L301.529 101.5L301.529 98.5ZM299.413 98.5L299.413 98.5L299.413 101.5L299.413 101.5L299.413 98.5ZM297.913 100L297.913 139L300.913 139L300.913 100L297.913 100ZM297.913 139C297.913 148.665 305.748 156.5 315.413 156.5V153.5C307.405 153.5 300.913 147.008 300.913 139L297.913 139ZM315.413 156.5L355.12 156.5L355.12 153.5L315.413 153.5L315.413 156.5Z" fill="black" mask="url(#path-3-inside-1_92_14672)"/>
<mask id="path-5-inside-2_92_14672" fill="white">
<path fill-rule="evenodd" clip-rule="evenodd" d="M359.868 155C359.642 154.164 359.217 153.387 358.62 152.74L311.424 101.555C310.51 100.564 309.223 100 307.875 100L307.875 139C307.875 147.837 315.038 155 323.875 155L359.868 155Z"/>
</mask>
<path fill-rule="evenodd" clip-rule="evenodd" d="M359.868 155C359.642 154.164 359.217 153.387 358.62 152.74L311.424 101.555C310.51 100.564 309.223 100 307.875 100L307.875 139C307.875 147.837 315.038 155 323.875 155L359.868 155Z" fill="#9296FF"/>
<path d="M359.868 155L359.868 156.5L361.826 156.5L361.316 154.609L359.868 155ZM358.62 152.74L359.723 151.723L359.723 151.723L358.62 152.74ZM311.424 101.555L312.527 100.538L312.527 100.538L311.424 101.555ZM307.875 100L307.875 98.5L306.375 98.5L306.375 100L307.875 100ZM307.875 139L306.375 139L307.875 139ZM323.875 155L323.875 153.5H323.875V155ZM361.316 154.609C361.028 153.541 360.485 152.549 359.723 151.723L357.518 153.757C357.949 154.224 358.256 154.786 358.419 155.391L361.316 154.609ZM359.723 151.723L312.527 100.538L310.322 102.572L357.518 153.757L359.723 151.723ZM312.527 100.538C311.329 99.2391 309.642 98.5 307.875 98.5L307.875 101.5C308.804 101.5 309.692 101.889 310.322 102.572L312.527 100.538ZM306.375 100L306.375 139L309.375 139L309.375 100L306.375 100ZM306.375 139C306.375 148.665 314.21 156.5 323.875 156.5V153.5C315.867 153.5 309.375 147.008 309.375 139L306.375 139ZM323.875 156.5L359.868 156.5L359.868 153.5L323.875 153.5L323.875 156.5Z" fill="black" mask="url(#path-5-inside-2_92_14672)"/>
<rect x="0.75" y="-0.75" width="293.5" height="213.5" rx="15.25" transform="matrix(1 0 2.18853e-08 -1 88 389.5)" fill="black" stroke="black" stroke-width="1.5"/>
<rect x="0.75" y="-0.75" width="293.5" height="213.5" rx="15.25" transform="matrix(1 0 2.18853e-08 -1 128 389.5)" fill="#FFD789" stroke="black" stroke-width="1.5"/>
<path d="M168.75 390.25H382.25L382.25 335C382.25 326.578 375.422 319.75 367 319.75H184C175.578 319.75 168.75 326.578 168.75 335L168.75 390.25Z" fill="#FFD789" stroke="black" stroke-width="1.5"/>
<path d="M183 320H363V408C363 421.255 352.255 432 339 432H207C193.745 432 183 421.255 183 408V320Z" fill="#FFD789" stroke="black" stroke-width="1.5"/>
<mask id="path-11-inside-3_92_14672" fill="white">
<path fill-rule="evenodd" clip-rule="evenodd" d="M383 391H363V336C363 327.163 355.837 320 347 320H178.42C180.157 319.353 182.037 319 184 319H367C375.837 319 383 326.163 383 335V391Z"/>
</mask>
<path fill-rule="evenodd" clip-rule="evenodd" d="M383 391H363V336C363 327.163 355.837 320 347 320H178.42C180.157 319.353 182.037 319 184 319H367C375.837 319 383 326.163 383 335V391Z" fill="black"/>
<path d="M363 391H361.5V392.5H363V391ZM383 391V392.5H384.5V391H383ZM178.42 320L177.897 318.594L178.42 321.5V320ZM363 392.5H383V389.5H363V392.5ZM364.5 391V336H361.5V391H364.5ZM364.5 336C364.5 326.335 356.665 318.5 347 318.5V321.5C355.008 321.5 361.5 327.992 361.5 336H364.5ZM347 318.5H178.42V321.5H347V318.5ZM184 317.5C181.856 317.5 179.799 317.886 177.897 318.594L178.943 321.406C180.516 320.821 182.219 320.5 184 320.5V317.5ZM367 317.5H184V320.5H367V317.5ZM384.5 335C384.5 325.335 376.665 317.5 367 317.5V320.5C375.008 320.5 381.5 326.992 381.5 335H384.5ZM384.5 391V335H381.5V391H384.5Z" fill="black" mask="url(#path-11-inside-3_92_14672)"/>
<mask id="path-13-inside-4_92_14672" fill="white">
<path fill-rule="evenodd" clip-rule="evenodd" d="M164 391H184V336C184 327.163 191.163 320 200 320H368.58C366.843 319.353 364.963 319 363 319H180C171.163 319 164 326.163 164 335V391Z"/>
</mask>
<path fill-rule="evenodd" clip-rule="evenodd" d="M164 391H184V336C184 327.163 191.163 320 200 320H368.58C366.843 319.353 364.963 319 363 319H180C171.163 319 164 326.163 164 335V391Z" fill="black"/>
<path d="M184 391H185.5V392.5H184V391ZM164 391V392.5H162.5V391H164ZM368.58 320L369.103 318.594L368.58 321.5V320ZM184 392.5H164V389.5H184V392.5ZM182.5 391V336H185.5V391H182.5ZM182.5 336C182.5 326.335 190.335 318.5 200 318.5V321.5C191.992 321.5 185.5 327.992 185.5 336H182.5ZM200 318.5H368.58V321.5H200V318.5ZM363 317.5C365.144 317.5 367.201 317.886 369.103 318.594L368.057 321.406C366.484 320.821 364.781 320.5 363 320.5V317.5ZM180 317.5H363V320.5H180V317.5ZM162.5 335C162.5 325.335 170.335 317.5 180 317.5V320.5C171.992 320.5 165.5 326.992 165.5 335H162.5ZM162.5 391V335H165.5V391H162.5Z" fill="black" mask="url(#path-13-inside-4_92_14672)"/>
<path d="M208 343L338 343" stroke="black" stroke-width="1.5" stroke-linecap="round"/>
<path d="M208 387L338 387" stroke="black" stroke-width="1.5" stroke-linecap="round"/>
<path d="M208 365L276 365" stroke="black" stroke-width="1.5" stroke-linecap="round"/>
<path d="M208 409L276 409" stroke="black" stroke-width="1.5" stroke-linecap="round"/>
<circle cx="404" cy="366" r="8" fill="black"/>
<circle cx="149" cy="366" r="8" fill="black"/>
<circle cx="149" cy="201" r="8" fill="black"/>
<rect x="-0.75" y="-0.75" width="111.5" height="111.5" rx="15.25" transform="matrix(4.91312e-08 -1 -1 -3.88894e-08 402.5 304.5)" fill="#9296FF" stroke="black" stroke-width="1.5"/>
<circle cx="312" cy="213" r="7.25" fill="#9296FF" stroke="black" stroke-width="1.5"/>
<circle cx="336" cy="213" r="7.25" fill="white" stroke="black" stroke-width="1.5"/>
<circle cx="360" cy="213" r="7.25" fill="white" stroke="black" stroke-width="1.5"/>
<path d="M308 242L363.5 242" stroke="black" stroke-width="1.5" stroke-linecap="round"/>
<path d="M292 230L402.5 230" stroke="black" stroke-width="1.5" stroke-linecap="round"/>
<path d="M308 255L337 255" stroke="black" stroke-width="1.5" stroke-linecap="round"/>
<path d="M308 288L339.25 288L347.063 288M370.5 288L354.875 288" stroke="black" stroke-width="1.5" stroke-linecap="round"/>
<path d="M308 280L323.625 280M339.25 280L331.438 280" stroke="black" stroke-width="1.5" stroke-linecap="round"/>
<mask id="path-31-inside-5_92_14672" fill="white">
<path fill-rule="evenodd" clip-rule="evenodd" d="M393 290C393 298.837 385.837 306 377 306H388C396.837 306 404 298.837 404 290L404 209C404 200.163 396.837 193 388 193H377C385.837 193 393 200.163 393 209L393 290Z"/>
</mask>
<path fill-rule="evenodd" clip-rule="evenodd" d="M393 290C393 298.837 385.837 306 377 306H388C396.837 306 404 298.837 404 290L404 209C404 200.163 396.837 193 388 193H377C385.837 193 393 200.163 393 209L393 290Z" fill="black"/>
<path d="M393 290L391.5 290V290H393ZM404 290L402.5 290V290H404ZM404 209L402.5 209V209L404 209ZM393 209L391.5 209V209L393 209ZM377 307.5C386.665 307.5 394.5 299.665 394.5 290H391.5C391.5 298.008 385.008 304.5 377 304.5V307.5ZM377 307.5H388V304.5H377V307.5ZM388 307.5C397.665 307.5 405.5 299.665 405.5 290H402.5C402.5 298.008 396.008 304.5 388 304.5V307.5ZM405.5 290L405.5 209L402.5 209L402.5 290L405.5 290ZM405.5 209C405.5 199.335 397.665 191.5 388 191.5V194.5C396.008 194.5 402.5 200.992 402.5 209L405.5 209ZM388 191.5H377V194.5H388V191.5ZM394.5 209C394.5 199.335 386.665 191.5 377 191.5V194.5C385.008 194.5 391.5 200.992 391.5 209L394.5 209ZM394.5 290L394.5 209L391.5 209L391.5 290L394.5 290Z" fill="black" mask="url(#path-31-inside-5_92_14672)"/>
<path d="M130.735 347.148C130.665 347.498 130.357 347.75 130 347.75C129.643 347.75 129.335 347.498 129.265 347.148L124.096 321.484L98.8473 316.234C98.4994 316.162 98.25 315.855 98.25 315.5C98.25 315.145 98.4994 314.838 98.8473 314.766L124.096 309.516L129.265 283.852C129.335 283.502 129.643 283.25 130 283.25C130.357 283.25 130.665 283.502 130.735 283.852L135.904 309.516L161.153 314.766C161.501 314.838 161.75 315.145 161.75 315.5C161.75 315.855 161.501 316.162 161.153 316.234L135.904 321.484L130.735 347.148Z" fill="white" stroke="black" stroke-width="1.5" stroke-linejoin="round"/>
<path d="M367.765 134.15C367.837 134.499 368.144 134.75 368.5 134.75C368.856 134.75 369.163 134.499 369.235 134.15L373.807 111.807L396.15 107.235C396.499 107.163 396.75 106.856 396.75 106.5C396.75 106.144 396.499 105.837 396.15 105.765L373.807 101.193L369.235 78.8496C369.163 78.5006 368.856 78.25 368.5 78.25C368.144 78.25 367.837 78.5006 367.765 78.8496L363.193 101.193L340.85 105.765C340.501 105.837 340.25 106.144 340.25 106.5C340.25 106.856 340.501 107.163 340.85 107.235L363.193 111.807L367.765 134.15Z" fill="white" stroke="black" stroke-width="1.5" stroke-linejoin="round"/>
</svg>
