<svg width="512" height="512" viewBox="0 0 512 512" fill="none" xmlns="http://www.w3.org/2000/svg">
<rect x="-0.75" y="-0.75" width="80.5" height="313.5" rx="35.25" transform="matrix(3.41176e-08 -1 -1 -5.60029e-08 415.5 337.5)" fill="black" stroke="black" stroke-width="1.5"/>
<rect x="-0.75" y="-0.75" width="80.5" height="313.5" rx="35.25" transform="matrix(3.41176e-08 -1 -1 -5.60029e-08 385.5 434.5)" fill="black" stroke="black" stroke-width="1.5"/>
<rect x="-0.75" y="-0.75" width="80.5" height="313.5" rx="35.25" transform="matrix(3.41176e-08 -1 -1 -5.60029e-08 445.5 337.5)" fill="#9296FF" stroke="black" stroke-width="1.5"/>
<rect x="-0.75" y="-0.75" width="80.5" height="313.5" rx="35.25" transform="matrix(3.41176e-08 -1 -1 -5.60029e-08 415.5 434.5)" fill="#FFD789" stroke="black" stroke-width="1.5"/>
<rect x="-0.75" y="-0.75" width="60.5" height="277.5" rx="30.25" transform="matrix(3.41176e-08 -1 -1 -5.60029e-08 427.5 327.5)" fill="#FFD789" stroke="black" stroke-width="1.5"/>
<rect x="-0.75" y="-0.75" width="60.5" height="277.5" rx="30.25" transform="matrix(3.41176e-08 -1 -1 -5.60029e-08 397.5 424.5)" fill="#FFD789" stroke="black" stroke-width="1.5"/>
<mask id="path-7-inside-1_92_13150" fill="white">
<path fill-rule="evenodd" clip-rule="evenodd" d="M380 267H398C415.121 267 429 280.879 429 298C429 315.121 415.121 329 398 329H380.009C397.126 328.995 411 315.118 411 298C411 280.879 397.121 267 380 267Z"/>
</mask>
<path fill-rule="evenodd" clip-rule="evenodd" d="M380 267H398C415.121 267 429 280.879 429 298C429 315.121 415.121 329 398 329H380.009C397.126 328.995 411 315.118 411 298C411 280.879 397.121 267 380 267Z" fill="black"/>
<path d="M380.009 329L380.009 327.5L380.009 330.5V329ZM398 265.5H380V268.5H398V265.5ZM430.5 298C430.5 280.051 415.949 265.5 398 265.5V268.5C414.292 268.5 427.5 281.708 427.5 298H430.5ZM398 330.5C415.949 330.5 430.5 315.949 430.5 298H427.5C427.5 314.292 414.292 327.5 398 327.5V330.5ZM380.009 330.5H398V327.5H380.009V330.5ZM380.009 330.5C397.954 330.495 412.5 315.946 412.5 298H409.5C409.5 314.29 396.297 327.495 380.009 327.5L380.009 330.5ZM412.5 298C412.5 280.051 397.949 265.5 380 265.5V268.5C396.292 268.5 409.5 281.708 409.5 298H412.5Z" fill="black" mask="url(#path-7-inside-1_92_13150)"/>
<path d="M200 280V315" stroke="black" stroke-width="8" stroke-linecap="round"/>
<path d="M212.281 285.125L187.533 309.874" stroke="black" stroke-width="8" stroke-linecap="round"/>
<path d="M187.533 285.125L212.282 309.874" stroke="black" stroke-width="8" stroke-linecap="round"/>
<path d="M217 297L182 297" stroke="black" stroke-width="8" stroke-linecap="round"/>
<path d="M260 280V315" stroke="black" stroke-width="8" stroke-linecap="round"/>
<path d="M272.281 285.125L247.533 309.874" stroke="black" stroke-width="8" stroke-linecap="round"/>
<path d="M247.533 285.125L272.282 309.874" stroke="black" stroke-width="8" stroke-linecap="round"/>
<path d="M277 297L242 297" stroke="black" stroke-width="8" stroke-linecap="round"/>
<path d="M320 280V315" stroke="black" stroke-width="8" stroke-linecap="round"/>
<path d="M332.281 285.125L307.533 309.874" stroke="black" stroke-width="8" stroke-linecap="round"/>
<path d="M307.533 285.125L332.282 309.874" stroke="black" stroke-width="8" stroke-linecap="round"/>
<path d="M337 297L302 297" stroke="black" stroke-width="8" stroke-linecap="round"/>
<path d="M380 280V315" stroke="black" stroke-width="8" stroke-linecap="round"/>
<path d="M392.281 285.125L367.533 309.874" stroke="black" stroke-width="8" stroke-linecap="round"/>
<path d="M367.533 285.125L392.282 309.874" stroke="black" stroke-width="8" stroke-linecap="round"/>
<path d="M397 297L362 297" stroke="black" stroke-width="8" stroke-linecap="round"/>
<circle cx="219" cy="175" r="98.25" fill="black" stroke="black" stroke-width="1.5"/>
<circle cx="235" cy="175" r="98.25" fill="#FFD789" stroke="black" stroke-width="1.5"/>
<circle cx="235" cy="175" r="76.25" fill="#9296FF" stroke="black" stroke-width="1.5"/>
<mask id="path-28-inside-2_92_13150" fill="white">
<path fill-rule="evenodd" clip-rule="evenodd" d="M319.037 104.116C312.789 97.8681 302.658 97.8681 296.41 104.116L218.721 181.805L179.105 142.189C172.856 135.941 162.726 135.941 156.477 142.189L154.686 143.98C148.438 150.228 148.438 160.359 154.686 166.607L206.958 218.879C208.885 220.806 211.181 222.139 213.619 222.877C219.246 224.86 225.761 223.602 230.262 219.101L320.828 128.535C327.077 122.286 327.077 112.156 320.828 105.907L319.037 104.116Z"/>
</mask>
<path fill-rule="evenodd" clip-rule="evenodd" d="M319.037 104.116C312.789 97.8681 302.658 97.8681 296.41 104.116L218.721 181.805L179.105 142.189C172.856 135.941 162.726 135.941 156.477 142.189L154.686 143.98C148.438 150.228 148.438 160.359 154.686 166.607L206.958 218.879C208.885 220.806 211.181 222.139 213.619 222.877C219.246 224.86 225.761 223.602 230.262 219.101L320.828 128.535C327.077 122.286 327.077 112.156 320.828 105.907L319.037 104.116Z" fill="black"/>
<path d="M296.41 104.116L297.471 105.177L297.471 105.177L296.41 104.116ZM319.037 104.116L317.977 105.177L317.977 105.177L319.037 104.116ZM218.721 181.805L217.66 182.866L218.721 183.927L219.782 182.866L218.721 181.805ZM179.105 142.189L180.165 141.128L180.165 141.128L179.105 142.189ZM156.477 142.189L157.538 143.25L157.538 143.25L156.477 142.189ZM154.686 143.98L153.626 142.919L153.626 142.919L154.686 143.98ZM154.686 166.607L153.626 167.668L153.626 167.668L154.686 166.607ZM206.958 218.879L208.019 217.819L208.019 217.819L206.958 218.879ZM213.619 222.877L214.117 221.463L214.086 221.451L214.054 221.442L213.619 222.877ZM230.262 219.101L231.323 220.161L230.262 219.101ZM320.828 128.535L319.768 127.474L319.768 127.474L320.828 128.535ZM320.828 105.907L321.889 104.847L321.889 104.847L320.828 105.907ZM297.471 105.177C303.133 99.5145 312.314 99.5145 317.977 105.177L320.098 103.056C313.264 96.2216 302.183 96.2216 295.349 103.056L297.471 105.177ZM219.782 182.866L297.471 105.177L295.349 103.056L217.66 180.745L219.782 182.866ZM178.044 143.25L217.66 182.866L219.782 180.745L180.165 141.128L178.044 143.25ZM157.538 143.25C163.2 137.587 172.381 137.587 178.044 143.25L180.165 141.128C173.331 134.294 162.251 134.294 155.417 141.128L157.538 143.25ZM155.747 145.04L157.538 143.25L155.417 141.128L153.626 142.919L155.747 145.04ZM155.747 165.547C150.084 159.884 150.084 150.703 155.747 145.04L153.626 142.919C146.791 149.753 146.791 160.834 153.626 167.668L155.747 165.547ZM208.019 217.819L155.747 165.547L153.626 167.668L205.898 219.94L208.019 217.819ZM214.054 221.442C211.847 220.773 209.767 219.567 208.019 217.819L205.898 219.94C208.003 222.046 210.516 223.505 213.184 224.313L214.054 221.442ZM229.201 218.04C225.124 222.117 219.221 223.261 214.117 221.463L213.12 224.292C219.272 226.46 226.398 225.086 231.323 220.161L229.201 218.04ZM319.768 127.474L229.201 218.04L231.323 220.161L321.889 129.595L319.768 127.474ZM319.768 106.968C325.43 112.631 325.43 121.811 319.768 127.474L321.889 129.595C328.723 122.761 328.723 111.681 321.889 104.847L319.768 106.968ZM317.977 105.177L319.768 106.968L321.889 104.847L320.098 103.056L317.977 105.177Z" fill="black" mask="url(#path-28-inside-2_92_13150)"/>
<mask id="path-30-inside-3_92_13150" fill="white">
<path fill-rule="evenodd" clip-rule="evenodd" d="M327.967 102.686C321.719 96.4379 311.588 96.4379 305.34 102.686L227.651 180.375L188.034 140.759C181.786 134.51 171.655 134.51 165.407 140.759L163.616 142.55C157.368 148.798 157.368 158.929 163.616 165.177L215.888 217.449C217.815 219.376 220.111 220.709 222.548 221.447C228.176 223.43 234.691 222.171 239.192 217.671L329.758 127.105C336.006 120.856 336.006 110.726 329.758 104.477L327.967 102.686Z"/>
</mask>
<path fill-rule="evenodd" clip-rule="evenodd" d="M327.967 102.686C321.719 96.4379 311.588 96.4379 305.34 102.686L227.651 180.375L188.034 140.759C181.786 134.51 171.655 134.51 165.407 140.759L163.616 142.55C157.368 148.798 157.368 158.929 163.616 165.177L215.888 217.449C217.815 219.376 220.111 220.709 222.548 221.447C228.176 223.43 234.691 222.171 239.192 217.671L329.758 127.105C336.006 120.856 336.006 110.726 329.758 104.477L327.967 102.686Z" fill="#FFD789"/>
<path d="M305.34 102.686L306.4 103.747L306.4 103.747L305.34 102.686ZM327.967 102.686L326.906 103.747L326.906 103.747L327.967 102.686ZM227.651 180.375L226.59 181.436L227.651 182.497L228.711 181.436L227.651 180.375ZM188.034 140.759L189.095 139.698L189.095 139.698L188.034 140.759ZM165.407 140.759L166.468 141.819L166.468 141.819L165.407 140.759ZM163.616 142.55L162.555 141.489L162.555 141.489L163.616 142.55ZM163.616 165.177L162.555 166.238L162.555 166.238L163.616 165.177ZM215.888 217.449L216.949 216.389L216.949 216.389L215.888 217.449ZM222.548 221.447L223.047 220.032L223.015 220.021L222.983 220.012L222.548 221.447ZM239.192 217.671L240.252 218.731L239.192 217.671ZM329.758 127.105L328.697 126.044L328.697 126.044L329.758 127.105ZM329.758 104.477L330.819 103.417L330.819 103.417L329.758 104.477ZM306.4 103.747C312.063 98.0844 321.244 98.0843 326.906 103.747L329.028 101.626C322.194 94.7914 311.113 94.7915 304.279 101.626L306.4 103.747ZM228.711 181.436L306.4 103.747L304.279 101.626L226.59 179.315L228.711 181.436ZM186.974 141.819L226.59 181.436L228.711 179.315L189.095 139.698L186.974 141.819ZM166.468 141.819C172.13 136.157 181.311 136.157 186.974 141.819L189.095 139.698C182.261 132.864 171.18 132.864 164.346 139.698L166.468 141.819ZM164.677 143.61L166.468 141.819L164.346 139.698L162.555 141.489L164.677 143.61ZM164.677 164.116C159.014 158.454 159.014 149.273 164.677 143.61L162.555 141.489C155.721 148.323 155.721 159.404 162.555 166.238L164.677 164.116ZM216.949 216.389L164.677 164.116L162.555 166.238L214.827 218.51L216.949 216.389ZM222.983 220.012C220.776 219.343 218.697 218.137 216.949 216.389L214.827 218.51C216.933 220.615 219.445 222.074 222.113 222.883L222.983 220.012ZM238.131 216.61C234.054 220.687 228.151 221.831 223.047 220.032L222.05 222.862C228.201 225.03 235.328 223.656 240.252 218.731L238.131 216.61ZM328.697 126.044L238.131 216.61L240.252 218.731L330.819 128.165L328.697 126.044ZM328.697 105.538C334.36 111.2 334.36 120.381 328.697 126.044L330.819 128.165C337.653 121.331 337.653 110.251 330.819 103.417L328.697 105.538ZM326.906 103.747L328.697 105.538L330.819 103.417L329.028 101.626L326.906 103.747Z" fill="black" mask="url(#path-30-inside-3_92_13150)"/>
<path d="M155 395L207.5 395M365 395L312.5 395M233.75 395L260 395L286.25 395" stroke="black" stroke-width="1.5" stroke-linecap="round"/>
<path d="M348.265 142.852C348.335 142.502 348.643 142.25 349 142.25C349.357 142.25 349.665 142.502 349.735 142.852L354.904 168.516L380.153 173.766C380.501 173.838 380.75 174.145 380.75 174.5C380.75 174.855 380.501 175.162 380.153 175.234L354.904 180.484L349.735 206.148C349.665 206.498 349.357 206.75 349 206.75C348.643 206.75 348.335 206.498 348.265 206.148L343.096 180.484L317.847 175.234C317.499 175.162 317.25 174.855 317.25 174.5C317.25 174.145 317.499 173.838 317.847 173.766L343.096 168.516L348.265 142.852Z" fill="white" stroke="black" stroke-width="1.5" stroke-linejoin="round"/>
<path d="M93.2348 314.85C93.1634 314.501 92.8563 314.25 92.5 314.25C92.1437 314.25 91.8366 314.501 91.7652 314.85L87.193 337.193L64.8496 341.765C64.5006 341.837 64.25 342.144 64.25 342.5C64.25 342.856 64.5006 343.163 64.8496 343.235L87.193 347.807L91.7652 370.15C91.8366 370.499 92.1437 370.75 92.5 370.75C92.8563 370.75 93.1634 370.499 93.2348 370.15L97.807 347.807L120.15 343.235C120.499 343.163 120.75 342.856 120.75 342.5C120.75 342.144 120.499 341.837 120.15 341.765L97.807 337.193L93.2348 314.85Z" fill="white" stroke="black" stroke-width="1.5" stroke-linejoin="round"/>
</svg>
