<svg width="512" height="512" viewBox="0 0 512 512" fill="none" xmlns="http://www.w3.org/2000/svg">
<path d="M238.063 83.0158L195.148 108.692C180.135 117.673 162.969 122.417 145.475 122.417L118.908 122.417C105.729 122.417 95.1849 133.36 95.674 146.53L102.042 317.964C103.304 351.953 122.595 382.69 152.654 398.607L239.12 444.39C245.926 447.994 254.074 447.994 260.88 444.39L347.346 398.607C377.405 382.69 396.696 351.954 397.958 317.964L404.326 146.53C404.815 133.36 394.271 122.417 381.092 122.417L354.525 122.417C337.031 122.417 319.865 117.673 304.852 108.692L261.937 83.0158C254.587 78.6181 245.413 78.6181 238.063 83.0158Z" fill="black" stroke="black" stroke-width="1.5"/>
<path d="M263.063 69.0158L220.148 94.6917C205.135 103.673 187.969 108.417 170.475 108.417L143.908 108.417C130.729 108.417 120.185 119.36 120.674 132.53L127.042 303.964C128.304 337.953 147.595 368.69 177.654 384.607L264.12 430.39C270.926 433.994 279.074 433.994 285.88 430.39L372.346 384.607C402.405 368.69 421.696 337.954 422.958 303.964L429.326 132.53C429.815 119.36 419.271 108.417 406.092 108.417L379.525 108.417C362.031 108.417 344.865 103.673 329.852 94.6917L286.937 69.0158C279.587 64.6181 270.413 64.6181 263.063 69.0158Z" fill="#FFD789" stroke="black" stroke-width="1.5"/>
<path d="M263 98.1062L232.746 116.337C217.673 125.419 200.409 130.218 182.812 130.218L168.901 130.218C155.725 130.218 145.182 141.157 145.667 154.325L150.564 287.114C151.815 321.012 170.998 351.687 200.929 367.649L264.06 401.316C270.897 404.962 279.103 404.962 285.94 401.316L349.071 367.649C379.002 351.688 398.185 321.012 399.436 287.114L404.333 154.325C404.818 141.157 394.275 130.218 381.099 130.218L367.188 130.218C349.591 130.218 332.327 125.419 317.254 116.337L287 98.1062C279.618 93.6583 270.382 93.6583 263 98.1062Z" fill="#9296FF" stroke="black" stroke-width="1.5"/>
<mask id="path-4-inside-1_92_12997" fill="white">
<path fill-rule="evenodd" clip-rule="evenodd" d="M150.6 137.941C153.184 136.989 155.98 136.468 158.901 136.468H172.812C190.273 136.468 207.403 131.706 222.358 122.694L252.613 104.464C260.232 99.8722 269.767 99.8722 277.386 104.463L307.641 122.694C322.596 131.706 339.727 136.468 357.187 136.468H371.098C384.7 136.468 395.583 147.76 395.082 161.352L390.185 294.141C389.145 322.338 375.793 348.323 354.202 365.584C381.62 348.883 398.992 319.466 400.185 287.141L405.082 154.352C405.583 140.76 394.7 129.468 381.098 129.468H367.187C349.727 129.468 332.596 124.706 317.641 115.694L287.386 97.4635C279.767 92.8722 270.232 92.8722 262.613 97.4635L232.358 115.694C217.403 124.706 200.273 129.468 182.812 129.468H168.901C161.551 129.468 154.995 132.765 150.6 137.941Z"/>
</mask>
<path fill-rule="evenodd" clip-rule="evenodd" d="M150.6 137.941C153.184 136.989 155.98 136.468 158.901 136.468H172.812C190.273 136.468 207.403 131.706 222.358 122.694L252.613 104.464C260.232 99.8722 269.767 99.8722 277.386 104.463L307.641 122.694C322.596 131.706 339.727 136.468 357.187 136.468H371.098C384.7 136.468 395.583 147.76 395.082 161.352L390.185 294.141C389.145 322.338 375.793 348.323 354.202 365.584C381.62 348.883 398.992 319.466 400.185 287.141L405.082 154.352C405.583 140.76 394.7 129.468 381.098 129.468H367.187C349.727 129.468 332.596 124.706 317.641 115.694L287.386 97.4635C279.767 92.8722 270.232 92.8722 262.613 97.4635L232.358 115.694C217.403 124.706 200.273 129.468 182.812 129.468H168.901C161.551 129.468 154.995 132.765 150.6 137.941Z" fill="black"/>
<path d="M150.6 137.941L149.456 136.97L145.76 141.324L151.118 139.349L150.6 137.941ZM222.358 122.694L221.584 121.409L221.584 121.409L222.358 122.694ZM252.613 104.464L253.387 105.748L253.387 105.748L252.613 104.464ZM277.386 104.463L276.612 105.748L276.612 105.748L277.386 104.463ZM307.641 122.694L308.415 121.409L308.415 121.409L307.641 122.694ZM357.187 136.468L357.187 137.968H357.187V136.468ZM395.082 161.352L396.581 161.408L396.581 161.408L395.082 161.352ZM390.185 294.141L391.684 294.197L391.684 294.197L390.185 294.141ZM354.202 365.584L353.265 364.412L354.982 366.865L354.202 365.584ZM400.185 287.141L398.686 287.086L398.686 287.086L400.185 287.141ZM405.082 154.352L406.581 154.408L406.581 154.408L405.082 154.352ZM367.187 129.468L367.187 130.968H367.187V129.468ZM317.641 115.694L318.415 114.409L318.415 114.409L317.641 115.694ZM287.386 97.4635L286.612 98.7483L286.612 98.7483L287.386 97.4635ZM262.613 97.4635L263.387 98.7483L263.387 98.7483L262.613 97.4635ZM232.358 115.694L233.132 116.979L233.132 116.979L232.358 115.694ZM158.901 134.968C155.8 134.968 152.829 135.521 150.081 136.534L151.118 139.349C153.539 138.456 156.159 137.968 158.901 137.968V134.968ZM172.812 134.968H158.901V137.968H172.812V134.968ZM221.584 121.409C206.862 130.28 190 134.968 172.812 134.968V137.968C190.545 137.968 207.943 133.131 223.132 123.979L221.584 121.409ZM251.839 103.179L221.584 121.409L223.132 123.979L253.387 105.748L251.839 103.179ZM278.16 103.179C270.065 98.3004 259.935 98.3005 251.839 103.179L253.387 105.748C260.53 101.444 269.469 101.444 276.612 105.748L278.16 103.179ZM308.415 121.409L278.16 103.179L276.612 105.748L306.867 123.979L308.415 121.409ZM357.187 134.968C339.999 134.968 323.137 130.28 308.415 121.409L306.867 123.979C322.056 133.131 339.454 137.968 357.187 137.968L357.187 134.968ZM371.098 134.968H357.187V137.968H371.098V134.968ZM396.581 161.408C397.113 146.966 385.55 134.968 371.098 134.968V137.968C383.85 137.968 394.053 148.554 393.583 161.297L396.581 161.408ZM391.684 294.197L396.581 161.408L393.583 161.297L388.686 294.086L391.684 294.197ZM355.139 366.756C377.067 349.225 390.627 322.834 391.684 294.197L388.686 294.086C387.662 321.842 374.519 347.421 353.265 364.412L355.139 366.756ZM354.982 366.865C382.829 349.903 400.473 320.027 401.684 287.197L398.686 287.086C397.512 318.906 380.411 347.863 353.422 364.303L354.982 366.865ZM401.684 287.197L406.581 154.408L403.583 154.297L398.686 287.086L401.684 287.197ZM406.581 154.408C407.113 139.966 395.55 127.968 381.098 127.968V130.968C393.85 130.968 404.053 141.554 403.583 154.297L406.581 154.408ZM381.098 127.968H367.187V130.968H381.098V127.968ZM367.187 127.968C349.999 127.968 333.137 123.28 318.415 114.409L316.867 116.979C332.056 126.131 349.454 130.968 367.187 130.968L367.187 127.968ZM318.415 114.409L288.16 96.1787L286.612 98.7483L316.867 116.979L318.415 114.409ZM288.16 96.1787C280.065 91.3004 269.935 91.3005 261.839 96.1787L263.387 98.7483C270.53 94.4439 279.469 94.4439 286.612 98.7483L288.16 96.1787ZM261.839 96.1787L231.584 114.409L233.132 116.979L263.387 98.7483L261.839 96.1787ZM231.584 114.409C216.862 123.28 200 127.968 182.812 127.968V130.968C200.545 130.968 217.943 126.131 233.132 116.979L231.584 114.409ZM182.812 127.968H168.901V130.968H182.812V127.968ZM168.901 127.968C161.091 127.968 154.123 131.474 149.456 136.97L151.743 138.912C155.866 134.057 162.011 130.968 168.901 130.968V127.968Z" fill="black" mask="url(#path-4-inside-1_92_12997)"/>
<circle cx="260" cy="249" r="86.25" fill="black" stroke="black" stroke-width="1.5"/>
<circle cx="286" cy="249" r="86.25" fill="#FFD789" stroke="black" stroke-width="1.5"/>
<path d="M325.886 176.269L314.376 217.701L277.929 236.123L313.515 238.451L330.358 272.567L322.808 313.857L340.263 289.722L373.528 326.746L358.097 279.425L418.444 271.508L363.766 249.705L391.231 233.848L355.806 228.091L374.492 195.382L333.652 218.962L325.886 176.269Z" fill="#FFD789" stroke="black" stroke-width="1.5"/>
<path d="M346.25 249C346.25 282.269 319.057 309.25 285.5 309.25C251.943 309.25 224.75 282.269 224.75 249C224.75 215.731 251.943 188.75 285.5 188.75C319.057 188.75 346.25 215.731 346.25 249Z" fill="#FFD789" stroke="black" stroke-width="1.5"/>
<mask id="path-10-inside-2_92_12997" fill="white">
<path fill-rule="evenodd" clip-rule="evenodd" d="M294.813 247.887C300.795 244.691 304.865 238.385 304.865 231.128C304.865 220.641 296.364 212.14 285.877 212.14C275.39 212.14 266.889 220.641 266.889 231.128C266.889 238.828 271.471 245.457 278.058 248.437V280.742C278.058 282.952 279.849 284.742 282.058 284.742H290.813C293.022 284.742 294.813 282.952 294.813 280.742V247.887Z"/>
</mask>
<path fill-rule="evenodd" clip-rule="evenodd" d="M294.813 247.887C300.795 244.691 304.865 238.385 304.865 231.128C304.865 220.641 296.364 212.14 285.877 212.14C275.39 212.14 266.889 220.641 266.889 231.128C266.889 238.828 271.471 245.457 278.058 248.437V280.742C278.058 282.952 279.849 284.742 282.058 284.742H290.813C293.022 284.742 294.813 282.952 294.813 280.742V247.887Z" fill="#9296FF"/>
<path d="M294.813 247.887L294.106 246.564L293.313 246.988V247.887H294.813ZM278.058 248.437H279.558V247.47L278.677 247.071L278.058 248.437ZM303.365 231.128C303.365 237.81 299.619 243.618 294.106 246.564L295.52 249.21C301.97 245.763 306.365 238.96 306.365 231.128H303.365ZM285.877 213.64C295.535 213.64 303.365 221.47 303.365 231.128H306.365C306.365 219.813 297.192 210.64 285.877 210.64V213.64ZM268.389 231.128C268.389 221.47 276.218 213.64 285.877 213.64V210.64C274.562 210.64 265.389 219.813 265.389 231.128H268.389ZM278.677 247.071C272.607 244.325 268.389 238.218 268.389 231.128H265.389C265.389 239.439 270.336 246.59 277.44 249.804L278.677 247.071ZM279.558 280.742V248.437H276.558V280.742H279.558ZM282.058 283.242C280.678 283.242 279.558 282.123 279.558 280.742H276.558C276.558 283.78 279.021 286.242 282.058 286.242V283.242ZM290.813 283.242H282.058V286.242H290.813V283.242ZM293.313 280.742C293.313 282.123 292.193 283.242 290.813 283.242V286.242C293.85 286.242 296.313 283.78 296.313 280.742H293.313ZM293.313 247.887V280.742H296.313V247.887H293.313Z" fill="black" mask="url(#path-10-inside-2_92_12997)"/>
<path fill-rule="evenodd" clip-rule="evenodd" d="M296.52 230.988C296.52 238.245 292.45 244.551 286.468 247.747V280.135C286.468 282.49 284.645 284.419 282.334 284.59C282.438 284.598 282.543 284.602 282.649 284.602H291.403C293.613 284.602 295.403 282.811 295.403 280.602V247.747C301.386 244.551 305.456 238.245 305.456 230.988C305.456 220.501 296.955 212 286.468 212C284.929 212 283.433 212.183 282 212.529C290.331 214.538 296.52 222.04 296.52 230.988Z" fill="black"/>
<path d="M340.265 83.8519C340.335 83.5018 340.643 83.25 341 83.25C341.357 83.25 341.665 83.5018 341.735 83.8519L346.904 109.516L372.153 114.766C372.501 114.838 372.75 115.145 372.75 115.5C372.75 115.855 372.501 116.162 372.153 116.234L346.904 121.484L341.735 147.148C341.665 147.498 341.357 147.75 341 147.75C340.643 147.75 340.335 147.498 340.265 147.148L335.096 121.484L309.847 116.234C309.499 116.162 309.25 115.855 309.25 115.5C309.25 115.145 309.499 114.838 309.847 114.766L335.096 109.516L340.265 83.8519Z" fill="white" stroke="black" stroke-width="1.5" stroke-linejoin="round"/>
<path d="M109.235 331.85C109.163 331.501 108.856 331.25 108.5 331.25C108.144 331.25 107.837 331.501 107.765 331.85L103.193 354.193L80.8496 358.765C80.5006 358.837 80.25 359.144 80.25 359.5C80.25 359.856 80.5006 360.163 80.8496 360.235L103.193 364.807L107.765 387.15C107.837 387.499 108.144 387.75 108.5 387.75C108.856 387.75 109.163 387.499 109.235 387.15L113.807 364.807L136.15 360.235C136.499 360.163 136.75 359.856 136.75 359.5C136.75 359.144 136.499 358.837 136.15 358.765L113.807 354.193L109.235 331.85Z" fill="white" stroke="black" stroke-width="1.5" stroke-linejoin="round"/>
</svg>
