<svg width="512" height="512" viewBox="0 0 512 512" fill="none" xmlns="http://www.w3.org/2000/svg">
<rect x="-0.75" y="-0.75" width="255.5" height="390.5" rx="23.25" transform="matrix(5.6103e-08 -1 -1 -3.40567e-08 438.5 431.5)" fill="black" stroke="black" stroke-width="1.5"/>
<rect x="-0.75" y="-0.75" width="267.5" height="390.5" rx="23.25" transform="matrix(5.6103e-08 -1 -1 -3.40567e-08 438.5 411.5)" fill="#9296FF" stroke="black" stroke-width="1.5"/>
<mask id="path-3-inside-1_92_13193" fill="white">
<path fill-rule="evenodd" clip-rule="evenodd" d="M440 389C440 402.255 429.255 413 416 413L72 413C58.7452 413 48 402.255 48 389V184H440V389Z"/>
</mask>
<path fill-rule="evenodd" clip-rule="evenodd" d="M440 389C440 402.255 429.255 413 416 413L72 413C58.7452 413 48 402.255 48 389V184H440V389Z" fill="#FFD789"/>
<path d="M416 413L416 414.5H416V413ZM72 413L72 411.5H72V413ZM48 184V182.5H46.5V184H48ZM440 184H441.5V182.5H440V184ZM416 414.5C430.083 414.5 441.5 403.083 441.5 389H438.5C438.5 401.426 428.426 411.5 416 411.5V414.5ZM72 414.5L416 414.5L416 411.5L72 411.5L72 414.5ZM46.5 389C46.5 403.083 57.9167 414.5 72 414.5V411.5C59.5736 411.5 49.5 401.426 49.5 389H46.5ZM46.5 184V389H49.5V184H46.5ZM48 185.5H440V182.5H48V185.5ZM438.5 184V389H441.5V184H438.5Z" fill="black" mask="url(#path-3-inside-1_92_13193)"/>
<circle cx="74" cy="167" r="7.25" fill="#9296FF" stroke="black" stroke-width="1.5"/>
<circle cx="98" cy="167" r="7.25" fill="white" stroke="black" stroke-width="1.5"/>
<circle cx="122" cy="167" r="7.25" fill="white" stroke="black" stroke-width="1.5"/>
<path d="M49 185H438.5" stroke="black" stroke-width="1.5" stroke-linecap="round"/>
<rect x="-0.75" y="-0.75" width="80.5" height="313.5" rx="35.25" transform="matrix(3.41176e-08 -1 -1 -5.60029e-08 443.5 317.5)" fill="black" stroke="black" stroke-width="1.5"/>
<rect x="-0.75" y="-0.75" width="80.5" height="313.5" rx="35.25" transform="matrix(3.41176e-08 -1 -1 -5.60029e-08 461.5 317.5)" fill="#9296FF" stroke="black" stroke-width="1.5"/>
<rect x="-0.75" y="-0.75" width="60.5" height="277.5" rx="30.25" transform="matrix(3.41176e-08 -1 -1 -5.60029e-08 443.5 307.5)" fill="#FFD789" stroke="black" stroke-width="1.5"/>
<mask id="path-12-inside-2_92_13193" fill="white">
<path fill-rule="evenodd" clip-rule="evenodd" d="M396 247H414C431.121 247 445 260.879 445 278C445 295.121 431.121 309 414 309H396.009C413.126 308.995 427 295.118 427 278C427 260.879 413.121 247 396 247Z"/>
</mask>
<path fill-rule="evenodd" clip-rule="evenodd" d="M396 247H414C431.121 247 445 260.879 445 278C445 295.121 431.121 309 414 309H396.009C413.126 308.995 427 295.118 427 278C427 260.879 413.121 247 396 247Z" fill="black"/>
<path d="M396.009 309L396.009 307.5L396.009 310.5V309ZM414 245.5H396V248.5H414V245.5ZM446.5 278C446.5 260.051 431.949 245.5 414 245.5V248.5C430.292 248.5 443.5 261.708 443.5 278H446.5ZM414 310.5C431.949 310.5 446.5 295.949 446.5 278H443.5C443.5 294.292 430.292 307.5 414 307.5V310.5ZM396.009 310.5H414V307.5H396.009V310.5ZM396.009 310.5C413.954 310.495 428.5 295.946 428.5 278H425.5C425.5 294.29 412.297 307.495 396.009 307.5L396.009 310.5ZM428.5 278C428.5 260.051 413.949 245.5 396 245.5V248.5C412.292 248.5 425.5 261.708 425.5 278H428.5Z" fill="black" mask="url(#path-12-inside-2_92_13193)"/>
<path d="M216 260V295" stroke="black" stroke-width="8" stroke-linecap="round"/>
<path d="M228.281 265.125L203.533 289.874" stroke="black" stroke-width="8" stroke-linecap="round"/>
<path d="M203.533 265.125L228.282 289.874" stroke="black" stroke-width="8" stroke-linecap="round"/>
<path d="M233 277L198 277" stroke="black" stroke-width="8" stroke-linecap="round"/>
<path d="M276 260V295" stroke="black" stroke-width="8" stroke-linecap="round"/>
<path d="M288.281 265.125L263.533 289.874" stroke="black" stroke-width="8" stroke-linecap="round"/>
<path d="M263.533 265.125L288.282 289.874" stroke="black" stroke-width="8" stroke-linecap="round"/>
<path d="M293 277L258 277" stroke="black" stroke-width="8" stroke-linecap="round"/>
<path d="M130 339L286 339" stroke="black" stroke-width="1.5" stroke-linecap="round"/>
<path d="M130 352L212 352" stroke="black" stroke-width="1.5" stroke-linecap="round"/>
<path d="M417.5 277L372 277" stroke="black" stroke-width="1.5" stroke-linecap="round"/>
<path d="M353.5 277L308 277" stroke="black" stroke-width="1.5" stroke-linecap="round"/>
<path d="M85.2648 210.852C85.3353 210.502 85.6429 210.25 86 210.25C86.3571 210.25 86.6647 210.502 86.7352 210.852L91.9035 236.516L117.153 241.766C117.501 241.838 117.75 242.145 117.75 242.5C117.75 242.855 117.501 243.162 117.153 243.234L91.9035 248.484L86.7352 274.148C86.6647 274.498 86.3571 274.75 86 274.75C85.6429 274.75 85.3353 274.498 85.2648 274.148L80.0965 248.484L54.8473 243.234C54.4994 243.162 54.25 242.855 54.25 242.5C54.25 242.145 54.4994 241.838 54.8473 241.766L80.0965 236.516L85.2648 210.852Z" fill="white" stroke="black" stroke-width="1.5" stroke-linejoin="round"/>
<path d="M363.235 402.85C363.163 402.501 362.856 402.25 362.5 402.25C362.144 402.25 361.837 402.501 361.765 402.85L357.193 425.193L334.85 429.765C334.501 429.837 334.25 430.144 334.25 430.5C334.25 430.856 334.501 431.163 334.85 431.235L357.193 435.807L361.765 458.15C361.837 458.499 362.144 458.75 362.5 458.75C362.856 458.75 363.163 458.499 363.235 458.15L367.807 435.807L390.15 431.235C390.499 431.163 390.75 430.856 390.75 430.5C390.75 430.144 390.499 429.837 390.15 429.765L367.807 425.193L363.235 402.85Z" fill="white" stroke="black" stroke-width="1.5" stroke-linejoin="round"/>
<path d="M437.596 135.654C434.265 140.155 420.656 157.826 400.647 174.366C380.623 190.917 354.291 206.25 325.5 206.25C296.709 206.25 270.377 190.917 250.353 174.366C230.344 157.826 216.735 140.155 213.404 135.654C213.096 135.239 213.096 134.761 213.404 134.346C216.735 129.845 230.344 112.174 250.353 95.6343C270.377 79.0831 296.709 63.75 325.5 63.75C354.291 63.75 380.623 79.083 400.647 95.6342C420.656 112.174 434.265 129.845 437.596 134.346C437.904 134.761 437.904 135.239 437.596 135.654Z" fill="black" stroke="black" stroke-width="1.5"/>
<path d="M449.596 125.654C446.265 130.155 432.656 147.826 412.647 164.366C392.623 180.917 366.291 196.25 337.5 196.25C308.709 196.25 282.377 180.917 262.353 164.366C242.344 147.826 228.735 130.155 225.404 125.654C225.096 125.239 225.096 124.761 225.404 124.346C228.735 119.845 242.344 102.174 262.353 85.6343C282.377 69.0831 308.709 53.75 337.5 53.75C366.291 53.75 392.623 69.083 412.647 85.6342C432.656 102.174 446.265 119.845 449.596 124.346C449.904 124.761 449.904 125.239 449.596 125.654Z" fill="#FFD789" stroke="black" stroke-width="1.5"/>
<mask id="path-30-inside-3_92_13193" fill="white">
<path fill-rule="evenodd" clip-rule="evenodd" d="M317 77.4147V114L295.341 95.2566C289.453 103.685 286 113.939 286 125C286 153.719 309.281 177 338 177C366.719 177 390 153.719 390 125C390 96.2812 366.719 73 338 73C330.527 73 323.422 74.5764 317 77.4147Z"/>
</mask>
<path fill-rule="evenodd" clip-rule="evenodd" d="M317 77.4147V114L295.341 95.2566C289.453 103.685 286 113.939 286 125C286 153.719 309.281 177 338 177C366.719 177 390 153.719 390 125C390 96.2812 366.719 73 338 73C330.527 73 323.422 74.5764 317 77.4147Z" fill="black"/>
<path d="M317 114L316.018 115.134L318.5 117.282V114H317ZM317 77.4147L316.394 76.0428L315.5 76.4377V77.4147H317ZM295.341 95.2566L296.322 94.1223L295.064 93.0334L294.111 94.3976L295.341 95.2566ZM318.5 114V77.4147H315.5V114H318.5ZM294.359 96.3908L316.018 115.134L317.982 112.866L296.322 94.1223L294.359 96.3908ZM287.5 125C287.5 114.256 290.853 104.3 296.571 96.1155L294.111 94.3976C288.054 103.07 284.5 113.622 284.5 125H287.5ZM338 175.5C310.11 175.5 287.5 152.89 287.5 125H284.5C284.5 154.547 308.453 178.5 338 178.5V175.5ZM388.5 125C388.5 152.89 365.89 175.5 338 175.5V178.5C367.547 178.5 391.5 154.547 391.5 125H388.5ZM338 74.5C365.89 74.5 388.5 97.1096 388.5 125H391.5C391.5 95.4528 367.547 71.5 338 71.5V74.5ZM317.606 78.7867C323.841 76.0312 330.74 74.5 338 74.5V71.5C330.314 71.5 323.003 73.1216 316.394 76.0428L317.606 78.7867Z" fill="black" mask="url(#path-30-inside-3_92_13193)"/>
<mask id="path-32-inside-4_92_13193" fill="white">
<path fill-rule="evenodd" clip-rule="evenodd" d="M317 90.0878V114L300.753 99.9196C295.316 105.875 292 113.8 292 122.5C292 141.002 306.998 156 325.5 156C344.002 156 359 141.002 359 122.5C359 103.998 344.002 89 325.5 89C322.563 89 319.714 89.3779 317 90.0878Z"/>
</mask>
<path fill-rule="evenodd" clip-rule="evenodd" d="M317 90.0878V114L300.753 99.9196C295.316 105.875 292 113.8 292 122.5C292 141.002 306.998 156 325.5 156C344.002 156 359 141.002 359 122.5C359 103.998 344.002 89 325.5 89C322.563 89 319.714 89.3779 317 90.0878Z" fill="white"/>
<path d="M317 114L316.018 115.134L318.5 117.285V114H317ZM317 90.0878L316.62 88.6366L315.5 88.9297V90.0878H317ZM300.753 99.9196L301.736 98.7861L300.631 97.8288L299.646 98.9083L300.753 99.9196ZM318.5 114V90.0878H315.5V114H318.5ZM299.771 101.053L316.018 115.134L317.982 112.866L301.736 98.7861L299.771 101.053ZM293.5 122.5C293.5 114.189 296.666 106.621 301.861 100.931L299.646 98.9083C293.966 105.129 290.5 113.412 290.5 122.5H293.5ZM325.5 154.5C307.827 154.5 293.5 140.173 293.5 122.5H290.5C290.5 141.83 306.17 157.5 325.5 157.5V154.5ZM357.5 122.5C357.5 140.173 343.173 154.5 325.5 154.5V157.5C344.83 157.5 360.5 141.83 360.5 122.5H357.5ZM325.5 90.5C343.173 90.5 357.5 104.827 357.5 122.5H360.5C360.5 103.17 344.83 87.5 325.5 87.5V90.5ZM317.38 91.539C319.971 90.8613 322.692 90.5 325.5 90.5V87.5C322.434 87.5 319.458 87.8946 316.62 88.6366L317.38 91.539Z" fill="black" mask="url(#path-32-inside-4_92_13193)"/>
</svg>
