<svg width="512" height="512" viewBox="0 0 512 512" fill="none" xmlns="http://www.w3.org/2000/svg">
<rect x="-0.75" y="-0.75" width="356.5" height="234.5" rx="23.25" transform="matrix(7.93709e-09 -1 -1 -2.40729e-07 350.5 433.5)" fill="black" stroke="black" stroke-width="1.5"/>
<rect x="-0.75" y="-0.75" width="356.5" height="205.5" rx="23.25" transform="matrix(7.93709e-09 -1 -1 -2.40729e-07 350.5 433.5)" fill="#9296FF" stroke="black" stroke-width="1.5"/>
<path d="M342.25 407L342.25 103C342.25 93.4731 334.527 85.7501 325 85.7501L309.75 85.7501C302.432 85.7501 296.5 91.6823 296.5 99C296.5 104.385 292.135 108.75 286.75 108.75L248.5 108.75L210.25 108.75C204.865 108.75 200.5 104.385 200.5 99C200.5 91.6822 194.568 85.75 187.25 85.75L172 85.75C162.473 85.75 154.75 93.4731 154.75 103L154.75 407C154.75 416.527 162.473 424.25 172 424.25L325 424.25C334.527 424.25 342.25 416.527 342.25 407Z" fill="#FFD789" stroke="black" stroke-width="1.5"/>
<path fill-rule="evenodd" clip-rule="evenodd" d="M318 85H325C334.941 85 343 93.0589 343 103L343 407C343 416.941 334.941 425 325 425H318.007C327.945 424.996 336 416.939 336 407L336 103C336 93.0589 327.941 85 318 85Z" fill="black"/>
<rect x="124.75" y="140.75" width="13.5" height="44.5" rx="6.75" fill="#9296FF" stroke="black" stroke-width="1.5"/>
<rect x="124.75" y="192.75" width="13.5" height="44.5" rx="6.75" fill="#9296FF" stroke="black" stroke-width="1.5"/>
<circle cx="217" cy="93" r="7.25" fill="white" stroke="black" stroke-width="1.5"/>
<path d="M209.753 289.433L209.75 289.049V288.665V238.335V236.763H209.76L209.777 236.03C210.997 183.198 254.061 140.75 307 140.75C359.939 140.75 403.003 183.198 404.223 236.03L404.24 236.763H404.25V238.335V288.665V289.048L404.247 289.433C403.836 342.977 360.452 386.25 307 386.25C253.548 386.25 210.164 342.977 209.753 289.433Z" fill="black" stroke="black" stroke-width="1.5"/>
<path d="M225.753 289.433L225.75 289.049V288.665V238.335V236.763H225.76L225.777 236.03C226.997 183.198 270.061 140.75 323 140.75C375.939 140.75 419.003 183.198 420.223 236.03L420.24 236.763H420.25V238.335V288.665V289.048L420.247 289.433C419.836 342.977 376.452 386.25 323 386.25C269.548 386.25 226.164 342.977 225.753 289.433Z" fill="#9296FF" stroke="black" stroke-width="1.5"/>
<path d="M238.753 285.863L238.75 285.532V285.201V241.799V240.546H238.756L238.773 239.814C239.83 194.314 277.134 157.75 323 157.75C368.866 157.75 406.17 194.314 407.227 239.814L407.244 240.546H407.25V241.799V285.201V285.531L407.247 285.863C406.891 331.975 369.31 369.25 323 369.25C276.69 369.25 239.109 331.975 238.753 285.863Z" fill="#9296FF" stroke="black" stroke-width="1.5"/>
<path d="M122.234 312.847C122.162 312.499 121.855 312.25 121.5 312.25C121.145 312.25 120.838 312.499 120.766 312.847L115.516 338.096L89.8519 343.265C89.5018 343.335 89.25 343.643 89.25 344C89.25 344.357 89.5018 344.665 89.8519 344.735L115.516 349.904L120.766 375.153C120.838 375.501 121.145 375.75 121.5 375.75C121.855 375.75 122.162 375.501 122.234 375.153L127.484 349.904L153.148 344.735C153.498 344.665 153.75 344.357 153.75 344C153.75 343.643 153.498 343.335 153.148 343.265L127.484 338.096L122.234 312.847Z" fill="white" stroke="black" stroke-width="1.5" stroke-linejoin="round"/>
<path d="M376.234 99.8473C376.162 99.4994 375.855 99.25 375.5 99.25C375.145 99.25 374.838 99.4994 374.766 99.8473L369.516 125.096L343.852 130.265C343.502 130.335 343.25 130.643 343.25 131C343.25 131.357 343.502 131.665 343.852 131.735L369.516 136.904L374.766 162.153C374.838 162.501 375.145 162.75 375.5 162.75C375.855 162.75 376.162 162.501 376.234 162.153L381.484 136.904L407.148 131.735C407.498 131.665 407.75 131.357 407.75 131C407.75 130.643 407.498 130.335 407.148 130.265L381.484 125.096L376.234 99.8473Z" fill="white" stroke="black" stroke-width="1.5" stroke-linejoin="round"/>
<path d="M376 299.189V260.649M270 287.459C270 287.459 270 296.631 276.1 308.013C280.289 315.83 288.811 319.899 297.612 320.987V320.987C319.157 323.65 338.168 306.844 338.168 285.136V274.054V265.746C338.168 258.635 331.867 253.174 324.828 254.184V254.184C319.077 255.009 314.806 259.936 314.806 265.746V287.857C314.806 294.116 309.732 299.189 303.474 299.189V299.189C297.215 299.189 292.141 294.116 292.141 287.857V266.514M270 269.027V250C270 223.49 291.49 202 318 202H323H326.823C348.898 202 368.126 217.056 373.422 238.485L374.344 242.216M356.125 261.486V259.148C356.125 241.468 341.792 227.135 324.112 227.135V227.135C311.368 227.135 299.838 234.694 294.755 246.381L294.016 248.081M345.359 322.649L347.469 320.022C353.071 313.046 356.125 304.366 356.125 295.419V295.419V280.966" stroke="black" stroke-width="4" stroke-linecap="round" stroke-linejoin="round"/>
</svg>
