<svg width="512" height="512" viewBox="0 0 512 512" fill="none" xmlns="http://www.w3.org/2000/svg">
<path d="M199.063 83.0158L156.148 108.692C141.135 117.673 123.969 122.417 106.475 122.417L79.908 122.417C66.729 122.417 56.1849 133.36 56.674 146.53L63.0417 317.964C64.3042 351.953 83.595 382.69 113.654 398.607L200.12 444.39C206.926 447.994 215.074 447.994 221.88 444.39L308.346 398.607C338.405 382.69 357.696 351.954 358.958 317.964L365.326 146.53C365.815 133.36 355.271 122.417 342.092 122.417L315.525 122.417C298.031 122.417 280.865 117.673 265.852 108.692L222.937 83.0158C215.587 78.6181 206.413 78.6181 199.063 83.0158Z" fill="black" stroke="black" stroke-width="1.5"/>
<path d="M224.063 69.0158L181.148 94.6917C166.135 103.673 148.969 108.417 131.475 108.417L104.908 108.417C91.729 108.417 81.1849 119.36 81.674 132.53L88.0417 303.964C89.3042 337.953 108.595 368.69 138.654 384.607L225.12 430.39C231.926 433.994 240.074 433.994 246.88 430.39L333.346 384.607C363.405 368.69 382.696 337.954 383.958 303.964L390.326 132.53C390.815 119.36 380.271 108.417 367.092 108.417L340.525 108.417C323.031 108.417 305.865 103.673 290.852 94.6917L247.937 69.0158C240.587 64.6181 231.413 64.6181 224.063 69.0158Z" fill="#FFD789" stroke="black" stroke-width="1.5"/>
<path d="M224 98.1062L193.746 116.337C178.673 125.419 161.409 130.218 143.812 130.218L129.901 130.218C116.725 130.218 106.182 141.157 106.667 154.325L111.564 287.114C112.815 321.012 131.998 351.687 161.929 367.649L225.06 401.316C231.897 404.962 240.103 404.962 246.94 401.316L310.071 367.649C340.002 351.688 359.185 321.012 360.436 287.114L365.333 154.325C365.818 141.157 355.275 130.218 342.099 130.218L328.188 130.218C310.591 130.218 293.327 125.419 278.254 116.337L248 98.1062C240.618 93.6583 231.382 93.6583 224 98.1062Z" fill="#9296FF" stroke="black" stroke-width="1.5"/>
<path d="M224.016 131.083L207.221 141.185C192.162 150.243 174.69 155.027 157.121 155.027C143.935 155.027 133.183 165.976 133.669 179.135L136.941 267.701C138.194 301.622 157.405 332.313 187.369 348.263L225.075 368.335C231.905 371.97 240.095 371.97 246.925 368.335L284.631 348.263C314.595 332.313 333.806 301.622 335.059 267.701L338.331 179.135C338.817 165.976 328.065 155.027 314.879 155.027C297.31 155.027 279.838 150.243 264.779 141.185L247.984 131.083C240.61 126.648 231.39 126.648 224.016 131.083Z" fill="#9296FF" stroke="black" stroke-width="1.5"/>
<mask id="path-5-inside-1_92_12954" fill="white">
<path fill-rule="evenodd" clip-rule="evenodd" d="M112.334 137.117C114.12 136.693 115.984 136.468 117.902 136.468H131.812C149.273 136.468 166.404 131.706 181.359 122.694L187.983 118.703C174.36 125.763 159.215 129.468 143.812 129.468H129.902C122.95 129.468 116.709 132.418 112.334 137.117ZM214.352 103.045L223.614 97.464C231.233 92.8727 240.767 92.8727 248.387 97.464L278.642 115.694C293.597 124.706 310.727 129.468 328.188 129.468H342.099C355.701 129.468 366.584 140.76 366.083 154.353L361.185 287.142C359.925 321.307 340.591 352.224 310.424 368.311L307.073 370.098C332.248 353.059 348.05 324.918 349.185 294.142L354.083 161.353C354.584 147.76 343.701 136.468 330.099 136.468H316.188C298.727 136.468 281.597 131.706 266.642 122.694L236.387 104.464C229.656 100.408 221.431 99.9351 214.352 103.045Z"/>
</mask>
<path fill-rule="evenodd" clip-rule="evenodd" d="M112.334 137.117C114.12 136.693 115.984 136.468 117.902 136.468H131.812C149.273 136.468 166.404 131.706 181.359 122.694L187.983 118.703C174.36 125.763 159.215 129.468 143.812 129.468H129.902C122.95 129.468 116.709 132.418 112.334 137.117ZM214.352 103.045L223.614 97.464C231.233 92.8727 240.767 92.8727 248.387 97.464L278.642 115.694C293.597 124.706 310.727 129.468 328.188 129.468H342.099C355.701 129.468 366.584 140.76 366.083 154.353L361.185 287.142C359.925 321.307 340.591 352.224 310.424 368.311L307.073 370.098C332.248 353.059 348.05 324.918 349.185 294.142L354.083 161.353C354.584 147.76 343.701 136.468 330.099 136.468H316.188C298.727 136.468 281.597 131.706 266.642 122.694L236.387 104.464C229.656 100.408 221.431 99.9351 214.352 103.045Z" fill="black"/>
<path d="M112.334 137.117L111.236 136.095L107.861 139.72L112.68 138.576L112.334 137.117ZM181.359 122.694L180.585 121.41L180.585 121.41L181.359 122.694ZM187.983 118.703L188.757 119.988L187.292 117.371L187.983 118.703ZM223.614 97.464L224.388 98.7488L224.388 98.7488L223.614 97.464ZM214.352 103.045L213.578 101.76L214.955 104.418L214.352 103.045ZM248.387 97.464L247.613 98.7488L247.613 98.7488L248.387 97.464ZM278.642 115.694L279.416 114.41L279.416 114.41L278.642 115.694ZM328.188 129.468L328.188 130.968H328.188V129.468ZM366.083 154.353L367.582 154.408L367.582 154.408L366.083 154.353ZM361.185 287.142L362.684 287.197L362.684 287.197L361.185 287.142ZM310.424 368.311L309.718 366.988L309.718 366.988L310.424 368.311ZM307.073 370.098L306.232 368.856L307.779 371.422L307.073 370.098ZM349.185 294.142L350.684 294.197L350.684 294.197L349.185 294.142ZM354.083 161.353L355.582 161.408L355.582 161.408L354.083 161.353ZM316.188 136.468L316.188 137.968H316.188V136.468ZM266.642 122.694L267.416 121.41L267.416 121.41L266.642 122.694ZM236.387 104.464L235.613 105.749L235.613 105.749L236.387 104.464ZM117.902 134.968C115.866 134.968 113.886 135.207 111.988 135.657L112.68 138.576C114.353 138.179 116.101 137.968 117.902 137.968V134.968ZM131.812 134.968H117.902V137.968H131.812V134.968ZM180.585 121.41C165.863 130.281 149.001 134.968 131.812 134.968V137.968C149.546 137.968 166.944 133.132 182.133 123.979L180.585 121.41ZM187.208 117.418L180.585 121.41L182.133 123.979L188.757 119.988L187.208 117.418ZM187.292 117.371C173.883 124.321 158.974 127.968 143.812 127.968V130.968C159.456 130.968 174.838 127.205 188.673 120.035L187.292 117.371ZM143.812 127.968H129.902V130.968H143.812V127.968ZM129.902 127.968C122.516 127.968 115.882 131.104 111.236 136.095L113.432 138.139C117.535 133.732 123.384 130.968 129.902 130.968V127.968ZM222.84 96.1792L213.578 101.76L215.126 104.33L224.388 98.7488L222.84 96.1792ZM249.161 96.1792C241.065 91.3009 230.935 91.3009 222.84 96.1792L224.388 98.7488C231.531 94.4444 240.47 94.4444 247.613 98.7488L249.161 96.1792ZM279.416 114.41L249.161 96.1792L247.613 98.7488L277.867 116.979L279.416 114.41ZM328.188 127.968C311 127.968 294.138 123.281 279.416 114.41L277.867 116.979C293.057 126.132 310.455 130.968 328.188 130.968L328.188 127.968ZM342.099 127.968H328.188V130.968H342.099V127.968ZM367.582 154.408C368.114 139.966 356.551 127.968 342.099 127.968V130.968C354.851 130.968 365.054 141.555 364.584 154.298L367.582 154.408ZM362.684 287.197L367.582 154.408L364.584 154.298L359.686 287.086L362.684 287.197ZM311.13 369.635C341.768 353.296 361.405 321.896 362.684 287.197L359.686 287.086C358.446 320.718 339.413 351.152 309.718 366.988L311.13 369.635ZM307.779 371.422L311.13 369.635L309.718 366.988L306.367 368.775L307.779 371.422ZM307.914 371.34C333.482 354.035 349.532 325.455 350.684 294.197L347.686 294.086C346.569 324.382 331.014 352.083 306.232 368.856L307.914 371.34ZM350.684 294.197L355.582 161.408L352.584 161.298L347.686 294.086L350.684 294.197ZM355.582 161.408C356.114 146.966 344.551 134.968 330.099 134.968V137.968C342.851 137.968 353.054 148.555 352.584 161.298L355.582 161.408ZM330.099 134.968H316.188V137.968H330.099V134.968ZM316.188 134.968C299 134.968 282.138 130.281 267.416 121.41L265.867 123.979C281.057 133.132 298.455 137.968 316.188 137.968L316.188 134.968ZM267.416 121.41L237.161 103.179L235.613 105.749L265.867 123.979L267.416 121.41ZM237.161 103.179C230.009 98.8698 221.271 98.3674 213.749 101.672L214.955 104.418C221.592 101.503 229.303 101.947 235.613 105.749L237.161 103.179Z" fill="black" mask="url(#path-5-inside-1_92_12954)"/>
<mask id="path-7-inside-2_92_12954" fill="white">
<path fill-rule="evenodd" clip-rule="evenodd" d="M338.058 181.343C331.809 175.095 321.679 175.095 315.43 181.343L223.65 273.123L175.971 225.443C169.722 219.195 159.592 219.195 153.343 225.443L147.686 231.1C141.438 237.348 141.438 247.479 147.686 253.727L211.817 317.858C213.757 319.798 216.072 321.136 218.529 321.871C224.169 323.882 230.712 322.63 235.228 318.115L343.715 209.627C349.963 203.379 349.963 193.248 343.715 187L338.058 181.343Z"/>
</mask>
<path fill-rule="evenodd" clip-rule="evenodd" d="M338.058 181.343C331.809 175.095 321.679 175.095 315.43 181.343L223.65 273.123L175.971 225.443C169.722 219.195 159.592 219.195 153.343 225.443L147.686 231.1C141.438 237.348 141.438 247.479 147.686 253.727L211.817 317.858C213.757 319.798 216.072 321.136 218.529 321.871C224.169 323.882 230.712 322.63 235.228 318.115L343.715 209.627C349.963 203.379 349.963 193.248 343.715 187L338.058 181.343Z" fill="black"/>
<path d="M315.43 181.343L316.491 182.404L316.491 182.404L315.43 181.343ZM338.058 181.343L336.997 182.404L336.997 182.404L338.058 181.343ZM223.65 273.123L222.59 274.184L223.65 275.244L224.711 274.184L223.65 273.123ZM175.971 225.443L174.91 226.504L174.91 226.504L175.971 225.443ZM153.343 225.443L154.404 226.504L154.404 226.504L153.343 225.443ZM147.686 231.1L146.626 230.039L146.626 230.039L147.686 231.1ZM147.686 253.727L146.626 254.788L146.626 254.788L147.686 253.727ZM211.817 317.858L212.877 316.797L212.877 316.797L211.817 317.858ZM218.529 321.871L219.033 320.459L218.996 320.446L218.959 320.434L218.529 321.871ZM235.228 318.115L234.167 317.054L235.228 318.115ZM343.715 209.627L344.775 210.688L344.775 210.688L343.715 209.627ZM343.715 187L344.775 185.939L344.775 185.939L343.715 187ZM316.491 182.404C322.154 176.741 331.335 176.741 336.997 182.404L339.119 180.282C332.284 173.448 321.204 173.448 314.37 180.282L316.491 182.404ZM224.711 274.184L316.491 182.404L314.37 180.282L222.59 272.062L224.711 274.184ZM174.91 226.504L222.59 274.184L224.711 272.062L177.031 224.383L174.91 226.504ZM154.404 226.504C160.066 220.841 169.247 220.841 174.91 226.504L177.031 224.383C170.197 217.548 159.117 217.548 152.282 224.383L154.404 226.504ZM148.747 232.161L154.404 226.504L152.282 224.383L146.626 230.039L148.747 232.161ZM148.747 252.667C143.084 247.004 143.084 237.823 148.747 232.161L146.626 230.039C139.791 236.874 139.791 247.954 146.626 254.788L148.747 252.667ZM212.877 316.797L148.747 252.667L146.626 254.788L210.756 318.918L212.877 316.797ZM218.959 320.434C216.734 319.769 214.638 318.558 212.877 316.797L210.756 318.918C212.877 321.039 215.41 322.504 218.099 323.308L218.959 320.434ZM234.167 317.054C230.076 321.144 224.148 322.282 219.033 320.459L218.025 323.284C224.19 325.482 231.348 324.116 236.288 319.175L234.167 317.054ZM342.654 208.567L234.167 317.054L236.288 319.175L344.775 210.688L342.654 208.567ZM342.654 188.061C348.317 193.723 348.317 202.904 342.654 208.567L344.775 210.688C351.61 203.854 351.61 192.773 344.775 185.939L342.654 188.061ZM336.997 182.404L342.654 188.061L344.775 185.939L339.119 180.282L336.997 182.404Z" fill="black" mask="url(#path-7-inside-2_92_12954)"/>
<mask id="path-9-inside-3_92_12954" fill="white">
<path fill-rule="evenodd" clip-rule="evenodd" d="M348.402 179.686C342.153 173.438 332.023 173.438 325.774 179.686L233.994 271.466L186.314 223.786C180.066 217.538 169.935 217.538 163.687 223.786L158.03 229.443C151.782 235.692 151.782 245.822 158.03 252.071L222.16 316.201C224.101 318.142 226.416 319.479 228.873 320.215C234.513 322.226 241.056 320.973 245.571 316.458L354.058 207.971C360.307 201.722 360.307 191.592 354.058 185.343L348.402 179.686Z"/>
</mask>
<path fill-rule="evenodd" clip-rule="evenodd" d="M348.402 179.686C342.153 173.438 332.023 173.438 325.774 179.686L233.994 271.466L186.314 223.786C180.066 217.538 169.935 217.538 163.687 223.786L158.03 229.443C151.782 235.692 151.782 245.822 158.03 252.071L222.16 316.201C224.101 318.142 226.416 319.479 228.873 320.215C234.513 322.226 241.056 320.973 245.571 316.458L354.058 207.971C360.307 201.722 360.307 191.592 354.058 185.343L348.402 179.686Z" fill="#FFD789"/>
<path d="M325.774 179.686L326.835 180.747L326.835 180.747L325.774 179.686ZM348.402 179.686L347.341 180.747L347.341 180.747L348.402 179.686ZM233.994 271.466L232.934 272.527L233.994 273.588L235.055 272.527L233.994 271.466ZM186.314 223.786L185.254 224.847L185.254 224.847L186.314 223.786ZM163.687 223.786L164.748 224.847L164.748 224.847L163.687 223.786ZM158.03 229.443L156.969 228.383L156.969 228.383L158.03 229.443ZM158.03 252.071L156.969 253.131L156.969 253.131L158.03 252.071ZM222.16 316.201L223.221 315.14L223.221 315.14L222.16 316.201ZM228.873 320.215L229.376 318.802L229.34 318.789L229.303 318.778L228.873 320.215ZM245.571 316.458L244.511 315.397L245.571 316.458ZM354.058 207.971L355.119 209.031L355.119 209.031L354.058 207.971ZM354.058 185.343L355.119 184.282L355.119 184.282L354.058 185.343ZM326.835 180.747C332.497 175.084 341.678 175.084 347.341 180.747L349.462 178.626C342.628 171.791 331.548 171.791 324.714 178.626L326.835 180.747ZM235.055 272.527L326.835 180.747L324.714 178.626L232.934 270.406L235.055 272.527ZM185.254 224.847L232.934 272.527L235.055 270.406L187.375 222.726L185.254 224.847ZM164.748 224.847C170.41 219.184 179.591 219.184 185.254 224.847L187.375 222.726C180.541 215.892 169.46 215.892 162.626 222.726L164.748 224.847ZM159.091 230.504L164.748 224.847L162.626 222.726L156.969 228.383L159.091 230.504ZM159.091 251.01C153.428 245.347 153.428 236.167 159.091 230.504L156.969 228.383C150.135 235.217 150.135 246.297 156.969 253.131L159.091 251.01ZM223.221 315.14L159.091 251.01L156.969 253.131L221.1 317.262L223.221 315.14ZM229.303 318.778C227.078 318.112 224.982 316.901 223.221 315.14L221.1 317.262C223.22 319.382 225.754 320.847 228.443 321.652L229.303 318.778ZM244.511 315.397C240.42 319.488 234.491 320.625 229.376 318.802L228.369 321.628C234.534 323.826 241.692 322.459 246.632 317.518L244.511 315.397ZM352.998 206.91L244.511 315.397L246.632 317.518L355.119 209.031L352.998 206.91ZM352.998 186.404C358.66 192.066 358.66 201.247 352.998 206.91L355.119 209.031C361.953 202.197 361.953 191.117 355.119 184.282L352.998 186.404ZM347.341 180.747L352.998 186.404L355.119 184.282L349.462 178.626L347.341 180.747Z" fill="black" mask="url(#path-9-inside-3_92_12954)"/>
<rect x="-0.75" y="-0.75" width="80.5" height="313.5" rx="35.25" transform="matrix(3.41176e-08 -1 -1 -5.60029e-08 425.5 447.5)" fill="black" stroke="black" stroke-width="1.5"/>
<rect x="-0.75" y="-0.75" width="80.5" height="313.5" rx="35.25" transform="matrix(3.41176e-08 -1 -1 -5.60029e-08 455.5 447.5)" fill="#9296FF" stroke="black" stroke-width="1.5"/>
<rect x="-0.75" y="-0.75" width="60.5" height="277.5" rx="30.25" transform="matrix(3.41176e-08 -1 -1 -5.60029e-08 437.5 437.5)" fill="#FFD789" stroke="black" stroke-width="1.5"/>
<mask id="path-14-inside-4_92_12954" fill="white">
<path fill-rule="evenodd" clip-rule="evenodd" d="M390 377H408C425.121 377 439 390.879 439 408C439 425.121 425.121 439 408 439H390.009C407.126 438.995 421 425.118 421 408C421 390.879 407.121 377 390 377Z"/>
</mask>
<path fill-rule="evenodd" clip-rule="evenodd" d="M390 377H408C425.121 377 439 390.879 439 408C439 425.121 425.121 439 408 439H390.009C407.126 438.995 421 425.118 421 408C421 390.879 407.121 377 390 377Z" fill="black"/>
<path d="M390.009 439L390.009 437.5L390.009 440.5V439ZM408 375.5H390V378.5H408V375.5ZM440.5 408C440.5 390.051 425.949 375.5 408 375.5V378.5C424.292 378.5 437.5 391.708 437.5 408H440.5ZM408 440.5C425.949 440.5 440.5 425.949 440.5 408H437.5C437.5 424.292 424.292 437.5 408 437.5V440.5ZM390.009 440.5H408V437.5H390.009V440.5ZM390.009 440.5C407.954 440.495 422.5 425.946 422.5 408H419.5C419.5 424.29 406.297 437.495 390.009 437.5L390.009 440.5ZM422.5 408C422.5 390.051 407.949 375.5 390 375.5V378.5C406.292 378.5 419.5 391.708 419.5 408H422.5Z" fill="black" mask="url(#path-14-inside-4_92_12954)"/>
<path d="M210 390V425" stroke="black" stroke-width="8" stroke-linecap="round"/>
<path d="M222.281 395.125L197.533 419.874" stroke="black" stroke-width="8" stroke-linecap="round"/>
<path d="M197.533 395.125L222.282 419.874" stroke="black" stroke-width="8" stroke-linecap="round"/>
<path d="M227 407L192 407" stroke="black" stroke-width="8" stroke-linecap="round"/>
<path d="M270 390V425" stroke="black" stroke-width="8" stroke-linecap="round"/>
<path d="M282.281 395.125L257.533 419.874" stroke="black" stroke-width="8" stroke-linecap="round"/>
<path d="M257.533 395.125L282.282 419.874" stroke="black" stroke-width="8" stroke-linecap="round"/>
<path d="M287 407L252 407" stroke="black" stroke-width="8" stroke-linecap="round"/>
<path d="M330 390V425" stroke="black" stroke-width="8" stroke-linecap="round"/>
<path d="M342.281 395.125L317.533 419.874" stroke="black" stroke-width="8" stroke-linecap="round"/>
<path d="M317.533 395.125L342.282 419.874" stroke="black" stroke-width="8" stroke-linecap="round"/>
<path d="M347 407L312 407" stroke="black" stroke-width="8" stroke-linecap="round"/>
<path d="M390 390V425" stroke="black" stroke-width="8" stroke-linecap="round"/>
<path d="M402.281 395.125L377.533 419.874" stroke="black" stroke-width="8" stroke-linecap="round"/>
<path d="M377.533 395.125L402.282 419.874" stroke="black" stroke-width="8" stroke-linecap="round"/>
<path d="M407 407L372 407" stroke="black" stroke-width="8" stroke-linecap="round"/>
<path d="M333.735 337.15C333.663 337.499 333.356 337.75 333 337.75C332.644 337.75 332.337 337.499 332.265 337.15L327.948 316.052L306.85 311.735C306.501 311.663 306.25 311.356 306.25 311C306.25 310.644 306.501 310.337 306.85 310.265L327.948 305.948L332.265 284.85C332.337 284.501 332.644 284.25 333 284.25C333.356 284.25 333.663 284.501 333.735 284.85L338.052 305.948L359.15 310.265C359.499 310.337 359.75 310.644 359.75 311C359.75 311.356 359.499 311.663 359.15 311.735L338.052 316.052L333.735 337.15Z" fill="white" stroke="black" stroke-width="1.5" stroke-linejoin="round"/>
<path d="M117.735 116.15C117.663 116.499 117.356 116.75 117 116.75C116.644 116.75 116.337 116.499 116.265 116.15L111.948 95.0522L90.8496 90.7348C90.5006 90.6634 90.25 90.3563 90.25 90C90.25 89.6437 90.5006 89.3366 90.8496 89.2652L111.948 84.9478L116.265 63.8496C116.337 63.5006 116.644 63.25 117 63.25C117.356 63.25 117.663 63.5006 117.735 63.8496L122.052 84.9478L143.15 89.2652C143.499 89.3366 143.75 89.6437 143.75 90C143.75 90.3563 143.499 90.6634 143.15 90.7348L122.052 95.0522L117.735 116.15Z" fill="white" stroke="black" stroke-width="1.5" stroke-linejoin="round"/>
</svg>
