<svg width="512" height="512" viewBox="0 0 512 512" fill="none" xmlns="http://www.w3.org/2000/svg">
<mask id="path-1-inside-1_92_13345" fill="white">
<path fill-rule="evenodd" clip-rule="evenodd" d="M288.624 110C288.624 96.7452 277.879 86 264.624 86L224.376 86C211.121 86 200.376 96.7452 200.376 110V148.976L172.816 121.416C163.444 112.043 148.248 112.043 138.875 121.416L110.416 149.875C101.043 159.248 101.043 174.444 110.416 183.816L137.976 211.376H99C85.7452 211.376 75 222.121 75 235.376L75 275.624C75 288.879 85.7452 299.624 99 299.624H137.976L110.416 327.184C101.043 336.556 101.043 351.752 110.416 361.125L138.875 389.584C148.248 398.957 163.444 398.957 172.816 389.584L200.376 362.024V401C200.376 414.255 211.121 425 224.376 425H264.624C277.879 425 288.624 414.255 288.624 401V362.024L316.184 389.584C325.556 398.957 340.752 398.957 350.125 389.584L378.584 361.125C387.957 351.752 387.957 336.556 378.584 327.184L351.024 299.624H390C403.255 299.624 414 288.879 414 275.624V235.376C414 222.121 403.255 211.376 390 211.376H351.024L378.584 183.816C387.957 174.444 387.957 159.248 378.584 149.875L350.125 121.416C340.753 112.043 325.557 112.043 316.184 121.416L288.624 148.976V110ZM245.038 311.462C275.945 311.462 301 286.407 301 255.5C301 224.593 275.945 199.538 245.038 199.538C214.131 199.538 189.076 224.593 189.076 255.5C189.076 286.407 214.131 311.462 245.038 311.462Z"/>
</mask>
<path fill-rule="evenodd" clip-rule="evenodd" d="M288.624 110C288.624 96.7452 277.879 86 264.624 86L224.376 86C211.121 86 200.376 96.7452 200.376 110V148.976L172.816 121.416C163.444 112.043 148.248 112.043 138.875 121.416L110.416 149.875C101.043 159.248 101.043 174.444 110.416 183.816L137.976 211.376H99C85.7452 211.376 75 222.121 75 235.376L75 275.624C75 288.879 85.7452 299.624 99 299.624H137.976L110.416 327.184C101.043 336.556 101.043 351.752 110.416 361.125L138.875 389.584C148.248 398.957 163.444 398.957 172.816 389.584L200.376 362.024V401C200.376 414.255 211.121 425 224.376 425H264.624C277.879 425 288.624 414.255 288.624 401V362.024L316.184 389.584C325.556 398.957 340.752 398.957 350.125 389.584L378.584 361.125C387.957 351.752 387.957 336.556 378.584 327.184L351.024 299.624H390C403.255 299.624 414 288.879 414 275.624V235.376C414 222.121 403.255 211.376 390 211.376H351.024L378.584 183.816C387.957 174.444 387.957 159.248 378.584 149.875L350.125 121.416C340.753 112.043 325.557 112.043 316.184 121.416L288.624 148.976V110ZM245.038 311.462C275.945 311.462 301 286.407 301 255.5C301 224.593 275.945 199.538 245.038 199.538C214.131 199.538 189.076 224.593 189.076 255.5C189.076 286.407 214.131 311.462 245.038 311.462Z" fill="black"/>
<path d="M264.624 86L264.624 87.5L264.624 87.5L264.624 86ZM224.376 86L224.376 87.5L224.376 86ZM200.376 148.976L199.316 150.036L201.876 152.597V148.976H200.376ZM172.816 121.416L173.877 120.355L173.877 120.355L172.816 121.416ZM138.875 121.416L137.814 120.355L137.814 120.355L138.875 121.416ZM110.416 149.875L111.476 150.936L111.476 150.936L110.416 149.875ZM110.416 183.816L109.355 184.877L109.355 184.877L110.416 183.816ZM137.976 211.376V212.876H141.597L139.036 210.316L137.976 211.376ZM75 235.376L76.5 235.376V235.376L75 235.376ZM75 275.624L73.5 275.624V275.624H75ZM137.976 299.624L139.037 300.684L141.597 298.124H137.976V299.624ZM110.416 327.184L109.355 326.123L109.355 326.123L110.416 327.184ZM110.416 361.125L109.355 362.186L109.355 362.186L110.416 361.125ZM138.875 389.584L139.936 388.524L139.936 388.524L138.875 389.584ZM172.816 389.584L173.877 390.645L173.877 390.645L172.816 389.584ZM200.376 362.024H201.876V358.403L199.316 360.964L200.376 362.024ZM288.624 362.024L289.684 360.964L287.124 358.403V362.024H288.624ZM316.184 389.584L317.244 388.524L317.244 388.524L316.184 389.584ZM378.584 327.184L377.524 328.244L377.524 328.244L378.584 327.184ZM351.024 299.624V298.124H347.403L349.964 300.684L351.024 299.624ZM351.024 211.376L349.964 210.316L347.403 212.876H351.024V211.376ZM378.584 183.816L377.524 182.756L377.524 182.756L378.584 183.816ZM378.584 149.875L379.645 148.814L379.645 148.814L378.584 149.875ZM350.125 121.416L351.186 120.355L351.186 120.355L350.125 121.416ZM316.184 121.416L315.123 120.355L315.123 120.355L316.184 121.416ZM288.624 148.976H287.124V152.597L289.684 150.037L288.624 148.976ZM264.624 87.5C277.05 87.5 287.124 97.5736 287.124 110H290.124C290.124 95.9167 278.707 84.5 264.624 84.5L264.624 87.5ZM224.376 87.5L264.624 87.5L264.624 84.5L224.376 84.5L224.376 87.5ZM201.876 110C201.876 97.5736 211.95 87.5 224.376 87.5L224.376 84.5C210.293 84.5 198.876 95.9167 198.876 110H201.876ZM201.876 148.976V110H198.876V148.976H201.876ZM171.756 122.476L199.316 150.036L201.437 147.915L173.877 120.355L171.756 122.476ZM139.936 122.476C148.723 113.69 162.969 113.69 171.756 122.476L173.877 120.355C163.919 110.397 147.773 110.397 137.814 120.355L139.936 122.476ZM111.476 150.936L139.936 122.476L137.814 120.355L109.355 148.814L111.476 150.936ZM111.476 182.756C102.69 173.969 102.69 159.723 111.476 150.936L109.355 148.814C99.3967 158.773 99.3967 174.919 109.355 184.877L111.476 182.756ZM139.036 210.316L111.476 182.756L109.355 184.877L136.915 212.437L139.036 210.316ZM99 212.876H137.976V209.876H99V212.876ZM76.5 235.376C76.5 222.95 86.5736 212.876 99 212.876V209.876C84.9168 209.876 73.5 221.293 73.5 235.376L76.5 235.376ZM76.5 275.624L76.5 235.376L73.5 235.376L73.5 275.624L76.5 275.624ZM99 298.124C86.5736 298.124 76.5 288.05 76.5 275.624H73.5C73.5 289.707 84.9167 301.124 99 301.124V298.124ZM137.976 298.124H99V301.124H137.976V298.124ZM111.477 328.244L139.037 300.684L136.915 298.563L109.355 326.123L111.477 328.244ZM111.477 360.064C102.69 351.278 102.69 337.031 111.477 328.244L109.355 326.123C99.3969 336.082 99.3968 352.227 109.355 362.186L111.477 360.064ZM139.936 388.524L111.477 360.064L109.355 362.186L137.815 390.645L139.936 388.524ZM171.756 388.524C162.969 397.31 148.723 397.31 139.936 388.524L137.815 390.645C147.773 400.603 163.919 400.603 173.877 390.645L171.756 388.524ZM199.316 360.964L171.756 388.524L173.877 390.645L201.437 363.085L199.316 360.964ZM201.876 401V362.024H198.876V401H201.876ZM224.376 423.5C211.95 423.5 201.876 413.426 201.876 401H198.876C198.876 415.083 210.293 426.5 224.376 426.5V423.5ZM264.624 423.5H224.376V426.5H264.624V423.5ZM287.124 401C287.124 413.426 277.05 423.5 264.624 423.5V426.5C278.707 426.5 290.124 415.083 290.124 401H287.124ZM287.124 362.024V401H290.124V362.024H287.124ZM317.244 388.524L289.684 360.964L287.563 363.085L315.123 390.645L317.244 388.524ZM349.064 388.524C340.277 397.31 326.031 397.31 317.244 388.524L315.123 390.645C325.081 400.603 341.227 400.603 351.186 390.645L349.064 388.524ZM377.524 360.064L349.064 388.524L351.186 390.645L379.645 362.186L377.524 360.064ZM377.524 328.244C386.31 337.031 386.31 351.278 377.524 360.064L379.645 362.186C389.603 352.227 389.603 336.082 379.645 326.123L377.524 328.244ZM349.964 300.684L377.524 328.244L379.645 326.123L352.085 298.563L349.964 300.684ZM390 298.124H351.024V301.124H390V298.124ZM412.5 275.624C412.5 288.05 402.426 298.124 390 298.124V301.124C404.083 301.124 415.5 289.707 415.5 275.624H412.5ZM412.5 235.376V275.624H415.5V235.376H412.5ZM390 212.876C402.426 212.876 412.5 222.95 412.5 235.376H415.5C415.5 221.293 404.083 209.876 390 209.876V212.876ZM351.024 212.876H390V209.876H351.024V212.876ZM377.524 182.756L349.964 210.316L352.085 212.437L379.645 184.877L377.524 182.756ZM377.524 150.936C386.311 159.723 386.311 173.969 377.524 182.756L379.645 184.877C389.603 174.919 389.603 158.773 379.645 148.814L377.524 150.936ZM349.064 122.476L377.524 150.936L379.645 148.814L351.186 120.355L349.064 122.476ZM317.245 122.476C326.031 113.69 340.278 113.69 349.064 122.476L351.186 120.355C341.227 110.397 325.082 110.397 315.123 120.355L317.245 122.476ZM289.684 150.037L317.245 122.476L315.123 120.355L287.563 147.915L289.684 150.037ZM287.124 110V148.976H290.124V110H287.124ZM299.5 255.5C299.5 285.578 275.117 309.962 245.038 309.962V312.962C276.773 312.962 302.5 287.235 302.5 255.5H299.5ZM245.038 201.038C275.117 201.038 299.5 225.422 299.5 255.5H302.5C302.5 223.765 276.773 198.038 245.038 198.038V201.038ZM190.576 255.5C190.576 225.422 214.96 201.038 245.038 201.038V198.038C213.303 198.038 187.576 223.765 187.576 255.5H190.576ZM245.038 309.962C214.96 309.962 190.576 285.578 190.576 255.5H187.576C187.576 287.235 213.303 312.962 245.038 312.962V309.962Z" fill="black" mask="url(#path-1-inside-1_92_13345)"/>
<mask id="path-3-inside-2_92_13345" fill="white">
<path fill-rule="evenodd" clip-rule="evenodd" d="M310.624 110C310.624 96.7452 299.879 86 286.624 86L246.376 86C233.121 86 222.376 96.7452 222.376 110V148.976L194.816 121.416C185.444 112.043 170.248 112.043 160.875 121.416L132.416 149.875C123.043 159.248 123.043 174.444 132.416 183.816L159.976 211.376H121C107.745 211.376 97 222.121 97 235.376L97 275.624C97 288.879 107.745 299.624 121 299.624H159.976L132.416 327.184C123.043 336.556 123.043 351.752 132.416 361.125L160.875 389.584C170.248 398.957 185.444 398.957 194.816 389.584L222.376 362.024V401C222.376 414.255 233.121 425 246.376 425H286.624C299.879 425 310.624 414.255 310.624 401V362.024L338.184 389.584C347.556 398.957 362.752 398.957 372.125 389.584L400.584 361.125C409.957 351.752 409.957 336.556 400.584 327.184L373.024 299.624H412C425.255 299.624 436 288.879 436 275.624V235.376C436 222.121 425.255 211.376 412 211.376H373.024L400.584 183.816C409.957 174.444 409.957 159.248 400.584 149.875L372.125 121.416C362.753 112.043 347.557 112.043 338.184 121.416L310.624 148.976V110ZM267.038 311.462C297.945 311.462 323 286.407 323 255.5C323 224.593 297.945 199.538 267.038 199.538C236.131 199.538 211.076 224.593 211.076 255.5C211.076 286.407 236.131 311.462 267.038 311.462Z"/>
</mask>
<path fill-rule="evenodd" clip-rule="evenodd" d="M310.624 110C310.624 96.7452 299.879 86 286.624 86L246.376 86C233.121 86 222.376 96.7452 222.376 110V148.976L194.816 121.416C185.444 112.043 170.248 112.043 160.875 121.416L132.416 149.875C123.043 159.248 123.043 174.444 132.416 183.816L159.976 211.376H121C107.745 211.376 97 222.121 97 235.376L97 275.624C97 288.879 107.745 299.624 121 299.624H159.976L132.416 327.184C123.043 336.556 123.043 351.752 132.416 361.125L160.875 389.584C170.248 398.957 185.444 398.957 194.816 389.584L222.376 362.024V401C222.376 414.255 233.121 425 246.376 425H286.624C299.879 425 310.624 414.255 310.624 401V362.024L338.184 389.584C347.556 398.957 362.752 398.957 372.125 389.584L400.584 361.125C409.957 351.752 409.957 336.556 400.584 327.184L373.024 299.624H412C425.255 299.624 436 288.879 436 275.624V235.376C436 222.121 425.255 211.376 412 211.376H373.024L400.584 183.816C409.957 174.444 409.957 159.248 400.584 149.875L372.125 121.416C362.753 112.043 347.557 112.043 338.184 121.416L310.624 148.976V110ZM267.038 311.462C297.945 311.462 323 286.407 323 255.5C323 224.593 297.945 199.538 267.038 199.538C236.131 199.538 211.076 224.593 211.076 255.5C211.076 286.407 236.131 311.462 267.038 311.462Z" fill="#9296FF"/>
<path d="M286.624 86L286.624 87.5L286.624 87.5L286.624 86ZM246.376 86L246.376 87.5L246.376 86ZM222.376 148.976L221.316 150.036L223.876 152.597V148.976H222.376ZM194.816 121.416L195.877 120.355L195.877 120.355L194.816 121.416ZM160.875 121.416L159.814 120.355L159.814 120.355L160.875 121.416ZM132.416 149.875L133.476 150.936L133.476 150.936L132.416 149.875ZM132.416 183.816L131.355 184.877L131.355 184.877L132.416 183.816ZM159.976 211.376V212.876H163.597L161.036 210.316L159.976 211.376ZM97 235.376L98.5 235.376V235.376L97 235.376ZM97 275.624L95.5 275.624V275.624H97ZM159.976 299.624L161.037 300.684L163.597 298.124H159.976V299.624ZM132.416 327.184L131.355 326.123L131.355 326.123L132.416 327.184ZM132.416 361.125L131.355 362.186L131.355 362.186L132.416 361.125ZM160.875 389.584L161.936 388.524L161.936 388.524L160.875 389.584ZM194.816 389.584L195.877 390.645L195.877 390.645L194.816 389.584ZM222.376 362.024H223.876V358.403L221.316 360.964L222.376 362.024ZM310.624 362.024L311.684 360.964L309.124 358.403V362.024H310.624ZM338.184 389.584L339.244 388.524L339.244 388.524L338.184 389.584ZM400.584 327.184L399.524 328.244L399.524 328.244L400.584 327.184ZM373.024 299.624V298.124H369.403L371.964 300.684L373.024 299.624ZM373.024 211.376L371.964 210.316L369.403 212.876H373.024V211.376ZM400.584 183.816L399.524 182.756L399.524 182.756L400.584 183.816ZM400.584 149.875L401.645 148.814L401.645 148.814L400.584 149.875ZM372.125 121.416L373.186 120.355L373.186 120.355L372.125 121.416ZM338.184 121.416L337.123 120.355L337.123 120.355L338.184 121.416ZM310.624 148.976H309.124V152.597L311.684 150.037L310.624 148.976ZM286.624 87.5C299.05 87.5 309.124 97.5736 309.124 110H312.124C312.124 95.9167 300.707 84.5 286.624 84.5L286.624 87.5ZM246.376 87.5L286.624 87.5L286.624 84.5L246.376 84.5L246.376 87.5ZM223.876 110C223.876 97.5736 233.95 87.5 246.376 87.5L246.376 84.5C232.293 84.5 220.876 95.9167 220.876 110H223.876ZM223.876 148.976V110H220.876V148.976H223.876ZM193.756 122.476L221.316 150.036L223.437 147.915L195.877 120.355L193.756 122.476ZM161.936 122.476C170.723 113.69 184.969 113.69 193.756 122.476L195.877 120.355C185.919 110.397 169.773 110.397 159.814 120.355L161.936 122.476ZM133.476 150.936L161.936 122.476L159.814 120.355L131.355 148.814L133.476 150.936ZM133.476 182.756C124.69 173.969 124.69 159.723 133.476 150.936L131.355 148.814C121.397 158.773 121.397 174.919 131.355 184.877L133.476 182.756ZM161.036 210.316L133.476 182.756L131.355 184.877L158.915 212.437L161.036 210.316ZM121 212.876H159.976V209.876H121V212.876ZM98.5 235.376C98.5 222.95 108.574 212.876 121 212.876V209.876C106.917 209.876 95.5 221.293 95.5 235.376L98.5 235.376ZM98.5 275.624L98.5 235.376L95.5 235.376L95.5 275.624L98.5 275.624ZM121 298.124C108.574 298.124 98.5 288.05 98.5 275.624H95.5C95.5 289.707 106.917 301.124 121 301.124V298.124ZM159.976 298.124H121V301.124H159.976V298.124ZM133.477 328.244L161.037 300.684L158.915 298.563L131.355 326.123L133.477 328.244ZM133.477 360.064C124.69 351.278 124.69 337.031 133.477 328.244L131.355 326.123C121.397 336.082 121.397 352.227 131.355 362.186L133.477 360.064ZM161.936 388.524L133.477 360.064L131.355 362.186L159.815 390.645L161.936 388.524ZM193.756 388.524C184.969 397.31 170.723 397.31 161.936 388.524L159.815 390.645C169.773 400.603 185.919 400.603 195.877 390.645L193.756 388.524ZM221.316 360.964L193.756 388.524L195.877 390.645L223.437 363.085L221.316 360.964ZM223.876 401V362.024H220.876V401H223.876ZM246.376 423.5C233.95 423.5 223.876 413.426 223.876 401H220.876C220.876 415.083 232.293 426.5 246.376 426.5V423.5ZM286.624 423.5H246.376V426.5H286.624V423.5ZM309.124 401C309.124 413.426 299.05 423.5 286.624 423.5V426.5C300.707 426.5 312.124 415.083 312.124 401H309.124ZM309.124 362.024V401H312.124V362.024H309.124ZM339.244 388.524L311.684 360.964L309.563 363.085L337.123 390.645L339.244 388.524ZM371.064 388.524C362.277 397.31 348.031 397.31 339.244 388.524L337.123 390.645C347.081 400.603 363.227 400.603 373.186 390.645L371.064 388.524ZM399.524 360.064L371.064 388.524L373.186 390.645L401.645 362.186L399.524 360.064ZM399.524 328.244C408.31 337.031 408.31 351.278 399.524 360.064L401.645 362.186C411.603 352.227 411.603 336.082 401.645 326.123L399.524 328.244ZM371.964 300.684L399.524 328.244L401.645 326.123L374.085 298.563L371.964 300.684ZM412 298.124H373.024V301.124H412V298.124ZM434.5 275.624C434.5 288.05 424.426 298.124 412 298.124V301.124C426.083 301.124 437.5 289.707 437.5 275.624H434.5ZM434.5 235.376V275.624H437.5V235.376H434.5ZM412 212.876C424.426 212.876 434.5 222.95 434.5 235.376H437.5C437.5 221.293 426.083 209.876 412 209.876V212.876ZM373.024 212.876H412V209.876H373.024V212.876ZM399.524 182.756L371.964 210.316L374.085 212.437L401.645 184.877L399.524 182.756ZM399.524 150.936C408.311 159.723 408.311 173.969 399.524 182.756L401.645 184.877C411.603 174.919 411.603 158.773 401.645 148.814L399.524 150.936ZM371.064 122.476L399.524 150.936L401.645 148.814L373.186 120.355L371.064 122.476ZM339.245 122.476C348.031 113.69 362.278 113.69 371.064 122.476L373.186 120.355C363.227 110.397 347.082 110.397 337.123 120.355L339.245 122.476ZM311.684 150.037L339.245 122.476L337.123 120.355L309.563 147.915L311.684 150.037ZM309.124 110V148.976H312.124V110H309.124ZM321.5 255.5C321.5 285.578 297.117 309.962 267.038 309.962V312.962C298.773 312.962 324.5 287.235 324.5 255.5H321.5ZM267.038 201.038C297.117 201.038 321.5 225.422 321.5 255.5H324.5C324.5 223.765 298.773 198.038 267.038 198.038V201.038ZM212.576 255.5C212.576 225.422 236.96 201.038 267.038 201.038V198.038C235.303 198.038 209.576 223.765 209.576 255.5H212.576ZM267.038 309.962C236.96 309.962 212.576 285.578 212.576 255.5H209.576C209.576 287.235 235.303 312.962 267.038 312.962V309.962Z" fill="black" mask="url(#path-3-inside-2_92_13345)"/>
<mask id="path-5-inside-3_92_13345" fill="white">
<path fill-rule="evenodd" clip-rule="evenodd" d="M297.826 112.295C297.826 107.877 294.245 104.295 289.826 104.295L241.721 104.295C237.302 104.295 233.721 107.877 233.721 112.295V140.169C224.282 142.878 215.318 146.709 206.982 151.508L186.995 131.521C183.871 128.397 178.805 128.397 175.681 131.521L141.667 165.536C138.542 168.66 138.542 173.725 141.667 176.849L161.889 197.071C157.195 205.422 153.468 214.389 150.858 223.82H123.295C118.877 223.82 115.295 227.402 115.295 231.82L115.295 279.926C115.295 284.344 118.877 287.926 123.295 287.926H150.768C153.349 297.359 157.047 306.33 161.711 314.689L141.42 334.98C138.295 338.105 138.295 343.17 141.42 346.294L175.436 380.31C178.56 383.434 183.625 383.434 186.749 380.31L206.671 360.388C215.095 365.272 224.164 369.165 233.721 371.908V399.781C233.721 404.199 237.302 407.781 241.721 407.781L289.826 407.781C294.245 407.781 297.826 404.199 297.826 399.781V372.604C307.781 369.981 317.233 366.117 326.005 361.188L344.95 380.132C348.074 383.257 353.139 383.257 356.263 380.132L390.278 346.118C393.402 342.994 393.402 337.929 390.278 334.804L371.568 316.094C376.609 307.339 380.582 297.89 383.308 287.926H410.781C415.199 287.926 418.781 284.344 418.781 279.926V231.82C418.781 227.402 415.199 223.82 410.781 223.82H383.217C380.461 213.86 376.459 204.418 371.388 195.671L390.032 177.027C393.157 173.903 393.157 168.837 390.032 165.713L356.016 131.697C352.892 128.573 347.827 128.573 344.703 131.697L325.688 150.712C317.006 145.867 307.662 142.064 297.826 139.473V112.295Z"/>
</mask>
<path fill-rule="evenodd" clip-rule="evenodd" d="M297.826 112.295C297.826 107.877 294.245 104.295 289.826 104.295L241.721 104.295C237.302 104.295 233.721 107.877 233.721 112.295V140.169C224.282 142.878 215.318 146.709 206.982 151.508L186.995 131.521C183.871 128.397 178.805 128.397 175.681 131.521L141.667 165.536C138.542 168.66 138.542 173.725 141.667 176.849L161.889 197.071C157.195 205.422 153.468 214.389 150.858 223.82H123.295C118.877 223.82 115.295 227.402 115.295 231.82L115.295 279.926C115.295 284.344 118.877 287.926 123.295 287.926H150.768C153.349 297.359 157.047 306.33 161.711 314.689L141.42 334.98C138.295 338.105 138.295 343.17 141.42 346.294L175.436 380.31C178.56 383.434 183.625 383.434 186.749 380.31L206.671 360.388C215.095 365.272 224.164 369.165 233.721 371.908V399.781C233.721 404.199 237.302 407.781 241.721 407.781L289.826 407.781C294.245 407.781 297.826 404.199 297.826 399.781V372.604C307.781 369.981 317.233 366.117 326.005 361.188L344.95 380.132C348.074 383.257 353.139 383.257 356.263 380.132L390.278 346.118C393.402 342.994 393.402 337.929 390.278 334.804L371.568 316.094C376.609 307.339 380.582 297.89 383.308 287.926H410.781C415.199 287.926 418.781 284.344 418.781 279.926V231.82C418.781 227.402 415.199 223.82 410.781 223.82H383.217C380.461 213.86 376.459 204.418 371.388 195.671L390.032 177.027C393.157 173.903 393.157 168.837 390.032 165.713L356.016 131.697C352.892 128.573 347.827 128.573 344.703 131.697L325.688 150.712C317.006 145.867 307.662 142.064 297.826 139.473V112.295Z" fill="#9296FF"/>
<path d="M289.826 104.295L289.826 105.795L289.826 104.295ZM241.721 104.295L241.721 102.795L241.721 104.295ZM233.721 140.169L234.134 141.611L235.221 141.299V140.169H233.721ZM206.982 151.508L205.921 152.569L206.734 153.382L207.73 152.808L206.982 151.508ZM186.995 131.521L185.934 132.582L185.934 132.582L186.995 131.521ZM141.667 176.849L142.727 175.789L142.727 175.789L141.667 176.849ZM161.889 197.071L163.196 197.806L163.753 196.815L162.949 196.011L161.889 197.071ZM150.858 223.82V225.32H152L152.304 224.22L150.858 223.82ZM115.295 231.82L113.795 231.82L115.295 231.82ZM115.295 279.926L113.795 279.926L115.295 279.926ZM150.768 287.926L152.214 287.53L151.912 286.426H150.768V287.926ZM161.711 314.689L162.772 315.749L163.574 314.948L163.021 313.958L161.711 314.689ZM141.42 334.98L142.48 336.041L142.48 336.041L141.42 334.98ZM141.42 346.294L142.48 345.233L142.48 345.233L141.42 346.294ZM175.436 380.31L176.496 379.249L176.496 379.249L175.436 380.31ZM186.749 380.31L185.689 379.249L185.689 379.249L186.749 380.31ZM206.671 360.388L207.423 359.091L206.426 358.512L205.61 359.328L206.671 360.388ZM233.721 371.908H235.221V370.778L234.134 370.466L233.721 371.908ZM241.721 407.781L241.721 409.281L241.721 409.281L241.721 407.781ZM289.826 407.781L289.826 406.281L289.826 406.281L289.826 407.781ZM297.826 372.604L297.444 371.153L296.326 371.448V372.604H297.826ZM326.005 361.188L327.065 360.127L326.261 359.323L325.27 359.88L326.005 361.188ZM344.95 380.132L346.01 379.072L346.01 379.072L344.95 380.132ZM356.263 380.132L355.203 379.072L355.203 379.072L356.263 380.132ZM390.278 346.118L391.338 347.179L391.338 347.179L390.278 346.118ZM390.278 334.804L391.338 333.744L391.338 333.744L390.278 334.804ZM371.568 316.094L370.268 315.346L369.694 316.342L370.507 317.155L371.568 316.094ZM383.308 287.926V286.426H382.163L381.861 287.53L383.308 287.926ZM383.217 223.82L381.771 224.22L382.076 225.32H383.217V223.82ZM371.388 195.671L370.327 194.611L369.512 195.426L370.09 196.424L371.388 195.671ZM390.032 177.027L388.972 175.966L388.972 175.966L390.032 177.027ZM390.032 165.713L388.972 166.774L388.972 166.774L390.032 165.713ZM356.016 131.697L354.956 132.758L354.956 132.758L356.016 131.697ZM344.703 131.697L345.763 132.758L345.763 132.758L344.703 131.697ZM325.688 150.712L324.957 152.022L325.947 152.574L326.749 151.772L325.688 150.712ZM297.826 139.473H296.326V140.629L297.444 140.923L297.826 139.473ZM289.826 105.795C293.416 105.795 296.326 108.706 296.326 112.295H299.326C299.326 107.049 295.073 102.795 289.826 102.795L289.826 105.795ZM241.721 105.795L289.826 105.795L289.826 102.795L241.721 102.795L241.721 105.795ZM235.221 112.295C235.221 108.706 238.131 105.795 241.721 105.795L241.721 102.795C236.474 102.795 232.221 107.049 232.221 112.295H235.221ZM235.221 140.169V112.295H232.221V140.169H235.221ZM207.73 152.808C215.962 148.069 224.814 144.286 234.134 141.611L233.307 138.727C223.75 141.47 214.673 145.349 206.233 150.209L207.73 152.808ZM185.934 132.582L205.921 152.569L208.043 150.448L188.055 130.461L185.934 132.582ZM176.742 132.582C179.28 130.043 183.396 130.043 185.934 132.582L188.055 130.461C184.345 126.751 178.33 126.751 174.62 130.461L176.742 132.582ZM142.727 166.596L176.742 132.582L174.62 130.461L140.606 164.475L142.727 166.596ZM142.727 175.789C140.189 173.25 140.189 169.135 142.727 166.596L140.606 164.475C136.896 168.185 136.896 174.2 140.606 177.91L142.727 175.789ZM162.949 196.011L142.727 175.789L140.606 177.91L160.828 198.132L162.949 196.011ZM152.304 224.22C154.881 214.908 158.561 206.053 163.196 197.806L160.581 196.336C155.829 204.792 152.055 213.871 149.413 223.42L152.304 224.22ZM123.295 225.32H150.858V222.32H123.295V225.32ZM116.795 231.82C116.795 228.23 119.705 225.32 123.295 225.32V222.32C118.048 222.32 113.795 226.574 113.795 231.82L116.795 231.82ZM116.795 279.926L116.795 231.82L113.795 231.82L113.795 279.926L116.795 279.926ZM123.295 286.426C119.705 286.426 116.795 283.516 116.795 279.926L113.795 279.926C113.795 285.173 118.048 289.426 123.295 289.426V286.426ZM150.768 286.426H123.295V289.426H150.768V286.426ZM163.021 313.958C158.415 305.703 154.763 296.845 152.214 287.53L149.321 288.322C151.934 297.873 155.679 306.957 160.401 315.42L163.021 313.958ZM142.48 336.041L162.772 315.749L160.651 313.628L140.359 333.92L142.48 336.041ZM142.48 345.233C139.942 342.695 139.942 338.579 142.48 336.041L140.359 333.92C136.649 337.63 136.649 343.645 140.359 347.355L142.48 345.233ZM176.496 379.249L142.48 345.233L140.359 347.355L174.375 381.371L176.496 379.249ZM185.689 379.249C183.15 381.788 179.035 381.788 176.496 379.249L174.375 381.371C178.085 385.081 184.1 385.081 187.81 381.371L185.689 379.249ZM205.61 359.328L185.689 379.249L187.81 381.371L207.732 361.449L205.61 359.328ZM234.134 370.466C224.698 367.758 215.742 363.914 207.423 359.091L205.919 361.686C214.447 366.631 223.631 370.572 233.307 373.35L234.134 370.466ZM235.221 399.781V371.908H232.221V399.781H235.221ZM241.721 406.281C238.131 406.281 235.221 403.371 235.221 399.781H232.221C232.221 405.028 236.474 409.281 241.721 409.281V406.281ZM289.826 406.281L241.721 406.281L241.721 409.281L289.826 409.281L289.826 406.281ZM296.326 399.781C296.326 403.371 293.416 406.281 289.826 406.281V409.281C295.073 409.281 299.326 405.028 299.326 399.781H296.326ZM296.326 372.604V399.781H299.326V372.604H296.326ZM325.27 359.88C316.607 364.748 307.274 368.564 297.444 371.153L298.209 374.054C308.289 371.399 317.858 367.486 326.74 362.495L325.27 359.88ZM346.01 379.072L327.065 360.127L324.944 362.248L343.889 381.193L346.01 379.072ZM355.203 379.072C352.664 381.61 348.549 381.61 346.01 379.072L343.889 381.193C347.599 384.903 353.614 384.903 357.324 381.193L355.203 379.072ZM389.217 345.057L355.203 379.072L357.324 381.193L391.338 347.179L389.217 345.057ZM389.217 335.865C391.756 338.403 391.756 342.519 389.217 345.057L391.338 347.179C395.048 343.469 395.048 337.454 391.338 333.744L389.217 335.865ZM370.507 317.155L389.217 335.865L391.338 333.744L372.628 315.033L370.507 317.155ZM381.861 287.53C379.169 297.369 375.246 306.699 370.268 315.346L372.867 316.843C377.972 307.978 381.994 298.411 384.755 288.322L381.861 287.53ZM410.781 286.426H383.308V289.426H410.781V286.426ZM417.281 279.926C417.281 283.516 414.37 286.426 410.781 286.426V289.426C416.027 289.426 420.281 285.173 420.281 279.926H417.281ZM417.281 231.82V279.926H420.281V231.82H417.281ZM410.781 225.32C414.37 225.32 417.281 228.23 417.281 231.82H420.281C420.281 226.574 416.027 222.32 410.781 222.32V225.32ZM383.217 225.32H410.781V222.32H383.217V225.32ZM370.09 196.424C375.098 205.061 379.05 214.385 381.771 224.22L384.663 223.42C381.872 213.335 377.819 203.774 372.686 194.919L370.09 196.424ZM388.972 175.966L370.327 194.611L372.449 196.732L391.093 178.088L388.972 175.966ZM388.972 166.774C391.51 169.312 391.51 173.428 388.972 175.966L391.093 178.088C394.803 174.378 394.803 168.363 391.093 164.653L388.972 166.774ZM354.956 132.758L388.972 166.774L391.093 164.653L357.077 130.637L354.956 132.758ZM345.763 132.758C348.302 130.22 352.417 130.22 354.956 132.758L357.077 130.637C353.367 126.927 347.352 126.927 343.642 130.637L345.763 132.758ZM326.749 151.772L345.763 132.758L343.642 130.637L324.628 149.651L326.749 151.772ZM297.444 140.923C307.156 143.482 316.383 147.237 324.957 152.022L326.419 149.402C317.628 144.496 308.167 140.646 298.209 138.022L297.444 140.923ZM296.326 112.295V139.473H299.326V112.295H296.326Z" fill="black" mask="url(#path-5-inside-3_92_13345)"/>
<circle cx="267" cy="256" r="85.25" fill="#9296FF" stroke="black" stroke-width="1.5"/>
<mask id="path-8-inside-4_92_13345" fill="white">
<path fill-rule="evenodd" clip-rule="evenodd" d="M261.5 341.827C306.434 338.991 342 301.649 342 256C342 210.351 306.434 173.009 261.5 170.173C263.319 170.058 265.152 170 267 170C314.496 170 353 208.504 353 256C353 303.496 314.496 342 267 342C265.152 342 263.319 341.942 261.5 341.827Z"/>
</mask>
<path fill-rule="evenodd" clip-rule="evenodd" d="M261.5 341.827C306.434 338.991 342 301.649 342 256C342 210.351 306.434 173.009 261.5 170.173C263.319 170.058 265.152 170 267 170C314.496 170 353 208.504 353 256C353 303.496 314.496 342 267 342C265.152 342 263.319 341.942 261.5 341.827Z" fill="black"/>
<path d="M261.5 341.827L261.406 340.33L261.406 343.324L261.5 341.827ZM261.5 170.173L261.406 168.676L261.406 171.67L261.5 170.173ZM340.5 256C340.5 300.852 305.554 337.543 261.406 340.33L261.594 343.324C307.313 340.438 343.5 302.446 343.5 256H340.5ZM261.406 171.67C305.554 174.456 340.5 211.148 340.5 256H343.5C343.5 209.554 307.313 171.562 261.594 168.676L261.406 171.67ZM261.594 171.67C263.382 171.557 265.184 171.5 267 171.5V168.5C265.121 168.5 263.256 168.559 261.406 168.676L261.594 171.67ZM267 171.5C313.668 171.5 351.5 209.332 351.5 256H354.5C354.5 207.675 315.325 168.5 267 168.5V171.5ZM351.5 256C351.5 302.668 313.668 340.5 267 340.5V343.5C315.325 343.5 354.5 304.325 354.5 256H351.5ZM267 340.5C265.184 340.5 263.382 340.443 261.594 340.33L261.406 343.324C263.256 343.441 265.121 343.5 267 343.5V340.5Z" fill="black" mask="url(#path-8-inside-4_92_13345)"/>
<mask id="path-10-inside-5_92_13345" fill="white">
<path fill-rule="evenodd" clip-rule="evenodd" d="M377.058 152.343C370.809 146.095 360.679 146.095 354.43 152.343L262.65 244.123L214.971 196.443C208.722 190.195 198.592 190.195 192.343 196.443L186.686 202.1C180.438 208.348 180.438 218.479 186.686 224.727L250.817 288.858C252.757 290.798 255.072 292.136 257.529 292.871C263.169 294.882 269.712 293.63 274.228 289.115L382.715 180.627C388.963 174.379 388.963 164.248 382.715 158L377.058 152.343Z"/>
</mask>
<path fill-rule="evenodd" clip-rule="evenodd" d="M377.058 152.343C370.809 146.095 360.679 146.095 354.43 152.343L262.65 244.123L214.971 196.443C208.722 190.195 198.592 190.195 192.343 196.443L186.686 202.1C180.438 208.348 180.438 218.479 186.686 224.727L250.817 288.858C252.757 290.798 255.072 292.136 257.529 292.871C263.169 294.882 269.712 293.63 274.228 289.115L382.715 180.627C388.963 174.379 388.963 164.248 382.715 158L377.058 152.343Z" fill="black"/>
<path d="M354.43 152.343L355.491 153.404L355.491 153.404L354.43 152.343ZM377.058 152.343L375.997 153.404L375.997 153.404L377.058 152.343ZM262.65 244.123L261.59 245.184L262.65 246.244L263.711 245.184L262.65 244.123ZM214.971 196.443L213.91 197.504L213.91 197.504L214.971 196.443ZM192.343 196.443L193.404 197.504L193.404 197.504L192.343 196.443ZM186.686 202.1L185.626 201.039L185.626 201.039L186.686 202.1ZM186.686 224.727L185.626 225.788L185.626 225.788L186.686 224.727ZM250.817 288.858L251.877 287.797L251.877 287.797L250.817 288.858ZM257.529 292.871L258.033 291.459L257.996 291.446L257.959 291.434L257.529 292.871ZM274.228 289.115L273.167 288.054L274.228 289.115ZM382.715 180.627L383.775 181.688L383.775 181.688L382.715 180.627ZM382.715 158L383.775 156.939L383.775 156.939L382.715 158ZM355.491 153.404C361.154 147.741 370.335 147.741 375.997 153.404L378.119 151.282C371.284 144.448 360.204 144.448 353.37 151.282L355.491 153.404ZM263.711 245.184L355.491 153.404L353.37 151.282L261.59 243.062L263.711 245.184ZM213.91 197.504L261.59 245.184L263.711 243.062L216.031 195.383L213.91 197.504ZM193.404 197.504C199.066 191.841 208.247 191.841 213.91 197.504L216.031 195.383C209.197 188.548 198.117 188.548 191.282 195.383L193.404 197.504ZM187.747 203.161L193.404 197.504L191.282 195.383L185.626 201.039L187.747 203.161ZM187.747 223.667C182.084 218.004 182.084 208.823 187.747 203.161L185.626 201.039C178.791 207.874 178.791 218.954 185.626 225.788L187.747 223.667ZM251.877 287.797L187.747 223.667L185.626 225.788L249.756 289.918L251.877 287.797ZM257.959 291.434C255.734 290.769 253.638 289.558 251.877 287.797L249.756 289.918C251.877 292.039 254.41 293.504 257.099 294.308L257.959 291.434ZM273.167 288.054C269.076 292.144 263.148 293.282 258.033 291.459L257.025 294.284C263.19 296.482 270.348 295.116 275.288 290.175L273.167 288.054ZM381.654 179.567L273.167 288.054L275.288 290.175L383.775 181.688L381.654 179.567ZM381.654 159.061C387.317 164.723 387.317 173.904 381.654 179.567L383.775 181.688C390.61 174.854 390.61 163.773 383.775 156.939L381.654 159.061ZM375.997 153.404L381.654 159.061L383.775 156.939L378.119 151.282L375.997 153.404Z" fill="black" mask="url(#path-10-inside-5_92_13345)"/>
<mask id="path-12-inside-6_92_13345" fill="white">
<path fill-rule="evenodd" clip-rule="evenodd" d="M387.402 150.686C381.153 144.438 371.023 144.438 364.774 150.686L272.994 242.466L225.314 194.786C219.066 188.538 208.935 188.538 202.687 194.786L197.03 200.443C190.782 206.692 190.782 216.822 197.03 223.071L261.16 287.201C263.101 289.142 265.416 290.479 267.873 291.215C273.513 293.226 280.056 291.973 284.571 287.458L393.058 178.971C399.307 172.722 399.307 162.592 393.058 156.343L387.402 150.686Z"/>
</mask>
<path fill-rule="evenodd" clip-rule="evenodd" d="M387.402 150.686C381.153 144.438 371.023 144.438 364.774 150.686L272.994 242.466L225.314 194.786C219.066 188.538 208.935 188.538 202.687 194.786L197.03 200.443C190.782 206.692 190.782 216.822 197.03 223.071L261.16 287.201C263.101 289.142 265.416 290.479 267.873 291.215C273.513 293.226 280.056 291.973 284.571 287.458L393.058 178.971C399.307 172.722 399.307 162.592 393.058 156.343L387.402 150.686Z" fill="#FFD789"/>
<path d="M364.774 150.686L365.835 151.747L365.835 151.747L364.774 150.686ZM387.402 150.686L386.341 151.747L386.341 151.747L387.402 150.686ZM272.994 242.466L271.934 243.527L272.994 244.588L274.055 243.527L272.994 242.466ZM225.314 194.786L224.254 195.847L224.254 195.847L225.314 194.786ZM202.687 194.786L203.748 195.847L203.748 195.847L202.687 194.786ZM197.03 200.443L195.969 199.383L195.969 199.383L197.03 200.443ZM197.03 223.071L195.969 224.131L195.969 224.131L197.03 223.071ZM261.16 287.201L262.221 286.14L262.221 286.14L261.16 287.201ZM267.873 291.215L268.376 289.802L268.34 289.789L268.303 289.778L267.873 291.215ZM284.571 287.458L283.511 286.397L284.571 287.458ZM393.058 178.971L394.119 180.031L394.119 180.031L393.058 178.971ZM393.058 156.343L394.119 155.282L394.119 155.282L393.058 156.343ZM365.835 151.747C371.497 146.084 380.678 146.084 386.341 151.747L388.462 149.626C381.628 142.791 370.548 142.791 363.714 149.626L365.835 151.747ZM274.055 243.527L365.835 151.747L363.714 149.626L271.934 241.406L274.055 243.527ZM224.254 195.847L271.934 243.527L274.055 241.406L226.375 193.726L224.254 195.847ZM203.748 195.847C209.41 190.184 218.591 190.184 224.254 195.847L226.375 193.726C219.541 186.892 208.46 186.892 201.626 193.726L203.748 195.847ZM198.091 201.504L203.748 195.847L201.626 193.726L195.969 199.383L198.091 201.504ZM198.091 222.01C192.428 216.347 192.428 207.167 198.091 201.504L195.969 199.383C189.135 206.217 189.135 217.297 195.969 224.131L198.091 222.01ZM262.221 286.14L198.091 222.01L195.969 224.131L260.1 288.262L262.221 286.14ZM268.303 289.778C266.078 289.112 263.982 287.901 262.221 286.14L260.1 288.262C262.22 290.382 264.754 291.847 267.443 292.652L268.303 289.778ZM283.511 286.397C279.42 290.488 273.491 291.625 268.376 289.802L267.369 292.628C273.534 294.826 280.692 293.459 285.632 288.518L283.511 286.397ZM391.998 177.91L283.511 286.397L285.632 288.518L394.119 180.031L391.998 177.91ZM391.998 157.404C397.66 163.066 397.66 172.247 391.998 177.91L394.119 180.031C400.953 173.197 400.953 162.117 394.119 155.282L391.998 157.404ZM386.341 151.747L391.998 157.404L394.119 155.282L388.462 149.626L386.341 151.747Z" fill="black" mask="url(#path-12-inside-6_92_13345)"/>
<path d="M182.735 106.852C182.665 106.502 182.357 106.25 182 106.25C181.643 106.25 181.335 106.502 181.265 106.852L176.096 132.516L150.847 137.766C150.499 137.838 150.25 138.145 150.25 138.5C150.25 138.855 150.499 139.162 150.847 139.234L176.096 144.484L181.265 170.148C181.335 170.498 181.643 170.75 182 170.75C182.357 170.75 182.665 170.498 182.735 170.148L187.904 144.484L213.153 139.234C213.501 139.162 213.75 138.855 213.75 138.5C213.75 138.145 213.501 137.838 213.153 137.766L187.904 132.516L182.735 106.852Z" fill="white" stroke="black" stroke-width="1.5" stroke-linejoin="round"/>
<path d="M351.765 313.85C351.837 313.501 352.144 313.25 352.5 313.25C352.856 313.25 353.163 313.501 353.235 313.85L357.807 336.193L380.15 340.765C380.499 340.837 380.75 341.144 380.75 341.5C380.75 341.856 380.499 342.163 380.15 342.235L357.807 346.807L353.235 369.15C353.163 369.499 352.856 369.75 352.5 369.75C352.144 369.75 351.837 369.499 351.765 369.15L347.193 346.807L324.85 342.235C324.501 342.163 324.25 341.856 324.25 341.5C324.25 341.144 324.501 340.837 324.85 340.765L347.193 336.193L351.765 313.85Z" fill="white" stroke="black" stroke-width="1.5" stroke-linejoin="round"/>
</svg>
