<svg width="512" height="512" viewBox="0 0 512 512" fill="none" xmlns="http://www.w3.org/2000/svg">
<path d="M76.3763 233.24L169.105 208.394C181.508 205.07 194.257 212.431 197.581 224.834L205.863 255.744C209.186 268.147 201.826 280.895 189.423 284.219L96.6936 309.066C84.2905 312.389 71.5417 305.028 68.2183 292.625L59.9361 261.716C56.6127 249.313 63.9732 236.564 76.3763 233.24Z" fill="black" stroke="black" stroke-width="1.5"/>
<rect x="-0.918559" y="-0.53033" width="106.5" height="37.5" rx="7.25" transform="matrix(-0.258819 -0.965926 -0.965926 0.258819 191.96 406.821)" fill="black" stroke="black" stroke-width="1.5"/>
<rect x="-0.918559" y="-0.53033" width="106.5" height="37.5" rx="7.25" transform="matrix(-0.258819 -0.965926 -0.965926 0.258819 202.585 403.974)" fill="#9296FF" stroke="black" stroke-width="1.5"/>
<rect x="-0.918559" y="-0.53033" width="59.5" height="61.5" rx="15.25" transform="matrix(-0.258819 -0.965926 -0.965926 0.258819 180.447 313.625)" fill="black" stroke="black" stroke-width="1.5"/>
<rect x="-0.918559" y="-0.53033" width="59.5" height="61.5" rx="15.25" transform="matrix(-0.258819 -0.965926 -0.965926 0.258819 190.107 311.037)" fill="#9296FF" stroke="black" stroke-width="1.5"/>
<path d="M356.593 112.959L340.561 156.406L299.807 172.942L337.794 178.6L352.843 216.712L341.074 260.357L361.951 236.003L394.367 278.695L382.006 226.535L447.478 223.396L390.73 195.14L421.615 180.56L384.105 171.236L407.065 137.789L361.137 159.471L356.593 112.959Z" fill="#FFD789" stroke="black" stroke-width="1.5"/>
<path d="M87.0013 230.393L179.73 205.547C192.133 202.223 204.882 209.584 208.206 221.987L216.488 252.896C219.811 265.299 212.451 278.048 200.048 281.372L107.319 306.218C94.9155 309.542 82.1667 302.181 78.8433 289.778L70.5611 258.868C67.2377 246.465 74.5982 233.717 87.0013 230.393Z" fill="#FFD789" stroke="black" stroke-width="1.5"/>
<path d="M93.7233 247.752L150.713 232.481" stroke="black" stroke-width="1.5" stroke-linecap="round"/>
<path d="M94.3287 269.33L151.318 254.06" stroke="black" stroke-width="1.5" stroke-linecap="round"/>
<path d="M104.335 287.355L161.324 272.084" stroke="black" stroke-width="1.5" stroke-linecap="round"/>
<mask id="path-11-inside-1_92_14557" fill="white">
<path fill-rule="evenodd" clip-rule="evenodd" d="M198.289 193.396L176.068 205.752L176.142 206.027C171.451 209.739 171.706 227.142 177.003 246.912C182.3 266.682 190.781 281.881 196.7 282.75L196.774 283.026L222.195 282.615C254.346 282.096 286.346 287.118 316.791 297.462L352.554 309.613L297.684 104.836L272.788 133.24C251.593 157.421 226.392 177.771 198.289 193.396Z"/>
</mask>
<path fill-rule="evenodd" clip-rule="evenodd" d="M198.289 193.396L176.068 205.752L176.142 206.027C171.451 209.739 171.706 227.142 177.003 246.912C182.3 266.682 190.781 281.881 196.7 282.75L196.774 283.026L222.195 282.615C254.346 282.096 286.346 287.118 316.791 297.462L352.554 309.613L297.684 104.836L272.788 133.24C251.593 157.421 226.392 177.771 198.289 193.396Z" fill="#FFD789"/>
<path d="M176.068 205.752L175.339 204.441L174.316 205.009L174.619 206.14L176.068 205.752ZM198.289 193.396L199.018 194.707L199.018 194.707L198.289 193.396ZM176.142 206.027L177.073 207.203L177.846 206.591L177.591 205.639L176.142 206.027ZM196.7 282.75L198.149 282.362L197.894 281.409L196.918 281.266L196.7 282.75ZM196.774 283.026L195.325 283.414L195.628 284.544L196.798 284.525L196.774 283.026ZM222.195 282.615L222.171 281.115L222.171 281.115L222.195 282.615ZM316.791 297.462L317.274 296.042L317.274 296.042L316.791 297.462ZM352.554 309.613L352.071 311.033L354.729 311.936L354.003 309.224L352.554 309.613ZM297.684 104.836L299.133 104.448L298.407 101.737L296.556 103.848L297.684 104.836ZM272.788 133.24L273.916 134.229L273.916 134.229L272.788 133.24ZM176.797 207.063L199.018 194.707L197.56 192.085L175.339 204.441L176.797 207.063ZM177.591 205.639L177.517 205.363L174.619 206.14L174.693 206.415L177.591 205.639ZM178.452 246.524C175.827 236.728 174.463 227.557 174.327 220.419C174.258 216.846 174.498 213.834 175.016 211.53C175.547 209.165 176.313 207.805 177.073 207.203L175.211 204.851C173.626 206.105 172.664 208.312 172.089 210.872C171.5 213.493 171.256 216.764 171.327 220.477C171.47 227.911 172.882 237.327 175.554 247.3L178.452 246.524ZM196.918 281.266C195.959 281.125 194.615 280.33 192.973 278.548C191.373 276.811 189.659 274.323 187.932 271.194C184.481 264.944 181.077 256.32 178.452 246.524L175.554 247.3C178.227 257.274 181.712 266.135 185.305 272.644C187.1 275.895 188.947 278.605 190.767 280.58C192.545 282.51 194.482 283.941 196.482 284.234L196.918 281.266ZM198.223 282.637L198.149 282.362L195.251 283.139L195.325 283.414L198.223 282.637ZM222.171 281.115L196.749 281.526L196.798 284.525L222.219 284.115L222.171 281.115ZM317.274 296.042C286.665 285.643 254.494 280.593 222.171 281.115L222.219 284.115C254.198 283.598 286.026 288.594 316.309 298.882L317.274 296.042ZM353.036 308.192L317.274 296.042L316.309 298.882L352.071 311.033L353.036 308.192ZM296.235 105.225L351.105 310.001L354.003 309.224L299.133 104.448L296.235 105.225ZM273.916 134.229L298.812 105.825L296.556 103.848L271.66 132.252L273.916 134.229ZM199.018 194.707C227.272 178.998 252.608 158.54 273.916 134.229L271.66 132.252C250.579 156.303 225.513 176.544 197.56 192.085L199.018 194.707Z" fill="black" mask="url(#path-11-inside-1_92_14557)"/>
<path d="M364.963 196.548C372.595 225.03 375.503 251.855 374.054 272.188C373.33 282.358 371.518 290.862 368.693 297.127C365.866 303.399 362.077 307.32 357.448 308.56C352.819 309.8 347.577 308.299 341.993 304.281C336.414 300.268 330.593 293.81 324.881 285.364C313.46 268.48 302.565 243.795 294.934 215.313C287.302 186.831 284.394 160.006 285.843 139.673C286.567 129.503 288.379 121 291.204 114.734C294.031 108.463 297.82 104.541 302.449 103.301C307.078 102.061 312.32 103.562 317.905 107.58C323.483 111.593 329.304 118.052 335.016 126.497C346.437 143.382 357.332 168.066 364.963 196.548Z" fill="#FFD789" stroke="black" stroke-width="1.5"/>
<path d="M355.303 199.136C361.579 222.557 364.339 244.514 363.745 261.067C363.447 269.349 362.312 276.234 360.385 281.264C358.451 286.313 355.787 289.335 352.53 290.207C349.273 291.08 345.454 289.795 341.255 286.39C337.072 282.997 332.646 277.602 328.247 270.579C319.456 256.54 310.868 236.145 304.592 212.724C298.317 189.303 295.556 167.347 296.151 150.793C296.448 142.512 297.584 135.627 299.511 130.597C301.444 125.548 304.109 122.526 307.366 121.653C310.623 120.781 314.442 122.066 318.641 125.471C322.824 128.864 327.25 134.259 331.648 141.282C340.44 155.321 349.028 175.715 355.303 199.136Z" fill="#FFD789" stroke="black" stroke-width="1.5"/>
<mask id="path-15-inside-2_92_14557" fill="white">
<path fill-rule="evenodd" clip-rule="evenodd" d="M328.668 272.632C329.569 255.774 326.829 232.925 320.289 208.519C313.75 184.113 304.698 162.954 295.489 148.806C296.321 133.239 300.257 122.782 307.172 120.929C321.576 117.07 343.45 151.997 356.028 198.942C368.607 245.888 367.128 287.073 352.725 290.932C345.809 292.785 337.172 285.697 328.668 272.632Z"/>
</mask>
<path fill-rule="evenodd" clip-rule="evenodd" d="M328.668 272.632C329.569 255.774 326.829 232.925 320.289 208.519C313.75 184.113 304.698 162.954 295.489 148.806C296.321 133.239 300.257 122.782 307.172 120.929C321.576 117.07 343.45 151.997 356.028 198.942C368.607 245.888 367.128 287.073 352.725 290.932C345.809 292.785 337.172 285.697 328.668 272.632Z" fill="black"/>
<path d="M328.668 272.632L327.17 272.552L327.144 273.04L327.411 273.45L328.668 272.632ZM295.489 148.806L293.991 148.726L293.965 149.214L294.232 149.624L295.489 148.806ZM318.84 208.907C325.352 233.209 328.06 255.895 327.17 272.552L330.166 272.712C331.077 255.654 328.306 232.641 321.738 208.131L318.84 208.907ZM294.232 149.624C303.331 163.604 312.329 184.605 318.84 208.907L321.738 208.131C315.17 183.62 306.065 162.305 296.747 147.988L294.232 149.624ZM296.987 148.886C297.398 141.187 298.574 134.866 300.439 130.291C302.315 125.686 304.764 123.127 307.561 122.378L306.784 119.48C302.666 120.584 299.689 124.18 297.66 129.159C295.62 134.166 294.412 140.857 293.991 148.726L296.987 148.886ZM307.561 122.378C310.474 121.597 314.043 122.708 318.169 126.054C322.262 129.374 326.637 134.692 331.013 141.68C339.756 155.64 348.318 175.961 354.58 199.331L357.477 198.554C351.16 174.979 342.496 154.364 333.556 140.088C329.091 132.958 324.511 127.335 320.059 123.724C315.639 120.139 311.073 118.331 306.784 119.48L307.561 122.378ZM354.58 199.331C360.841 222.7 363.587 244.58 362.996 261.041C362.7 269.28 361.57 276.074 359.685 280.996C357.786 285.956 355.25 288.703 352.336 289.483L353.113 292.381C357.401 291.232 360.452 287.383 362.487 282.069C364.537 276.716 365.692 269.555 365.994 261.148C366.599 244.315 363.794 222.13 357.477 198.554L354.58 199.331ZM352.336 289.483C349.54 290.233 346.139 289.241 342.212 286.192C338.31 283.161 334.131 278.275 329.925 271.813L327.411 273.45C331.709 280.054 336.101 285.245 340.372 288.561C344.618 291.858 348.994 293.485 353.113 292.381L352.336 289.483Z" fill="black" mask="url(#path-15-inside-2_92_14557)"/>
<mask id="path-17-inside-3_92_14557" fill="white">
<path fill-rule="evenodd" clip-rule="evenodd" d="M315.61 247.436C311.247 237.126 307.226 225.45 303.868 212.919C300.9 201.842 298.715 191.086 297.297 181.065L352.49 176.079L365.431 224.375L315.61 247.436Z"/>
</mask>
<path fill-rule="evenodd" clip-rule="evenodd" d="M315.61 247.436C311.247 237.126 307.226 225.45 303.868 212.919C300.9 201.842 298.715 191.086 297.297 181.065L352.49 176.079L365.431 224.375L315.61 247.436Z" fill="#9296FF"/>
<path d="M315.61 247.436L314.229 248.02L314.833 249.448L316.24 248.797L315.61 247.436ZM297.297 181.065L297.162 179.571L295.591 179.713L295.812 181.275L297.297 181.065ZM352.49 176.079L353.939 175.691L353.612 174.471L352.355 174.585L352.49 176.079ZM365.431 224.375L366.061 225.736L367.207 225.206L366.88 223.987L365.431 224.375ZM316.992 246.851C312.657 236.609 308.658 225 305.317 212.53L302.419 213.307C305.794 225.901 309.836 237.643 314.229 248.02L316.992 246.851ZM305.317 212.53C302.364 201.509 300.191 190.813 298.783 180.855L295.812 181.275C297.239 191.359 299.437 202.174 302.419 213.307L305.317 212.53ZM297.432 182.559L352.625 177.573L352.355 174.585L297.162 179.571L297.432 182.559ZM351.041 176.467L363.982 224.763L366.88 223.987L353.939 175.691L351.041 176.467ZM364.801 223.014L314.98 246.074L316.24 248.797L366.061 225.736L364.801 223.014Z" fill="black" mask="url(#path-17-inside-3_92_14557)"/>
<path d="M340.713 228.335C338.99 226.37 337.205 223.461 335.535 219.853C333.867 216.25 332.382 212.094 331.217 207.767C330.052 203.44 329.248 199.092 328.877 195.124C328.505 191.15 328.583 187.716 329.081 185.125" stroke="black" stroke-width="1.5" stroke-linecap="round" stroke-linejoin="round"/>
<path d="M366.447 198.221C368.218 204.828 368.847 211.037 368.453 215.722C368.256 218.068 367.807 219.989 367.147 221.378C366.485 222.772 365.661 223.537 364.755 223.78C363.848 224.023 362.752 223.772 361.482 222.896C360.216 222.023 358.866 220.584 357.522 218.651C354.839 214.79 352.28 209.099 350.509 202.492C348.739 195.884 348.11 189.676 348.503 184.991C348.7 182.645 349.15 180.724 349.81 179.334C350.472 177.941 351.295 177.176 352.202 176.933C353.109 176.69 354.205 176.941 355.474 177.817C356.741 178.69 358.091 180.129 359.434 182.062C362.117 185.922 364.677 191.614 366.447 198.221Z" fill="#9296FF" stroke="black" stroke-width="1.5"/>
<rect x="0.53033" y="-0.918559" width="12.5" height="30.5" rx="6.25" transform="matrix(0.965926 -0.258819 -0.258819 -0.965926 163.082 362.795)" fill="black" stroke="black" stroke-width="1.5"/>
<rect x="0.53033" y="-0.918559" width="13.5" height="30.5" rx="6.75" transform="matrix(0.965926 -0.258819 -0.258819 -0.965926 165.98 362.018)" fill="white" stroke="black" stroke-width="1.5"/>
<path d="M224.735 401.15C224.663 401.499 224.356 401.75 224 401.75C223.644 401.75 223.337 401.499 223.265 401.15L218.268 376.732L193.85 371.735C193.501 371.663 193.25 371.356 193.25 371C193.25 370.644 193.501 370.337 193.85 370.265L218.268 365.268L223.265 340.85C223.337 340.501 223.644 340.25 224 340.25C224.356 340.25 224.663 340.501 224.735 340.85L229.732 365.268L254.15 370.265C254.499 370.337 254.75 370.644 254.75 371C254.75 371.356 254.499 371.663 254.15 371.735L229.732 376.732L224.735 401.15Z" fill="white" stroke="black" stroke-width="1.5" stroke-linejoin="round"/>
<path d="M241.235 148.15C241.163 148.499 240.856 148.75 240.5 148.75C240.144 148.75 239.837 148.499 239.765 148.15L235.193 125.807L212.85 121.235C212.501 121.163 212.25 120.856 212.25 120.5C212.25 120.144 212.501 119.837 212.85 119.765L235.193 115.193L239.765 92.8496C239.837 92.5006 240.144 92.25 240.5 92.25C240.856 92.25 241.163 92.5006 241.235 92.8496L245.807 115.193L268.15 119.765C268.499 119.837 268.75 120.144 268.75 120.5C268.75 120.856 268.499 121.163 268.15 121.235L245.807 125.807L241.235 148.15Z" fill="white" stroke="black" stroke-width="1.5" stroke-linejoin="round"/>
</svg>
