<svg width="512" height="512" viewBox="0 0 512 512" fill="none" xmlns="http://www.w3.org/2000/svg">
<rect x="0.274519" y="1.02452" width="31.9563" height="193.813" rx="15.9782" transform="matrix(-0.5 0.866025 0.866025 0.5 180.4 256.227)" fill="black" stroke="black" stroke-width="1.5"/>
<rect x="329.401" y="148.47" width="31.9563" height="193.813" rx="15.9782" transform="rotate(60 329.401 148.47)" fill="black" stroke="black" stroke-width="1.5"/>
<circle cx="147" cy="264" r="56.25" fill="black" stroke="black" stroke-width="1.5"/>
<circle cx="347" cy="147" r="56.25" fill="black" stroke="black" stroke-width="1.5"/>
<circle cx="347" cy="372" r="56.25" fill="black" stroke="black" stroke-width="1.5"/>
<rect x="329.401" y="136.715" width="31.9563" height="193.813" rx="15.9782" transform="rotate(60 329.401 136.715)" fill="#FFD789" stroke="black" stroke-width="1.5"/>
<rect x="0.274519" y="1.02452" width="31.9563" height="193.813" rx="15.9782" transform="matrix(-0.5 0.866025 0.866025 0.5 180.4 245.376)" fill="#FFD789" stroke="black" stroke-width="1.5"/>
<circle cx="154" cy="256" r="56.25" fill="#9296FF" stroke="black" stroke-width="1.5"/>
<circle cx="354" cy="139" r="56.25" fill="#FFD789" stroke="black" stroke-width="1.5"/>
<circle cx="354" cy="139" r="35.25" fill="#FFD789" stroke="black" stroke-width="1.5"/>
<circle cx="154" cy="256" r="35.25" fill="#9296FF" stroke="black" stroke-width="1.5"/>
<mask id="path-12-inside-1_92_14586" fill="white">
<path fill-rule="evenodd" clip-rule="evenodd" d="M371.93 170.745C382.844 164.518 390.202 152.772 390.202 139.307C390.202 119.331 374.009 103.138 354.033 103.138C344.27 103.138 335.41 107.006 328.903 113.294C334.181 110.283 340.289 108.563 346.8 108.563C366.775 108.563 382.969 124.756 382.969 144.732C382.969 154.944 378.736 164.168 371.93 170.745Z"/>
</mask>
<path fill-rule="evenodd" clip-rule="evenodd" d="M371.93 170.745C382.844 164.518 390.202 152.772 390.202 139.307C390.202 119.331 374.009 103.138 354.033 103.138C344.27 103.138 335.41 107.006 328.903 113.294C334.181 110.283 340.289 108.563 346.8 108.563C366.775 108.563 382.969 124.756 382.969 144.732C382.969 154.944 378.736 164.168 371.93 170.745Z" fill="black"/>
<path d="M371.93 170.745L370.888 169.666L372.673 172.048L371.93 170.745ZM328.903 113.294L327.861 112.215L329.647 114.597L328.903 113.294ZM388.702 139.307C388.702 152.212 381.652 163.472 371.187 169.442L372.673 172.048C384.036 165.565 391.702 153.332 391.702 139.307H388.702ZM354.033 104.638C373.181 104.638 388.702 120.16 388.702 139.307H391.702C391.702 118.503 374.838 101.638 354.033 101.638V104.638ZM329.946 114.372C336.184 108.344 344.675 104.638 354.033 104.638V101.638C343.866 101.638 334.637 105.668 327.861 112.215L329.946 114.372ZM329.647 114.597C334.703 111.712 340.557 110.063 346.8 110.063V107.063C340.022 107.063 333.658 108.855 328.16 111.991L329.647 114.597ZM346.8 110.063C365.947 110.063 381.469 125.585 381.469 144.732H384.469C384.469 123.928 367.604 107.063 346.8 107.063V110.063ZM381.469 144.732C381.469 154.521 377.414 163.36 370.888 169.666L372.972 171.824C380.059 164.976 384.469 155.368 384.469 144.732H381.469Z" fill="black" mask="url(#path-12-inside-1_92_14586)"/>
<mask id="path-14-inside-2_92_14586" fill="white">
<path fill-rule="evenodd" clip-rule="evenodd" d="M172.097 287.391C183.011 281.164 190.369 269.417 190.369 255.952C190.369 235.977 174.176 219.783 154.2 219.783C144.437 219.783 135.577 223.652 129.07 229.939C134.348 226.929 140.456 225.209 146.967 225.209C166.942 225.209 183.136 241.402 183.136 261.378C183.136 271.59 178.903 280.814 172.097 287.391Z"/>
</mask>
<path fill-rule="evenodd" clip-rule="evenodd" d="M172.097 287.391C183.011 281.164 190.369 269.417 190.369 255.952C190.369 235.977 174.176 219.783 154.2 219.783C144.437 219.783 135.577 223.652 129.07 229.939C134.348 226.929 140.456 225.209 146.967 225.209C166.942 225.209 183.136 241.402 183.136 261.378C183.136 271.59 178.903 280.814 172.097 287.391Z" fill="black"/>
<path d="M172.097 287.391L171.055 286.312L172.84 288.693L172.097 287.391ZM129.07 229.939L128.028 228.861L129.814 231.242L129.07 229.939ZM188.869 255.952C188.869 268.857 181.819 280.117 171.354 286.088L172.84 288.693C184.203 282.211 191.869 269.978 191.869 255.952H188.869ZM154.2 221.283C173.348 221.283 188.869 236.805 188.869 255.952H191.869C191.869 235.148 175.004 218.283 154.2 218.283V221.283ZM130.113 231.018C136.351 224.99 144.842 221.283 154.2 221.283V218.283C144.033 218.283 134.804 222.314 128.028 228.861L130.113 231.018ZM129.814 231.242C134.87 228.357 140.724 226.709 146.967 226.709V223.709C140.189 223.709 133.825 225.5 128.327 228.636L129.814 231.242ZM146.967 226.709C166.114 226.709 181.636 242.23 181.636 261.378H184.636C184.636 240.574 167.771 223.709 146.967 223.709V226.709ZM181.636 261.378C181.636 271.167 177.581 280.006 171.055 286.312L173.139 288.469C180.226 281.621 184.636 272.013 184.636 261.378H181.636Z" fill="black" mask="url(#path-14-inside-2_92_14586)"/>
<circle cx="354" cy="364" r="56.25" fill="#FFD789" stroke="black" stroke-width="1.5"/>
<path d="M389.25 363.5C389.25 383.254 373.458 399.25 354 399.25C334.542 399.25 318.75 383.254 318.75 363.5C318.75 343.746 334.542 327.75 354 327.75C373.458 327.75 389.25 343.746 389.25 363.5Z" fill="#FFD789" stroke="black" stroke-width="1.5"/>
<mask id="path-18-inside-3_92_14586" fill="white">
<path fill-rule="evenodd" clip-rule="evenodd" d="M371.93 394.993C382.844 388.767 390.202 377.02 390.202 363.555C390.202 343.579 374.009 327.386 354.033 327.386C344.27 327.386 335.41 331.254 328.903 337.542C334.181 334.531 340.289 332.811 346.8 332.811C366.775 332.811 382.969 349.005 382.969 368.98C382.969 379.192 378.736 388.416 371.93 394.993Z"/>
</mask>
<path fill-rule="evenodd" clip-rule="evenodd" d="M371.93 394.993C382.844 388.767 390.202 377.02 390.202 363.555C390.202 343.579 374.009 327.386 354.033 327.386C344.27 327.386 335.41 331.254 328.903 337.542C334.181 334.531 340.289 332.811 346.8 332.811C366.775 332.811 382.969 349.005 382.969 368.98C382.969 379.192 378.736 388.416 371.93 394.993Z" fill="black"/>
<path d="M371.93 394.993L370.888 393.914L372.673 396.296L371.93 394.993ZM328.903 337.542L327.861 336.463L329.647 338.845L328.903 337.542ZM388.702 363.555C388.702 376.46 381.652 387.72 371.187 393.69L372.673 396.296C384.036 389.813 391.702 377.58 391.702 363.555H388.702ZM354.033 328.886C373.181 328.886 388.702 344.408 388.702 363.555H391.702C391.702 342.751 374.838 325.886 354.033 325.886V328.886ZM329.946 338.62C336.184 332.592 344.675 328.886 354.033 328.886V325.886C343.866 325.886 334.637 329.916 327.861 336.463L329.946 338.62ZM329.647 338.845C334.703 335.96 340.557 334.311 346.8 334.311V331.311C340.022 331.311 333.658 333.103 328.16 336.239L329.647 338.845ZM346.8 334.311C365.947 334.311 381.469 349.833 381.469 368.98H384.469C384.469 348.176 367.604 331.311 346.8 331.311V334.311ZM381.469 368.98C381.469 378.769 377.414 387.608 370.888 393.914L372.972 396.072C380.059 389.224 384.469 379.616 384.469 368.98H381.469Z" fill="black" mask="url(#path-18-inside-3_92_14586)"/>
<path d="M211.735 357.15C211.663 357.499 211.356 357.75 211 357.75C210.644 357.75 210.337 357.499 210.265 357.15L205.268 332.732L180.85 327.735C180.501 327.663 180.25 327.356 180.25 327C180.25 326.644 180.501 326.337 180.85 326.265L205.268 321.268L210.265 296.85C210.337 296.501 210.644 296.25 211 296.25C211.356 296.25 211.663 296.501 211.735 296.85L216.732 321.268L241.15 326.265C241.499 326.337 241.75 326.644 241.75 327C241.75 327.356 241.499 327.663 241.15 327.735L216.732 332.732L211.735 357.15Z" fill="white" stroke="black" stroke-width="1.5" stroke-linejoin="round"/>
<path d="M394.235 205.15C394.163 205.499 393.856 205.75 393.5 205.75C393.144 205.75 392.837 205.499 392.765 205.15L388.193 182.807L365.85 178.235C365.501 178.163 365.25 177.856 365.25 177.5C365.25 177.144 365.501 176.837 365.85 176.765L388.193 172.193L392.765 149.85C392.837 149.501 393.144 149.25 393.5 149.25C393.856 149.25 394.163 149.501 394.235 149.85L398.807 172.193L421.15 176.765C421.499 176.837 421.75 177.144 421.75 177.5C421.75 177.856 421.499 178.163 421.15 178.235L398.807 182.807L394.235 205.15Z" fill="white" stroke="black" stroke-width="1.5" stroke-linejoin="round"/>
</svg>
