<svg width="512" height="512" viewBox="0 0 512 512" fill="none" xmlns="http://www.w3.org/2000/svg">
<path d="M217 144.042L249.444 177.087L247 221L268.333 189.063L309.222 191.725L343.667 221L330.556 191.725L383 180.636L330.556 169.547L355.667 109L305.889 148.255V114.101L281.444 144.042L261 109V159.788L217 144.042Z" fill="#FFD789" stroke="black" stroke-width="1.5"/>
<circle cx="289.5" cy="166.5" r="14.75" fill="black" stroke="black" stroke-width="1.5"/>
<path d="M458.605 383.12L458.511 382.631C457.855 379.217 454.868 376.75 451.392 376.75L57 376.75C52.9959 376.75 49.75 379.996 49.75 384L49.75 394C49.75 398.004 52.9959 401.25 57 401.25L443.63 401.25C453.207 401.25 460.414 392.525 458.605 383.12Z" fill="black" stroke="black" stroke-width="1.5"/>
<path d="M454.16 384.024L441.212 182.024C440.697 173.997 434.036 167.75 425.993 167.75L142.058 167.75C133.252 167.75 126.276 175.187 126.84 183.976L139.788 385.976C140.303 394.003 146.964 400.25 155.007 400.25L438.942 400.25C447.748 400.25 454.724 392.813 454.16 384.024Z" fill="black" stroke="black" stroke-width="1.5"/>
<path d="M461.16 384.024L448.212 182.024C447.697 173.997 441.036 167.75 432.993 167.75L148.058 167.75C139.252 167.75 132.276 175.187 132.84 183.976L145.788 385.976C146.303 394.003 152.964 400.25 161.007 400.25L445.942 400.25C454.748 400.25 461.724 392.813 461.16 384.024Z" fill="#FFD789" stroke="black" stroke-width="1.5"/>
<path d="M423 201.036C425.667 202.576 425.667 206.425 423 207.964L404.25 218.789C401.583 220.329 398.25 218.405 398.25 215.325L398.25 193.675C398.25 190.595 401.583 188.671 404.25 190.211L423 201.036Z" fill="black"/>
<path d="M400.37 296.245C403.049 298.81 408.278 302.725 412.127 303.971L411.912 303.284L411.95 303.272L411.95 303.272C412.025 303.249 412.1 303.223 412.177 303.197M400.37 296.245L400.919 295.734C400.914 295.729 400.909 295.724 400.904 295.718M400.37 296.245C396.319 291.895 391.999 283.497 397.863 277.142C403.28 271.271 409.044 274.973 411.61 277.444M400.37 296.245L411.61 277.444M400.904 295.718C402.217 296.973 404.166 298.569 406.261 300.002C408.286 301.388 410.399 302.588 412.177 303.197M400.904 295.718C398.943 293.608 396.939 290.537 396.126 287.265C395.319 284.015 395.69 280.603 398.414 277.651C399.791 276.158 401.158 275.356 402.442 274.994C403.728 274.633 404.982 274.699 406.156 275.019C408.529 275.667 410.525 277.345 411.587 278.489L412.136 279.082L412.686 278.489C413.761 277.331 415.661 275.661 417.931 275.017C419.052 274.699 420.253 274.633 421.5 274.993C422.748 275.353 424.092 276.154 425.473 277.651C428.211 280.618 428.662 283.947 427.95 287.091C427.232 290.261 425.328 293.232 423.368 295.34C422.042 296.608 420.106 298.302 418.032 299.828C416.022 301.307 413.937 302.586 412.177 303.197M400.904 295.718L412.405 303.272C412.33 303.248 412.253 303.223 412.177 303.197M411.61 277.444C411.602 277.452 411.594 277.46 411.587 277.469L412.136 277.979L412.686 277.469C412.678 277.46 412.669 277.45 412.66 277.441L411.61 277.444Z" fill="#FFD789" stroke="black" stroke-width="1.5"/>
<path d="M399.116 262.788C397.732 263.845 396.315 264.749 395.124 265.196C393.916 264.751 392.478 263.901 391.085 262.911C389.617 261.868 388.253 260.707 387.335 259.797C385.968 258.268 384.575 256.046 384.011 253.686C383.451 251.343 383.712 248.908 385.581 246.802C386.533 245.731 387.463 245.17 388.321 244.92C389.178 244.669 390.017 244.714 390.809 244.938C392.424 245.396 393.799 246.591 394.537 247.417L395.096 248.044L395.656 247.417C396.406 246.577 397.714 245.39 399.254 244.936C400.008 244.714 400.808 244.67 401.637 244.918C402.468 245.167 403.384 245.727 404.339 246.802C406.222 248.922 406.535 251.3 406.042 253.562C405.545 255.845 404.222 257.992 402.858 259.519C401.927 260.444 400.569 261.677 399.116 262.788Z" fill="#FFD789" stroke="black" stroke-width="1.5"/>
<circle cx="173.688" cy="375.582" r="13.4519" transform="rotate(-23.505 173.688 375.582)" fill="#FFD789" stroke="black" stroke-width="1.5"/>
<circle cx="206.368" cy="347.409" r="13.4519" transform="rotate(-23.505 206.368 347.409)" fill="#FFD789" stroke="black" stroke-width="1.5"/>
<path d="M186.264 369.894L168.234 328.439L206.021 312.006L218.503 340.705" stroke="black" stroke-width="1.5"/>
<path d="M166.639 324.77C164.877 320.718 166.733 316.005 170.784 314.243L193.898 304.19C197.95 302.428 202.663 304.284 204.425 308.336L206.451 312.994L168.665 329.428L166.639 324.77Z" fill="#FFD789" stroke="black" stroke-width="1.5"/>
<path d="M224.598 249.709C220.04 255.36 215.024 260.612 210.376 263.636C204.822 263.348 197.853 261.566 191.096 259.218C184.263 256.845 177.707 253.914 173.144 251.438C166.123 247.081 158.222 240.08 153.486 231.556C148.762 223.053 147.197 213.07 152.747 202.605C155.521 197.373 158.83 194.003 162.323 191.939C165.818 189.874 169.539 189.09 173.176 189.1C180.478 189.119 187.393 192.336 191.224 194.722L191.904 195.146L192.282 194.438C194.415 190.441 198.535 184.275 204.58 180.683C207.59 178.895 211.069 177.749 215.026 177.816C218.983 177.882 223.47 179.162 228.493 182.309C238.549 188.608 242.368 197.726 242.718 207.114C243.069 216.53 239.924 226.211 236.023 233.493C233.301 237.935 229.205 243.997 224.598 249.709Z" fill="black" stroke="black" stroke-width="1.5"/>
<path fill-rule="evenodd" clip-rule="evenodd" d="M148.742 220.137L155.025 209.255L150.204 206.471C150.375 206.001 150.558 205.53 150.756 205.058L155.775 207.956L163.952 193.792L160.836 191.993C161.313 191.67 161.796 191.371 162.282 191.096L164.702 192.493L166.561 189.274C167.232 189.074 167.905 188.909 168.58 188.777L166.001 193.243L180.165 201.42L186.058 191.213C186.531 191.414 186.991 191.619 187.435 191.827L181.464 202.17L194.983 209.976L203.16 195.812L193.811 190.415C194.081 190.007 194.366 189.593 194.664 189.175L203.91 194.513L211.715 180.994L207.356 178.478C207.968 178.235 208.596 178.019 209.24 177.833L212.465 179.695L213.977 177.076C214.543 177.055 215.118 177.059 215.703 177.087L213.764 180.445L227.927 188.622L231.082 183.158C231.494 183.46 231.894 183.767 232.282 184.08L229.226 189.372L241.354 196.374C241.629 197.086 241.874 197.806 242.092 198.532L228.476 190.671L220.671 204.19L234.834 212.368L242.333 199.38C242.524 200.087 242.689 200.8 242.831 201.518L236.134 213.118L242.697 216.907C242.6 217.426 242.496 217.944 242.384 218.459L235.384 214.417L227.206 228.58L236.592 233.999C236.339 234.411 236.075 234.836 235.8 235.273L226.456 229.879L218.279 244.042L226.354 248.705C226.043 249.102 225.729 249.498 225.412 249.893L217.529 245.341L209.724 258.86L214.395 261.557C213.978 261.908 213.562 262.246 213.148 262.569L208.974 260.159L206.741 264.028C206.218 263.954 205.689 263.871 205.152 263.779L207.675 259.409L193.512 251.232L188.894 259.229C188.417 259.055 187.941 258.878 187.468 258.7L192.213 250.482L178.049 242.305L172.499 251.919C172.081 251.657 171.66 251.385 171.237 251.105L176.75 241.555L163.231 233.75L159.195 240.741C158.842 240.349 158.495 239.95 158.153 239.546L161.932 233L150.256 226.259C150.008 225.559 149.783 224.852 149.583 224.138L162.682 231.701L170.487 218.182L156.324 210.005L149.154 222.424C148.987 221.669 148.849 220.907 148.742 220.137ZM171.237 216.883L157.074 208.706L165.251 194.542L179.415 202.719L171.237 216.883ZM205.209 195.263L213.014 181.744L227.177 189.921L219.372 203.44L205.209 195.263ZM216.23 244.591L208.425 258.11L194.262 249.933L202.067 236.414L216.23 244.591ZM200.768 235.664L192.963 249.183L178.799 241.006L186.604 227.487L200.768 235.664ZM185.305 226.737L177.5 240.256L163.981 232.451L171.786 218.932L185.305 226.737ZM186.055 225.438L172.536 217.633L180.714 203.469L194.233 211.275L186.055 225.438ZM196.282 210.726L204.459 196.562L218.622 204.739L210.445 218.903L196.282 210.726ZM211.744 219.653L219.921 205.489L234.084 213.667L225.907 227.83L211.744 219.653ZM210.994 220.952L225.157 229.129L216.98 243.292L202.817 235.115L210.994 220.952ZM209.695 220.202L201.518 234.365L187.354 226.188L195.532 212.025L209.695 220.202Z" fill="#FFD789"/>
<rect x="109.75" y="393.25" width="8.5" height="27.5" rx="4.25" transform="rotate(-90 109.75 393.25)" fill="#FFD789" stroke="black" stroke-width="1.5"/>
<circle cx="292.5" cy="166.5" r="14.75" fill="#FFD789" stroke="black" stroke-width="1.5"/>
<path d="M312.44 246.091C308.968 250.627 303.787 252.924 300.855 253.923C299.695 254.319 298.584 253.468 298.663 252.246C298.862 249.154 299.726 243.553 303.198 239.017C306.67 234.481 311.851 232.184 314.784 231.185C315.943 230.789 317.054 231.64 316.975 232.862C316.776 235.954 315.912 241.555 312.44 246.091Z" fill="black"/>
<path d="M269.145 299.376C269.627 295.602 270.957 289.101 273.42 286.113C276.847 281.955 280.518 275.596 281.008 274.373C281.183 273.935 281.422 272.741 281.712 271.289C282.231 268.692 282.915 265.269 283.7 263.857C284.924 261.656 288.841 256.764 292.757 257.009C294.989 257.148 295.313 257.605 295.541 257.928C295.714 258.171 296.207 258.581 297.05 258.476C297.894 258.371 299.611 257.498 299.611 257.498C300.966 256.764 305.877 256.471 308.423 261.167C310.44 264.888 311.572 267.823 312.068 270.22C312.068 270.22 312.095 273.693 312.059 274.129C311.939 275.568 311.533 276.263 310.738 277.351C309.912 278.482 308.968 279.775 308.423 281.955C307.199 286.847 306.418 298.049 321.396 300.543C324.333 301.032 325.067 302.744 322.13 309.103C321.549 310.576 320.356 313.033 318.753 315.339C313.549 321.261 305.915 325 297.408 325C282.653 325 267.342 313.505 269.145 299.376Z" fill="black"/>
<path d="M269.145 299.376C269.627 295.602 270.957 289.101 273.42 286.113C276.847 281.955 280.518 275.596 281.008 274.373C281.183 273.935 281.422 272.741 281.712 271.289C282.231 268.692 282.915 265.269 283.7 263.857C284.924 261.656 288.841 256.764 292.757 257.009C294.989 257.148 295.313 257.605 295.541 257.928C295.714 258.171 296.207 258.581 297.05 258.476C297.894 258.371 299.611 257.498 299.611 257.498C300.966 256.764 305.877 256.471 308.423 261.167C310.44 264.888 311.572 267.823 312.068 270.22C312.068 270.22 312.095 273.693 312.059 274.129C311.939 275.568 311.533 276.263 310.738 277.351C309.912 278.482 308.968 279.775 308.423 281.955C307.199 286.847 306.418 298.049 321.396 300.543C324.333 301.032 325.067 302.744 322.13 309.103C321.549 310.576 320.356 313.033 318.753 315.339C313.549 321.261 305.915 325 297.408 325C282.653 325 267.342 313.505 269.145 299.376Z" fill="black"/>
<path fill-rule="evenodd" clip-rule="evenodd" d="M310.029 264.361C311.071 266.629 311.723 268.554 312.067 270.22C312.067 270.22 312.094 273.693 312.058 274.128C311.938 275.567 311.532 276.262 310.738 277.35C310.382 277.837 310.005 278.354 309.647 278.957L271.688 289.129C272.188 287.953 272.763 286.908 273.419 286.113C276.846 281.955 280.518 275.596 281.007 274.373C281.154 274.007 281.344 273.115 281.572 271.986L310.029 264.361Z" fill="white"/>
<mask id="path-21-inside-1_92_12284" fill="white">
<path fill-rule="evenodd" clip-rule="evenodd" d="M295.99 324.931C296.656 324.977 297.323 325 297.989 325C306.496 325 314.13 321.261 319.334 315.339C320.937 313.033 322.13 310.576 322.711 309.103C325.648 302.744 324.914 301.032 321.977 300.543C306.999 298.049 307.78 286.847 309.004 281.955C309.549 279.775 310.493 278.482 311.319 277.351C312.114 276.263 312.52 275.568 312.64 274.129C312.672 273.737 312.654 270.883 312.649 270.317C312.649 270.252 312.642 270.188 312.629 270.124C312.123 267.744 310.994 264.838 309.004 261.167C307.538 258.463 305.288 257.413 303.384 257.149C302.436 257.018 302.322 258.145 303.059 258.756C303.779 259.353 304.448 260.141 305.004 261.167C306.994 264.838 308.123 267.744 308.629 270.124C308.642 270.188 308.649 270.252 308.65 270.317C308.654 270.883 308.672 273.737 308.64 274.129C308.52 275.568 308.114 276.263 307.319 277.351C306.493 278.482 305.549 279.775 305.004 281.955C303.78 286.847 302.999 298.049 317.977 300.543C320.914 301.032 321.648 302.744 318.711 309.103C318.13 310.576 316.937 313.033 315.334 315.339C310.542 320.793 303.689 324.395 295.99 324.931ZM294.495 258.241C295.169 257.998 295.192 257.247 294.485 257.131C294.172 257.079 293.795 257.037 293.338 257.009C292.993 256.987 292.649 257.006 292.306 257.058C291.96 257.111 291.92 257.642 292.122 257.928V257.928L292.122 257.928C292.295 258.171 292.788 258.581 293.631 258.476C293.869 258.447 294.176 258.356 294.495 258.241Z"/>
</mask>
<path fill-rule="evenodd" clip-rule="evenodd" d="M295.99 324.931C296.656 324.977 297.323 325 297.989 325C306.496 325 314.13 321.261 319.334 315.339C320.937 313.033 322.13 310.576 322.711 309.103C325.648 302.744 324.914 301.032 321.977 300.543C306.999 298.049 307.78 286.847 309.004 281.955C309.549 279.775 310.493 278.482 311.319 277.351C312.114 276.263 312.52 275.568 312.64 274.129C312.672 273.737 312.654 270.883 312.649 270.317C312.649 270.252 312.642 270.188 312.629 270.124C312.123 267.744 310.994 264.838 309.004 261.167C307.538 258.463 305.288 257.413 303.384 257.149C302.436 257.018 302.322 258.145 303.059 258.756C303.779 259.353 304.448 260.141 305.004 261.167C306.994 264.838 308.123 267.744 308.629 270.124C308.642 270.188 308.649 270.252 308.65 270.317C308.654 270.883 308.672 273.737 308.64 274.129C308.52 275.568 308.114 276.263 307.319 277.351C306.493 278.482 305.549 279.775 305.004 281.955C303.78 286.847 302.999 298.049 317.977 300.543C320.914 301.032 321.648 302.744 318.711 309.103C318.13 310.576 316.937 313.033 315.334 315.339C310.542 320.793 303.689 324.395 295.99 324.931ZM294.495 258.241C295.169 257.998 295.192 257.247 294.485 257.131C294.172 257.079 293.795 257.037 293.338 257.009C292.993 256.987 292.649 257.006 292.306 257.058C291.96 257.111 291.92 257.642 292.122 257.928V257.928L292.122 257.928C292.295 258.171 292.788 258.581 293.631 258.476C293.869 258.447 294.176 258.356 294.495 258.241Z" fill="black"/>
<path d="M295.99 324.931L295.921 323.933L295.921 325.928L295.99 324.931ZM319.334 315.339L320.085 315.999L320.122 315.956L320.155 315.91L319.334 315.339ZM322.711 309.103L321.803 308.683L321.791 308.709L321.781 308.736L322.711 309.103ZM321.977 300.543L321.812 301.529L321.812 301.529L321.977 300.543ZM309.004 281.955L308.033 281.713L308.033 281.713L309.004 281.955ZM311.319 277.351L312.127 277.941L312.127 277.941L311.319 277.351ZM312.64 274.129L311.643 274.046L311.643 274.046L312.64 274.129ZM309.004 261.167L309.883 260.69L309.883 260.69L309.004 261.167ZM305.004 261.167L305.883 260.69L305.883 260.69L305.004 261.167ZM308.64 274.129L307.643 274.046L307.643 274.046L308.64 274.129ZM307.319 277.351L308.127 277.941L308.127 277.941L307.319 277.351ZM305.004 281.955L304.034 281.713L304.034 281.713L305.004 281.955ZM317.977 300.543L317.812 301.529L317.812 301.529L317.977 300.543ZM318.711 309.103L317.803 308.683L317.791 308.709L317.781 308.736L318.711 309.103ZM315.334 315.339L316.085 315.999L316.123 315.956L316.155 315.91L315.334 315.339ZM293.338 257.009L293.4 256.011L293.4 256.011L293.338 257.009ZM292.122 257.928L291.306 258.506L291.306 258.506L292.122 257.928ZM293.631 258.476L293.754 259.469L293.754 259.469L293.631 258.476ZM292.306 257.058L292.458 258.047L292.306 257.058ZM308.629 270.124L307.651 270.332L308.629 270.124ZM308.65 270.317L309.65 270.31L308.65 270.317ZM303.384 257.149L303.247 258.14L303.384 257.149ZM312.649 270.317L313.649 270.31L312.649 270.317ZM312.629 270.124L311.651 270.332L312.629 270.124ZM297.989 324C297.346 324 296.703 323.977 296.059 323.933L295.921 325.928C296.61 325.976 297.3 326 297.989 326V324ZM318.583 314.679C313.561 320.394 306.197 324 297.989 324V326C306.796 326 314.699 322.129 320.085 315.999L318.583 314.679ZM321.781 308.736C321.224 310.147 320.066 312.533 318.513 314.768L320.155 315.91C321.808 313.532 323.036 311.005 323.641 309.47L321.781 308.736ZM321.812 301.529C322.48 301.64 322.893 301.803 323.142 301.991C323.35 302.148 323.499 302.362 323.557 302.763C323.62 303.208 323.567 303.879 323.286 304.881C323.007 305.872 322.526 307.118 321.803 308.683L323.619 309.522C324.364 307.908 324.893 306.555 325.211 305.422C325.527 304.299 325.657 303.319 325.537 302.48C325.41 301.597 325.009 300.894 324.346 300.394C323.722 299.924 322.942 299.69 322.141 299.556L321.812 301.529ZM308.033 281.713C307.399 284.246 306.848 288.517 308.489 292.527C310.167 296.627 314.045 300.236 321.812 301.529L322.141 299.556C314.93 298.356 311.71 295.117 310.34 291.769C308.933 288.332 309.384 284.556 309.974 282.198L308.033 281.713ZM310.512 276.761C309.672 277.911 308.629 279.334 308.033 281.713L309.974 282.198C310.47 280.215 311.314 279.054 312.127 277.941L310.512 276.761ZM311.643 274.046C311.59 274.678 311.48 275.1 311.317 275.468C311.148 275.852 310.903 276.225 310.512 276.761L312.127 277.941C312.53 277.389 312.885 276.87 313.147 276.275C313.417 275.664 313.569 275.018 313.636 274.212L311.643 274.046ZM311.649 270.325C311.652 270.607 311.657 271.459 311.658 272.289C311.659 272.705 311.658 273.112 311.655 273.439C311.654 273.603 311.652 273.743 311.65 273.853C311.649 273.908 311.647 273.954 311.646 273.989C311.645 274.006 311.645 274.02 311.644 274.031C311.643 274.042 311.643 274.046 311.643 274.046L313.636 274.212C313.657 273.961 313.659 273.088 313.658 272.287C313.657 271.451 313.651 270.593 313.649 270.31L311.649 270.325ZM308.124 261.643C310.089 265.267 311.171 268.079 311.651 270.332L313.607 269.916C313.074 267.409 311.899 264.41 309.883 260.69L308.124 261.643ZM303.247 258.14C304.888 258.367 306.834 259.262 308.124 261.643L309.883 260.69C308.242 257.664 305.689 256.459 303.522 256.159L303.247 258.14ZM302.42 259.526C303.04 260.04 303.628 260.727 304.125 261.643L305.883 260.69C305.268 259.555 304.518 258.667 303.697 257.986L302.42 259.526ZM304.125 261.643C306.089 265.267 307.172 268.079 307.651 270.332L309.607 269.916C309.074 267.409 307.899 264.41 305.883 260.69L304.125 261.643ZM307.65 270.325C307.652 270.607 307.657 271.459 307.658 272.289C307.659 272.705 307.658 273.112 307.656 273.439C307.654 273.603 307.652 273.743 307.65 273.853C307.649 273.908 307.647 273.954 307.646 273.989C307.645 274.006 307.645 274.02 307.644 274.031C307.643 274.042 307.643 274.046 307.643 274.046L309.636 274.212C309.657 273.961 309.659 273.088 309.658 272.287C309.657 271.451 309.652 270.593 309.65 270.31L307.65 270.325ZM307.643 274.046C307.59 274.678 307.48 275.1 307.317 275.468C307.148 275.852 306.903 276.225 306.512 276.761L308.127 277.941C308.53 277.389 308.885 276.87 309.148 276.275C309.417 275.664 309.569 275.018 309.636 274.212L307.643 274.046ZM306.512 276.761C305.672 277.911 304.629 279.334 304.034 281.713L305.974 282.198C306.47 280.215 307.314 279.054 308.127 277.941L306.512 276.761ZM304.034 281.713C303.4 284.246 302.848 288.517 304.489 292.527C306.167 296.627 310.046 300.236 317.812 301.529L318.141 299.556C310.931 298.356 307.71 295.117 306.34 291.769C304.933 288.332 305.384 284.556 305.974 282.198L304.034 281.713ZM317.812 301.529C318.481 301.64 318.893 301.803 319.142 301.991C319.35 302.148 319.5 302.362 319.557 302.763C319.621 303.208 319.567 303.879 319.286 304.881C319.008 305.872 318.526 307.118 317.803 308.683L319.619 309.522C320.364 307.908 320.893 306.555 321.211 305.422C321.527 304.299 321.657 303.319 321.537 302.48C321.411 301.597 321.009 300.894 320.346 300.394C319.723 299.924 318.942 299.69 318.141 299.556L317.812 301.529ZM317.781 308.736C317.224 310.147 316.067 312.533 314.513 314.768L316.155 315.91C317.808 313.532 319.036 311.005 319.641 309.47L317.781 308.736ZM314.583 314.679C309.958 319.943 303.346 323.416 295.921 323.933L296.059 325.928C304.031 325.374 311.125 321.644 316.085 315.999L314.583 314.679ZM293.276 258.007C293.707 258.034 294.05 258.073 294.323 258.117L294.647 256.144C294.294 256.086 293.883 256.041 293.4 256.011L293.276 258.007ZM292.458 258.047C292.735 258.004 293.008 257.99 293.276 258.007L293.4 256.011C292.979 255.984 292.562 256.007 292.154 256.07L292.458 258.047ZM291.306 258.506L291.306 258.506L292.938 257.35L292.938 257.35L291.306 258.506ZM291.306 258.506C291.662 259.008 292.499 259.625 293.754 259.469L293.507 257.484C293.278 257.513 293.137 257.469 293.057 257.431C292.965 257.386 292.929 257.336 292.938 257.349L291.306 258.506ZM293.754 259.469C294.107 259.425 294.499 259.302 294.834 259.181L294.156 257.3C293.853 257.409 293.631 257.468 293.507 257.484L293.754 259.469ZM292.154 256.07C291.38 256.189 291.086 256.846 291.021 257.248C290.956 257.653 291.038 258.127 291.306 258.506L292.938 257.349C292.978 257.406 292.991 257.451 292.995 257.471C293 257.493 293.003 257.522 292.996 257.564C292.99 257.602 292.968 257.695 292.885 257.8C292.789 257.92 292.638 258.019 292.458 258.047L292.154 256.07ZM307.651 270.332C307.65 270.331 307.65 270.329 307.65 270.327C307.65 270.325 307.65 270.324 307.65 270.325L309.65 270.31C309.649 270.179 309.635 270.048 309.607 269.916L307.651 270.332ZM294.323 258.117C294.329 258.118 294.248 258.106 294.157 258.011C294.062 257.911 294.007 257.772 294.008 257.631C294.01 257.347 294.199 257.284 294.156 257.3L294.834 259.181C295.465 258.954 296.003 258.394 296.008 257.645C296.013 256.813 295.372 256.263 294.647 256.144L294.323 258.117ZM303.522 256.159C303.086 256.098 302.626 256.17 302.24 256.451C301.858 256.73 301.664 257.132 301.602 257.515C301.483 258.253 301.817 259.026 302.42 259.526L303.697 257.986C303.639 257.938 303.606 257.887 303.59 257.848C303.572 257.805 303.583 257.797 303.577 257.833C303.57 257.874 303.536 257.981 303.419 258.067C303.299 258.154 303.208 258.134 303.247 258.14L303.522 256.159ZM313.649 270.31C313.648 270.179 313.635 270.048 313.607 269.916L311.651 270.332C311.65 270.331 311.65 270.329 311.65 270.327C311.649 270.325 311.649 270.324 311.649 270.325L313.649 270.31Z" fill="black" mask="url(#path-21-inside-1_92_12284)"/>
<path d="M395.235 328.85C395.163 328.501 394.856 328.25 394.5 328.25C394.144 328.25 393.837 328.501 393.765 328.85L389.193 351.193L366.85 355.765C366.501 355.837 366.25 356.144 366.25 356.5C366.25 356.856 366.501 357.163 366.85 357.235L389.193 361.807L393.765 384.15C393.837 384.499 394.144 384.75 394.5 384.75C394.856 384.75 395.163 384.499 395.235 384.15L399.807 361.807L422.15 357.235C422.499 357.163 422.75 356.856 422.75 356.5C422.75 356.144 422.499 355.837 422.15 355.765L399.807 351.193L395.235 328.85Z" fill="white" stroke="black" stroke-width="1.5" stroke-linejoin="round"/>
<path d="M97.2348 310.85C97.1634 310.501 96.8563 310.25 96.5 310.25C96.1437 310.25 95.8366 310.501 95.7652 310.85L91.193 333.193L68.8496 337.765C68.5006 337.837 68.25 338.144 68.25 338.5C68.25 338.856 68.5006 339.163 68.8496 339.235L91.193 343.807L95.7652 366.15C95.8366 366.499 96.1437 366.75 96.5 366.75C96.8563 366.75 97.1634 366.499 97.2348 366.15L101.807 343.807L124.15 339.235C124.499 339.163 124.75 338.856 124.75 338.5C124.75 338.144 124.499 337.837 124.15 337.765L101.807 333.193L97.2348 310.85Z" fill="white" stroke="black" stroke-width="1.5" stroke-linejoin="round"/>
</svg>
