<svg width="512" height="512" viewBox="0 0 512 512" fill="none" xmlns="http://www.w3.org/2000/svg">
<rect x="-0.75" y="-0.75" width="354.5" height="302.5" rx="23.25" transform="matrix(3.41176e-08 -1 -1 -5.60029e-08 382.5 442.5)" fill="black" stroke="black" stroke-width="1.5"/>
<rect x="-0.75" y="-0.75" width="353.5" height="303.5" rx="23.25" transform="matrix(3.41176e-08 -1 -1 -5.60029e-08 395.5 433.5)" fill="#FFD789" stroke="black" stroke-width="1.5"/>
<rect x="-0.75" y="-0.75" width="293.5" height="276.5" rx="15.25" transform="matrix(3.41176e-08 -1 -1 -5.60029e-08 382.5 398.5)" fill="#9296FF" stroke="black" stroke-width="1.5"/>
<mask id="path-4-inside-1_92_12648" fill="white">
<path fill-rule="evenodd" clip-rule="evenodd" d="M384.001 384C384.001 392.837 376.837 400 368.001 400H359.032C367.854 399.983 375.001 392.826 375.001 384L375.001 121C375.001 112.163 367.837 105 359.001 105L121.969 105C121.979 105 121.99 105 122.001 105L368.001 105C376.837 105 384.001 112.163 384.001 121V384Z"/>
</mask>
<path fill-rule="evenodd" clip-rule="evenodd" d="M384.001 384C384.001 392.837 376.837 400 368.001 400H359.032C367.854 399.983 375.001 392.826 375.001 384L375.001 121C375.001 112.163 367.837 105 359.001 105L121.969 105C121.979 105 121.99 105 122.001 105L368.001 105C376.837 105 384.001 112.163 384.001 121V384Z" fill="black"/>
<path d="M359.032 400L359.029 398.5L359.032 401.5V400ZM375.001 384L373.501 384V384H375.001ZM375.001 121L376.501 121V121H375.001ZM359.001 105L359.001 103.5L359.001 105ZM121.969 105L121.966 103.5L121.969 106.5L121.969 105ZM122.001 105L122.001 103.5L122.001 105ZM368.001 105L368.001 106.5H368.001V105ZM368.001 401.5C377.666 401.5 385.501 393.665 385.501 384H382.501C382.501 392.008 376.009 398.5 368.001 398.5V401.5ZM359.032 401.5H368.001V398.5H359.032V401.5ZM359.035 401.5C368.684 401.481 376.501 393.653 376.501 384H373.501C373.501 391.999 367.024 398.485 359.029 398.5L359.035 401.5ZM376.501 384L376.501 121L373.501 121L373.501 384L376.501 384ZM376.501 121C376.501 111.335 368.666 103.5 359.001 103.5L359.001 106.5C367.009 106.5 373.501 112.992 373.501 121H376.501ZM359.001 103.5L121.969 103.5L121.969 106.5L359.001 106.5L359.001 103.5ZM122.001 103.5C121.989 103.5 121.977 103.5 121.966 103.5L121.972 106.5C121.981 106.5 121.991 106.5 122.001 106.5L122.001 103.5ZM368.001 103.5L122.001 103.5L122.001 106.5L368.001 106.5L368.001 103.5ZM385.501 121C385.501 111.335 377.666 103.5 368.001 103.5V106.5C376.009 106.5 382.501 112.992 382.501 121H385.501ZM385.501 384V121H382.501V384H385.501Z" fill="black" mask="url(#path-4-inside-1_92_12648)"/>
<circle cx="248" cy="93" r="4.25" fill="black" stroke="black" stroke-width="1.5"/>
<rect x="-0.75" y="-0.75" width="155.5" height="280.5" rx="23.25" transform="matrix(3.41176e-08 -1 -1 -5.60029e-08 407.5 320.5)" fill="black" stroke="black" stroke-width="1.5"/>
<rect x="-0.75" y="-0.75" width="155.5" height="280.5" rx="23.25" transform="matrix(3.41176e-08 -1 -1 -5.60029e-08 414.5 311.5)" fill="#FFD789" stroke="black" stroke-width="1.5"/>
<path d="M391 288L169 288" stroke="black" stroke-width="1.5" stroke-linecap="round"/>
<path d="M310.5 288.107L168 288.107" stroke="black" stroke-width="8" stroke-linecap="round"/>
<path d="M152 342L247 342" stroke="black" stroke-width="1.5" stroke-linecap="round"/>
<path d="M152 356L192 356" stroke="black" stroke-width="1.5" stroke-linecap="round"/>
<rect x="160.75" y="268.25" width="95.5" height="229.5" rx="15.25" transform="rotate(-90 160.75 268.25)" fill="#FFD789" stroke="black" stroke-width="1.5"/>
<path d="M290.625 223.315L270.375 235.006C268.208 236.257 265.5 234.693 265.5 232.191L265.5 208.809C265.5 206.307 268.208 204.743 270.375 205.994L290.625 217.685C292.792 218.936 292.792 222.064 290.625 223.315Z" fill="#9296FF" stroke="black" stroke-width="1.5"/>
<rect x="274" y="444" width="77" height="153" rx="38.5" transform="rotate(-90 274 444)" fill="black"/>
<rect x="279.75" y="435.25" width="76.5" height="151.5" rx="38.25" transform="rotate(-90 279.75 435.25)" fill="#FFD789" stroke="black" stroke-width="1.5"/>
<rect width="13" height="31" rx="4" transform="matrix(-1 0 0 1 404 381)" fill="black"/>
<path d="M339 393.536C341.667 395.075 341.667 398.925 339 400.464L321 410.856C318.333 412.396 315 410.472 315 407.392L315 386.608C315 383.528 318.333 381.604 321 383.144L339 393.536Z" fill="black"/>
<path d="M386 393.536C388.667 395.075 388.667 398.925 386 400.464L368 410.856C365.333 412.396 362 410.472 362 407.392L362 386.608C362 383.528 365.333 381.604 368 383.144L386 393.536Z" fill="black"/>
<path d="M345.735 66.8496C345.663 66.5006 345.356 66.25 345 66.25C344.644 66.25 344.337 66.5006 344.265 66.8496L339.948 87.9478L318.85 92.2652C318.501 92.3366 318.25 92.6437 318.25 93C318.25 93.3563 318.501 93.6634 318.85 93.7348L339.948 98.0522L344.265 119.15C344.337 119.499 344.644 119.75 345 119.75C345.356 119.75 345.663 119.499 345.735 119.15L350.052 98.0522L371.15 93.7348C371.499 93.6634 371.75 93.3563 371.75 93C371.75 92.6437 371.499 92.3366 371.15 92.2652L350.052 87.9478L345.735 66.8496Z" fill="white" stroke="black" stroke-width="1.5" stroke-linejoin="round"/>
<path d="M166.735 369.85C166.663 369.501 166.356 369.25 166 369.25C165.644 369.25 165.337 369.501 165.265 369.85L160.948 390.948L139.85 395.265C139.501 395.337 139.25 395.644 139.25 396C139.25 396.356 139.501 396.663 139.85 396.735L160.948 401.052L165.265 422.15C165.337 422.499 165.644 422.75 166 422.75C166.356 422.75 166.663 422.499 166.735 422.15L171.052 401.052L192.15 396.735C192.499 396.663 192.75 396.356 192.75 396C192.75 395.644 192.499 395.337 192.15 395.265L171.052 390.948L166.735 369.85Z" fill="white" stroke="black" stroke-width="1.5" stroke-linejoin="round"/>
</svg>
