<svg width="512" height="512" viewBox="0 0 512 512" fill="none" xmlns="http://www.w3.org/2000/svg">
<path d="M408.5 419C428.382 419 444.5 402.882 444.5 383L444.5 260C444.5 240.118 428.382 224 408.5 224L206 224C194.678 224 185.5 214.822 185.5 203.5V203.5C185.5 192.178 176.322 183 165 183L91 183C77.7452 183 67 193.745 67 207L67 383C67 402.882 83.1177 419 103 419L408.5 419Z" fill="black"/>
<path d="M444.25 373L444.25 250C444.25 230.532 428.468 214.75 409 214.75L265 214.75C253.264 214.75 243.75 205.236 243.75 193.5C243.75 182.592 234.908 173.75 224 173.75L150 173.75C137.159 173.75 126.75 184.159 126.75 197L126.75 373C126.75 392.468 142.532 408.25 162 408.25L409 408.25C428.468 408.25 444.25 392.468 444.25 373Z" fill="#FFD789" stroke="black" stroke-width="1.5"/>
<path d="M421.25 385L421.25 217C421.25 204.159 410.841 193.75 398 193.75L150 193.75C137.159 193.75 126.75 204.159 126.75 217L126.75 385C126.75 397.841 137.159 408.25 150 408.25L398 408.25C410.841 408.25 421.25 397.841 421.25 385Z" fill="white" stroke="black" stroke-width="1.5"/>
<path d="M357.25 184.5C357.25 232.959 317.743 272.25 269 272.25C220.257 272.25 180.75 232.959 180.75 184.5C180.75 136.041 220.257 96.75 269 96.75C317.743 96.75 357.25 136.041 357.25 184.5Z" fill="black" stroke="black" stroke-width="1.5"/>
<circle cx="287.5" cy="181.5" r="87.75" fill="#9296FF" stroke="black" stroke-width="1.5"/>
<path d="M296.25 181.5C296.25 185.74 292.597 189.25 288 189.25C283.403 189.25 279.75 185.74 279.75 181.5C279.75 177.26 283.403 173.75 288 173.75C292.597 173.75 296.25 177.26 296.25 181.5Z" fill="#FFD789" stroke="black" stroke-width="1.5"/>
<circle cx="254.5" cy="147.5" r="27.75" fill="black" stroke="black" stroke-width="1.5"/>
<mask id="path-8-inside-1_92_12315" fill="white">
<path fill-rule="evenodd" clip-rule="evenodd" d="M263.821 174.449C274.872 170.611 282.806 160.106 282.806 147.748C282.806 132.141 270.154 119.489 254.547 119.489C247.584 119.489 241.209 122.008 236.283 126.184C239.188 125.175 242.308 124.627 245.557 124.627C261.163 124.627 273.815 137.279 273.815 152.886C273.815 161.529 269.935 169.266 263.821 174.449Z"/>
</mask>
<path fill-rule="evenodd" clip-rule="evenodd" d="M263.821 174.449C274.872 170.611 282.806 160.106 282.806 147.748C282.806 132.141 270.154 119.489 254.547 119.489C247.584 119.489 241.209 122.008 236.283 126.184C239.188 125.175 242.308 124.627 245.557 124.627C261.163 124.627 273.815 137.279 273.815 152.886C273.815 161.529 269.935 169.266 263.821 174.449Z" fill="#9296FF"/>
<path d="M263.821 174.449L262.851 173.305L264.313 175.866L263.821 174.449ZM236.283 126.184L235.313 125.04L236.775 127.601L236.283 126.184ZM281.306 147.748C281.306 159.448 273.796 169.398 263.329 173.032L264.313 175.866C275.949 171.825 284.306 160.764 284.306 147.748H281.306ZM254.547 120.989C269.326 120.989 281.306 132.969 281.306 147.748H284.306C284.306 131.313 270.982 117.989 254.547 117.989V120.989ZM237.253 127.328C241.918 123.373 247.952 120.989 254.547 120.989V117.989C247.215 117.989 240.5 120.643 235.313 125.04L237.253 127.328ZM236.775 127.601C239.524 126.646 242.478 126.127 245.557 126.127V123.127C242.139 123.127 238.852 123.704 235.791 124.767L236.775 127.601ZM245.557 126.127C260.335 126.127 272.315 138.107 272.315 152.886H275.315C275.315 136.45 261.992 123.127 245.557 123.127V126.127ZM272.315 152.886C272.315 161.07 268.643 168.394 262.851 173.305L264.791 175.593C271.226 170.137 275.315 161.988 275.315 152.886H272.315Z" fill="black" mask="url(#path-8-inside-1_92_12315)"/>
<path d="M254.5 184.75C269.814 184.75 282.25 197.386 282.25 213C282.25 228.614 269.814 241.25 254.5 241.25C239.186 241.25 226.75 228.614 226.75 213C226.75 197.386 239.186 184.75 254.5 184.75Z" fill="black" stroke="black" stroke-width="1.5"/>
<mask id="path-11-inside-2_92_12315" fill="white">
<path fill-rule="evenodd" clip-rule="evenodd" d="M282.806 213.255C282.806 197.649 270.154 184.997 254.547 184.997C247.584 184.997 241.209 187.516 236.283 191.692C239.188 190.683 242.308 190.135 245.557 190.135C261.163 190.135 273.815 202.787 273.815 218.393C273.815 227.037 269.935 234.774 263.821 239.957C274.872 236.119 282.806 225.614 282.806 213.255Z"/>
</mask>
<path fill-rule="evenodd" clip-rule="evenodd" d="M282.806 213.255C282.806 197.649 270.154 184.997 254.547 184.997C247.584 184.997 241.209 187.516 236.283 191.692C239.188 190.683 242.308 190.135 245.557 190.135C261.163 190.135 273.815 202.787 273.815 218.393C273.815 227.037 269.935 234.774 263.821 239.957C274.872 236.119 282.806 225.614 282.806 213.255Z" fill="#9296FF"/>
<path d="M254.547 184.997L254.547 186.497H254.547L254.547 184.997ZM282.806 213.255L284.306 213.255L284.306 213.255L282.806 213.255ZM236.283 191.692L235.313 190.548L236.775 193.109L236.283 191.692ZM245.557 190.135L245.557 191.635H245.557L245.557 190.135ZM273.815 218.393L275.315 218.393L275.315 218.393L273.815 218.393ZM263.821 239.957L262.851 238.813L264.313 241.374L263.821 239.957ZM254.547 186.497C269.326 186.497 281.306 198.477 281.306 213.255L284.306 213.255C284.306 196.82 270.982 183.497 254.547 183.497L254.547 186.497ZM237.253 192.836C241.918 188.881 247.952 186.497 254.547 186.497V183.497C247.215 183.497 240.5 186.15 235.313 190.548L237.253 192.836ZM236.775 193.109C239.524 192.154 242.478 191.635 245.557 191.635V188.635C242.139 188.635 238.852 189.212 235.791 190.275L236.775 193.109ZM245.557 191.635C260.335 191.635 272.315 203.615 272.315 218.393L275.315 218.393C275.315 201.958 261.992 188.635 245.557 188.635L245.557 191.635ZM272.315 218.393C272.315 226.577 268.643 233.902 262.851 238.813L264.791 241.101C271.226 235.645 275.315 227.496 275.315 218.393H272.315ZM281.306 213.255C281.306 224.955 273.796 234.905 263.329 238.54L264.313 241.374C275.949 237.333 284.306 226.272 284.306 213.255H281.306Z" fill="black" mask="url(#path-11-inside-2_92_12315)"/>
<path d="M348.25 213C348.25 228.614 335.814 241.25 320.5 241.25C305.186 241.25 292.75 228.614 292.75 213C292.75 197.386 305.186 184.75 320.5 184.75C335.814 184.75 348.25 197.386 348.25 213Z" fill="black" stroke="black" stroke-width="1.5"/>
<mask id="path-14-inside-3_92_12315" fill="white">
<path fill-rule="evenodd" clip-rule="evenodd" d="M329.329 239.957C340.38 236.119 348.313 225.614 348.313 213.255C348.313 197.649 335.662 184.997 320.055 184.997C313.092 184.997 306.717 187.516 301.791 191.692C304.696 190.683 307.816 190.135 311.064 190.135C326.671 190.135 339.323 202.787 339.323 218.393C339.323 227.037 335.442 234.774 329.329 239.957Z"/>
</mask>
<path fill-rule="evenodd" clip-rule="evenodd" d="M329.329 239.957C340.38 236.119 348.313 225.614 348.313 213.255C348.313 197.649 335.662 184.997 320.055 184.997C313.092 184.997 306.717 187.516 301.791 191.692C304.696 190.683 307.816 190.135 311.064 190.135C326.671 190.135 339.323 202.787 339.323 218.393C339.323 227.037 335.442 234.774 329.329 239.957Z" fill="#9296FF"/>
<path d="M329.329 239.957L328.359 238.813L329.821 241.374L329.329 239.957ZM301.791 191.692L300.821 190.548L302.283 193.109L301.791 191.692ZM346.813 213.255C346.813 224.955 339.303 234.905 328.836 238.54L329.821 241.374C341.457 237.333 349.813 226.272 349.813 213.255H346.813ZM320.055 186.497C334.833 186.497 346.813 198.477 346.813 213.255H349.813C349.813 196.82 336.49 183.497 320.055 183.497V186.497ZM302.761 192.836C307.426 188.881 313.46 186.497 320.055 186.497V183.497C312.723 183.497 306.007 186.15 300.821 190.548L302.761 192.836ZM302.283 193.109C305.032 192.154 307.986 191.635 311.064 191.635V188.635C307.646 188.635 304.36 189.212 301.299 190.275L302.283 193.109ZM311.064 191.635C325.843 191.635 337.823 203.615 337.823 218.393H340.823C340.823 201.958 327.5 188.635 311.064 188.635V191.635ZM337.823 218.393C337.823 226.577 334.151 233.902 328.359 238.813L330.299 241.101C336.734 235.645 340.823 227.496 340.823 218.393H337.823Z" fill="black" mask="url(#path-14-inside-3_92_12315)"/>
<path d="M320.5 119.75C335.826 119.75 348.25 132.174 348.25 147.5C348.25 162.826 335.826 175.25 320.5 175.25C305.174 175.25 292.75 162.826 292.75 147.5C292.75 132.174 305.174 119.75 320.5 119.75Z" fill="black" stroke="black" stroke-width="1.5"/>
<mask id="path-17-inside-4_92_12315" fill="white">
<path fill-rule="evenodd" clip-rule="evenodd" d="M348.313 147.748C348.313 132.141 335.662 119.489 320.055 119.489C313.092 119.489 306.717 122.008 301.791 126.184C304.696 125.175 307.816 124.627 311.064 124.627C326.671 124.627 339.323 137.279 339.323 152.886C339.323 161.529 335.442 169.266 329.329 174.449C340.38 170.611 348.313 160.106 348.313 147.748Z"/>
</mask>
<path fill-rule="evenodd" clip-rule="evenodd" d="M348.313 147.748C348.313 132.141 335.662 119.489 320.055 119.489C313.092 119.489 306.717 122.008 301.791 126.184C304.696 125.175 307.816 124.627 311.064 124.627C326.671 124.627 339.323 137.279 339.323 152.886C339.323 161.529 335.442 169.266 329.329 174.449C340.38 170.611 348.313 160.106 348.313 147.748Z" fill="#9296FF"/>
<path d="M320.055 119.489L320.055 120.989L320.055 120.989L320.055 119.489ZM301.791 126.184L300.821 125.04L302.283 127.601L301.791 126.184ZM311.064 124.627L311.064 126.127H311.064L311.064 124.627ZM329.329 174.449L328.359 173.305L329.821 175.866L329.329 174.449ZM320.055 120.989C334.833 120.989 346.813 132.969 346.813 147.748H349.813C349.813 131.313 336.49 117.989 320.055 117.989L320.055 120.989ZM302.761 127.328C307.426 123.373 313.46 120.989 320.055 120.989V117.989C312.723 117.989 306.007 120.643 300.821 125.04L302.761 127.328ZM302.283 127.601C305.032 126.646 307.986 126.127 311.064 126.127V123.127C307.646 123.127 304.36 123.704 301.299 124.767L302.283 127.601ZM311.064 126.127C325.843 126.127 337.823 138.107 337.823 152.886H340.823C340.823 136.45 327.5 123.127 311.064 123.127L311.064 126.127ZM337.823 152.886C337.823 161.07 334.151 168.394 328.359 173.305L330.299 175.593C336.734 170.137 340.823 161.988 340.823 152.886H337.823ZM346.813 147.748C346.813 159.448 339.303 169.397 328.837 173.032L329.821 175.866C341.457 171.825 349.813 160.764 349.813 147.748H346.813Z" fill="black" mask="url(#path-17-inside-4_92_12315)"/>
<path d="M387.25 373L387.25 250C387.25 230.532 371.468 214.75 352 214.75L220 214.75C208.264 214.75 198.75 205.236 198.75 193.5C198.75 182.592 189.908 173.75 179 173.75L105 173.75C92.1594 173.75 81.75 184.159 81.75 197L81.75 373C81.75 392.468 97.5319 408.25 117 408.25L352 408.25C371.468 408.25 387.25 392.468 387.25 373Z" fill="#FFD789" stroke="black" stroke-width="1.5"/>
<rect x="-0.75" y="-0.75" width="43.5" height="96.5" rx="7.25" transform="matrix(5.17515e-08 -1 -1 -3.69204e-08 212.5 378.5)" fill="white" stroke="black" stroke-width="1.5"/>
<path d="M134 364L189.5 364" stroke="black" stroke-width="1.5" stroke-linecap="round"/>
<path d="M134 351L163 351" stroke="black" stroke-width="1.5" stroke-linecap="round"/>
<path d="M357.265 390.15C357.337 390.499 357.644 390.75 358 390.75C358.356 390.75 358.663 390.499 358.735 390.15L363.732 365.732L388.15 360.735C388.499 360.663 388.75 360.356 388.75 360C388.75 359.644 388.499 359.337 388.15 359.265L363.732 354.268L358.735 329.85C358.663 329.501 358.356 329.25 358 329.25C357.644 329.25 357.337 329.501 357.265 329.85L352.268 354.268L327.85 359.265C327.501 359.337 327.25 359.644 327.25 360C327.25 360.356 327.501 360.663 327.85 360.735L352.268 365.732L357.265 390.15Z" fill="white" stroke="black" stroke-width="1.5" stroke-linejoin="round"/>
<path d="M135.765 188.15C135.837 188.499 136.144 188.75 136.5 188.75C136.856 188.75 137.163 188.499 137.235 188.15L141.807 165.807L164.15 161.235C164.499 161.163 164.75 160.856 164.75 160.5C164.75 160.144 164.499 159.837 164.15 159.765L141.807 155.193L137.235 132.85C137.163 132.501 136.856 132.25 136.5 132.25C136.144 132.25 135.837 132.501 135.765 132.85L131.193 155.193L108.85 159.765C108.501 159.837 108.25 160.144 108.25 160.5C108.25 160.856 108.501 161.163 108.85 161.235L131.193 165.807L135.765 188.15Z" fill="white" stroke="black" stroke-width="1.5" stroke-linejoin="round"/>
</svg>
