<svg width="512" height="512" viewBox="0 0 512 512" fill="none" xmlns="http://www.w3.org/2000/svg">
<rect x="-0.75" y="-0.75" width="283.5" height="291.5" rx="23.25" transform="matrix(3.41176e-08 -1 -1 -5.60029e-08 385.5 416.5)" fill="black" stroke="black" stroke-width="1.5"/>
<rect x="-0.75" y="-0.75" width="283.5" height="291.5" rx="23.25" transform="matrix(3.41176e-08 -1 -1 -5.60029e-08 415.5 416.5)" fill="#FFD789" stroke="black" stroke-width="1.5"/>
<rect x="-0.75" y="-0.75" width="239.5" height="245.5" rx="23.25" transform="matrix(3.41176e-08 -1 -1 -5.60029e-08 392.5 394.5)" fill="#FFD789" stroke="black" stroke-width="1.5"/>
<path d="M415.573 273.693C411.477 279.283 392.205 304.696 363.496 328.703C334.771 352.724 296.703 375.25 255 375.25C213.297 375.25 175.229 352.724 146.504 328.703C117.795 304.696 98.5232 279.283 94.4265 273.693C94.1206 273.276 94.1206 272.724 94.4265 272.307C98.5232 266.717 117.795 241.304 146.504 217.297C175.229 193.276 213.297 170.75 255 170.75C296.703 170.75 334.771 193.276 363.496 217.297C392.205 241.304 411.477 266.717 415.573 272.307C415.879 272.724 415.879 273.276 415.573 273.693Z" fill="black" stroke="black" stroke-width="1.5"/>
<path d="M424.573 257.693C420.477 263.283 401.205 288.696 372.496 312.703C343.771 336.724 305.703 359.25 264 359.25C222.297 359.25 184.229 336.724 155.504 312.703C126.795 288.696 107.523 263.283 103.426 257.693C103.121 257.276 103.121 256.724 103.427 256.307C107.523 250.717 126.795 225.304 155.504 201.297C184.229 177.276 222.297 154.75 264 154.75C305.703 154.75 343.771 177.276 372.496 201.297C401.205 225.304 420.477 250.717 424.573 256.307C424.879 256.724 424.879 257.276 424.573 257.693Z" fill="#9296FF" stroke="black" stroke-width="1.5"/>
<mask id="path-6-inside-1_92_14439" fill="white">
<path fill-rule="evenodd" clip-rule="evenodd" d="M234.812 188.973V241.172L203.909 214.429C195.509 226.454 190.582 241.085 190.582 256.866C190.582 297.842 223.799 331.059 264.774 331.059C305.75 331.059 338.967 297.842 338.967 256.866C338.967 215.891 305.75 182.674 264.774 182.674C254.112 182.674 243.975 184.923 234.812 188.973Z"/>
</mask>
<path fill-rule="evenodd" clip-rule="evenodd" d="M234.812 188.973V241.172L203.909 214.429C195.509 226.454 190.582 241.085 190.582 256.866C190.582 297.842 223.799 331.059 264.774 331.059C305.75 331.059 338.967 297.842 338.967 256.866C338.967 215.891 305.75 182.674 264.774 182.674C254.112 182.674 243.975 184.923 234.812 188.973Z" fill="black"/>
<path d="M234.812 241.172L233.831 242.306L236.312 244.453V241.172H234.812ZM234.812 188.973L234.206 187.601L233.312 187.996V188.973H234.812ZM203.909 214.429L204.891 213.295L203.633 212.206L202.68 213.57L203.909 214.429ZM236.312 241.172V188.973H233.312V241.172H236.312ZM202.928 215.563L233.831 242.306L235.794 240.037L204.891 213.295L202.928 215.563ZM192.082 256.866C192.082 241.402 196.909 227.07 205.139 215.288L202.68 213.57C194.109 225.839 189.082 240.768 189.082 256.866H192.082ZM264.774 329.559C224.628 329.559 192.082 297.013 192.082 256.866H189.082C189.082 298.67 222.971 332.559 264.774 332.559V329.559ZM337.467 256.866C337.467 297.013 304.921 329.559 264.774 329.559V332.559C306.578 332.559 340.467 298.67 340.467 256.866H337.467ZM264.774 184.174C304.921 184.174 337.467 216.719 337.467 256.866H340.467C340.467 215.062 306.578 181.174 264.774 181.174V184.174ZM235.419 190.345C244.394 186.378 254.325 184.174 264.774 184.174V181.174C253.899 181.174 243.556 183.468 234.206 187.601L235.419 190.345Z" fill="black" mask="url(#path-6-inside-1_92_14439)"/>
<mask id="path-8-inside-2_92_14439" fill="white">
<path fill-rule="evenodd" clip-rule="evenodd" d="M234.812 207.054V241.171L211.632 221.082C203.874 229.579 199.143 240.886 199.143 253.299C199.143 279.697 220.542 301.096 246.94 301.096C273.337 301.096 294.737 279.697 294.737 253.299C294.737 226.901 273.337 205.502 246.94 205.502C242.749 205.502 238.685 206.041 234.812 207.054Z"/>
</mask>
<path fill-rule="evenodd" clip-rule="evenodd" d="M234.812 207.054V241.171L211.632 221.082C203.874 229.579 199.143 240.886 199.143 253.299C199.143 279.697 220.542 301.096 246.94 301.096C273.337 301.096 294.737 279.697 294.737 253.299C294.737 226.901 273.337 205.502 246.94 205.502C242.749 205.502 238.685 206.041 234.812 207.054Z" fill="white"/>
<path d="M234.812 241.171L233.83 242.305L236.312 244.456V241.171H234.812ZM234.812 207.054L234.433 205.603L233.312 205.896V207.054H234.812ZM211.632 221.082L212.614 219.948L211.51 218.991L210.524 220.071L211.632 221.082ZM236.312 241.171V207.054H233.312V241.171H236.312ZM210.649 222.215L233.83 242.305L235.794 240.038L212.614 219.948L210.649 222.215ZM200.643 253.299C200.643 241.275 205.224 230.325 212.74 222.093L210.524 220.071C202.524 228.833 197.643 240.498 197.643 253.299H200.643ZM246.94 299.596C221.37 299.596 200.643 278.868 200.643 253.299H197.643C197.643 280.525 219.714 302.596 246.94 302.596V299.596ZM293.237 253.299C293.237 278.868 272.509 299.596 246.94 299.596V302.596C274.166 302.596 296.237 280.525 296.237 253.299H293.237ZM246.94 207.002C272.509 207.002 293.237 227.73 293.237 253.299H296.237C296.237 226.073 274.166 204.002 246.94 204.002V207.002ZM235.192 208.505C238.942 207.525 242.878 207.002 246.94 207.002V204.002C242.62 204.002 238.428 204.558 234.433 205.603L235.192 208.505Z" fill="black" mask="url(#path-8-inside-2_92_14439)"/>
<path d="M361.766 92.8473C361.838 92.4994 362.145 92.25 362.5 92.25C362.855 92.25 363.162 92.4994 363.234 92.8473L368.484 118.096L394.148 123.265C394.498 123.335 394.75 123.643 394.75 124C394.75 124.357 394.498 124.665 394.148 124.735L368.484 129.904L363.234 155.153C363.162 155.501 362.855 155.75 362.5 155.75C362.145 155.75 361.838 155.501 361.766 155.153L356.516 129.904L330.852 124.735C330.502 124.665 330.25 124.357 330.25 124C330.25 123.643 330.502 123.335 330.852 123.265L356.516 118.096L361.766 92.8473Z" fill="white" stroke="black" stroke-width="1.5" stroke-linejoin="round"/>
<path d="M175.766 339.847C175.838 339.499 176.145 339.25 176.5 339.25C176.855 339.25 177.162 339.499 177.234 339.847L182.484 365.096L208.148 370.265C208.498 370.335 208.75 370.643 208.75 371C208.75 371.357 208.498 371.665 208.148 371.735L182.484 376.904L177.234 402.153C177.162 402.501 176.855 402.75 176.5 402.75C176.145 402.75 175.838 402.501 175.766 402.153L170.516 376.904L144.852 371.735C144.502 371.665 144.25 371.357 144.25 371C144.25 370.643 144.502 370.335 144.852 370.265L170.516 365.096L175.766 339.847Z" fill="white" stroke="black" stroke-width="1.5" stroke-linejoin="round"/>
</svg>
