<svg width="512" height="512" viewBox="0 0 512 512" fill="none" xmlns="http://www.w3.org/2000/svg">
<path d="M394.573 273.693C390.477 279.283 371.205 304.696 342.496 328.703C313.771 352.724 275.703 375.25 234 375.25C192.297 375.25 154.229 352.724 125.504 328.703C96.7947 304.696 77.5232 279.283 73.4265 273.693C73.1206 273.276 73.1206 272.724 73.4265 272.307C77.5232 266.717 96.7948 241.304 125.504 217.297C154.229 193.276 192.297 170.75 234 170.75C275.703 170.75 313.771 193.276 342.496 217.297C371.205 241.304 390.477 266.717 394.573 272.307C394.879 272.724 394.879 273.276 394.573 273.693Z" fill="black" stroke="black" stroke-width="1.5"/>
<path d="M424.573 238.693C420.477 244.283 401.205 269.696 372.496 293.703C343.771 317.724 305.703 340.25 264 340.25C222.297 340.25 184.229 317.724 155.504 293.703C126.795 269.696 107.523 244.283 103.426 238.693C103.121 238.276 103.121 237.724 103.427 237.307C107.523 231.717 126.795 206.304 155.504 182.297C184.229 158.276 222.297 135.75 264 135.75C305.703 135.75 343.771 158.276 372.496 182.297C401.205 206.304 420.477 231.717 424.573 237.307C424.879 237.724 424.879 238.276 424.573 238.693Z" fill="#FFD789" stroke="black" stroke-width="1.5"/>
<mask id="path-3-inside-1_92_14427" fill="white">
<path fill-rule="evenodd" clip-rule="evenodd" d="M234.812 169.973V222.172L203.909 195.429C195.509 207.454 190.582 222.085 190.582 237.866C190.582 278.842 223.799 312.059 264.774 312.059C305.75 312.059 338.967 278.842 338.967 237.866C338.967 196.891 305.75 163.674 264.774 163.674C254.112 163.674 243.975 165.923 234.812 169.973Z"/>
</mask>
<path fill-rule="evenodd" clip-rule="evenodd" d="M234.812 169.973V222.172L203.909 195.429C195.509 207.454 190.582 222.085 190.582 237.866C190.582 278.842 223.799 312.059 264.774 312.059C305.75 312.059 338.967 278.842 338.967 237.866C338.967 196.891 305.75 163.674 264.774 163.674C254.112 163.674 243.975 165.923 234.812 169.973Z" fill="black"/>
<path d="M234.812 222.172L233.831 223.306L236.312 225.453V222.172H234.812ZM234.812 169.973L234.206 168.601L233.312 168.996V169.973H234.812ZM203.909 195.429L204.891 194.295L203.633 193.206L202.68 194.57L203.909 195.429ZM236.312 222.172V169.973H233.312V222.172H236.312ZM202.928 196.563L233.831 223.306L235.794 221.037L204.891 194.295L202.928 196.563ZM192.082 237.866C192.082 222.402 196.909 208.07 205.139 196.288L202.68 194.57C194.109 206.839 189.082 221.768 189.082 237.866H192.082ZM264.774 310.559C224.628 310.559 192.082 278.013 192.082 237.866H189.082C189.082 279.67 222.971 313.559 264.774 313.559V310.559ZM337.467 237.866C337.467 278.013 304.921 310.559 264.774 310.559V313.559C306.578 313.559 340.467 279.67 340.467 237.866H337.467ZM264.774 165.174C304.921 165.174 337.467 197.719 337.467 237.866H340.467C340.467 196.062 306.578 162.174 264.774 162.174V165.174ZM235.419 171.345C244.394 167.378 254.325 165.174 264.774 165.174V162.174C253.899 162.174 243.556 164.468 234.206 168.601L235.419 171.345Z" fill="black" mask="url(#path-3-inside-1_92_14427)"/>
<mask id="path-5-inside-2_92_14427" fill="white">
<path fill-rule="evenodd" clip-rule="evenodd" d="M234.812 188.054V222.171L211.632 202.082C203.874 210.579 199.143 221.886 199.143 234.299C199.143 260.697 220.542 282.096 246.94 282.096C273.337 282.096 294.737 260.697 294.737 234.299C294.737 207.901 273.337 186.502 246.94 186.502C242.749 186.502 238.685 187.041 234.812 188.054Z"/>
</mask>
<path fill-rule="evenodd" clip-rule="evenodd" d="M234.812 188.054V222.171L211.632 202.082C203.874 210.579 199.143 221.886 199.143 234.299C199.143 260.697 220.542 282.096 246.94 282.096C273.337 282.096 294.737 260.697 294.737 234.299C294.737 207.901 273.337 186.502 246.94 186.502C242.749 186.502 238.685 187.041 234.812 188.054Z" fill="white"/>
<path d="M234.812 222.171L233.83 223.305L236.312 225.456V222.171H234.812ZM234.812 188.054L234.433 186.603L233.312 186.896V188.054H234.812ZM211.632 202.082L212.614 200.948L211.51 199.991L210.524 201.071L211.632 202.082ZM236.312 222.171V188.054H233.312V222.171H236.312ZM210.649 203.215L233.83 223.305L235.794 221.038L212.614 200.948L210.649 203.215ZM200.643 234.299C200.643 222.275 205.224 211.325 212.74 203.093L210.524 201.071C202.524 209.833 197.643 221.498 197.643 234.299H200.643ZM246.94 280.596C221.37 280.596 200.643 259.868 200.643 234.299H197.643C197.643 261.525 219.714 283.596 246.94 283.596V280.596ZM293.237 234.299C293.237 259.868 272.509 280.596 246.94 280.596V283.596C274.166 283.596 296.237 261.525 296.237 234.299H293.237ZM246.94 188.002C272.509 188.002 293.237 208.73 293.237 234.299H296.237C296.237 207.073 274.166 185.002 246.94 185.002V188.002ZM235.192 189.505C238.942 188.525 242.878 188.002 246.94 188.002V185.002C242.62 185.002 238.428 185.558 234.433 186.603L235.192 189.505Z" fill="black" mask="url(#path-5-inside-2_92_14427)"/>
<path d="M369.766 323.847C369.838 323.499 370.145 323.25 370.5 323.25C370.855 323.25 371.162 323.499 371.234 323.847L376.484 349.096L402.148 354.265C402.498 354.335 402.75 354.643 402.75 355C402.75 355.357 402.498 355.665 402.148 355.735L376.484 360.904L371.234 386.153C371.162 386.501 370.855 386.75 370.5 386.75C370.145 386.75 369.838 386.501 369.766 386.153L364.516 360.904L338.852 355.735C338.502 355.665 338.25 355.357 338.25 355C338.25 354.643 338.502 354.335 338.852 354.265L364.516 349.096L369.766 323.847Z" fill="white" stroke="black" stroke-width="1.5" stroke-linejoin="round"/>
<path d="M184.766 124.847C184.838 124.499 185.145 124.25 185.5 124.25C185.855 124.25 186.162 124.499 186.234 124.847L191.484 150.096L217.148 155.265C217.498 155.335 217.75 155.643 217.75 156C217.75 156.357 217.498 156.665 217.148 156.735L191.484 161.904L186.234 187.153C186.162 187.501 185.855 187.75 185.5 187.75C185.145 187.75 184.838 187.501 184.766 187.153L179.516 161.904L153.852 156.735C153.502 156.665 153.25 156.357 153.25 156C153.25 155.643 153.502 155.335 153.852 155.265L179.516 150.096L184.766 124.847Z" fill="white" stroke="black" stroke-width="1.5" stroke-linejoin="round"/>
</svg>
