<svg width="159" height="110" viewBox="0 0 159 110" fill="none" xmlns="http://www.w3.org/2000/svg">
<g clip-path="url(#clip0_77_640)">
<path d="M156.434 0.244215V4.74093H150.424V0.244215H147.858V11.7538H150.424V7.16517H156.434V11.7538H159V0.244215H156.434ZM101.581 6.94968L103.477 3.15013L105.389 6.94968H101.581ZM96.6641 11.7506H99.4878L100.733 9.26617H106.228L107.473 11.7506H110.296L104.814 0.244215H102.143L96.6641 11.7538V11.7506ZM63.3808 5.1624V2.43712H65.5978C67.116 2.43712 68.0721 2.86175 68.0721 3.84412C68.0721 4.82649 66.935 5.1624 65.7503 5.1624H63.384H63.3808ZM60.8145 11.7506H63.3808V7.32995L68.3452 11.7506H71.4706L66.2807 7.11763C68.558 6.98137 70.7432 5.8152 70.7432 3.67934C70.7432 1.54348 68.8598 0.241047 65.9472 0.241047H60.8177V11.7506H60.8145ZM36.6246 6.94968L38.5208 3.15013L40.4329 6.94968H36.6246ZM31.7047 11.7506H34.5283L35.7734 9.26617H41.2682L42.5133 11.7506H45.3369L39.8548 0.244215H37.1836L31.7047 11.7538V11.7506ZM6.14593 11.9946C9.43963 11.9946 11.2755 10.8728 11.2755 8.57217C11.2755 5.96731 8.57571 5.48246 7.43546 5.18141L4.96121 4.48425C3.88448 4.19588 3.38264 3.86314 3.39852 3.27372C3.39852 2.31987 4.84051 2.12339 5.59962 2.12339C6.72399 2.12339 8.04211 2.47198 8.21045 3.85046H10.9579C10.8657 1.54982 9.07437 0.00337651 5.76796 0.00337651C3.32547 0.00020758 0.622533 0.922367 0.622533 3.42266C0.622533 5.07367 1.8676 5.89126 3.50651 6.46483C4.55465 6.82926 5.55515 7.04158 6.45084 7.28242C7.46722 7.57079 8.65194 7.93205 8.65194 8.68942C8.65194 9.4468 7.75625 9.85559 6.29838 9.85559C4.46254 9.85559 3.18572 9.3549 2.7474 8.02395H0C0.244567 10.3721 2.12487 11.9915 6.14593 11.9915" fill="black" style="fill:black;fill-opacity:1;"/>
<path d="M147.274 60.7168H149.84V53.631L155.849 60.7168H158.416V49.2072H155.849V56.5211L149.764 49.2072H147.274V60.7168ZM129.5 55.9158L131.396 52.1131L133.308 55.9158H129.5ZM124.583 60.7168H127.406L128.652 58.2323H134.146L135.391 60.7168H138.215L132.736 49.2072H130.065L124.586 60.7168H124.583ZM102.756 60.7168H105.322V54.2363L108.359 60.7168H110.878L113.914 54.2363V60.7168H116.48V49.2072H113.641L109.62 57.8235L105.583 49.2072H102.759V60.7168H102.756ZM75.8506 54.1285V51.4033H78.0675C79.5858 51.4033 80.5418 51.8279 80.5418 52.8103C80.5418 53.7926 79.4047 54.1285 78.22 54.1285H75.8506ZM73.2842 60.7168H75.8506V56.2961L80.8149 60.7168H83.9403L78.7504 56.0838C81.0278 55.9475 83.213 54.7813 83.213 52.6455C83.213 50.5096 81.3295 49.2072 78.4169 49.2072H73.2874V60.7168H73.2842ZM54.659 58.1879V56.0236H61.202V53.7071H54.659V51.7392H61.8372V49.2104H52.1244V60.7199H62.1421V58.1911H54.659V58.1879ZM30.7042 49.2072V53.7039H24.6949V49.2072H22.1285V60.7168H24.6949V56.1281H30.7042V60.7168H33.2706V49.2072H30.7042ZM6.14593 60.9576C9.43963 60.9576 11.2755 59.8358 11.2755 57.5351C11.2755 54.9303 8.57571 54.4454 7.43546 54.1444L4.96121 53.4472C3.88448 53.1589 3.38264 52.8261 3.39852 52.2367C3.39852 51.2828 4.84051 51.0864 5.59962 51.0864C6.72399 51.0864 8.04211 51.435 8.21045 52.8134H10.9579C10.8657 50.5128 9.07437 48.9664 5.76796 48.9664C3.32547 48.9664 0.622533 49.8917 0.622533 52.3888C0.622533 54.0398 1.8676 54.8574 3.50651 55.431C4.55465 55.7954 5.55515 56.0077 6.45084 56.2486C7.46722 56.5369 8.65194 56.8982 8.65194 57.6556C8.65194 58.4129 7.75625 58.8217 6.29838 58.8217C4.46254 58.8217 3.18572 58.321 2.7474 56.9901H0C0.244567 59.3383 2.12487 60.9576 6.14593 60.9576Z" fill="black" style="fill:black;fill-opacity:1;"/>
<path d="M151.12 107.227V98.2464H148.585V109.756H158.117V107.227H151.12ZM126.52 107.227V105.063H133.063V102.746H126.52V100.778H133.698V98.2496H123.986V109.759H134.003V107.23H126.52V107.227ZM95.4191 110C99.8657 110 100.99 108.229 100.99 105.139V98.2496H98.4237V104.065C98.4237 106.292 98.2268 107.775 95.4191 107.775C92.6113 107.775 92.4144 106.292 92.4144 104.065V98.2496H89.848V105.139C89.848 108.137 90.9406 110 95.4191 110ZM64.3686 109.756H66.935V103.276L69.9714 109.756H72.4901L75.5266 103.276V109.756H78.0929V98.2464H75.2534L71.2324 106.863L67.1954 98.2464H64.3718V109.756H64.3686ZM31.3553 104.955L33.2515 101.156L35.1636 104.955H31.3553ZM26.4354 109.756H29.259L30.5041 107.272H35.9989L37.244 109.756H40.0676L34.5887 98.2464H31.9175L26.4386 109.756H26.4354ZM6.14592 110C9.43963 110 11.2755 108.878 11.2755 106.578C11.2755 103.973 8.57571 103.488 7.43546 103.187L4.96121 102.49C3.88448 102.201 3.38264 101.869 3.39852 101.279C3.39852 100.325 4.84051 100.129 5.59962 100.129C6.72399 100.129 8.04211 100.477 8.21045 101.856H10.9578C10.8657 99.5552 9.07437 98.0088 5.76796 98.0088C3.32547 98.0088 0.622533 98.9341 0.622533 101.431C0.622533 103.082 1.8676 103.9 3.50651 104.473C4.55465 104.838 5.55515 105.05 6.45084 105.291C7.46722 105.579 8.65194 105.944 8.65194 106.698C8.65194 107.452 7.75625 107.864 6.29838 107.864C4.46254 107.864 3.18572 107.363 2.7474 106.032H0C0.244566 108.381 2.12487 110 6.14592 110Z" fill="black" style="fill:black;fill-opacity:1;"/>
</g>
<defs>
<clipPath id="clip0_77_640">
<rect width="159" height="110" fill="white" style="fill:white;fill-opacity:1;"/>
</clipPath>
</defs>
</svg>
