<svg xmlns="http://www.w3.org/2000/svg" fill="none" viewBox="0 0 215 29" height="29" width="215">
<g clip-path="url(#clip0_157_54)">
<path style="fill:#462827;fill:color(display-p3 0.2745 0.1569 0.1529);fill-opacity:1;" fill="#462827" d="M99.4054 14.7952C99.4054 20.2656 97.7748 24.8282 90.4954 24.8282C83.216 24.8282 81.544 20.3038 81.544 14.7952V0H76.6523V14.9511C76.6523 23.4504 80.3529 28.9973 90.4954 28.9973C100.638 28.9973 104.297 23.4504 104.297 14.9511V0H99.4054V14.7952Z"></path>
<path style="fill:#462827;fill:color(display-p3 0.2745 0.1569 0.1529);fill-opacity:1;" fill="#462827" d="M21.1225 13.6143C23.7866 12.6301 25.6162 10.3884 25.6162 7.08324C25.6162 2.91148 23.1095 0 17.223 0H0V28.3302H18.6159C24.1045 28.3302 27.009 25.3805 27.009 20.6565C27.009 16.4082 24.3034 14.3988 21.1225 13.6143ZM4.85295 3.73708H15.8716C19.094 3.73708 20.8047 5.07391 20.8047 7.98539C20.8047 11.173 18.6159 12.1954 15.8716 12.1954H4.85295V3.73708ZM17.1428 24.5521H4.85295V15.9352H17.1456C19.7711 15.9352 21.9599 16.9194 21.9599 20.1835C21.9599 23.2126 20.2492 24.5521 17.1456 24.5521H17.1428Z"></path>
<path style="fill:#462827;fill:color(display-p3 0.2745 0.1569 0.1529);fill-opacity:1;" fill="#462827" d="M65.3543 7.98812C65.3543 2.87321 62.1319 0 55.5295 0H37.9473V28.3302H42.8389V17.5482H50.8396C51.7434 24.1694 55.6898 28.322 64.4506 28.3302V24.1585C58.7409 24.153 56.4996 21.3864 55.7948 17.5482H56.4443C65.3543 17.5482 65.3543 11.7252 65.3543 7.98539V7.98812ZM42.8417 3.93392H54.4572C58.3954 3.93392 60.3438 5.35002 60.3438 8.61689C60.3438 11.8838 58.3954 13.535 54.4572 13.535H42.8417V3.93392Z"></path>
<path style="fill:#462827;fill:color(display-p3 0.2745 0.1569 0.1529);fill-opacity:1;" fill="#462827" d="M140.337 23.6883L123.194 0H116.352V28.3302H121.044V4.40686L138.27 28.3302H145.03V0H140.337V23.6883Z"></path>
<path style="fill:#462827;fill:color(display-p3 0.2745 0.1569 0.1529);fill-opacity:1;" fill="#462827" d="M157.879 28.3302H181.071V24.3963H162.773V15.8177H180.394V12.0396H162.773V3.89564H181.071V0H157.879V28.3302Z"></path>
<path style="fill:#462827;fill:color(display-p3 0.2745 0.1569 0.1529);fill-opacity:1;" fill="#462827" d="M197.658 24.1585V0H192.764V28.3302H215V24.1585H197.658Z"></path>
</g>
<defs>
<clipPath id="clip0_157_54">
<rect style="fill:white;fill-opacity:1;" fill="white" height="29" width="215"></rect>
</clipPath>
</defs>
</svg>
