<?xml version="1.0" encoding="utf-8"?>
<!-- Generator: Adobe Illustrator 24.1.1, SVG Export Plug-In . SVG Version: 6.00 Build 0)  -->
<svg version="1.1" id="Layer_1" xmlns="http://www.w3.org/2000/svg" xmlns:xlink="http://www.w3.org/1999/xlink" x="0px" y="0px"
	 viewBox="0 0 3595 963" style="enable-background:new 0 0 3595 963;" xml:space="preserve">
<style type="text/css">
	.st0{fill:none;stroke:#000000;stroke-width:2;stroke-miterlimit:10;}
	.st1{fill:none;stroke:#000000;stroke-width:1.757;stroke-miterlimit:10;}
	.st2{fill:none;stroke:#000000;stroke-width:1.7787;stroke-miterlimit:10;}
	.st3{fill:none;stroke:#000000;stroke-width:2.0074;stroke-miterlimit:10;}
	.st4{fill:none;stroke:#000000;stroke-width:2.0468;stroke-miterlimit:10;}
	.st5{fill:#FFFFFF;}
	.st6{fill:#7D12FF;}
	.st7{fill:#4DABFF;}
	.st8{fill:#191919;}
	.st9{fill:#333333;}
	.st10{fill:#4C4C4C;}
	.st11{fill:#666666;}
	.st12{fill:#7F7F7F;}
	.st13{fill:#999999;}
	.st14{fill:#B2B2B2;}
	.st15{fill:#CCCCCC;}
	.st16{fill:#E5E5E5;}
</style>
<path d="M711.7,372c-1.5-30.8-9-60.2-22-88.1c-24.8-53.1-63.5-93-115.6-119.6c-21.8-11.2-45-18.6-69.2-22.7
	c-11-1.9-22.1-3.1-33.3-3.4h-14.5c-0.1,0.4-0.2,0.8-0.4,1.2c-49,96-98.1,191.9-147.1,287.9c-5.3,10.4-10.7,20.7-15.9,31.2
	c-6.6,13.4-11.4,27.5-13.8,42.2c-0.8,4.7-1.1,9.5-1.8,14.3c-0.9,6.8-0.4,13.6-0.3,20.3c0.1,3.9,0.8,7.8,1.4,11.7
	c2.3,16.3,6.8,32.1,14.5,46.7c19,36,47.3,61.4,86,74.7c12.1,4.1,24.6,6.2,37.3,7.1c10.2,0.7,20.3,0.6,30.4-0.6
	c20-2.4,38.6-8.7,55.8-19.2c23.8-14.6,43.1-33.6,56.5-58.2c8-14.6,13-30.2,15.7-46.6c2-12.2,2.7-24.5,1.7-36.8
	c-1.5-19.5-6.7-38.1-15.8-55.4c-20.3-38.6-40.7-77-61.1-115.5c-14.4-27.2-28.9-54.4-43.4-81.5c-0.8-1.6-0.9-2.8-0.1-4.4
	c11.2-22.2,22.2-44.5,33.3-66.7c0.3-0.6,0.7-1.3,1.2-2.1c3.7,0.6,7.5,1.2,11.2,2c61.1,12.5,113.3,52.6,140.9,108.6
	c9.7,19.7,16.1,40.5,18.9,62.3c1.2,9.1,1.8,18.3,1.8,27.5c0,61,0.2,121.9-0.1,182.9c-0.2,55.4-19.7,103.1-58.5,142.7
	c-28.7,29.2-63.3,47.8-103.5,55.9c-12.7,2.6-25.4,3.9-38.4,3.9c-8.2,0-16.3,0.1-24.5-0.1c-36.9-0.9-72.1-9.1-105.3-25.1
	c-44.1-21.2-79.4-52.3-105.3-93.9c-15.5-24.9-25.7-51.9-30.9-80.8c-2.3-12.9-3.5-25.8-3.5-38.9c0-115.4,0-230.7,0-346.1
	c0-0.9,0-1.7,0-2.7c36.2,0,72.1,0,108.4,0c-0.4,0.9-0.8,1.7-1.2,2.5c-15.9,31.1-31.8,62.2-47.8,93.3c-0.8,1.5-1.1,3.1-1.2,4.8
	c-0.4,22.1-0.8,44.1-1.2,66.2c-0.4,19.3-0.8,38.7-1.2,58c0,0.8,0,1.7,0.4,2.6c0.3-0.4,0.6-0.8,0.8-1.3c16-32.3,32.1-64.6,48.1-96.9
	c11.1-22.3,22.2-44.7,33.3-67c9.9-19.9,19.3-40,29.8-59.6c8.5-16,16.3-32.3,24.6-48.4c0.5-0.9,0.8-1.9,1.2-2.8
	c-80.9,0-161.9,0-242.8,0c0,228.3,0,456.6,0,685c106.1,0,212.1,0,318.2,0c0.7-0.1,1.4-0.3,2.1-0.3c66.3-1.7,123.6-25,171.3-71.2
	c35.2-34.1,58.2-75.2,69.3-123c2.6-11.2,4.3-22.6,5.3-34.1c0.2-1.7,0.1-3.5,0.2-5.3c0-0.8,0.3-1.5,0.4-2.3c0-71,0-142.1,0-213.1
	C712,373,711.8,372.5,711.7,372z M509.3,476c3.8,7.1,7.4,14.2,9.8,21.8c10.2,32,2.5,72.3-26.2,98.4c-12.9,11.7-27.4,20.1-44.5,23.7
	c-10.9,2.3-21.9,2.6-32.9,1.3c-12.6-1.5-24.6-5.1-35.5-11.7c-26-15.7-42.1-38.3-47-68.4c-3.4-20.9,0.2-40.8,9.7-59.5
	c10.4-20.6,21-41.1,31.6-61.7c16.4-32.1,32.9-64.2,49.3-96.2c0.7-1.3,1.4-2.7,2.3-4.4c0.6,1,1,1.6,1.3,2.2
	C454.6,373.1,482,424.6,509.3,476z M278.8,773.8c0,0.1-0.1,0.1-0.2,0.1c-26.6,0-53.2,0.1-79.9,0.1c-1.4,0-2.9,0-4.5,0
	c0-27.7,0-55,0-82.3c23,32.7,51.2,60,84.6,81.7C278.8,773.6,278.8,773.7,278.8,773.8z"/>
<g>
	<path d="M1373.9,482.8c0,130.6-106.6,234.9-238.5,234.9H980.2V247.6h155.2C1265.3,247.6,1373.9,349.9,1373.9,482.8z M1292.6,482.8
		c0-87.6-62.7-164-157.2-164h-76.8v327.8h76.8C1223.3,646.5,1292.6,575.3,1292.6,482.8z"/>
	<path d="M1813.4,717.7l-116.5-199.5h-104.7v121.1c0,43.3-35.1,78.4-78.4,78.4h0V247.6h224.4c75.8,0,137.8,54.5,137.8,136.2
		c0,60.7-33.5,107.6-95.1,127.6l76.2,130.2C1876.8,675.3,1852.5,717.7,1813.4,717.7L1813.4,717.7z M1592.3,447.1h136.8
		c34.4,0,69.9-24,69.9-63.3c0-37.1-32.5-63.3-69.9-63.3h-136.8V447.1z"/>
	<path d="M2406.8,247.6l-164.4,285.8v106c0,43.3-35.1,78.4-78.4,78.4l0,0V533.3l-163.7-285.8h88.3l114.8,207l114.8-207H2406.8z"/>
	<path d="M2763.7,247.6c75.8,0.3,137.8,54.1,137.8,136.2c0,76.1-59.7,134.5-137.8,134.5h-146v121.1c0,43.3-35.1,78.4-78.4,78.4l0,0
		V247.6H2763.7z M2754.5,447.1c34.5,0,69.9-24,69.9-63.3c0-37.1-32.8-63.3-70.2-63.3h-136.5v126.6H2754.5z"/>
	<path d="M3422.1,246.9v73.2h-164.7v319.2c0,43.3-35.1,78.4-78.4,78.4l0,0V320.1h-164.7v-73.2H3422.1z"/>
</g>
</svg>
