<svg xmlns="http://www.w3.org/2000/svg" fill="none" viewBox="0 0 245 42" height="42" width="245">
<path fill="#3F513E" d="M11.1157 0.269531V1.64354H6.2729V15.5403H4.821V1.64492H0V0.269531H11.1157Z"></path>
<path fill="#3F513E" d="M15.5846 15.5417V0.269531H17.0379V15.5403H15.5846V15.5417Z"></path>
<path fill="#3F513E" d="M38.0192 15.5417H36.6492V2.88565L31.2564 13.967H29.9137L24.4773 2.84168V15.5417H23.1059V0.269531H24.7406L30.5741 12.3938L36.4063 0.269531H38.0192V15.5417Z"></path>
<path fill="#3F513E" d="M54.3222 14.1663V15.5403H45.4294V0.269531H54.0793V1.64354H46.8594V7.36217H53.1542V8.73618H46.8594V14.1663H54.3222Z"></path>
<path fill="#3F513E" d="M66.3191 0.269531C69.4221 0.269531 70.6557 2.57512 70.6557 4.92468C70.6557 7.27424 69.4235 9.57845 66.2536 9.57845H61.8079V15.5403H60.3546V0.269531H66.3191ZM66.1868 8.20444C68.366 8.20444 69.2024 6.58586 69.2024 4.92468C69.2024 3.2635 68.3878 1.64492 66.2973 1.64492H61.8065V8.20581H66.1868V8.20444Z"></path>
<path fill="#3F513E" d="M76.3569 15.5417V0.269531H77.8102V15.5403H76.3569V15.5417Z"></path>
<path fill="#3F513E" d="M93.8111 14.1663V15.5403H84.9182V0.269531H93.5682V1.64354H86.3483V7.36217H92.643V8.73618H86.3483V14.1663H93.8111Z"></path>
<path fill="#3F513E" d="M97.927 7.93491C97.927 3.61227 101.295 0 105.543 0C107.678 0 109.593 0.886237 110.914 2.32757L109.879 3.23579C108.801 2.10498 107.237 1.37401 105.543 1.37401C102.088 1.37401 99.3803 4.38859 99.3803 7.93491C99.3803 11.4812 102.088 14.4285 105.543 14.4285C107.237 14.4285 108.778 13.7195 109.879 12.5667L110.914 13.4969C109.593 14.9149 107.678 15.8025 105.543 15.8025C101.295 15.8025 97.927 12.2562 97.927 7.93491Z"></path>
<path fill="#3F513E" d="M124.583 14.1663V15.5403H115.69V0.269531H124.34V1.64354H117.12V7.36217H123.414V8.73618H117.12V14.1663H124.583Z"></path>
<path fill="#3F513E" d="M137.041 7.93491C137.041 3.59029 140.408 0 144.7 0C146.571 0 148.244 0.687005 149.543 1.77247L148.574 2.77C147.518 1.92774 146.175 1.37401 144.7 1.37401C141.2 1.37401 138.493 4.38859 138.493 7.93491C138.493 11.4812 141.2 14.4285 144.7 14.4285C147.781 14.4285 150.093 12.4788 150.225 9.4422H145.647V8.13414H151.811C151.745 13.2977 148.839 15.8025 144.701 15.8025C140.564 15.8025 137.042 12.2562 137.042 7.93491H137.041Z"></path>
<path fill="#3F513E" d="M162.353 9.57845L166.536 15.5403H164.774L160.614 9.55647H158.082V15.5403H156.629V0.269531H162.263C165.433 0.269531 166.644 2.57512 166.644 4.92468C166.644 7.27424 165.366 9.57845 162.396 9.57845H162.352H162.353ZM158.084 1.64354V8.20444H161.914C164.291 8.20444 165.193 6.74112 165.193 4.92468C165.193 3.10824 164.224 1.64492 162.288 1.64492H158.084V1.64354Z"></path>
<path fill="#3F513E" d="M181.394 15.5417L179.875 11.4856H172.876L171.357 15.5417H169.817L175.604 0.269531H177.144L182.911 15.5403H181.392L181.394 15.5417ZM173.381 10.1775H179.369L176.375 2.19864L173.381 10.1775Z"></path>
<path fill="#3F513E" d="M192.817 0.269531C197.11 0.269531 199.596 3.59464 199.596 7.93788C199.596 12.2811 197.109 15.5403 192.817 15.5403H187.072V0.269531H192.817ZM192.817 14.1663C196.272 14.1663 198.144 11.4622 198.144 7.93788C198.144 4.41355 196.274 1.64354 192.817 1.64354H188.524V14.1663H192.817Z"></path>
<path fill="#3F513E" d="M205.252 15.5417V0.269531H206.705V15.5403H205.252V15.5417Z"></path>
<path fill="#3F513E" d="M223.522 0.269531H224.975V15.5403H223.478L215.708 2.81832V15.5403H214.255V0.269531H215.774L223.522 12.9695V0.269531Z"></path>
<path fill="#3F513E" d="M230.103 7.93491C230.103 3.59029 233.47 0 237.763 0C239.634 0 241.307 0.687005 242.606 1.77247L241.637 2.77C240.581 1.92774 239.238 1.37401 237.763 1.37401C234.263 1.37401 231.556 4.38859 231.556 7.93491C231.556 11.4812 234.263 14.4285 237.763 14.4285C240.845 14.4285 243.156 12.4788 243.288 9.4422H238.71V8.13414H244.873C244.807 13.2977 241.901 15.8025 237.763 15.8025C233.626 15.8025 230.103 12.2562 230.103 7.93491Z"></path>
<mask fill="black" height="9" width="95" y="32.4297" x="74.949" maskUnits="userSpaceOnUse" id="path-2-outside-1_30_236">
<rect height="9" width="95" y="32.4297" x="74.949" fill="white"></rect>
<path d="M75.949 40.6845V38.3706H76.2123C76.5112 39.8779 77.2194 40.6309 78.3356 40.6309C78.8378 40.6309 79.2267 40.4866 79.5023 40.1981C79.7779 39.9095 79.9158 39.5866 79.9158 39.2294C79.9158 38.8721 79.7943 38.5657 79.5528 38.3225C79.3099 38.0821 78.8678 37.8238 78.2251 37.5476C77.6519 37.3003 77.2194 37.0832 76.9287 36.8977C76.6367 36.7122 76.4102 36.4704 76.2464 36.1736C76.0827 35.8768 76.0008 35.5594 76.0008 35.2241C76.0008 34.7116 76.1768 34.2843 76.5303 33.9422C76.8837 33.6001 77.3299 33.4297 77.8716 33.4297C78.1732 33.4297 78.4584 33.4792 78.7259 33.5781C78.9933 33.677 79.2662 33.8817 79.5487 34.1936C79.7097 33.9985 79.8011 33.7883 79.823 33.5616H80.0549V35.4454H79.823C79.6892 34.8971 79.4532 34.4657 79.1148 34.151C78.775 33.8364 78.3833 33.6784 77.9371 33.6784C77.4909 33.6784 77.2003 33.7938 77.001 34.026C76.8018 34.2582 76.7036 34.511 76.7036 34.7872C76.7036 35.1197 76.8277 35.4014 77.0775 35.6309C77.3231 35.8644 77.7679 36.1269 78.4106 36.4168C79.0261 36.693 79.4723 36.9142 79.752 37.0832C80.0317 37.2522 80.2555 37.4844 80.4234 37.7812C80.5912 38.078 80.6758 38.4215 80.6758 38.8103C80.6758 39.4259 80.4725 39.926 80.0645 40.3121C79.6565 40.6982 79.112 40.8906 78.4311 40.8906C77.6479 40.8906 76.9942 40.5883 76.4702 39.9837C76.3542 40.15 76.2683 40.3836 76.2123 40.6845H75.949Z"></path>
<path d="M86.3521 37.3749V38.8877C86.3521 39.4538 86.3658 39.8248 86.3917 39.9993C86.4176 40.1738 86.4886 40.3043 86.6046 40.3895C86.7206 40.4747 86.9375 40.5173 87.2582 40.5173H87.4956V40.7619H84.2234V40.5173H84.4131C84.7187 40.5173 84.9303 40.4788 85.0476 40.4005C85.165 40.3222 85.24 40.2013 85.2714 40.0364C85.3028 39.8715 85.3192 39.4895 85.3192 38.8877V35.3592C85.3192 34.7863 85.3028 34.4167 85.2714 34.2504C85.24 34.0842 85.1691 33.9688 85.0613 33.9055C84.9521 33.8423 84.7174 33.8094 84.3544 33.8094H84.222V33.5648L85.1186 33.5332C85.835 33.5085 86.3944 33.4961 86.7943 33.4961C87.5325 33.4961 88.1001 33.5538 88.4986 33.6706C88.897 33.7874 89.2245 33.9949 89.4783 34.2916C89.7335 34.5884 89.8604 34.9635 89.8604 35.417C89.8604 35.8099 89.7731 36.1562 89.5998 36.4571C89.4265 36.758 89.1768 36.9861 88.852 37.1413C88.5272 37.2966 87.9555 37.3749 87.1368 37.3749H86.3521ZM86.3521 37.1097H86.8638C87.2746 37.1097 87.6075 37.0685 87.86 36.9847C88.1124 36.9009 88.3239 36.7278 88.4918 36.4626C88.6596 36.1974 88.7442 35.8704 88.7442 35.4802C88.7442 34.8852 88.5996 34.4497 88.3089 34.1721C88.0183 33.8946 87.5489 33.7558 86.8993 33.7558C86.6605 33.7558 86.4777 33.7627 86.3508 33.7764V37.1084L86.3521 37.1097Z"></path>
<path d="M98.799 38.516H99.0515L98.8986 40.7557H92.9805V40.5111H93.1279C93.4827 40.5111 93.7119 40.463 93.8156 40.3682C93.9194 40.272 93.9848 40.1511 94.0135 40.0041C94.0408 39.8571 94.0558 39.4833 94.0558 38.8815V35.3531C94.0558 34.8048 94.0408 34.4435 94.0108 34.2703C93.9808 34.0972 93.9125 33.9763 93.8047 33.9062C93.6969 33.8375 93.4718 33.8032 93.1279 33.8032V33.5586H98.2341L98.4033 35.3517H98.155C98.0431 34.8488 97.9052 34.4929 97.7415 34.2827C97.5777 34.0725 97.384 33.9392 97.1588 33.8842C96.9337 33.8293 96.5721 33.8018 96.0726 33.8018H95.082V36.8219H95.8407C96.1886 36.8219 96.4315 36.7916 96.5707 36.7312C96.7099 36.6707 96.8013 36.58 96.845 36.4578C96.8886 36.3355 96.9105 36.0978 96.9105 35.7446H97.1588V38.2069H96.9105C96.9105 37.807 96.8764 37.5391 96.8109 37.4031C96.744 37.267 96.6458 37.1777 96.5188 37.1379C96.3906 37.0967 96.1736 37.0774 95.868 37.0774H95.0833V38.7812C95.0833 39.6331 95.1379 40.1346 95.2471 40.2857C95.3562 40.4355 95.6496 40.5111 96.1272 40.5111H96.6594C97.0347 40.5111 97.3444 40.463 97.5873 40.3654C97.8302 40.2679 98.0608 40.0687 98.2805 39.7664C98.5002 39.4641 98.6735 39.0478 98.799 38.516Z"></path>
<path d="M108.903 38.0599H109.129V40.5812H108.903C108.84 40.294 108.725 40.0412 108.56 39.8227C107.931 40.5372 107.129 40.8945 106.152 40.8945C105.119 40.8945 104.274 40.5661 103.619 39.9079C102.964 39.2498 102.637 38.38 102.637 37.2973C102.637 36.5856 102.788 35.9164 103.09 35.2885C103.391 34.6606 103.813 34.1948 104.355 33.8898C104.895 33.5861 105.49 33.4336 106.135 33.4336C106.669 33.4336 107.153 33.5449 107.587 33.7647C108.021 33.9859 108.345 34.2305 108.56 34.4998C108.712 34.1989 108.803 33.887 108.834 33.5655H109.066L109.129 36.2929H108.903C108.744 35.3242 108.422 34.6496 107.935 34.2717C107.448 33.8925 106.899 33.7043 106.288 33.7043C105.54 33.7043 104.945 34.0107 104.505 34.6221C104.064 35.2349 103.843 36.1102 103.843 37.2492C103.843 38.3278 104.083 39.155 104.565 39.7307C105.046 40.305 105.645 40.5936 106.362 40.5936C106.745 40.5936 107.137 40.5001 107.537 40.3119C107.938 40.1236 108.254 39.8076 108.488 39.3597C108.721 38.9118 108.859 38.479 108.901 38.0626L108.903 38.0599Z"></path>
<path d="M112.819 33.8032V33.5586H116.087V33.8032H115.934C115.582 33.8032 115.353 33.832 115.244 33.8911C115.135 33.9488 115.062 34.0587 115.026 34.2181C114.989 34.3775 114.97 34.7554 114.97 35.3544V38.8829C114.97 39.449 114.983 39.82 115.009 39.9945C115.035 40.169 115.106 40.2995 115.219 40.3847C115.334 40.4699 115.552 40.5125 115.876 40.5125H116.086V40.757H112.818V40.5125H113.028C113.334 40.5125 113.545 40.474 113.662 40.3957C113.78 40.3173 113.855 40.1964 113.886 40.0316C113.918 39.8667 113.934 39.4847 113.934 38.8829V35.3544C113.934 34.7815 113.918 34.4119 113.886 34.2456C113.855 34.0793 113.784 33.9639 113.676 33.9007C113.567 33.8375 113.332 33.8045 112.969 33.8045H112.816L112.819 33.8032Z"></path>
<path d="M123.718 38.1035H121.004L120.819 38.5597C120.545 39.2206 120.409 39.6534 120.409 39.854C120.409 40.0697 120.481 40.2332 120.627 40.3445C120.773 40.4558 120.96 40.5121 121.188 40.5121V40.7567H119.065V40.5121C119.381 40.4627 119.616 40.35 119.771 40.1755C119.926 40.001 120.113 39.6314 120.33 39.0694C120.347 39.0158 120.432 38.8111 120.582 38.4539L122.659 33.4607H122.865L125.253 39.1766L125.579 39.9296C125.653 40.0999 125.752 40.2332 125.876 40.3308C126.001 40.4283 126.188 40.4888 126.437 40.5135V40.7581H123.628V40.5135C123.972 40.5135 124.205 40.4874 124.326 40.4366C124.448 40.3857 124.508 40.284 124.508 40.1315C124.508 40.0532 124.427 39.8224 124.265 39.4363L123.716 38.1049L123.718 38.1035ZM123.628 37.8644L122.363 34.7976L121.103 37.8644H123.628Z"></path>
<path d="M135.496 38.6383L135.443 40.7557H129.372V40.5111H129.582C129.887 40.5111 130.099 40.4726 130.216 40.3943C130.334 40.316 130.41 40.1951 130.443 40.0302C130.476 39.8653 130.493 39.4833 130.493 38.8815V35.3531C130.493 34.7801 130.477 34.4105 130.443 34.2442C130.409 34.078 130.339 33.9626 130.233 33.8993C130.125 33.8361 129.892 33.8032 129.529 33.8032H129.37V33.5586H132.801V33.8032H132.484C132.132 33.8032 131.903 33.832 131.794 33.8911C131.685 33.9488 131.612 34.0587 131.575 34.2181C131.539 34.3775 131.519 34.7554 131.519 35.3544V39.122C131.519 39.6413 131.533 39.967 131.562 40.0989C131.589 40.2294 131.665 40.3311 131.791 40.4039C131.915 40.4767 132.184 40.5125 132.595 40.5125H133.138C133.577 40.5125 133.903 40.474 134.115 40.3957C134.328 40.3173 134.53 40.1483 134.721 39.8859C134.912 39.6235 135.086 39.2085 135.245 38.6383H135.496Z"></path>
<path d="M138.564 33.8032V33.5586H141.832V33.8032H141.679C141.327 33.8032 141.098 33.832 140.988 33.8911C140.879 33.9488 140.807 34.0587 140.77 34.2181C140.733 34.3775 140.714 34.7554 140.714 35.3544V38.8829C140.714 39.449 140.728 39.82 140.754 39.9945C140.78 40.169 140.851 40.2995 140.964 40.3847C141.078 40.4699 141.297 40.5125 141.62 40.5125H141.83V40.757H138.562V40.5125H138.772C139.078 40.5125 139.29 40.474 139.407 40.3957C139.524 40.3173 139.599 40.1964 139.631 40.0316C139.662 39.8667 139.678 39.4847 139.678 38.8829V35.3544C139.678 34.7815 139.662 34.4119 139.631 34.2456C139.599 34.0793 139.528 33.9639 139.421 33.9007C139.311 33.8375 139.077 33.8045 138.714 33.8045H138.561L138.564 33.8032Z"></path>
<path d="M145.424 40.6845V38.3706H145.688C145.986 39.8779 146.695 40.6309 147.811 40.6309C148.313 40.6309 148.702 40.4866 148.978 40.1981C149.253 39.9095 149.391 39.5866 149.391 39.2294C149.391 38.8721 149.27 38.5657 149.028 38.3225C148.785 38.0821 148.343 37.8238 147.7 37.5476C147.127 37.3003 146.695 37.0832 146.404 36.8977C146.112 36.7122 145.885 36.4704 145.722 36.1736C145.558 35.8768 145.476 35.5594 145.476 35.2241C145.476 34.7116 145.652 34.2843 146.006 33.9422C146.359 33.6001 146.805 33.4297 147.347 33.4297C147.648 33.4297 147.934 33.4792 148.201 33.5781C148.469 33.677 148.741 33.8817 149.024 34.1936C149.185 33.9985 149.276 33.7883 149.298 33.5616H149.53V35.4454H149.298C149.164 34.8971 148.928 34.4657 148.59 34.151C148.25 33.8364 147.859 33.6784 147.412 33.6784C146.966 33.6784 146.676 33.7938 146.476 34.026C146.277 34.2582 146.179 34.511 146.179 34.7872C146.179 35.1197 146.303 35.4014 146.553 35.6309C146.798 35.8644 147.243 36.1269 147.886 36.4168C148.501 36.693 148.948 36.9142 149.227 37.0832C149.507 37.2522 149.731 37.4844 149.899 37.7812C150.066 38.078 150.151 38.4215 150.151 38.8103C150.151 39.4259 149.948 39.926 149.54 40.3121C149.132 40.6982 148.587 40.8906 147.906 40.8906C147.123 40.8906 146.469 40.5883 145.945 39.9837C145.83 40.15 145.744 40.3836 145.688 40.6845H145.424Z"></path>
<path d="M153.863 35.2924H153.62L153.657 33.5625H160.593L160.629 35.2924H160.403C160.322 34.8183 160.212 34.4762 160.071 34.266C159.931 34.0558 159.779 33.9266 159.618 33.8785C159.456 33.8304 159.18 33.8071 158.791 33.8071H157.642V38.8854C157.642 39.4474 157.656 39.817 157.682 39.9942C157.708 40.1715 157.779 40.302 157.895 40.3872C158.011 40.4724 158.228 40.515 158.548 40.515H158.896V40.7596H155.334V40.515H155.702C156.008 40.515 156.219 40.4765 156.337 40.3982C156.454 40.3199 156.53 40.199 156.563 40.0341C156.596 39.8692 156.614 39.4872 156.614 38.8854V33.8071H155.555C155.095 33.8071 154.785 33.8291 154.627 33.873C154.468 33.917 154.32 34.0503 154.182 34.2742C154.043 34.4968 153.936 34.8362 153.863 35.2938V35.2924Z"></path>
<path d="M164.196 40.6845V38.3706H164.459C164.758 39.8779 165.466 40.6309 166.583 40.6309C167.085 40.6309 167.474 40.4866 167.749 40.1981C168.025 39.9095 168.163 39.5866 168.163 39.2294C168.163 38.8721 168.041 38.5657 167.8 38.3225C167.557 38.0821 167.115 37.8238 166.472 37.5476C165.899 37.3003 165.466 37.0832 165.176 36.8977C164.884 36.7122 164.657 36.4704 164.493 36.1736C164.33 35.8768 164.248 35.5594 164.248 35.2241C164.248 34.7116 164.424 34.2843 164.777 33.9422C165.131 33.6001 165.577 33.4297 166.119 33.4297C166.42 33.4297 166.705 33.4792 166.973 33.5781C167.24 33.677 167.513 33.8817 167.796 34.1936C167.957 33.9985 168.048 33.7883 168.07 33.5616H168.302V35.4454H168.07C167.936 34.8971 167.7 34.4657 167.362 34.151C167.022 33.8364 166.63 33.6784 166.184 33.6784C165.738 33.6784 165.447 33.7938 165.248 34.026C165.049 34.2582 164.951 34.511 164.951 34.7872C164.951 35.1197 165.075 35.4014 165.325 35.6309C165.57 35.8644 166.015 36.1269 166.658 36.4168C167.273 36.693 167.719 36.9142 167.999 37.0832C168.279 37.2522 168.503 37.4844 168.67 37.7812C168.838 38.078 168.923 38.4215 168.923 38.8103C168.923 39.4259 168.72 39.926 168.312 40.3121C167.904 40.6982 167.359 40.8906 166.678 40.8906C165.895 40.8906 165.241 40.5883 164.717 39.9837C164.601 40.15 164.515 40.3836 164.459 40.6845H164.196Z"></path>
</mask>
<path fill="#3F513E" d="M75.949 40.6845V38.3706H76.2123C76.5112 39.8779 77.2194 40.6309 78.3356 40.6309C78.8378 40.6309 79.2267 40.4866 79.5023 40.1981C79.7779 39.9095 79.9158 39.5866 79.9158 39.2294C79.9158 38.8721 79.7943 38.5657 79.5528 38.3225C79.3099 38.0821 78.8678 37.8238 78.2251 37.5476C77.6519 37.3003 77.2194 37.0832 76.9287 36.8977C76.6367 36.7122 76.4102 36.4704 76.2464 36.1736C76.0827 35.8768 76.0008 35.5594 76.0008 35.2241C76.0008 34.7116 76.1768 34.2843 76.5303 33.9422C76.8837 33.6001 77.3299 33.4297 77.8716 33.4297C78.1732 33.4297 78.4584 33.4792 78.7259 33.5781C78.9933 33.677 79.2662 33.8817 79.5487 34.1936C79.7097 33.9985 79.8011 33.7883 79.823 33.5616H80.0549V35.4454H79.823C79.6892 34.8971 79.4532 34.4657 79.1148 34.151C78.775 33.8364 78.3833 33.6784 77.9371 33.6784C77.4909 33.6784 77.2003 33.7938 77.001 34.026C76.8018 34.2582 76.7036 34.511 76.7036 34.7872C76.7036 35.1197 76.8277 35.4014 77.0775 35.6309C77.3231 35.8644 77.7679 36.1269 78.4106 36.4168C79.0261 36.693 79.4723 36.9142 79.752 37.0832C80.0317 37.2522 80.2555 37.4844 80.4234 37.7812C80.5912 38.078 80.6758 38.4215 80.6758 38.8103C80.6758 39.4259 80.4725 39.926 80.0645 40.3121C79.6565 40.6982 79.112 40.8906 78.4311 40.8906C77.6479 40.8906 76.9942 40.5883 76.4702 39.9837C76.3542 40.15 76.2683 40.3836 76.2123 40.6845H75.949Z"></path>
<path fill="#3F513E" d="M86.3521 37.3749V38.8877C86.3521 39.4538 86.3658 39.8248 86.3917 39.9993C86.4176 40.1738 86.4886 40.3043 86.6046 40.3895C86.7206 40.4747 86.9375 40.5173 87.2582 40.5173H87.4956V40.7619H84.2234V40.5173H84.4131C84.7187 40.5173 84.9303 40.4788 85.0476 40.4005C85.165 40.3222 85.24 40.2013 85.2714 40.0364C85.3028 39.8715 85.3192 39.4895 85.3192 38.8877V35.3592C85.3192 34.7863 85.3028 34.4167 85.2714 34.2504C85.24 34.0842 85.1691 33.9688 85.0613 33.9055C84.9521 33.8423 84.7174 33.8094 84.3544 33.8094H84.222V33.5648L85.1186 33.5332C85.835 33.5085 86.3944 33.4961 86.7943 33.4961C87.5325 33.4961 88.1001 33.5538 88.4986 33.6706C88.897 33.7874 89.2245 33.9949 89.4783 34.2916C89.7335 34.5884 89.8604 34.9635 89.8604 35.417C89.8604 35.8099 89.7731 36.1562 89.5998 36.4571C89.4265 36.758 89.1768 36.9861 88.852 37.1413C88.5272 37.2966 87.9555 37.3749 87.1368 37.3749H86.3521ZM86.3521 37.1097H86.8638C87.2746 37.1097 87.6075 37.0685 87.86 36.9847C88.1124 36.9009 88.3239 36.7278 88.4918 36.4626C88.6596 36.1974 88.7442 35.8704 88.7442 35.4802C88.7442 34.8852 88.5996 34.4497 88.3089 34.1721C88.0183 33.8946 87.5489 33.7558 86.8993 33.7558C86.6605 33.7558 86.4777 33.7627 86.3508 33.7764V37.1084L86.3521 37.1097Z"></path>
<path fill="#3F513E" d="M98.799 38.516H99.0515L98.8986 40.7557H92.9805V40.5111H93.1279C93.4827 40.5111 93.7119 40.463 93.8156 40.3682C93.9194 40.272 93.9848 40.1511 94.0135 40.0041C94.0408 39.8571 94.0558 39.4833 94.0558 38.8815V35.3531C94.0558 34.8048 94.0408 34.4435 94.0108 34.2703C93.9808 34.0972 93.9125 33.9763 93.8047 33.9062C93.6969 33.8375 93.4718 33.8032 93.1279 33.8032V33.5586H98.2341L98.4033 35.3517H98.155C98.0431 34.8488 97.9052 34.4929 97.7415 34.2827C97.5777 34.0725 97.384 33.9392 97.1588 33.8842C96.9337 33.8293 96.5721 33.8018 96.0726 33.8018H95.082V36.8219H95.8407C96.1886 36.8219 96.4315 36.7916 96.5707 36.7312C96.7099 36.6707 96.8013 36.58 96.845 36.4578C96.8886 36.3355 96.9105 36.0978 96.9105 35.7446H97.1588V38.2069H96.9105C96.9105 37.807 96.8764 37.5391 96.8109 37.4031C96.744 37.267 96.6458 37.1777 96.5188 37.1379C96.3906 37.0967 96.1736 37.0774 95.868 37.0774H95.0833V38.7812C95.0833 39.6331 95.1379 40.1346 95.2471 40.2857C95.3562 40.4355 95.6496 40.5111 96.1272 40.5111H96.6594C97.0347 40.5111 97.3444 40.463 97.5873 40.3654C97.8302 40.2679 98.0608 40.0687 98.2805 39.7664C98.5002 39.4641 98.6735 39.0478 98.799 38.516Z"></path>
<path fill="#3F513E" d="M108.903 38.0599H109.129V40.5812H108.903C108.84 40.294 108.725 40.0412 108.56 39.8227C107.931 40.5372 107.129 40.8945 106.152 40.8945C105.119 40.8945 104.274 40.5661 103.619 39.9079C102.964 39.2498 102.637 38.38 102.637 37.2973C102.637 36.5856 102.788 35.9164 103.09 35.2885C103.391 34.6606 103.813 34.1948 104.355 33.8898C104.895 33.5861 105.49 33.4336 106.135 33.4336C106.669 33.4336 107.153 33.5449 107.587 33.7647C108.021 33.9859 108.345 34.2305 108.56 34.4998C108.712 34.1989 108.803 33.887 108.834 33.5655H109.066L109.129 36.2929H108.903C108.744 35.3242 108.422 34.6496 107.935 34.2717C107.448 33.8925 106.899 33.7043 106.288 33.7043C105.54 33.7043 104.945 34.0107 104.505 34.6221C104.064 35.2349 103.843 36.1102 103.843 37.2492C103.843 38.3278 104.083 39.155 104.565 39.7307C105.046 40.305 105.645 40.5936 106.362 40.5936C106.745 40.5936 107.137 40.5001 107.537 40.3119C107.938 40.1236 108.254 39.8076 108.488 39.3597C108.721 38.9118 108.859 38.479 108.901 38.0626L108.903 38.0599Z"></path>
<path fill="#3F513E" d="M112.819 33.8032V33.5586H116.087V33.8032H115.934C115.582 33.8032 115.353 33.832 115.244 33.8911C115.135 33.9488 115.062 34.0587 115.026 34.2181C114.989 34.3775 114.97 34.7554 114.97 35.3544V38.8829C114.97 39.449 114.983 39.82 115.009 39.9945C115.035 40.169 115.106 40.2995 115.219 40.3847C115.334 40.4699 115.552 40.5125 115.876 40.5125H116.086V40.757H112.818V40.5125H113.028C113.334 40.5125 113.545 40.474 113.662 40.3957C113.78 40.3173 113.855 40.1964 113.886 40.0316C113.918 39.8667 113.934 39.4847 113.934 38.8829V35.3544C113.934 34.7815 113.918 34.4119 113.886 34.2456C113.855 34.0793 113.784 33.9639 113.676 33.9007C113.567 33.8375 113.332 33.8045 112.969 33.8045H112.816L112.819 33.8032Z"></path>
<path fill="#3F513E" d="M123.718 38.1035H121.004L120.819 38.5597C120.545 39.2206 120.409 39.6534 120.409 39.854C120.409 40.0697 120.481 40.2332 120.627 40.3445C120.773 40.4558 120.96 40.5121 121.188 40.5121V40.7567H119.065V40.5121C119.381 40.4627 119.616 40.35 119.771 40.1755C119.926 40.001 120.113 39.6314 120.33 39.0694C120.347 39.0158 120.432 38.8111 120.582 38.4539L122.659 33.4607H122.865L125.253 39.1766L125.579 39.9296C125.653 40.0999 125.752 40.2332 125.876 40.3308C126.001 40.4283 126.188 40.4888 126.437 40.5135V40.7581H123.628V40.5135C123.972 40.5135 124.205 40.4874 124.326 40.4366C124.448 40.3857 124.508 40.284 124.508 40.1315C124.508 40.0532 124.427 39.8224 124.265 39.4363L123.716 38.1049L123.718 38.1035ZM123.628 37.8644L122.363 34.7976L121.103 37.8644H123.628Z"></path>
<path fill="#3F513E" d="M135.496 38.6383L135.443 40.7557H129.372V40.5111H129.582C129.887 40.5111 130.099 40.4726 130.216 40.3943C130.334 40.316 130.41 40.1951 130.443 40.0302C130.476 39.8653 130.493 39.4833 130.493 38.8815V35.3531C130.493 34.7801 130.477 34.4105 130.443 34.2442C130.409 34.078 130.339 33.9626 130.233 33.8993C130.125 33.8361 129.892 33.8032 129.529 33.8032H129.37V33.5586H132.801V33.8032H132.484C132.132 33.8032 131.903 33.832 131.794 33.8911C131.685 33.9488 131.612 34.0587 131.575 34.2181C131.539 34.3775 131.519 34.7554 131.519 35.3544V39.122C131.519 39.6413 131.533 39.967 131.562 40.0989C131.589 40.2294 131.665 40.3311 131.791 40.4039C131.915 40.4767 132.184 40.5125 132.595 40.5125H133.138C133.577 40.5125 133.903 40.474 134.115 40.3957C134.328 40.3173 134.53 40.1483 134.721 39.8859C134.912 39.6235 135.086 39.2085 135.245 38.6383H135.496Z"></path>
<path fill="#3F513E" d="M138.564 33.8032V33.5586H141.832V33.8032H141.679C141.327 33.8032 141.098 33.832 140.988 33.8911C140.879 33.9488 140.807 34.0587 140.77 34.2181C140.733 34.3775 140.714 34.7554 140.714 35.3544V38.8829C140.714 39.449 140.728 39.82 140.754 39.9945C140.78 40.169 140.851 40.2995 140.964 40.3847C141.078 40.4699 141.297 40.5125 141.62 40.5125H141.83V40.757H138.562V40.5125H138.772C139.078 40.5125 139.29 40.474 139.407 40.3957C139.524 40.3173 139.599 40.1964 139.631 40.0316C139.662 39.8667 139.678 39.4847 139.678 38.8829V35.3544C139.678 34.7815 139.662 34.4119 139.631 34.2456C139.599 34.0793 139.528 33.9639 139.421 33.9007C139.311 33.8375 139.077 33.8045 138.714 33.8045H138.561L138.564 33.8032Z"></path>
<path fill="#3F513E" d="M145.424 40.6845V38.3706H145.688C145.986 39.8779 146.695 40.6309 147.811 40.6309C148.313 40.6309 148.702 40.4866 148.978 40.1981C149.253 39.9095 149.391 39.5866 149.391 39.2294C149.391 38.8721 149.27 38.5657 149.028 38.3225C148.785 38.0821 148.343 37.8238 147.7 37.5476C147.127 37.3003 146.695 37.0832 146.404 36.8977C146.112 36.7122 145.885 36.4704 145.722 36.1736C145.558 35.8768 145.476 35.5594 145.476 35.2241C145.476 34.7116 145.652 34.2843 146.006 33.9422C146.359 33.6001 146.805 33.4297 147.347 33.4297C147.648 33.4297 147.934 33.4792 148.201 33.5781C148.469 33.677 148.741 33.8817 149.024 34.1936C149.185 33.9985 149.276 33.7883 149.298 33.5616H149.53V35.4454H149.298C149.164 34.8971 148.928 34.4657 148.59 34.151C148.25 33.8364 147.859 33.6784 147.412 33.6784C146.966 33.6784 146.676 33.7938 146.476 34.026C146.277 34.2582 146.179 34.511 146.179 34.7872C146.179 35.1197 146.303 35.4014 146.553 35.6309C146.798 35.8644 147.243 36.1269 147.886 36.4168C148.501 36.693 148.948 36.9142 149.227 37.0832C149.507 37.2522 149.731 37.4844 149.899 37.7812C150.066 38.078 150.151 38.4215 150.151 38.8103C150.151 39.4259 149.948 39.926 149.54 40.3121C149.132 40.6982 148.587 40.8906 147.906 40.8906C147.123 40.8906 146.469 40.5883 145.945 39.9837C145.83 40.15 145.744 40.3836 145.688 40.6845H145.424Z"></path>
<path fill="#3F513E" d="M153.863 35.2924H153.62L153.657 33.5625H160.593L160.629 35.2924H160.403C160.322 34.8183 160.212 34.4762 160.071 34.266C159.931 34.0558 159.779 33.9266 159.618 33.8785C159.456 33.8304 159.18 33.8071 158.791 33.8071H157.642V38.8854C157.642 39.4474 157.656 39.817 157.682 39.9942C157.708 40.1715 157.779 40.302 157.895 40.3872C158.011 40.4724 158.228 40.515 158.548 40.515H158.896V40.7596H155.334V40.515H155.702C156.008 40.515 156.219 40.4765 156.337 40.3982C156.454 40.3199 156.53 40.199 156.563 40.0341C156.596 39.8692 156.614 39.4872 156.614 38.8854V33.8071H155.555C155.095 33.8071 154.785 33.8291 154.627 33.873C154.468 33.917 154.32 34.0503 154.182 34.2742C154.043 34.4968 153.936 34.8362 153.863 35.2938V35.2924Z"></path>
<path fill="#3F513E" d="M164.196 40.6845V38.3706H164.459C164.758 39.8779 165.466 40.6309 166.583 40.6309C167.085 40.6309 167.474 40.4866 167.749 40.1981C168.025 39.9095 168.163 39.5866 168.163 39.2294C168.163 38.8721 168.041 38.5657 167.8 38.3225C167.557 38.0821 167.115 37.8238 166.472 37.5476C165.899 37.3003 165.466 37.0832 165.176 36.8977C164.884 36.7122 164.657 36.4704 164.493 36.1736C164.33 35.8768 164.248 35.5594 164.248 35.2241C164.248 34.7116 164.424 34.2843 164.777 33.9422C165.131 33.6001 165.577 33.4297 166.119 33.4297C166.42 33.4297 166.705 33.4792 166.973 33.5781C167.24 33.677 167.513 33.8817 167.796 34.1936C167.957 33.9985 168.048 33.7883 168.07 33.5616H168.302V35.4454H168.07C167.936 34.8971 167.7 34.4657 167.362 34.151C167.022 33.8364 166.63 33.6784 166.184 33.6784C165.738 33.6784 165.447 33.7938 165.248 34.026C165.049 34.2582 164.951 34.511 164.951 34.7872C164.951 35.1197 165.075 35.4014 165.325 35.6309C165.57 35.8644 166.015 36.1269 166.658 36.4168C167.273 36.693 167.719 36.9142 167.999 37.0832C168.279 37.2522 168.503 37.4844 168.67 37.7812C168.838 38.078 168.923 38.4215 168.923 38.8103C168.923 39.4259 168.72 39.926 168.312 40.3121C167.904 40.6982 167.359 40.8906 166.678 40.8906C165.895 40.8906 165.241 40.5883 164.717 39.9837C164.601 40.15 164.515 40.3836 164.459 40.6845H164.196Z"></path>
<path mask="url(#path-2-outside-1_30_236)" stroke-width="0.5" stroke="#3E513D" d="M75.949 40.6845V38.3706H76.2123C76.5112 39.8779 77.2194 40.6309 78.3356 40.6309C78.8378 40.6309 79.2267 40.4866 79.5023 40.1981C79.7779 39.9095 79.9158 39.5866 79.9158 39.2294C79.9158 38.8721 79.7943 38.5657 79.5528 38.3225C79.3099 38.0821 78.8678 37.8238 78.2251 37.5476C77.6519 37.3003 77.2194 37.0832 76.9287 36.8977C76.6367 36.7122 76.4102 36.4704 76.2464 36.1736C76.0827 35.8768 76.0008 35.5594 76.0008 35.2241C76.0008 34.7116 76.1768 34.2843 76.5303 33.9422C76.8837 33.6001 77.3299 33.4297 77.8716 33.4297C78.1732 33.4297 78.4584 33.4792 78.7259 33.5781C78.9933 33.677 79.2662 33.8817 79.5487 34.1936C79.7097 33.9985 79.8011 33.7883 79.823 33.5616H80.0549V35.4454H79.823C79.6892 34.8971 79.4532 34.4657 79.1148 34.151C78.775 33.8364 78.3833 33.6784 77.9371 33.6784C77.4909 33.6784 77.2003 33.7938 77.001 34.026C76.8018 34.2582 76.7036 34.511 76.7036 34.7872C76.7036 35.1197 76.8277 35.4014 77.0775 35.6309C77.3231 35.8644 77.7679 36.1269 78.4106 36.4168C79.0261 36.693 79.4723 36.9142 79.752 37.0832C80.0317 37.2522 80.2555 37.4844 80.4234 37.7812C80.5912 38.078 80.6758 38.4215 80.6758 38.8103C80.6758 39.4259 80.4725 39.926 80.0645 40.3121C79.6565 40.6982 79.112 40.8906 78.4311 40.8906C77.6479 40.8906 76.9942 40.5883 76.4702 39.9837C76.3542 40.15 76.2683 40.3836 76.2123 40.6845H75.949Z"></path>
<path mask="url(#path-2-outside-1_30_236)" stroke-width="0.5" stroke="#3E513D" d="M86.3521 37.3749V38.8877C86.3521 39.4538 86.3658 39.8248 86.3917 39.9993C86.4176 40.1738 86.4886 40.3043 86.6046 40.3895C86.7206 40.4747 86.9375 40.5173 87.2582 40.5173H87.4956V40.7619H84.2234V40.5173H84.4131C84.7187 40.5173 84.9303 40.4788 85.0476 40.4005C85.165 40.3222 85.24 40.2013 85.2714 40.0364C85.3028 39.8715 85.3192 39.4895 85.3192 38.8877V35.3592C85.3192 34.7863 85.3028 34.4167 85.2714 34.2504C85.24 34.0842 85.1691 33.9688 85.0613 33.9055C84.9521 33.8423 84.7174 33.8094 84.3544 33.8094H84.222V33.5648L85.1186 33.5332C85.835 33.5085 86.3944 33.4961 86.7943 33.4961C87.5325 33.4961 88.1001 33.5538 88.4986 33.6706C88.897 33.7874 89.2245 33.9949 89.4783 34.2916C89.7335 34.5884 89.8604 34.9635 89.8604 35.417C89.8604 35.8099 89.7731 36.1562 89.5998 36.4571C89.4265 36.758 89.1768 36.9861 88.852 37.1413C88.5272 37.2966 87.9555 37.3749 87.1368 37.3749H86.3521ZM86.3521 37.1097H86.8638C87.2746 37.1097 87.6075 37.0685 87.86 36.9847C88.1124 36.9009 88.3239 36.7278 88.4918 36.4626C88.6596 36.1974 88.7442 35.8704 88.7442 35.4802C88.7442 34.8852 88.5996 34.4497 88.3089 34.1721C88.0183 33.8946 87.5489 33.7558 86.8993 33.7558C86.6605 33.7558 86.4777 33.7627 86.3508 33.7764V37.1084L86.3521 37.1097Z"></path>
<path mask="url(#path-2-outside-1_30_236)" stroke-width="0.5" stroke="#3E513D" d="M98.799 38.516H99.0515L98.8986 40.7557H92.9805V40.5111H93.1279C93.4827 40.5111 93.7119 40.463 93.8156 40.3682C93.9194 40.272 93.9848 40.1511 94.0135 40.0041C94.0408 39.8571 94.0558 39.4833 94.0558 38.8815V35.3531C94.0558 34.8048 94.0408 34.4435 94.0108 34.2703C93.9808 34.0972 93.9125 33.9763 93.8047 33.9062C93.6969 33.8375 93.4718 33.8032 93.1279 33.8032V33.5586H98.2341L98.4033 35.3517H98.155C98.0431 34.8488 97.9052 34.4929 97.7415 34.2827C97.5777 34.0725 97.384 33.9392 97.1588 33.8842C96.9337 33.8293 96.5721 33.8018 96.0726 33.8018H95.082V36.8219H95.8407C96.1886 36.8219 96.4315 36.7916 96.5707 36.7312C96.7099 36.6707 96.8013 36.58 96.845 36.4578C96.8886 36.3355 96.9105 36.0978 96.9105 35.7446H97.1588V38.2069H96.9105C96.9105 37.807 96.8764 37.5391 96.8109 37.4031C96.744 37.267 96.6458 37.1777 96.5188 37.1379C96.3906 37.0967 96.1736 37.0774 95.868 37.0774H95.0833V38.7812C95.0833 39.6331 95.1379 40.1346 95.2471 40.2857C95.3562 40.4355 95.6496 40.5111 96.1272 40.5111H96.6594C97.0347 40.5111 97.3444 40.463 97.5873 40.3654C97.8302 40.2679 98.0608 40.0687 98.2805 39.7664C98.5002 39.4641 98.6735 39.0478 98.799 38.516Z"></path>
<path mask="url(#path-2-outside-1_30_236)" stroke-width="0.5" stroke="#3E513D" d="M108.903 38.0599H109.129V40.5812H108.903C108.84 40.294 108.725 40.0412 108.56 39.8227C107.931 40.5372 107.129 40.8945 106.152 40.8945C105.119 40.8945 104.274 40.5661 103.619 39.9079C102.964 39.2498 102.637 38.38 102.637 37.2973C102.637 36.5856 102.788 35.9164 103.09 35.2885C103.391 34.6606 103.813 34.1948 104.355 33.8898C104.895 33.5861 105.49 33.4336 106.135 33.4336C106.669 33.4336 107.153 33.5449 107.587 33.7647C108.021 33.9859 108.345 34.2305 108.56 34.4998C108.712 34.1989 108.803 33.887 108.834 33.5655H109.066L109.129 36.2929H108.903C108.744 35.3242 108.422 34.6496 107.935 34.2717C107.448 33.8925 106.899 33.7043 106.288 33.7043C105.54 33.7043 104.945 34.0107 104.505 34.6221C104.064 35.2349 103.843 36.1102 103.843 37.2492C103.843 38.3278 104.083 39.155 104.565 39.7307C105.046 40.305 105.645 40.5936 106.362 40.5936C106.745 40.5936 107.137 40.5001 107.537 40.3119C107.938 40.1236 108.254 39.8076 108.488 39.3597C108.721 38.9118 108.859 38.479 108.901 38.0626L108.903 38.0599Z"></path>
<path mask="url(#path-2-outside-1_30_236)" stroke-width="0.5" stroke="#3E513D" d="M112.819 33.8032V33.5586H116.087V33.8032H115.934C115.582 33.8032 115.353 33.832 115.244 33.8911C115.135 33.9488 115.062 34.0587 115.026 34.2181C114.989 34.3775 114.97 34.7554 114.97 35.3544V38.8829C114.97 39.449 114.983 39.82 115.009 39.9945C115.035 40.169 115.106 40.2995 115.219 40.3847C115.334 40.4699 115.552 40.5125 115.876 40.5125H116.086V40.757H112.818V40.5125H113.028C113.334 40.5125 113.545 40.474 113.662 40.3957C113.78 40.3173 113.855 40.1964 113.886 40.0316C113.918 39.8667 113.934 39.4847 113.934 38.8829V35.3544C113.934 34.7815 113.918 34.4119 113.886 34.2456C113.855 34.0793 113.784 33.9639 113.676 33.9007C113.567 33.8375 113.332 33.8045 112.969 33.8045H112.816L112.819 33.8032Z"></path>
<path mask="url(#path-2-outside-1_30_236)" stroke-width="0.5" stroke="#3E513D" d="M123.718 38.1035H121.004L120.819 38.5597C120.545 39.2206 120.409 39.6534 120.409 39.854C120.409 40.0697 120.481 40.2332 120.627 40.3445C120.773 40.4558 120.96 40.5121 121.188 40.5121V40.7567H119.065V40.5121C119.381 40.4627 119.616 40.35 119.771 40.1755C119.926 40.001 120.113 39.6314 120.33 39.0694C120.347 39.0158 120.432 38.8111 120.582 38.4539L122.659 33.4607H122.865L125.253 39.1766L125.579 39.9296C125.653 40.0999 125.752 40.2332 125.876 40.3308C126.001 40.4283 126.188 40.4888 126.437 40.5135V40.7581H123.628V40.5135C123.972 40.5135 124.205 40.4874 124.326 40.4366C124.448 40.3857 124.508 40.284 124.508 40.1315C124.508 40.0532 124.427 39.8224 124.265 39.4363L123.716 38.1049L123.718 38.1035ZM123.628 37.8644L122.363 34.7976L121.103 37.8644H123.628Z"></path>
<path mask="url(#path-2-outside-1_30_236)" stroke-width="0.5" stroke="#3E513D" d="M135.496 38.6383L135.443 40.7557H129.372V40.5111H129.582C129.887 40.5111 130.099 40.4726 130.216 40.3943C130.334 40.316 130.41 40.1951 130.443 40.0302C130.476 39.8653 130.493 39.4833 130.493 38.8815V35.3531C130.493 34.7801 130.477 34.4105 130.443 34.2442C130.409 34.078 130.339 33.9626 130.233 33.8993C130.125 33.8361 129.892 33.8032 129.529 33.8032H129.37V33.5586H132.801V33.8032H132.484C132.132 33.8032 131.903 33.832 131.794 33.8911C131.685 33.9488 131.612 34.0587 131.575 34.2181C131.539 34.3775 131.519 34.7554 131.519 35.3544V39.122C131.519 39.6413 131.533 39.967 131.562 40.0989C131.589 40.2294 131.665 40.3311 131.791 40.4039C131.915 40.4767 132.184 40.5125 132.595 40.5125H133.138C133.577 40.5125 133.903 40.474 134.115 40.3957C134.328 40.3173 134.53 40.1483 134.721 39.8859C134.912 39.6235 135.086 39.2085 135.245 38.6383H135.496Z"></path>
<path mask="url(#path-2-outside-1_30_236)" stroke-width="0.5" stroke="#3E513D" d="M138.564 33.8032V33.5586H141.832V33.8032H141.679C141.327 33.8032 141.098 33.832 140.988 33.8911C140.879 33.9488 140.807 34.0587 140.77 34.2181C140.733 34.3775 140.714 34.7554 140.714 35.3544V38.8829C140.714 39.449 140.728 39.82 140.754 39.9945C140.78 40.169 140.851 40.2995 140.964 40.3847C141.078 40.4699 141.297 40.5125 141.62 40.5125H141.83V40.757H138.562V40.5125H138.772C139.078 40.5125 139.29 40.474 139.407 40.3957C139.524 40.3173 139.599 40.1964 139.631 40.0316C139.662 39.8667 139.678 39.4847 139.678 38.8829V35.3544C139.678 34.7815 139.662 34.4119 139.631 34.2456C139.599 34.0793 139.528 33.9639 139.421 33.9007C139.311 33.8375 139.077 33.8045 138.714 33.8045H138.561L138.564 33.8032Z"></path>
<path mask="url(#path-2-outside-1_30_236)" stroke-width="0.5" stroke="#3E513D" d="M145.424 40.6845V38.3706H145.688C145.986 39.8779 146.695 40.6309 147.811 40.6309C148.313 40.6309 148.702 40.4866 148.978 40.1981C149.253 39.9095 149.391 39.5866 149.391 39.2294C149.391 38.8721 149.27 38.5657 149.028 38.3225C148.785 38.0821 148.343 37.8238 147.7 37.5476C147.127 37.3003 146.695 37.0832 146.404 36.8977C146.112 36.7122 145.885 36.4704 145.722 36.1736C145.558 35.8768 145.476 35.5594 145.476 35.2241C145.476 34.7116 145.652 34.2843 146.006 33.9422C146.359 33.6001 146.805 33.4297 147.347 33.4297C147.648 33.4297 147.934 33.4792 148.201 33.5781C148.469 33.677 148.741 33.8817 149.024 34.1936C149.185 33.9985 149.276 33.7883 149.298 33.5616H149.53V35.4454H149.298C149.164 34.8971 148.928 34.4657 148.59 34.151C148.25 33.8364 147.859 33.6784 147.412 33.6784C146.966 33.6784 146.676 33.7938 146.476 34.026C146.277 34.2582 146.179 34.511 146.179 34.7872C146.179 35.1197 146.303 35.4014 146.553 35.6309C146.798 35.8644 147.243 36.1269 147.886 36.4168C148.501 36.693 148.948 36.9142 149.227 37.0832C149.507 37.2522 149.731 37.4844 149.899 37.7812C150.066 38.078 150.151 38.4215 150.151 38.8103C150.151 39.4259 149.948 39.926 149.54 40.3121C149.132 40.6982 148.587 40.8906 147.906 40.8906C147.123 40.8906 146.469 40.5883 145.945 39.9837C145.83 40.15 145.744 40.3836 145.688 40.6845H145.424Z"></path>
<path mask="url(#path-2-outside-1_30_236)" stroke-width="0.5" stroke="#3E513D" d="M153.863 35.2924H153.62L153.657 33.5625H160.593L160.629 35.2924H160.403C160.322 34.8183 160.212 34.4762 160.071 34.266C159.931 34.0558 159.779 33.9266 159.618 33.8785C159.456 33.8304 159.18 33.8071 158.791 33.8071H157.642V38.8854C157.642 39.4474 157.656 39.817 157.682 39.9942C157.708 40.1715 157.779 40.302 157.895 40.3872C158.011 40.4724 158.228 40.515 158.548 40.515H158.896V40.7596H155.334V40.515H155.702C156.008 40.515 156.219 40.4765 156.337 40.3982C156.454 40.3199 156.53 40.199 156.563 40.0341C156.596 39.8692 156.614 39.4872 156.614 38.8854V33.8071H155.555C155.095 33.8071 154.785 33.8291 154.627 33.873C154.468 33.917 154.32 34.0503 154.182 34.2742C154.043 34.4968 153.936 34.8362 153.863 35.2938V35.2924Z"></path>
<path mask="url(#path-2-outside-1_30_236)" stroke-width="0.5" stroke="#3E513D" d="M164.196 40.6845V38.3706H164.459C164.758 39.8779 165.466 40.6309 166.583 40.6309C167.085 40.6309 167.474 40.4866 167.749 40.1981C168.025 39.9095 168.163 39.5866 168.163 39.2294C168.163 38.8721 168.041 38.5657 167.8 38.3225C167.557 38.0821 167.115 37.8238 166.472 37.5476C165.899 37.3003 165.466 37.0832 165.176 36.8977C164.884 36.7122 164.657 36.4704 164.493 36.1736C164.33 35.8768 164.248 35.5594 164.248 35.2241C164.248 34.7116 164.424 34.2843 164.777 33.9422C165.131 33.6001 165.577 33.4297 166.119 33.4297C166.42 33.4297 166.705 33.4792 166.973 33.5781C167.24 33.677 167.513 33.8817 167.796 34.1936C167.957 33.9985 168.048 33.7883 168.07 33.5616H168.302V35.4454H168.07C167.936 34.8971 167.7 34.4657 167.362 34.151C167.022 33.8364 166.63 33.6784 166.184 33.6784C165.738 33.6784 165.447 33.7938 165.248 34.026C165.049 34.2582 164.951 34.511 164.951 34.7872C164.951 35.1197 165.075 35.4014 165.325 35.6309C165.57 35.8644 166.015 36.1269 166.658 36.4168C167.273 36.693 167.719 36.9142 167.999 37.0832C168.279 37.2522 168.503 37.4844 168.67 37.7812C168.838 38.078 168.923 38.4215 168.923 38.8103C168.923 39.4259 168.72 39.926 168.312 40.3121C167.904 40.6982 167.359 40.8906 166.678 40.8906C165.895 40.8906 165.241 40.5883 164.717 39.9837C164.601 40.15 164.515 40.3836 164.459 40.6845H164.196Z"></path>
</svg>
