<svg width="293" height="81" viewBox="0 0 293 81" fill="none" xmlns="http://www.w3.org/2000/svg">
<path d="M60.0061 1.38982H59.5111C58.7011 3.18982 57.7111 5.12482 53.7961 5.97982C52.9411 6.15982 52.0411 6.29482 51.1411 6.29482C47.3161 6.29482 42.8611 4.80982 36.6961 4.80982C35.0761 4.80982 33.2761 4.94482 31.3861 5.16982C24.7261 6.06982 17.5261 11.8298 17.5261 18.3998C17.5261 21.7748 19.9111 24.2948 23.1511 24.2948C27.2011 24.2948 31.3411 20.1098 32.1961 16.9598L31.8811 16.7798V16.8248C31.8811 18.4898 27.0211 23.7548 23.5111 23.7548C20.4511 23.7548 18.2911 21.5948 18.2911 18.4448C18.2911 13.1798 23.5111 8.63482 28.1011 6.96982C29.9011 6.33982 32.0161 6.02482 34.2211 6.02482C38.0461 6.02482 42.0061 6.78982 43.9861 6.96982C32.8261 21.6848 26.4361 36.8498 18.1111 43.7798C14.3311 46.8848 10.8211 48.2798 7.94105 48.2798C3.89105 48.2798 1.55105 45.4898 1.55105 41.8448C1.55105 35.9948 6.23105 31.8998 9.92105 29.0648C11.6311 27.7598 13.4761 27.1298 15.1861 27.1298C17.8411 27.1298 20.0911 28.6598 20.0911 31.4498C20.0911 32.7098 19.6861 33.8798 19.1011 34.4648L19.2811 34.7798C20.0461 33.9248 20.4961 32.5298 20.4961 31.1348C20.4961 28.0298 18.2461 26.5898 14.7361 26.5898C12.9361 26.5898 11.0011 27.1298 9.29105 28.2548C4.65605 31.3598 0.831055 35.9048 0.831055 41.5298C0.831055 45.6248 3.89105 48.9998 8.12106 48.9998C11.1361 48.9998 14.6461 47.5598 18.2911 44.7698C33.2311 33.3398 34.4911 21.8648 44.7961 7.14982C46.1461 7.32982 47.4511 7.46482 48.7561 7.46482C53.8411 7.46482 58.3411 5.84482 60.0061 1.38982Z" fill="#202747"/>
<path d="M65.078 1.88482C65.078 0.939821 64.673 0.444824 63.863 0.444824C63.008 0.444824 61.748 0.849822 60.2631 1.88482C57.9231 3.50482 56.573 5.30482 55.538 6.78982C52.028 11.8298 43.433 24.7898 39.653 30.8648L36.368 33.9698L36.728 34.2848L38.348 32.7998L28.718 48.9998H30.833L38.348 36.3998C40.418 32.9348 42.938 31.8548 44.423 30.6848C45.323 30.0098 46.313 29.5148 47.033 29.5148C47.618 29.5148 47.978 29.8298 47.978 30.5048C47.978 30.8648 47.888 31.3148 47.663 31.8548C47.168 33.6548 42.758 40.3598 39.833 46.0748C39.653 46.6148 39.563 47.1098 39.563 47.4698C39.563 48.6848 40.508 49.0448 41.678 49.0448C42.803 49.0448 44.153 48.8198 44.918 48.5498C46.853 47.6948 51.938 44.4548 53.558 42.1598L53.243 41.9798C51.758 43.5998 49.643 45.7598 44.918 48.0548C44.063 48.3698 43.208 48.5498 42.533 48.5498C41.678 48.5498 41.093 48.2798 41.093 47.5148C41.093 47.1998 41.183 46.7948 41.453 46.2548C43.748 41.4848 48.968 33.2948 48.968 31.3598C48.968 30.4148 48.878 28.8848 47.393 28.8848C46.898 28.8848 46.133 29.0198 45.233 29.5598C44.198 30.1448 42.128 31.3598 40.328 33.1598C42.443 29.8748 42.128 30.3698 43.568 28.2548C51.623 21.5498 59.3631 15.1598 63.368 7.14982C64.5831 4.71982 65.078 3.00982 65.078 1.88482ZM64.493 2.10982C64.493 2.91982 64.1331 3.90982 63.7281 4.85482C60.713 12.0098 51.443 21.8648 44.423 26.7698C50.318 17.9498 55.763 8.54482 59.948 3.54982C61.658 1.47982 62.918 0.849822 63.638 0.849822C64.223 0.849822 64.493 1.38982 64.493 2.10982Z" fill="#202747"/>
<path d="M66.3676 30.0098C66.3676 29.1998 65.6926 28.8848 64.7476 28.8848C57.0526 28.8848 51.2926 39.6398 51.2926 45.0848C51.2926 48.1448 52.5076 48.9998 54.3076 48.9998C58.0426 48.9998 63.6226 43.8698 65.6926 41.3498V40.8548C64.2976 42.4748 58.2676 48.5048 54.6676 48.5048C53.5876 48.5048 52.5976 48.0548 52.5976 46.0748C52.5976 44.0948 54.0376 41.7998 55.2076 39.3698C61.0576 36.1298 66.3676 33.7448 66.3676 30.0098ZM65.8726 30.0548C65.8726 32.3948 61.0576 35.4998 55.5226 38.5598C56.0626 37.3898 60.4276 29.3798 64.8376 29.3798C65.5126 29.3798 65.8726 29.6048 65.8726 30.0548Z" fill="#202747"/>
<path d="M128.726 11.4248C128.726 7.41982 126.341 5.03482 122.606 3.54982C123.101 2.87482 124.406 2.06482 125.711 1.25482C125.711 1.25482 125.531 1.07482 125.396 1.07482C124.046 1.88482 123.236 2.37982 122.111 3.36982C120.536 2.78482 118.691 2.51482 116.711 2.51482C107.126 2.51482 93.311 8.76982 93.311 20.0648C93.311 22.8998 94.841 25.4648 97.811 25.4648C103.481 25.4648 107.261 19.4348 107.531 13.9898H107.396C107.081 19.1648 103.211 24.9698 98.036 24.9698C95.246 24.9698 93.986 22.5848 93.986 19.9748C93.986 9.21982 106.991 3.27982 116.036 3.27982C118.151 3.27982 120.086 3.50482 121.436 3.99982C111.896 6.20482 101.276 48.4148 86.696 48.4148C83.411 48.4148 82.151 45.4898 82.151 42.6548C82.151 36.3548 86.741 29.0198 93.446 29.0198C95.831 29.0198 97.361 30.5498 97.361 32.9348C97.361 34.4648 96.776 35.9948 95.741 36.8948C95.651 36.9398 95.606 36.9848 95.606 36.9848C95.606 36.9848 95.831 36.9848 96.101 37.0748C97.046 36.0398 97.676 34.2398 97.676 32.6198C97.676 30.0098 95.741 28.5248 93.311 28.5248C86.336 28.5248 81.431 35.8148 81.431 42.0248C81.431 45.6698 82.961 48.9548 87.011 48.9548C98.621 48.9548 105.641 31.2248 110.141 24.9698C111.806 25.2848 114.101 25.2848 115.046 25.2848C117.881 26.0498 118.826 28.9298 118.826 31.8548C118.826 39.5048 113.471 48.5048 104.921 48.5048C102.851 48.5048 100.691 47.6498 100.691 45.3548C100.691 44.4548 101.006 43.5098 101.501 42.7898V42.4748C100.736 42.9698 100.331 44.1398 100.331 45.3098C100.331 47.9648 102.491 49.0898 104.966 49.0898C113.606 49.0898 121.346 40.8548 121.346 33.2498C121.346 30.0998 119.951 26.0048 116.711 25.1498C122.651 24.1598 128.726 17.1398 128.726 11.4248ZM126.791 11.1548C126.791 17.1398 121.886 24.3398 114.011 24.3398C113.021 24.3398 111.941 24.2048 110.816 23.9798C114.596 16.9598 119.636 6.15982 122.111 4.17982C124.451 5.12482 126.791 8.09482 126.791 11.1548Z" fill="#202747"/>
<path d="M145.292 32.8448L145.112 32.1698L143.672 32.8448C143.222 32.8898 142.817 33.0248 142.412 33.0248C140.477 33.0248 138.857 28.8848 135.887 28.8848C134.042 28.8848 131.387 29.9198 129.947 32.3948C126.842 37.6148 122.477 44.7698 120.227 48.9998H122.477L131.072 34.7798C133.097 30.9098 134.897 29.6498 136.337 29.6498C138.722 29.6498 139.892 33.6998 142.232 33.6998C142.637 33.6998 143.087 33.6998 143.672 33.4748L145.292 32.8448Z" fill="#202747"/>
<path d="M153.65 21.2348C153.65 20.5598 153.11 20.1098 152.48 20.1098C151.85 20.1098 151.31 20.5598 151.31 21.2348C151.31 21.8648 151.895 22.3148 152.48 22.3148C153.02 22.3148 153.65 21.8648 153.65 21.2348ZM150.455 41.5748L150.32 41.4398C148.34 43.5548 145.775 46.5698 142.985 48.1898C142.49 48.4598 141.41 48.7748 140.645 48.7748C140.42 48.7748 140.195 48.7748 140.06 48.6848C139.61 48.3698 139.34 47.8748 139.34 47.2898C139.34 46.9748 139.385 46.6148 139.565 46.2548C142.67 40.1798 146.585 33.7898 149.375 28.8848H146.9C145.1 32.3498 143.705 33.8348 139.385 41.6648C138.485 43.3298 138.035 44.9048 138.035 46.2098C138.035 47.1098 138.26 47.8748 138.575 48.3698C138.8 48.9098 139.475 49.0898 140.285 49.0898C141.23 49.0898 142.355 48.8198 143.165 48.3698C145.955 46.8848 148.16 44.0498 150.455 41.5748Z" fill="#202747"/>
<path d="M171.747 38.6048V37.9298C169.137 39.9098 163.062 45.2648 158.247 48.9998L170.487 28.8848H168.372L167.382 30.3698C167.382 29.3348 166.572 28.9298 165.312 28.9298C158.337 28.9298 149.112 37.8848 149.112 44.5898C149.112 46.7498 149.787 49.0448 152.262 49.0448C154.602 49.0448 156.942 46.7948 158.382 45.2648L154.017 52.0148C149.292 56.6948 132.597 67.0898 132.597 77.9348C132.597 79.7798 133.497 80.6798 134.802 80.6798C142.767 80.6798 151.092 61.1498 157.257 50.7998C162.162 46.6598 169.452 40.0898 171.747 38.6048ZM166.707 31.1348C166.707 31.3598 166.662 31.5848 166.572 31.8548L158.247 44.5898C156.627 46.1648 154.782 48.5948 152.262 48.5948C150.957 48.5948 150.417 47.6498 150.417 46.3448C150.417 40.5398 159.912 29.5148 164.727 29.5148C165.942 29.5148 166.707 30.1448 166.707 31.1348ZM153.162 53.5898C149.427 60.2948 140.022 80.0948 134.442 80.0948C133.587 80.0948 133.137 79.4648 133.137 78.1148C133.137 69.0248 146.862 58.9898 153.162 53.5898Z" fill="#202747"/>
<path d="M200.649 1.88482C200.649 0.939821 200.244 0.444824 199.434 0.444824C198.579 0.444824 197.319 0.849822 195.834 1.88482C193.494 3.50482 192.144 5.30482 191.109 6.78982C187.599 11.8298 179.004 24.7898 175.224 30.8648L171.939 33.9698L172.299 34.2848L173.919 32.7998L164.289 48.9998H166.404L173.919 36.3998C175.989 32.9348 178.509 31.8548 179.994 30.6848C180.894 30.0098 181.884 29.5148 182.604 29.5148C183.189 29.5148 183.549 29.8298 183.549 30.5048C183.549 30.8648 183.459 31.3148 183.234 31.8548C182.739 33.6548 178.329 40.3598 175.404 46.0748C175.224 46.6148 175.134 47.1098 175.134 47.4698C175.134 48.6848 176.079 49.0448 177.249 49.0448C178.374 49.0448 179.724 48.8198 180.489 48.5498C182.424 47.6948 187.509 44.4548 189.129 42.1598L188.814 41.9798C187.329 43.5998 185.214 45.7598 180.489 48.0548C179.634 48.3698 178.779 48.5498 178.104 48.5498C177.249 48.5498 176.664 48.2798 176.664 47.5148C176.664 47.1998 176.754 46.7948 177.024 46.2548C179.319 41.4848 184.539 33.2948 184.539 31.3598C184.539 30.4148 184.449 28.8848 182.964 28.8848C182.469 28.8848 181.704 29.0198 180.804 29.5598C179.769 30.1448 177.699 31.3598 175.899 33.1598C178.014 29.8748 177.699 30.3698 179.139 28.2548C187.194 21.5498 194.934 15.1598 198.939 7.14982C200.154 4.71982 200.649 3.00982 200.649 1.88482ZM200.064 2.10982C200.064 2.91982 199.704 3.90982 199.299 4.85482C196.284 12.0098 187.014 21.8648 179.994 26.7698C185.889 17.9498 191.334 8.54482 195.519 3.54982C197.229 1.47982 198.489 0.849822 199.209 0.849822C199.794 0.849822 200.064 1.38982 200.064 2.10982Z" fill="#202747"/>
<path d="M204.864 20.8748H202.704L197.304 29.1998H193.389V29.6948H196.989C194.559 33.2948 192.084 36.8948 189.969 40.3598C189.159 41.7098 188.034 44.2748 188.034 46.2548C188.034 47.8298 188.709 49.0448 190.734 49.0448C196.584 49.0448 201.939 41.5748 202.614 39.4148H202.299C200.994 41.5748 196.494 48.7298 190.734 48.7298C189.474 48.7298 189.024 48.0548 189.024 47.1098C189.024 45.6248 190.104 43.5098 190.779 42.4748C193.164 38.8298 196.674 33.7898 199.284 29.6948H202.704L203.199 29.1998H199.464L204.864 20.8748Z" fill="#202747"/>
<path d="M235.808 32.6648L235.358 32.4848C234.773 33.8798 233.333 34.8248 231.758 34.8248C229.463 34.8248 226.898 32.7548 226.493 27.0848L225.683 27.2648C225.683 35.8598 217.673 45.6698 215.693 47.3798C214.433 48.4598 213.398 48.8198 212.633 48.8198C211.553 48.8198 210.518 47.6948 210.518 46.6148C210.518 45.4448 211.373 43.7798 211.958 42.7898L220.598 28.8848H218.663L209.483 42.9698C208.313 44.7698 206.693 46.8848 205.208 47.8748C204.578 48.2798 203.768 48.7298 202.958 48.7298C201.833 48.7298 201.428 47.6498 201.428 46.3448C201.428 45.0848 201.968 43.2848 202.598 42.2948L211.463 28.8848H209.303L200.978 41.1698C199.988 42.6098 199.718 44.0048 199.718 45.2198C199.718 47.3348 200.663 49.0898 202.688 49.0898C203.588 49.0898 204.578 48.7748 205.208 48.3698C207.503 46.8398 208.988 44.5898 210.473 42.2948C209.978 43.3748 209.618 44.6348 209.618 45.7598C209.618 47.5598 210.653 49.0448 212.813 49.0448C213.758 49.0448 214.793 48.6398 215.873 47.6948C218.933 45.0398 224.873 36.5798 226.673 31.9898C226.988 32.9348 229.238 35.1848 231.758 35.1848C233.108 35.1848 234.593 34.5998 235.808 32.6648Z" fill="#202747"/>
<path d="M248.222 32.2598C247.592 32.9348 246.467 33.3398 245.387 33.3398C244.262 33.3398 243.182 32.9348 242.507 31.9898C242.552 31.8998 242.597 31.6748 242.597 31.4498C242.597 30.9998 242.507 30.3698 242.507 30.0548C242.237 29.2448 241.742 28.5248 240.572 28.5248C239.897 28.5248 238.952 28.7498 237.782 29.3798C232.517 32.3048 228.107 38.0648 226.307 44.2748C226.082 45.1298 225.947 45.8498 225.947 46.5248C225.947 48.0548 226.667 48.9548 228.152 48.9548C228.917 48.9548 229.907 48.7298 231.077 48.1898C236.657 44.9498 241.202 37.2548 242.507 32.7998C243.227 33.1598 244.262 33.6548 245.432 33.6548C246.332 33.6548 247.277 33.3848 248.267 32.5298L248.222 32.2598ZM242.057 30.3698C242.057 35.6348 237.107 43.5098 231.257 47.6948C230.132 48.5048 229.007 48.8198 228.197 48.8198C227.297 48.8198 226.802 48.3698 226.802 47.0648C228.107 42.6548 233.687 34.7798 238.097 30.3698C239.087 29.3798 239.987 28.9748 240.662 28.9748C241.517 28.9748 242.057 29.6498 242.057 30.3698Z" fill="#202747"/>
<path d="M261.977 32.2598C261.347 32.9348 260.222 33.3398 259.142 33.3398C258.017 33.3398 256.937 32.9348 256.262 31.9898C256.307 31.8998 256.352 31.6748 256.352 31.4498C256.352 30.9998 256.262 30.3698 256.262 30.0548C255.992 29.2448 255.497 28.5248 254.327 28.5248C253.652 28.5248 252.707 28.7498 251.537 29.3798C246.272 32.3048 241.862 38.0648 240.062 44.2748C239.837 45.1298 239.702 45.8498 239.702 46.5248C239.702 48.0548 240.422 48.9548 241.907 48.9548C242.672 48.9548 243.662 48.7298 244.832 48.1898C250.412 44.9498 254.957 37.2548 256.262 32.7998C256.982 33.1598 258.017 33.6548 259.187 33.6548C260.087 33.6548 261.032 33.3848 262.022 32.5298L261.977 32.2598ZM255.812 30.3698C255.812 35.6348 250.862 43.5098 245.012 47.6948C243.887 48.5048 242.762 48.8198 241.952 48.8198C241.052 48.8198 240.557 48.3698 240.557 47.0648C241.862 42.6548 247.442 34.7798 251.852 30.3698C252.842 29.3798 253.742 28.9748 254.417 28.9748C255.272 28.9748 255.812 29.6498 255.812 30.3698Z" fill="#202747"/>
<path d="M292.291 0.57982H290.176C286.711 6.15982 277.261 21.9548 271.231 30.6398C270.781 29.2448 269.701 28.7498 268.531 28.7498C260.431 28.7498 253.816 40.3148 253.816 46.0748C253.816 48.0548 254.716 49.0448 256.156 49.0448C259.441 49.0448 262.096 44.4998 263.806 42.7898C262.996 44.4548 262.681 45.5798 262.681 46.2548C262.681 48.3248 264.076 48.9998 265.741 48.9998C270.061 48.9998 272.941 44.9498 275.281 42.4748L275.101 41.9798C272.131 45.1748 269.701 48.5048 266.146 48.5048C264.841 48.5048 263.806 48.0548 263.806 46.9748C263.806 46.5698 263.986 45.9398 264.301 45.3998C270.511 35.5898 287.701 8.76982 292.291 0.57982ZM270.601 30.7298C270.601 31.1348 270.556 31.5398 270.376 31.9898C266.866 36.9848 260.206 48.5048 256.246 48.5048C255.436 48.5048 254.896 48.0548 254.896 47.0198C254.896 41.5298 263.761 29.0648 268.981 29.0648C270.016 29.0648 270.601 29.6948 270.601 30.7298Z" fill="#202747"/>
</svg>
