<svg viewBox="0 0 603.87 126" fill="none" xmlns="http://www.w3.org/2000/svg">
    <clipPath id="madrinas-logo">
      <path d="m201.38,20.04h19.98v85.92h-14.64v-56.79l-12.5,38.36h-13.27l-.12-.36-12.38-37.88v56.67h-14.77V20.04h19.98l.11.38,13.75,46.62,13.86-46.99Zm139.04,13.84v58.24c0,9.18-5.11,13.84-15.19,13.84h-32.81V20.04h32.81c10.08,0,15.19,4.66,15.19,13.84Zm-16.65,2.33c0-1.26-.22-2.12-.64-2.51-.25-.23-1.02-.77-2.6-.77h-11.58v60.68h11.58c1.61,0,2.3-.33,2.6-.6.42-.38.64-1.25.64-2.5v-54.29Zm65.25,36.12l12.06,33.63h-15.88l-.12-.36-11.27-32.73h-5.54v33.09h-16.52V20.04h31.73c10.08,0,15.19,4.66,15.19,13.84v25.15c0,7.38-3.24,11.85-9.64,13.3Zm-6.87-36.3c0-1.59-.35-2.24-.64-2.5-.3-.28-.99-.6-2.6-.6h-10.64v27.46h10.64c1.61,0,2.3-.33,2.6-.6.29-.27.64-.91.64-2.5v-21.25Zm28.24,69.93h16.52V20.04h-16.52v85.92Zm63.94-35.47l-18.24-50.45h-17.94v85.92h16.2v-49.36l18.36,49.02.13.34h17.53V20.04h-16.03v50.45Zm114.9-14.27h-10.62c-1.72,0-2.44-.33-2.74-.6-.29-.27-.64-.91-.64-2.5v-17.08c0-1.59.35-2.24.64-2.5.3-.27,1.01-.6,2.74-.6h5.11c1.61,0,2.3.33,2.6.6.29.27.64.91.64,2.5v10.21h16.66v-12.36c0-9.19-5.07-13.84-15.05-13.84h-14.8c-9.99,0-15.05,4.66-15.05,13.84v20.85c0,9.27,4.84,13.98,14.38,13.98h10.9c1.61,0,2.3.33,2.6.6.29.27.64.92.64,2.5v18.16c0,1.25-.22,2.12-.64,2.5-.3.27-.99.6-2.6.6h-5.11c-1.72,0-2.44-.33-2.74-.6-.42-.38-.64-1.25-.64-2.5v-10.08h-16.52v12.23c0,9.18,5.11,13.84,15.19,13.84h14.53c10.08,0,15.18-4.66,15.18-13.84v-22.19c0-9.1-4.93-13.71-14.65-13.71Zm-74.67-36.18l-17.57,85.29-.13.63h27.45l1.96-12.75h-10.54l9.62-54.74,12.38,67.06.08.43h16.15l-17.7-85.92h-21.71Zm-269.03,0l-17.7,85.92h27.45l1.96-12.75h-10.54l9.62-54.74,12.38,67.06.08.43h16.15l-17.7-85.92h-21.7Zm-119.52,42.96c0,34.79-28.21,63-63,63S0,97.79,0,63,28.21,0,63,0s63,28.21,63,63Zm-15.47,26.41l-26.14-45.24-5.5,7.35,17.17,29.64h-9.3l-12.98-22.89-10.79,14.5-10.58-14.5-20.84,25.6h-.02s21.92-43.84,21.92-43.84l9.49,16.54,14.4-24.49-4.9-8.46-9.51,16.37-9.5-16.42L15.47,89.42h8.02s-.01.02-.01.02l6.04-.02h14.42s9.52-16.39,9.52-16.39l9.5,16.35,9.41-16.35,9.54,16.38h0s0,0,0,0h4.57s24.06,0,24.06,0Z"></path>
    </clipPath>
    <g background-color="#FFFFFF" clip-path="url(#madrinas-logo)">
      <path id="black-logo" d="m201.38,20.04h19.98v85.92h-14.64v-56.79l-12.5,38.36h-13.27l-.12-.36-12.38-37.88v56.67h-14.77V20.04h19.98l.11.38,13.75,46.62,13.86-46.99Zm139.04,13.84v58.24c0,9.18-5.11,13.84-15.19,13.84h-32.81V20.04h32.81c10.08,0,15.19,4.66,15.19,13.84Zm-16.65,2.33c0-1.26-.22-2.12-.64-2.51-.25-.23-1.02-.77-2.6-.77h-11.58v60.68h11.58c1.61,0,2.3-.33,2.6-.6.42-.38.64-1.25.64-2.5v-54.29Zm65.25,36.12l12.06,33.63h-15.88l-.12-.36-11.27-32.73h-5.54v33.09h-16.52V20.04h31.73c10.08,0,15.19,4.66,15.19,13.84v25.15c0,7.38-3.24,11.85-9.64,13.3Zm-6.87-36.3c0-1.59-.35-2.24-.64-2.5-.3-.28-.99-.6-2.6-.6h-10.64v27.46h10.64c1.61,0,2.3-.33,2.6-.6.29-.27.64-.91.64-2.5v-21.25Zm28.24,69.93h16.52V20.04h-16.52v85.92Zm63.94-35.47l-18.24-50.45h-17.94v85.92h16.2v-49.36l18.36,49.02.13.34h17.53V20.04h-16.03v50.45Zm114.9-14.27h-10.62c-1.72,0-2.44-.33-2.74-.6-.29-.27-.64-.91-.64-2.5v-17.08c0-1.59.35-2.24.64-2.5.3-.27,1.01-.6,2.74-.6h5.11c1.61,0,2.3.33,2.6.6.29.27.64.91.64,2.5v10.21h16.66v-12.36c0-9.19-5.07-13.84-15.05-13.84h-14.8c-9.99,0-15.05,4.66-15.05,13.84v20.85c0,9.27,4.84,13.98,14.38,13.98h10.9c1.61,0,2.3.33,2.6.6.29.27.64.92.64,2.5v18.16c0,1.25-.22,2.12-.64,2.5-.3.27-.99.6-2.6.6h-5.11c-1.72,0-2.44-.33-2.74-.6-.42-.38-.64-1.25-.64-2.5v-10.08h-16.52v12.23c0,9.18,5.11,13.84,15.19,13.84h14.53c10.08,0,15.18-4.66,15.18-13.84v-22.19c0-9.1-4.93-13.71-14.65-13.71Zm-74.67-36.18l-17.57,85.29-.13.63h27.45l1.96-12.75h-10.54l9.62-54.74,12.38,67.06.08.43h16.15l-17.7-85.92h-21.71Zm-269.03,0l-17.7,85.92h27.45l1.96-12.75h-10.54l9.62-54.74,12.38,67.06.08.43h16.15l-17.7-85.92h-21.7Zm-119.52,42.96c0,34.79-28.21,63-63,63S0,97.79,0,63,28.21,0,63,0s63,28.21,63,63Zm-15.47,26.41l-26.14-45.24-5.5,7.35,17.17,29.64h-9.3l-12.98-22.89-10.79,14.5-10.58-14.5-20.84,25.6h-.02s21.92-43.84,21.92-43.84l9.49,16.54,14.4-24.49-4.9-8.46-9.51,16.37-9.5-16.42L15.47,89.42h8.02s-.01.02-.01.02l6.04-.02h14.42s9.52-16.39,9.52-16.39l9.5,16.35,9.41-16.35,9.54,16.38h0s0,0,0,0h4.57s24.06,0,24.06,0Z"></path>
    <defs><style>.cls-6{fill:#00adef;}.cls-2{fill:#ea8d59;}.cls-3{fill:#fff;}.cls-4{fill:#ff1c3d;}.cls-5{fill:#ff62a5;}</style></defs><g id="Layer_1-2"><g><g><path class="cls-4" d="m489.84,68.3c-.36-4.58-1.89-6.58-3.74-10.38,1.56-.46,3.18.51,4.34,1.88v-13.14c-.7-.98-1.22-2.09-1.22-3.36,0-1.47.71-2.74,1.22-4.09v-6.03c-.09-.34-.17-.69-.26-1.02-.46-1.82-.79-3.87-.06-5.55.09-.21.2-.41.32-.6v-5.96h-16.04v50.46l-18.24-50.46h-.99c.02,1.47.02,2.94,0,4.42.02,5.3-.73,10.63-1.56,15.87-1.41,11.1-.95,22.55-.77,33.89.58.39,1.11.82,1.59,1.3v-18.91l10.56,28.2c.02-.44.04-.89.07-1.33.23-3.25.2-6.79,2.53-9.33.34-.37.74-.72,1.22-.88s1.07-.07,1.39.32c.54.64.11,1.61-.28,2.36-.77,1.52-1.33,3.28-1.67,5.1-.35,1.87-.47,3.79-.35,5.54.1,1.4.15,3.42-.35,5.11l1.15,3.06c.66-.91,1.17-1.95,1.42-2.96,1.87-5.76-1.06-17.71,6.49-19.86,6.59-1.17,11.69,2.82,11.72,9.53,0,1.4-.19,2.69-.28,3.9-.21,2.31.23,4.76.83,7.1.45,1.48.85,3.07,1.55,4.48v-20.08c-.18-2.85-.38-5.71-.6-8.56Zm-24.85-7.45c-1.05,2.39-4.29,2.56-6.23,1.22-2.18-1.67-2.13-5.03-.88-7.22.13-.23.42-.31.65-.18.17.1.26.29.24.47-.11.87-.19,1.72-.09,2.51.15,1.16.67,2.04,1.43,2.81.59.85,1.8.88,2.52.23.82-.73.66-1.85.74-2.9l.06-1.36c.1-1.81.28-3.62.4-5.43.03-.45.71-.46.75-.01.23,2.24.53,4.52.68,6.76.07,1.01.17,2.05-.27,3.09Zm19.46-6.52c-1.47.12-2.87-.42-3.97-1.21-2.23-1.55-3.21-4.33-3.28-6.91-.18-4.89,2.44-9.24,1.72-14.02-.07-.46.62-.61.73-.14,1.08,4.68-1.13,9.48-.73,14.06.18,2.19,1.05,4.27,2.71,5.39,1.91,1.46,4.95.87,5.57-1.59.29-1.69-1.03-2.66-1.57-4.52-1.13-3.11.77-6.13,1.5-8.99.31-1.64.02-3.2-.28-4.89-.4-2.36-1.19-5.11.3-7.33.15-.21.44-.26.65-.12.2.14.25.4.14.61-1.65,3.96,2.77,8.66.72,13.95l-1.14,3.28c-.32,1.01-.46,2-.2,2.97.24.95,1,1.84,1.49,3.17,1.15,2.89-1.37,6.14-4.38,6.3Z"></path><path class="cls-4" d="m603.98,69.94c0-9.1-4.93-13.71-14.65-13.71h-10.63c-1.73,0-2.44-.33-2.74-.6-.29-.27-.64-.91-.64-2.5v-17.08c0-1.59.35-2.24.64-2.51.3-.27,1.01-.6,2.74-.6h5.11c1.61,0,2.3.33,2.6.6.29.27.64.91.64,2.5v10.21h16.66v-12.37c0-9.19-5.07-13.85-15.06-13.85h-14.65c-.02.14-.05.27-.06.42-.18,2.4-.22,4.94-.57,7.35-.06.45-.76.41-.75-.06.2-2.57-.19-5.1-.09-7.66-9.11.4-13.73,5.04-13.73,13.81v20.85c0,6.67,2.52,10.96,7.47,12.86,4-1.87,7.48-1.15,10.17,1.12h3.42c-.54-.75-1.06-1.49-1.06-1.75-2.51-2.68-6.11-3.74-9.33-2.74-1.36.42-3.07,1.05-3.94-.29-.91-1.4-.04-3.76,1.26-4.2.88-.3,1.81-.04,2.7.2.89.24,1.83.46,2.69.09.6-.26,1.15-.8,1.78-.78,1.21.03,1.73,1.89,2.69,2.81,1.6,1.54,4.35.33,5.69,2.21.83,1.17.64,2.86.7,4.45h1.04c1.61,0,2.3.33,2.6.6.29.27.64.92.64,2.51v18.16c0,1.25-.22,2.12-.64,2.5-.3.27-.99.6-2.6.6h-.07c.86,3.31,2.29,6.25,4.98,7.84.98.58,2.14.62,3.25.61,1.15,0,2.28-.02,3.36-.3,4.07-.97,6.73-4.54,8.34-8.33,0-.26.03-.51.03-.78v-22.2Zm-32.12-36.09c-.73,1.34-1.09,2.84-.83,4.32.2,1.12.68,2.26.31,3.54-1.18,3.61-7.13,3.53-8.2-.07-.37-1.28-.13-2.28-.02-3.47.1-.96.15-7.22,1.7-6.72.18.1.28.3.25.49-.16,1.01-.17,2.01-.08,3.05.12,1.54.44,3.39.06,4.98-.13.48-.25.88-.18,1.21.75,2.13,5.37,1.28,4.8-1.25-.14-1.02-.21-2.36.08-3.42.27-1.15.82-2.18,1.5-3.07.13-.16.36-.2.53-.07.15.11.19.32.1.48Zm21.38,62.4c-1.15,3.1-2.62-.9-2.48-2.33.15-1.49.81-3.1,1.69-2.54.73.47,1.06,1.87,1.05,3.28,0,.48-.05,1.01-.26,1.59Zm7.79-3.08c-.39.84-.86,1.66-1.55,2.24s-1.62.86-2.42.53c-1.31-.52-1.76-2.31-1.78-3.84-.03-2.21.46-4.42,1.39-6.38.62-1.32,1.84-3.17,2.86-4.13.61-.58,1.59-.79,2.22-.24.47.41.63,1.11.72,1.76.49,3.41-.03,6.99-1.45,10.07Z"></path><path class="cls-4" d="m514.64,20.04l-12.01,58.31c.19,5.29.2,10.4-1.52,13.91-.6,1.23-1.17,1.6-1.66,1.55l-1.34,6.51c1.46-.61,2.79-1.78,3.81-3.31,1.53-1.75,2.37-4.13,2.76-6.43.91-4.82.39-10.08.74-14.97.33-6.47,1.91-12.77,3.54-19.04.65-2.82,3.19-7.55,6.84-5.47,3.56,2.57,4.67,7.3,5.2,11.27.03.31.06.61.09.91l1.25-7.08c-.22-.63-.46-1.25-.72-1.86-.53-1.25-1.86-2.88-1.85-4.32,1.22.59,2.27,1.6,3.16,2.84l2.53-14.37,5.7,30.85c.59-1.21,1.46-2.6,2.22-3.4.55-.58,1.42-.79,1.98-.24.42.41.56,1.11.65,1.76.44,3.41-.02,6.99-1.3,10.07-.35.84-.77,1.66-1.38,2.24-.07.06-.14.12-.21.18l.72,3.88c1.86-2.02,3.27-5.03,3.82-7.55.79-3.51.6-7.35,1.43-11.17.49-2.82,1.13-5.49,3.23-7.73.5-.49,1.01-.82,1.53-1.05l-7.47-36.26h-21.71Zm17.87,14.93c-1.89,2.6-6.63,2.25-7.72-.95-.37-1.28.11-2.43.31-3.54.26-1.48-.1-2.97-.83-4.32-.22-.4.35-.77.63-.41,1.05,1.34,1.72,3.09,1.71,4.84.02.99-.34,2.02-.01,2.84.78,1.5,4.03,1.86,4.68.06.05-.83-.46-1.95-.36-2.94.01-2.19.53-4.17.16-6.3-.05-.26.13-.51.39-.55,1.44.13,1.42,5.61,1.55,6.76.16,1.46.44,3.13-.5,4.5Z"></path><path d="m488.99,96.94c-1.16-3.05-2.01-6.2-2.22-9.47-.19-3,.79-5.51-.02-8.53-.42-1.55-1.18-3.04-2.4-4.08-1.21-1.03-2.8-1.54-4.37-1.78-1.21-.18-2.49-.21-3.63.24-1.7.66-2.88,2.29-3.44,4.02-1.51,4.61-.42,9.95-1.39,14.74-.32,1.55-1.12,3.08-2.19,4.31l.59,1.57c.96-.96,1.78-2.14,2.37-3.48,2.57-5.77-2.26-17.3,4.95-20.12,3-.54,6.86.72,7.94,3.88,1.26,2.86.2,5.9.33,8.97.24,4,1.19,7.96,2.88,11.59.52,1.06,1.24,1.97,2.06,2.73v-2.06c-.59-.73-1.1-1.57-1.46-2.52Z"></path><path d="m452.86,75.75c0,.67.02,1.34.02,2.01.08.11.17.23.25.34.49.65.92,1.35,1.3,2.08v-2.67c-.5-.67-1.03-1.25-1.57-1.76Z"></path><path d="m591.11,102.74c-4.41-.65-7.18-4.46-8.62-9.65h-1.54c1.11,4.02,3.1,7.62,7.05,9.78,4.97,2.41,9.53,1.45,13.08-1.31,1.06-1.24,1.82-2.75,2.3-4.52-2.57,3.82-6.47,6.55-12.27,5.7Z"></path><path d="m568.24,68.2c1.48.34,3.13.52,4.95.52h1.53c-.27-.17-.54-.32-.82-.45-1.81-.81-3.8-.7-5.66-.07Z"></path><path d="m541.05,62.4c-1.65,5.17-.53,10-2.03,15.24-.92,3.21-2.61,6.37-4.82,8.31l.36,1.97c3.29-2.49,5.6-7.1,6.36-10.92.96-4.09.44-7.7.77-11.51.56-3.17,1.59-5.4,2.73-6.21l-.31-1.52c-1.46.76-2.46,2.74-3.07,4.64Z"></path><path d="m516.19,53.42c-5.3-6.51-9.25,12.06-9.33,28.87-.06,13.3-4.59,19.01-9.15,19.96l-.36,1.73c1.61-.13,3.2-.71,4.59-1.82,2.46-1.73,3.57-4.48,4.39-7.17,1.75-4.91,2.14-10.29,2.22-15.44.35-6.21.61-12.51,1.76-18.62.29-1.2.7-2.37,1.18-3.48.66-1.37,1.31-3.02,2.41-3.8.09-.05.12-.04.15-.04.42.13.74.47,1.14,1.02,1.77,2.31,2.58,5.09,2.98,8.1.66,4.34.38,8.87.66,13.3l1.21-6.87c-.22-5.73-.5-11.6-3.86-15.74Z"></path><path d="m488.89,92.46c-.6-2.35-1.04-4.79-.83-7.1.09-1.2.29-2.5.28-3.9-.03-6.7-5.14-10.7-11.72-9.53-7.55,2.16-4.62,14.1-6.49,19.86-.26,1.01-.77,2.05-1.42,2.96l.61,1.64c1.06-1.23,1.87-2.76,2.19-4.31.97-4.79-.11-10.14,1.39-14.74.57-1.73,1.74-3.36,3.44-4.02,1.14-.44,2.42-.42,3.63-.24,1.58.23,3.16.74,4.37,1.78,1.22,1.04,1.98,2.53,2.4,4.08.82,3.02-.17,5.53.02,8.53.21,3.27,1.05,6.42,2.22,9.47.36.95.86,1.79,1.46,2.52v-2.53c-.7-1.41-1.1-2.99-1.55-4.48Z"></path><path d="m452.83,74.22c0,.51.01,1.02.02,1.53.54.5,1.07,1.08,1.57,1.76v-1.99c-.49-.47-1.02-.91-1.59-1.3Z"></path><path d="m595.61,101.24c-1.08.28-2.21.31-3.36.3-1.11,0-2.27-.04-3.25-.61-2.69-1.59-4.12-4.53-4.98-7.84h-1.53c1.44,5.19,4.22,9,8.62,9.65,5.8.85,9.7-1.88,12.27-5.7.34-1.24.53-2.62.58-4.13-1.61,3.79-4.27,7.36-8.34,8.33Z"></path><path d="m566.28,67.59c.62.24,1.27.45,1.96.61,1.87-.63,3.86-.74,5.66.07.28.13.56.28.82.45h1.73c-2.69-2.28-6.17-2.99-10.17-1.12Z"></path><path d="m542.3,57.35c-2.1,2.24-2.75,4.91-3.23,7.73-.83,3.82-.64,7.67-1.43,11.17-.55,2.52-1.96,5.53-3.82,7.55l.4,2.15c2.21-1.94,3.89-5.1,4.82-8.31,1.5-5.24.38-10.07,2.03-15.24.61-1.9,1.61-3.88,3.07-4.64l-.3-1.46c-.52.22-1.03.56-1.53,1.05Z"></path><path d="m521,62.36c-.53-3.98-1.64-8.7-5.2-11.27-3.65-2.07-6.19,2.66-6.84,5.47-1.63,6.28-3.22,12.58-3.54,19.04-.35,4.89.17,10.15-.74,14.97-.39,2.3-1.23,4.67-2.76,6.43-1.02,1.53-2.35,2.71-3.81,3.31l-.4,1.94c4.57-.95,9.1-6.66,9.15-19.96.07-16.81,4.03-35.38,9.33-28.87,3.37,4.14,3.65,10.01,3.86,15.74l1.04-5.89c-.03-.3-.05-.61-.09-.91Z"></path><path class="cls-4" d="m547.32,82.42c-1.2-.05-2.5,1.15-2.95,2.29-.27.68-.42,1.62-.57,2.38-.42,2.56.65,5.29,1.4,7.62.41.98.67,1.82,1.49,2.13,1.19.3,2.56-.22,3.28-1.24.72-.9.93-1.83,1.13-3.06.04-.18.05-.36.08-.54l-1.41-6.82c-.68-1.21-1.1-2.68-2.46-2.77Z"></path><path d="m542.25,83.97c-.35,1.14-.32,2.02-.32,2.99-.09,2.92-.02,5.63.64,8.56.92,4.27,4.92,5.53,8.48,3.1.49-.36.9-.77,1.24-1.23l-.44-2.13c-.06.14-.12.29-.2.42-.45.79-1.03,1.57-1.99,2.11-.97.54-2.4.79-3.52.4-1.2-.42-1.85-1.74-2.25-3.07-.3-1-.47-2.01-.61-2.62-.58-2.4-.57-4.86-.19-7.28.47-3,3.75-5.24,5.98-3.52l-.35-1.69c-2.77-.98-5.68,1.35-6.46,3.95Z"></path><path d="m551.1,92.56c-.2,1.23-.41,2.16-1.13,3.06-.73,1.01-2.09,1.53-3.28,1.24-.82-.31-1.08-1.15-1.49-2.13-.75-2.33-1.82-5.06-1.4-7.62.15-.77.3-1.7.57-2.38.45-1.15,1.75-2.35,2.95-2.29,1.36.09,1.78,1.56,2.46,2.77l-.72-3.48c-2.23-1.72-5.51.52-5.98,3.52-.38,2.42-.39,4.87.19,7.28.15.61.31,1.61.61,2.62.4,1.33,1.06,2.65,2.25,3.07,1.12.39,2.56.15,3.52-.4.97-.54,1.54-1.33,1.99-2.11.07-.13.13-.28.2-.42l-.67-3.24c-.03.18-.04.36-.08.54Z"></path><path class="cls-4" d="m514.58,85.87c-.32.48-.64,1.25-.88,2.02-.72,2.3-1.09,5.01-1.1,7.38.03,1.95,1.38,4.76,3.69,4.39,2.15-.54,3.46-2.77,3.53-4.92.03-.5,0-1.01-.05-1.52h-3.95l1.37-7.81c-.89-.57-2.26-.19-2.62.45Z"></path><path d="m512.97,83.43c-1.1.92-1.66,2.44-2.04,3.59-.79,2.84-1.31,5.55-1.06,8.54,1,6.24,8.55,8.42,11.68,2.42.81-1.53,1.03-3.14.91-4.75h-1.35c.07.85.05,1.71-.11,2.56-.5,2.62-2.78,5.09-5.4,4.82-2.42-.26-4.12-2.74-4.38-5.18-.24-2.33.75-9.51,2.73-10.98.98-.73,2.37-.82,3.45-.28l.21-1.21c-1.43-.71-3.12-.72-4.66.48Z"></path><path d="m519.82,94.75c-.07,2.15-1.38,4.38-3.53,4.92-2.31.38-3.65-2.44-3.69-4.39.01-2.38.38-5.08,1.1-7.38.23-.77.55-1.54.88-2.02.35-.64,1.73-1.02,2.62-.45l.22-1.26c-1.08-.54-2.47-.45-3.45.28-1.98,1.47-2.97,8.65-2.73,10.98.25,2.45,1.96,4.93,4.38,5.18,2.62.28,4.9-2.2,5.4-4.82.16-.85.18-1.7.11-2.56h-1.35c.05.51.08,1.02.05,1.52Z"></path><path class="cls-4" d="m566.58,88.08c1.74,3.22,4.86,2.27,5.03-1.23-.04-1.77-.33-3.88-.93-5.59-.18-.55-.44-1.08-.64-1.36h-2.23c-.22.27-.4.65-.56,1.09-.64,2.27-1.65,4.9-.67,7.09Z"></path><path d="m564.43,89.3c2.62,4.5,9.09,2.77,9.91-2.14.2-1.69-.05-3.04-.33-4.63-.2-.87-.4-1.78-.73-2.63h-1.59c.98,2.08,1.43,5.71,1.28,7.1-.21,1.88-1.61,3.78-3.58,3.97-2.15.21-4.01-1.68-4.42-3.69-.41-2.01.25-4.06.92-6.01.16-.46.34-.94.56-1.38h-1.3c-.34.73-.58,1.49-.9,2.27-.82,2.07-1.19,5.03.18,7.13Z"></path><path d="m570.68,81.26c.6,1.71.89,3.82.93,5.59-.17,3.5-3.29,4.44-5.03,1.23-.97-2.19.04-4.82.67-7.09.16-.44.34-.82.56-1.09h-1.36c-.23.44-.4.91-.56,1.38-.67,1.94-1.33,4-.92,6.01.41,2.01,2.28,3.91,4.42,3.69,1.98-.2,3.38-2.1,3.58-3.97.15-1.39-.3-5.02-1.28-7.1h-1.66c.2.28.46.81.64,1.36Z"></path><path d="m486.1,57.92c1.85,3.79,3.38,5.8,3.74,10.38.22,2.85.42,5.7.6,8.56v-17.06c-1.16-1.37-2.79-2.34-4.34-1.88Z"></path><path d="m519.76,50c0,1.44,1.33,3.06,1.85,4.32.26.61.49,1.23.72,1.86l.59-3.34c-.88-1.24-1.94-2.25-3.16-2.84Z"></path><path d="m582.35,64.27c-1.34-1.88-4.09-.66-5.69-2.21-.95-.92-1.48-2.78-2.69-2.81-.64-.02-1.18.52-1.78.78-.86.37-1.8.15-2.69-.09-.89-.24-1.82-.5-2.7-.2-1.31.44-2.18,2.8-1.26,4.2.88,1.34,2.59.71,3.94.29,3.22-1,6.82.05,9.33,2.74,0,.26.52,1,1.06,1.75h3.18c-.05-1.6.13-3.29-.7-4.45Z"></path><path class="cls-3" d="m533.31,79.74c.61-.57,1.03-1.39,1.38-2.24,1.28-3.08,1.74-6.65,1.3-10.07-.08-.65-.23-1.35-.65-1.76-.56-.55-1.44-.34-1.98.24-.76.8-1.62,2.19-2.22,3.4l1.96,10.6c.07-.06.14-.11.21-.18Z"></path><path class="cls-3" d="m601.77,81.35c-.63-.55-1.61-.34-2.22.24-1.03.96-2.24,2.82-2.86,4.13-.93,1.96-1.42,4.17-1.39,6.38.02,1.53.47,3.32,1.78,3.84.81.32,1.74.04,2.42-.53s1.16-1.39,1.55-2.24c1.43-3.08,1.95-6.65,1.45-10.07-.09-.65-.25-1.35-.72-1.76Z"></path><path class="cls-3" d="m501.11,92.26c1.73-3.51,1.71-8.62,1.52-13.91l-3.18,15.46c.49.05,1.06-.32,1.66-1.55Z"></path><path class="cls-3" d="m467.92,86.58c-.12-1.75,0-3.67.35-5.54.34-1.81.9-3.58,1.67-5.1.38-.75.82-1.71.28-2.36-.33-.39-.91-.47-1.39-.32s-.87.5-1.22.88c-2.34,2.54-2.3,6.09-2.53,9.33-.03.44-.05.89-.07,1.33l2.57,6.88c.5-1.68.45-3.71.35-5.11Z"></path><path d="m489.23,43.3c0,1.27.52,2.38,1.22,3.36v-7.45c-.51,1.35-1.21,2.62-1.22,4.09Z"></path><path d="m490.19,32.15c.09.34.17.68.26,1.02v-7.17c-.12.19-.23.38-.32.6-.73,1.68-.39,3.73.06,5.55Z"></path><path class="cls-3" d="m592.45,91.39c-.87-.56-1.53,1.05-1.69,2.54-.15,1.42,1.33,5.43,2.48,2.33.21-.58.26-1.11.26-1.59,0-1.41-.32-2.81-1.05-3.28Z"></path><path d="m488.84,48.03c-.49-1.32-1.25-2.22-1.49-3.17-.27-.97-.12-1.96.2-2.97l1.14-3.28c2.04-5.3-2.37-9.99-.72-13.95.11-.21.06-.47-.14-.61-.21-.15-.5-.1-.65.12-1.49,2.23-.7,4.97-.3,7.33.3,1.69.59,3.25.28,4.89-.73,2.86-2.63,5.88-1.5,8.99.54,1.86,1.86,2.83,1.57,4.52-.62,2.46-3.66,3.05-5.57,1.59-1.67-1.12-2.54-3.2-2.71-5.39-.4-4.58,1.81-9.38.73-14.06-.11-.46-.81-.32-.73.14.72,4.78-1.9,9.13-1.72,14.02.07,2.58,1.05,5.36,3.28,6.91,1.1.79,2.5,1.33,3.97,1.21,3.02-.16,5.53-3.41,4.38-6.3Z"></path><path d="m571.24,33.44c-.68.89-1.22,1.93-1.5,3.07-.29,1.06-.22,2.4-.08,3.42.57,2.53-4.05,3.38-4.8,1.25-.07-.33.05-.73.18-1.21.39-1.59.07-3.44-.06-4.98-.09-1.05-.07-2.04.08-3.05.03-.19-.07-.39-.25-.49-1.54-.51-1.59,5.76-1.7,6.72-.11,1.19-.35,2.2.02,3.47,1.07,3.61,7.02,3.69,8.2.07.37-1.28-.11-2.43-.31-3.54-.26-1.48.1-2.97.83-4.32.09-.16.05-.37-.1-.48-.16-.13-.4-.09-.53.07Z"></path><path d="m531.46,23.71c-.26.04-.44.29-.39.55.37,2.12-.15,4.11-.16,6.3-.1.99.41,2.11.36,2.94-.65,1.8-3.89,1.44-4.68-.06-.33-.82.03-1.85.01-2.84,0-1.75-.66-3.5-1.71-4.84-.28-.36-.85.01-.63.41.73,1.34,1.09,2.84.83,4.32-.2,1.12-.68,2.26-.31,3.54,1.09,3.21,5.83,3.55,7.72.95.95-1.37.67-3.03.5-4.5-.13-1.15-.11-6.64-1.55-6.76Z"></path><path d="m572.63,27.75c-.02.47.69.52.75.06.35-2.41.39-4.95.57-7.35.01-.15.04-.28.06-.42h-.15c-.45,0-.89.02-1.32.04-.09,2.56.29,5.09.09,7.66Z"></path><path class="cls-6" d="m340.49,33.89c0-5.2-1.64-8.94-4.88-11.22-.05.48-.1.97-.12,1.45-.29,6.54,2.47,12.88,2.05,19.42-.04.7-.28,1.58-.85,1.62-.95.06-1.06-2.07-1.43-2.81-.56-1.14-1.4-2.04-2.22-2.89-1.27-1.33-2.62-2.96-2.61-5,0-1.99,1.3-3.63,1.65-5.58.33-1.86-.24-3.75-.69-5.57-.21-.85-.4-1.75-.46-2.64-.5-.12-1.02-.22-1.56-.31.41,1.46.93,2.94.93,4.38.23,2.2-.23,4.65-1.18,6.65-.52,1.37-1.33,2.73-1.49,4.13-.06,1.38.3,3,1.41,3.89.36.26-.02.85-.41.62-1.6-.9-2.32-2.71-2.58-4.42-.09-2.78,1.41-5.31,2.31-7.81.25-.8.28-1.83,0-2.78-.43-1.58-.76-3.2-.92-4.87-.7-.05-1.41-.09-2.16-.09h-17.65c.02,1.47.02,2.94,0,4.42.02,5.3-.73,10.63-1.56,15.87-1.63,12.83-.76,26.13-.72,39.18.12,3.9-.38,7.81-1.58,11.53.35,2.15.92,4.37,2.36,5.79,1.54,1.46,3.57.57,5-.76.78-.7,1.37-1.53,1.81-2.44h-3.95v-1.64c-.34-.2-.29-1.13-.35-1.89-.22-2.95-.22-5.92-.01-8.86.08-1.17.21-2.34.36-3.5v-44.79h11.58c1.58,0,2.35.54,2.6.77.42.38.64,1.25.64,2.51v25.17c1.81-.32,3.64.43,5.17,2.98,2.07,3.71,2.63,7.9,2.79,12.06.08,3.9-.44,7.96-.07,11.73.24,2.49.92,4.92,1.89,7.28.41,1.03.9,2.15,1.65,2.97.87,1.04,1.98,1.68,3.16,1.98,1.36-2.14,2.06-4.89,2.06-8.26v-58.25Zm-3.48,54.09c-.09.75-.29,1.65-.89,1.81-.86.24-1.3-1.2-1.37-2.28-.46-6.4-.8-12.82-1.31-19.22-.36-4.58-1.89-6.58-3.74-10.38,1.96-.58,4.04,1.11,5.14,3.01,1.18,2.04,1.65,4.56,1.98,7.02.89,6.61.95,13.39.19,20.03Z"></path><path class="cls-6" d="m398.73,51.89c-1.06-1.02-2.34-2.24-3.21-3.48-1-1.42-1.65-3.36-1.32-5.2.27-1.56,1.19-2.84,1.71-4.29.15-.4.26-.82.33-1.25.47-3.19-1.94-6.62-.68-9.47.35-.79.92-1.36,1.49-1.94-.32-.59-.69-1.15-1.11-1.66-.32.66-.73,1.27-1.22,1.79-2.32,2.54-2.47,4.04-1.51,7.1.38,1.39.87,2.95.77,4.65-.03,1.55-.45,3.03-.85,4.43-.66,2.7-.63,5.55.09,8.27.14.52-.62.83-.87.33-1.39-2.75-1.8-5.98-1.27-9.03.2-1.47.92-2.75,1.13-4.12.12-1.35-.4-2.63-.86-3.93-.88-2.08-1.23-5.14.55-7.13.94-1.22,2.22-2.22,2.97-3.49-2.54-2.27-6.31-3.42-11.31-3.42h-25.15c-.19,1.16-.59,2.3-.87,3.28-.79,2.97-.7,6.61,1.03,9.22,1.08.79,2.77,1.18,3.98.43,1.06-.59,1.69-2,1.31-3.21-.28-1-.93-1.97-1.11-3.08-.11-.52-.15-2.43.81-2.13.22.1.32.35.25.57-.41,2.05,2.17,3.86,1.74,6.1-.23,3.19-3.9,5.12-6.76,3.83-.62-.25-1.25-.46-1.78-1.02-1.04-1.27-1.16-2.89-1.46-4.35-.68-3.23-.03-6.56.78-9.63h-4.49v38.62c1.09-4.46,3.39-9.82,7.69-7.52,5.16,4.24,5.19,11.75,5.54,17.74.04,2.63.55,5.22.94,7.64.19,1.23.45,2.37.87,3.46.33.93.84,1.95,1.49,2.88v-7.93c-.09-.14-.16-.3-.2-.47-.13-.52-.08-1.09-.04-1.63.35-4.25,0-8.58-.99-12.67-.48-2.01-1.12-3.97-1.9-5.84-.32-.76-.93-1.66-1.37-2.56-.3-.63.49-1.21,1.02-.76,1.48,1.27,2.64,3.19,3.48,5.26v-23.32h10.64c1.61,0,2.3.33,2.6.6.29.27.64.91.64,2.5v21.25c0,1.59-.35,2.24-.64,2.5-.3.27-.99.6-2.6.6h-9.41c.81,4.06.71,8.3.57,12.49h3.38c.21-.98.5-1.94.88-2.84.56-1.32,1.64-3.17,2.56-4.13.55-.58,1.42-.79,1.98-.24.42.41.56,1.11.65,1.76.44,3.41-.02,6.99-1.3,10.07-.35.84-.77,1.66-1.38,2.24-.16.15-.34.28-.52.39l1.21,3.52c1.86-2.11,3.1-5.17,3.68-7.61.84-3.6.4-7.88,1.51-11.65.63-2.87,1.46-6.08,4.14-7.8,3.55-2.07,6.75,1.6,7.81,4.61.77,1.9,1.11,4.32,1.86,6.31,1.43-2.17,2.16-4.99,2.16-8.47v-7.15Z"></path><path class="cls-6" d="m413.49,57.61c.97.26,2.01.5,2.95.1.66-.28,1.26-.87,1.95-.86,1.33.04,1.9,2.07,2.94,3.07,1.54,1.49,4.07.63,5.65,1.82V20.04h-16.52v37.39s.05-.03.08-.03c.96-.32,1.98-.04,2.95.22Zm1.01-22.49c.17-2.25.41-4.5.6-6.75.04-.45.73-.45.75.01.14,2.8.36,5.65.43,8.45.04.99-.01,2.05.34,2.9.48,1.12,1.93,1.74,3.11,1.35,2.76-1.41,3.36-4.7,2.7-7.57-.11-.52.65-.78.88-.31,1.86,3.25,1.16,8.71-3.08,9.59-2.91.85-6-1.07-5.92-4.22-.03-1.08.12-2.39.17-3.45Z"></path><path class="cls-6" d="m426.15,69.15c-.33-.77-2.46-3.29-2.46-3.84-2.75-2.94-6.69-4.09-10.22-3-.96.3-2.08.69-3.01.53v4.31c3.33-1.38,7.52-.96,9.99,1.84,2.01,2.09,3.12,4.69,4.04,7.35,1.54,4.42,1.61,9.33,2.49,13.92v-17.43c-.08-1.32-.29-2.4-.83-3.68Z"></path><path class="cls-6" d="m443.8,71.82c-2.17-3.53-2.71-7.47-3.54-11.36-.92-5.05-1.52-10.12-2.01-15.19,0-.09-.02-.18-.02-.27v56.71c.42-.05.84-.13,1.26-.24,3.4-1.31,5.91-3.95,7.52-7.28,2.18-4.49,3.12-9.65,2.91-14.65-.01-1.5-.04-3-.07-4.49-1.31-.56-2.56-1.19-3.96-1.6-.74-.19-1.72-.95-2.09-1.62Zm.82,21.36c-.39.84-.86,1.66-1.55,2.24s-1.62.86-2.42.53c-1.31-.52-1.76-2.31-1.78-3.84-.03-2.21.46-4.42,1.39-6.38.62-1.32,1.84-3.17,2.86-4.13.61-.58,1.59-.79,2.22-.24.47.41.63,1.11.72,1.76.49,3.41-.03,6.99-1.45,10.07Z"></path><path class="cls-6" d="m441.16,45.01c.56,5.64,1.78,22.19,5.27,25.92,1.1.41,2.26.8,3.35,1.33-.29-10.79-.84-21.58.48-32.36,1.2-6.61,1.44-13.21,1.5-19.86h-11.66c.11,8.33.36,16.68,1.07,24.97Zm4.04,7.43c.28-.49,1.03-.88,1.73-.73.59.13.92.56,1.14.97,1.21,2.22,1.22,6.15.21,8.45-.21.48-.75,1.03-1.41.87-.5-.12-.63-.57-.69-.94-.16-1.05-.33-2.1-.49-3.15-.2-1.3-.41-2.6-.61-3.91-.08-.52-.16-1.07.12-1.56Z"></path><path class="cls-6" d="m438.45,20.04h-.23v24.95c0,.09.02.18.02.27.49,5.07,1.09,10.14,2.01,15.19.83,3.89,1.37,7.83,3.54,11.36.37.66,1.35,1.43,2.09,1.62,1.4.41,2.65,1.04,3.96,1.6-.01-.46-.02-.92-.03-1.38-1.3-.66-2.6-1.09-3.79-1.51-4.32-1.52-7.2-27.48-7.57-52.1Z"></path><path class="cls-6" d="m446.42,70.93c-3.49-3.74-4.7-20.28-5.27-25.92-.71-8.28-.95-16.64-1.07-24.97h-1.64c.37,24.62,3.25,50.58,7.57,52.1,1.19.42,2.49.85,3.79,1.51-.01-.46-.02-.93-.04-1.39-1.09-.53-2.26-.92-3.35-1.33Z"></path><path class="cls-6" d="m445.69,57.91c.16,1.05.33,2.1.49,3.15.06.37.19.82.69.94.66.16,1.2-.4,1.41-.87,1.01-2.29,1-6.23-.21-8.45-.22-.41-.55-.84-1.14-.97-.7-.15-1.46.24-1.73.73-.28.49-.2,1.04-.12,1.56.2,1.3.41,2.6.61,3.91Z"></path><path d="m337.27,101.89c-2.05-.82-3.79-2.57-4.7-4.94-3.31-8.67-2.03-12.32-2.03-19.78,0-6.83-2.3-15.45-6.71-14.5v1.31c1.02-.31,2.05.06,2.97,1.72,2.37,4.29,2.62,9.72,2.4,14.66-.11,2.59-.33,5.29-.08,8.05.23,2.75.88,5.46,1.69,8.04.41,1.41,1,2.84,1.92,4.01.83,1.16,1.92,2.06,3.14,2.7.51-.38.98-.81,1.4-1.27Z"></path><path d="m302.83,93.64c-.26.61-.54,1.22-.84,1.82-.03.05-.06.11-.09.16.8,2.12,2.12,3.93,4.45,4.76,4.53,1.12,8.41-2.71,9.83-6.74h-1.57c-2.15,5.24-9.28,9.08-11.78.01Z"></path><path d="m364.56,78.69c-1.88-7.79.55-18.71-4.79-25.27-3.47-4.26-6.36,2.23-7.97,11.93v21.83c.02-.19.05-.39.07-.58.43-5.24.23-10.49.64-15.74.22-3.87.63-7.77,2.03-11.4.78-1.96,1.3-4.53,2.96-5.82.1-.04.12-.04.15-.04.47.14.8.53,1.24,1.11,2.99,3.96,3.13,9.38,3.33,14.28.18,2.62-.22,5.31.2,8.09.61,4.14,2.42,8.37,5.91,10.94v-2.33c-1.78-1.73-3.12-4.3-3.77-6.99Z"></path><path d="m395.37,69.02c-.81-1.85-1.16-4.08-1.72-6.11-.78-2.82-2.61-5.79-5.02-5.46-1.97.28-3.27,2.67-3.99,4.94-1.65,5.17-.53,10-2.03,15.24-.86,3-2.39,5.95-4.38,7.91l.64,1.86c.94-.79,1.76-1.73,2.42-2.78,3.29-4.65,3.93-10.62,3.97-15.97-.05-2.49.08-4.99,1.2-7.22,1.89-4.2,4.06-2.67,5.35.87.82,2.43.98,5.2,2.16,7.73.02.05.05.11.07.16.48-.35.92-.74,1.33-1.17Z"></path><path d="m425.75,91.81c-.99-4.32-1.03-8.89-1.91-13.24-.89-4.35-2.92-8.76-6.35-10.3-2.25-1.01-4.78-.61-7,.47,0,0-.02,0-.02.01v1.72c2.56-1.71,6.07-2.2,8.43.12,2.64,2.47,3.63,6.52,3.95,10.13.7,5.79.71,13.27,4.14,18.35v-3.34c-.5-1.21-.91-2.52-1.23-3.93Z"></path><path d="m449.52,95.45c2.5-4.94,3.55-10.45,3.37-15.94,0-.58,0-1.17-.01-1.76-.46-.63-.93-1.29-1.52-1.81.03,2.05.05,4.09.04,6.09-.03,5.07-2.75,19.53-13.18,20.77v1.12c2.17-.25,4.28-.93,5.87-1.96,2.42-1.68,4.16-4.05,5.42-6.52Z"></path><path d="m453.61,40.33c.84-5.24,1.58-10.57,1.56-15.87.02-1.48.02-2.95,0-4.42h-1.71c.02,5.62-.1,11.27-1,16.46-1.99,11.54-1.42,24.39-1.15,36.64.27.19.53.39.77.61.26.15.51.31.75.47-.18-11.34-.64-22.79.77-33.89Z"></path><path d="m451.36,75.94c.58.53,1.05,1.19,1.52,1.81,0-.67-.01-1.34-.02-2.01-.5-.46-1-.86-1.52-1.2,0,.47.02.93.03,1.4Z"></path><path d="m452.08,73.75c-.24-.22-.5-.42-.77-.61.01.47.02.94.03,1.4.52.35,1.02.74,1.52,1.2,0-.51-.01-1.02-.02-1.53-.24-.16-.49-.33-.75-.47Z"></path><path d="m306.15,96.83c-1.44-1.42-2.01-3.64-2.36-5.79-.28.88-.59,1.75-.95,2.6,2.51,9.07,9.63,5.23,11.78-.01h-1.66c-.44.91-1.03,1.74-1.81,2.44-1.43,1.33-3.46,2.22-5,.76Z"></path><path d="m335.27,98.41c-.76-.81-1.25-1.94-1.65-2.97-.97-2.36-1.65-4.79-1.89-7.28-.37-3.77.15-7.83.07-11.73-.16-4.16-.72-8.34-2.79-12.06-1.53-2.55-3.37-3.31-5.17-2.98v1.27c4.41-.95,6.71,7.67,6.71,14.5,0,7.46-1.28,11.11,2.03,19.78.9,2.37,2.65,4.12,4.7,4.94.43-.46.82-.95,1.16-1.49-1.18-.3-2.29-.94-3.16-1.98Z"></path><path d="m394.72,61.2c-1.06-3.01-4.26-6.68-7.81-4.61-2.69,1.72-3.52,4.93-4.14,7.8-1.11,3.77-.67,8.05-1.51,11.65-.57,2.44-1.81,5.51-3.68,7.61l.65,1.89c1.99-1.96,3.52-4.91,4.38-7.91,1.5-5.24.38-10.07,2.03-15.24.72-2.27,2.02-4.67,3.99-4.94,2.4-.34,4.24,2.64,5.02,5.46.56,2.03.91,4.26,1.72,6.11.45-.46.85-.97,1.21-1.51-.75-2-1.09-4.41-1.86-6.31Z"></path><path d="m366.84,79.99c-.42-1.09-.68-2.24-.87-3.46-.38-2.42-.9-5.01-.94-7.64-.34-5.99-.37-13.5-5.54-17.74-4.3-2.3-6.6,3.06-7.69,7.52v6.69c1.61-9.71,4.5-16.2,7.97-11.93,5.34,6.56,2.91,17.48,4.79,25.27.65,2.7,1.99,5.26,3.77,6.99v-2.81c-.65-.93-1.16-1.95-1.49-2.88Z"></path><path d="m424.49,76.34c-.92-2.66-2.03-5.27-4.04-7.35-2.47-2.79-6.66-3.22-9.99-1.84v1.61s.02,0,.02-.01c2.22-1.08,4.76-1.48,7-.47,3.43,1.53,5.46,5.95,6.35,10.3.89,4.35.93,8.92,1.91,13.24.32,1.4.73,2.72,1.23,3.93v-5.48c-.88-4.59-.95-9.5-2.49-13.92Z"></path><path d="m449.85,75.04c.03,1.5.06,3,.07,4.49.2,5-.73,10.16-2.91,14.65-1.61,3.33-4.12,5.97-7.52,7.28-.41.11-.83.19-1.26.24v1.1c10.43-1.24,13.15-15.7,13.18-20.77.01-2-.01-4.04-.04-6.09-.38-.34-.8-.63-1.29-.81-.07-.03-.15-.06-.22-.1Z"></path><path d="m452.46,36.5c.89-5.18,1.02-10.84,1-16.46h-1.71c-.06,6.65-.3,13.26-1.5,19.86-1.31,10.78-.77,21.57-.48,32.36.53.26,1.05.55,1.53.88-.27-12.25-.84-25.11,1.15-36.64Z"></path><path d="m449.81,73.65c.01.46.02.92.03,1.38.07.03.15.07.22.1.5.18.92.47,1.29.81,0-.46-.02-.93-.03-1.4-.5-.34-1.01-.63-1.52-.89Z"></path><path d="m449.81,73.65c.51.26,1.02.55,1.52.89,0-.47-.02-.93-.03-1.4-.48-.34-1-.63-1.53-.88.01.46.02.93.04,1.39Z"></path><path class="cls-6" d="m389.89,85.47c-1.43,3.88-.71,8.22-.06,12.12.33,1.42.52,2.84,1.67,3.48,1.68.68,3.61-.16,4.66-1.61.78-.94,1.19-2.02,1.51-3.19l-5.34-14.87c-1.25.96-2.14,2.6-2.44,4.07Z"></path><path d="m388.02,84.07c-.86,4.63-1.3,9.17-.91,13.92.18,1.59.65,3.69,2.08,4.97,3.17,2.65,8,.76,9.82-2.56.03-.05.05-.1.08-.15l-.66-1.83c-.19.47-.41.9-.66,1.27-.67,1-1.5,1.98-2.75,2.57-1.26.59-3.03.72-4.32.03-1.38-.74-1.95-2.63-2.23-4.49-.21-1.4-.24-2.79-.32-3.64-.31-3.34.09-6.67.95-9.9.46-1.73,1.53-3.19,2.79-4.08l-.43-1.21c-1.73,1.17-3.07,3.17-3.44,5.1Z"></path><path d="m396.15,99.46c-1.05,1.44-2.98,2.29-4.66,1.61-1.15-.64-1.34-2.06-1.67-3.48-.65-3.91-1.37-8.25.06-12.12.31-1.47,1.19-3.11,2.44-4.07l-.44-1.22c-1.26.89-2.34,2.35-2.79,4.08-.85,3.23-1.26,6.55-.95,9.9.08.85.11,2.23.32,3.64.27,1.86.84,3.75,2.23,4.49,1.29.69,3.07.57,4.32-.03,1.26-.59,2.08-1.57,2.75-2.57.25-.37.47-.8.66-1.27l-.77-2.14c-.32,1.17-.73,2.25-1.51,3.19Z"></path><path class="cls-6" d="m360.93,83.76c-.67-.67-1.66-.58-2.35-.11-.78.75-.99,1.84-1.34,2.98-.68,2.56-1.04,5.46-1.05,8.08.26,5.31,4.62,7.11,6.82,1.62.83-2.52.27-5.1-.3-7.75-.46-1.81-.8-3.86-1.78-4.83Z"></path><path d="m359,80.66c-2.71.05-4.05,3.01-4.57,5.22-.72,3.03-1.23,5.94-.98,9.1,1.77,9.37,11.87,8.29,12.6-.94.2-3.25-.79-6-1.8-8.93-.63-2.17-2.61-4.72-5.25-4.45Zm5.6,14.59c-.5,2.91-2.78,5.65-5.4,5.34-2.42-.28-4.12-3.03-4.38-5.75-.24-2.59.75-10.55,2.73-12.18,1.13-.92,2.78-.92,3.91,0,1.1.9,1.59,2.44,2.01,3.89.82,2.81,1.63,5.78,1.13,8.69Z"></path><path d="m361.46,82.67c-1.12-.93-2.78-.93-3.91,0-1.98,1.63-2.97,9.6-2.73,12.18.25,2.72,1.96,5.47,4.38,5.75,2.62.31,4.9-2.44,5.4-5.34.5-2.91-.3-5.88-1.13-8.69-.42-1.45-.92-2.99-2.01-3.89Zm1.55,13.67c-2.2,5.49-6.57,3.69-6.82-1.62,0-2.62.36-5.52,1.05-8.08.35-1.14.56-2.22,1.34-2.98.69-.48,1.68-.57,2.35.11.98.96,1.32,3.02,1.78,4.83.57,2.65,1.12,5.23.3,7.75Z"></path><path class="cls-6" d="m416.22,91.66c0-2.45-.43-5.26-1.23-7.61-.26-.78-.63-1.56-.98-2-.5-.66-2.27-1.05-3.21-.24-.12.1-.24.22-.34.34v13.28c2.46,1.77,5.47.13,5.77-3.77Z"></path><path d="m418.96,91.96c.26-3.12-.32-5.94-1.22-8.87-.71-2.27-2.33-4.55-5.1-4.41-.83,0-1.55.21-2.18.54v1.39c1.22-.8,2.97-.79,4.17.04,2.16,1.49,3.23,8.79,2.97,11.15-.28,2.49-2.13,5.01-4.76,5.27-.84.08-1.64-.08-2.38-.42v1.13c3.73,1.13,7.97-1.84,8.5-5.83Z"></path><path d="m410.8,81.8c.94-.81,2.71-.42,3.21.24.35.44.72,1.22.98,2,.8,2.36,1.23,5.16,1.23,7.61-.29,3.89-3.31,5.53-5.77,3.77v1.23c.73.33,1.54.5,2.38.42,2.62-.26,4.48-2.78,4.76-5.27.26-2.37-.81-9.66-2.97-11.15-1.2-.83-2.95-.84-4.17-.04v1.53c.11-.13.22-.25.34-.34Z"></path><path d="m334.83,60.94c-1.1-1.91-3.18-3.6-5.14-3.01,1.85,3.79,3.38,5.8,3.74,10.38.5,6.4.85,12.82,1.31,19.22.07,1.08.52,2.52,1.37,2.28.6-.16.81-1.07.89-1.81.76-6.64.69-13.41-.19-20.03-.33-2.47-.8-4.98-1.98-7.02Z"></path><path d="m370.12,72.89c.14-4.19.24-8.43-.57-12.49h-1.23v-4.14c-.84-2.06-1.99-3.98-3.48-5.26-.53-.46-1.32.13-1.02.76.43.91,1.05,1.8,1.37,2.56.78,1.87,1.42,3.82,1.9,5.84.98,4.1,1.33,8.42.99,12.67-.04.55-.1,1.11.04,1.63.04.17.11.33.2.47v-2.05h1.79Z"></path><path d="m413.47,62.31c3.53-1.1,7.47.06,10.22,3,0,.55,2.13,3.08,2.46,3.84.55,1.28.76,2.35.83,3.68v-11.08c-1.58-1.19-4.11-.33-5.65-1.82-1.04-1.01-1.62-3.04-2.94-3.07-.7-.02-1.29.57-1.95.86-.94.4-1.97.17-2.95-.1s-1.99-.55-2.95-.22c-.03,0-.05.02-.08.03v5.41c.93.16,2.05-.24,3.01-.53Z"></path><path class="cls-3" d="m376.37,80.13c.19-.11.36-.23.52-.39.61-.57,1.03-1.39,1.38-2.24,1.28-3.08,1.74-6.65,1.3-10.07-.08-.65-.23-1.35-.65-1.76-.56-.55-1.44-.34-1.98.24-.92.96-2,2.82-2.56,4.13-.38.9-.68,1.85-.88,2.84h.37l2.49,7.24Z"></path><path class="cls-3" d="m443.13,81.59c-1.03.96-2.24,2.82-2.86,4.13-.93,1.96-1.42,4.17-1.39,6.38.02,1.53.47,3.32,1.78,3.84.81.32,1.74.04,2.42-.53s1.16-1.39,1.55-2.24c1.43-3.08,1.95-6.65,1.45-10.07-.09-.65-.25-1.35-.72-1.76-.63-.55-1.61-.34-2.22.24Z"></path><path class="cls-6" d="m308.65,81.23c-.21,2.95-.21,5.92.01,8.86.06.76.01,1.69.35,1.89v-14.25c-.15,1.16-.28,2.33-.36,3.5Z"></path><path d="m332.08,28.86c-.35,1.95-1.65,3.59-1.65,5.58,0,2.05,1.34,3.67,2.61,5,.82.86,1.66,1.75,2.22,2.89.36.74.47,2.87,1.43,2.81.57-.03.8-.91.85-1.62.42-6.53-2.35-12.87-2.05-19.42.02-.49.07-.97.12-1.45-1.3-.91-2.87-1.58-4.68-2.01.06.89.25,1.79.46,2.64.46,1.82,1.02,3.71.69,5.57Z"></path><path d="m396.24,37.67c-.06.44-.18.85-.33,1.25-.53,1.45-1.44,2.73-1.71,4.29-.32,1.84.32,3.78,1.32,5.2.88,1.24,2.15,2.47,3.21,3.48v-18c0-3.05-.57-5.59-1.69-7.63-.56.59-1.14,1.16-1.49,1.94-1.26,2.85,1.15,6.28.68,9.47Z"></path><path d="m328.38,27.78c-.9,2.5-2.4,5.04-2.31,7.81.26,1.72.97,3.52,2.58,4.42.38.23.77-.36.41-.62-1.12-.88-1.47-2.5-1.41-3.89.16-1.4.97-2.75,1.49-4.13.95-2.01,1.41-4.46,1.18-6.65,0-1.44-.52-2.92-.93-4.38-.61-.1-1.25-.17-1.91-.22.15,1.67.49,3.29.92,4.87.28.95.25,1.98,0,2.78Z"></path><path d="m391.34,34.08c.46,1.3.98,2.58.86,3.93-.2,1.38-.93,2.65-1.13,4.12-.52,3.05-.12,6.28,1.27,9.03.25.49,1.01.18.87-.33-.72-2.71-.75-5.57-.09-8.27.4-1.4.81-2.88.85-4.43.1-1.7-.39-3.26-.77-4.65-.96-3.06-.81-4.56,1.51-7.1.49-.52.9-1.13,1.22-1.79-.33-.4-.69-.79-1.08-1.14-.74,1.27-2.03,2.27-2.97,3.49-1.77,1.98-1.42,5.05-.55,7.13Z"></path><path d="m355.53,29.67c.31,1.46.43,3.09,1.46,4.35.53.57,1.16.78,1.78,1.02,2.86,1.29,6.53-.64,6.76-3.83.42-2.24-2.15-4.05-1.74-6.1.07-.22-.03-.47-.25-.57-.97-.31-.93,1.6-.81,2.13.18,1.11.84,2.08,1.11,3.08.38,1.22-.26,2.62-1.31,3.21-1.21.75-2.9.36-3.98-.43-1.73-2.61-1.82-6.26-1.03-9.22.28-.97.68-2.12.87-3.28h-2.09c-.8,3.07-1.46,6.4-.78,9.63Z"></path><path class="cls-5" d="m220.6,74.47c-.13-.52-.08-1.09-.04-1.63.35-4.25,0-8.58-.99-12.67-.48-2.01-1.12-3.97-1.9-5.84-.53-1.25-1.86-2.88-1.85-4.32,2.66,1.28,4.53,4.57,5.58,7.9V20.04h-11.1c-.13.84-.23,1.69-.27,2.55-.29,6.54,2.47,12.88,2.05,19.42-.04.7-.28,1.58-.85,1.62-.95.06-1.06-2.07-1.43-2.81-.56-1.14-1.4-2.04-2.22-2.89-1.27-1.33-2.62-2.96-2.61-5,0-1.99,1.3-3.63,1.65-5.58.33-1.86-.24-3.75-.69-5.57-.14-.56-.26-1.14-.35-1.72h-4.16l-13.87,47-6.06-20.54c-.24-.55-.4-1.14-.51-1.72l-7.19-24.36-.11-.38h-14.19c-.34,1.18-.15,2.4.39,4.11.38,1.39.87,2.95.77,4.65-.03,1.55-.45,3.03-.85,4.43-.66,2.7-.63,5.55.09,8.27.14.52-.62.83-.87.33-1.39-2.75-1.8-5.98-1.27-9.03.2-1.47.92-2.75,1.13-4.12.12-1.35-.4-2.63-.86-3.93-.57-1.34-.91-3.09-.61-4.7h-3.71v47.39c.45.45.86,1.26,1.2,1.83,1.77,3,2.53,7.06,2.34,10.73-.01.23-.03.48-.13.66-.1.18-.31.27-.45.13-.08-.08-.12-.21-.15-.33-.3-1.03-.59-2.04-.9-3-.49-1.49-1.06-2.87-1.89-4.09v7.14c1.22,2.51,1.73,5.36,2.2,8.08.38,2.75.71,6.28,2.71,8.26,1.54,1.46,3.57.57,5-.76,1.75-1.56,2.58-3.79,2.78-6.09.35-3.71.89-7.93,1.19-11.68.3-2.27.43-4.66.88-6.96v-22.03l4.52,13.82c2.65-2.3,5.98-2.93,8.48,1.25,2.07,3.71,2.63,7.9,2.79,12.06.08,3.69-.37,7.53-.11,11.12h3.03c.12-2.72.24-5.43.32-8.15.11-3.59-.66-5.69-1.68-8.33-.48-1.24,1.02-2.28,2.03-1.41.78.68,1.43,1.61,1.85,2.57.95,2.15,1.14,4.71,1.19,7.2.06,2.7-.02,5.41-.23,8.12h3.58l12.5-38.37v3.42c1.27-1.76,2.97-2.66,5.22-1.45,5.16,4.24,5.19,11.75,5.54,17.74.04,2.63.55,5.22.94,7.64.19,1.23.45,2.37.87,3.46.42,1.2,1.15,2.54,2.08,3.66v-8.23c-.37-.08-.68-.5-.79-.96Zm-55.32,10.54c-.02.88-.07,1.76-.17,2.66-.08.7-.18,1.4-.32,2.09-.12.62-.51,1.42-.51,2.03-.23.73-.54,1.89-1.13,2.33-.79.58-.69-.43-.75-1.2-.16-2.09-.16-4.2,0-6.29.1-1.29.12-2.66.71-3.83.11-.23.25-.45.45-.61.47-.37,1.25-.22,1.55.29.18.31.19.68.19,1.03,0,.5,0,1,0,1.5Zm6.98-40.81c-2.15,3.07-6.74,2.04-8.33-1.03-1.47-2.7-.98-5.73-.55-8.51.19-1.33.34-2.64.21-3.95-.05-.46.64-.57.74-.12.87,3.78-.65,8.14,1.35,11.57.99,1.73,3.8,2.98,5.15.99.59-.97.61-2.12.62-3.26-.09-2.59-1.29-5.45-.54-8.16.14-.52.94-.4.92.14-.08,4.05,3.66,8.57.44,12.34Zm42.74-3.5c-.16-1.05-.33-2.1-.49-3.15-.2-1.3-.41-2.6-.61-3.9-.08-.52-.16-1.07.12-1.56.28-.49,1.03-.88,1.73-.73.59.13.92.56,1.14.97,1.21,2.22,1.22,6.15.21,8.45-.21.48-.75,1.03-1.41.87-.5-.12-.63-.57-.69-.94Z"></path><path class="cls-5" d="m297.28,78.33c-1.37-1.59-2.97-2.8-4.8-3.7v11.69c.08-.2.17-.4.26-.6.62-1.32,1.84-3.17,2.86-4.13.61-.58,1.59-.79,2.22-.24.47.41.63,1.11.72,1.76.49,3.41-.03,6.99-1.45,10.07-.39.84-.86,1.66-1.55,2.24s-1.62.86-2.42.53c-.25-.1-.46-.26-.65-.44v5.72c3.13-1.37,5.47-3.89,7-7.04.52-1.06.96-2.17,1.34-3.3-.09-.66-.17-1.3-.24-1.91-.55-3.67-1.45-7.42-3.3-10.64Z"></path><path class="cls-5" d="m276.17,65.31c-2.75-2.94-6.69-4.09-10.22-3-1.49.46-3.36,1.15-4.32-.32-1-1.53-.05-4.12,1.38-4.6.96-.32,1.98-.04,2.95.22s2.01.5,2.95.1c.66-.28,1.26-.87,1.95-.86,1.33.04,1.9,2.07,2.94,3.07.53.51,1.18.75,1.87.88l-8.4-40.77h-14.53c0,1.21.12,2.41.4,3.58.18.75.43,1.48.43,2.27,0,1.97-1.37,2.18-2.26,1.04-.95-1.22-2.21-2.78-2.97-4.28-.4-.78-.69-1.68-.8-2.61h-1.97l-7.84,38.05c.46-.57,1-1.08,1.66-1.5,3.55-2.07,6.75,1.6,7.81,4.61,1.18,2.94,1.36,7.11,3.59,9.04l5.58-31.77,5.4,29.23c.2-.11.4-.21.61-.3,3.41-1.67,7.94-1.36,10.55,1.59,2.01,2.09,3.12,4.69,4.04,7.35,2.52,7.23,1.09,15.79,5.76,22.08.27.41.59.78.93,1.12l-6.79-32.97c-.39-.57-.7-1.06-.7-1.27Zm-19.9-28.34c-.95-1.63-1.22-3.48-1.24-5.19-.04-3.36,1.05-6.51.68-9.81-.05-.46.64-.58.74-.12,1.03,4.61-.94,9.91,1.56,14.09,1.03,1.65,3.18,2.95,5.12,2.35,2.11-.72,2.45-3.24,2.39-5.22-.13-3.15-1.66-6.56-.8-9.86.14-.53.96-.41.92.14-.23,4.88,4.31,10.33.45,14.84-2.57,3.53-7.89,2.29-9.81-1.23Z"></path><path class="cls-5" d="m302.39,79.53c-.01-1.4-.03-2.79-.06-4.19-.59-1.33-1.34-2.54-2.42-3.57-1.93-1.83-4.5-2.52-6.79-3.52-.2-.09-.43-.21-.5-.46-.12-.45.34-.78.72-.89,1.81-.54,3.71-.63,5.56-.29.71.13,1.74.23,2.32.79.34.33.66.88.94,1.37-.29-9.63-.59-19.26.58-28.88,1.2-6.61,1.44-13.21,1.5-19.86h-11.74v35.46c.14,1.04.13,2.14,0,3.18v13.16c2.62,1.12,5.16,2.7,6.55,5.23,0,0,1.24,1.72,1.24,1.72.95,1.39,1.59,2.95,2.06,4.56.1-1.28.12-2.55.07-3.82Z"></path><path class="cls-5" d="m292.49,73.22v1.41c1.82.9,3.42,2.11,4.8,3.7,1.85,3.22,2.75,6.97,3.3,10.64.07.61.15,1.25.24,1.91.39-1.17.71-2.36.95-3.57-1.67-9.41-5.59-12.47-9.29-14.09Z"></path><path class="cls-5" d="m300.27,78.79s-1.24-1.72-1.24-1.72c-1.39-2.53-3.92-4.11-6.55-5.23v1.38c3.7,1.61,7.62,4.67,9.29,14.09.27-1.31.45-2.63.55-3.96-.47-1.61-1.1-3.17-2.06-4.56Z"></path><path class="cls-5" d="m301.22,67.41c-.58-.57-1.62-.66-2.32-.79-1.84-.35-3.74-.25-5.56.29-.37.11-.84.44-.72.89.07.25.3.37.5.46,2.29,1,4.86,1.69,6.79,3.52,1.08,1.03,1.83,2.23,2.42,3.57-.05-2.19-.11-4.37-.18-6.56-.28-.49-.6-1.04-.94-1.37Z"></path><path class="cls-5" d="m292.49,55.51v3.18c.13-1.03.14-2.13,0-3.18Z"></path><path d="m183.02,77.16c0-8.19-3.29-18.97-9.59-12.73l.44,1.35c1.71-1.87,3.74-3.12,5.41-.09,2.37,4.29,2.62,9.72,2.4,14.66-.1,2.32-.29,4.73-.14,7.2h1.3c-.21-3.29.18-6.26.18-10.39Z"></path><path d="m167.57,92.08c-1.32,6.51-11.25,12.62-12.91-1.92-.23-2.03-.56-3.81-.95-5.38v8.49c.67,3.06,1.97,5.97,5.13,7.09,4.34,1.08,8.1-2.4,9.65-6.25v-12.12c-.19,3.77-.38,7.48-.91,10.08Z"></path><path d="m217.04,78.69c-1.88-7.79.55-18.71-4.79-25.27-2.09-2.57-3.97-1.22-5.49,2.38v4.43c.61-2.01,1.33-3.99,2.38-5.74.29-.43.64-.77.83-.85.2-.07.17-.05.41.06,2.12,1.78,3.1,4.79,3.66,7.63.47,2.46.55,5.05.66,7.66.18,2.62-.22,5.31.2,8.09.4,2.82,1.4,5.7,3.1,8.07,1.01,1.45,2.17,2.54,3.4,3.29v-2.22c-2.07-1.71-3.64-4.54-4.36-7.53Z"></path><path d="m301.91,95.61c-.24-.65-.44-1.33-.6-2.02-1.74,3.98-4.53,7.62-8.82,8.85v1.18c1.52-.35,2.94-.91,4.08-1.65,2.37-1.64,4.08-3.95,5.34-6.36Z"></path><path d="m278.22,91.81c-.99-4.32-1.03-8.89-1.91-13.24-.89-4.35-2.92-8.76-6.35-10.3-2.25-1.01-4.78-.61-7,.47-.31.15-.61.32-.91.51l.3,1.64c2.58-2.03,6.47-2.8,9-.3,2.64,2.47,3.63,6.52,3.95,10.13.92,7.63.64,18.22,8.6,22.35.16.08.34.14.51.21l-.34-1.65c-2.95-1.78-4.85-5.38-5.86-9.82Z"></path><path d="m249.03,70.97c-1.76-2.04-2.13-5.24-2.9-8.06-.78-2.82-2.61-5.79-5.02-5.46-1.97.28-3.27,2.67-3.99,4.94-1.65,5.17-.53,10-2.03,15.24-.57,2-1.44,3.98-2.55,5.65l-.77,3.75c.72-.68,1.4-1.49,2.01-2.42,3.29-4.65,3.93-10.62,3.97-15.97-.05-2.49.08-4.99,1.2-7.22,1.89-4.2,4.06-2.67,5.35.87.82,2.43.98,5.2,2.16,7.73.68,1.72,2.06,3.05,3.7,3.86l.31-1.75c-.52-.3-1-.68-1.42-1.16Z"></path><path d="m304.94,36.5c-1.94,11.27-1.44,23.79-1.17,35.78.8,2.44,1.14,5.17,1,7.71-.01.23-.03.48-.13.66-.1.18-.31.27-.45.13-.08-.08-.12-.21-.15-.33-.05-.18-.1-.34-.15-.52,0,.71,0,1.41,0,2.11,0,1.31-.2,3.24-.64,5.4.07.38.13.76.2,1.13.11.78.21,1.62.35,2.47,1.19-3.71,1.7-7.62,1.58-11.53-.04-13.06-.91-26.36.72-39.18.84-5.24,1.58-10.57,1.56-15.87.02-1.48.02-2.95,0-4.42h-1.71c.02,5.62-.1,11.27-1,16.46Z"></path><path d="m302.83,93.64c-.22-.78-.39-1.67-.54-2.66-.28.87-.61,1.75-.99,2.62.16.69.35,1.37.6,2.02.03-.05.06-.11.09-.16.3-.6.58-1.2.84-1.82Z"></path><path d="m303.44,88.57c-.07-.37-.13-.75-.2-1.13-.24,1.14-.54,2.33-.94,3.54.14.98.32,1.87.54,2.66.36-.85.67-1.72.95-2.6-.14-.85-.24-1.69-.35-2.47Z"></path><path d="m304.03,80.44c.04.12.08.25.15.33.14.15.35.06.45-.13.1-.18.12-.43.13-.66.14-2.55-.2-5.27-1-7.71.06,2.58.1,5.13.11,7.64.05.17.1.34.15.52Z"></path><path d="m167.6,78.3c-.31,3.75-.84,7.97-1.19,11.68-.2,2.29-1.04,4.52-2.78,6.09-1.43,1.33-3.46,2.22-5,.76-2-1.98-2.33-5.51-2.71-8.26-.47-2.72-.98-5.57-2.2-8.08v4.29c.4,1.57.72,3.35.95,5.38,1.65,14.53,11.58,8.43,12.91,1.92.53-2.61.72-6.32.91-10.08v-10.66c-.45,2.3-.58,4.69-.88,6.96Z"></path><path d="m219.32,79.99c-.42-1.09-.68-2.24-.87-3.46-.38-2.42-.9-5.01-.94-7.64-.34-5.99-.37-13.5-5.54-17.74-2.25-1.2-3.95-.31-5.22,1.45v3.2c1.52-3.6,3.4-4.96,5.49-2.38,5.34,6.56,2.91,17.48,4.79,25.27.72,2.99,2.29,5.82,4.36,7.53v-2.56c-.93-1.12-1.66-2.46-2.08-3.66Z"></path><path d="m184.27,76.43c-.16-4.16-.72-8.34-2.79-12.06-2.5-4.18-5.83-3.54-8.48-1.25l.43,1.31c6.29-6.24,9.59,4.54,9.59,12.73,0,4.13-.39,7.1-.18,10.39h1.32c-.26-3.6.19-7.43.11-11.12Z"></path><path d="m299.48,94.18c-1.52,3.15-3.87,5.67-7,7.04v1.22c4.29-1.23,7.08-4.87,8.82-8.85-.21-.9-.37-1.82-.49-2.71-.38,1.13-.82,2.23-1.34,3.3Z"></path><path d="m282.72,98.42c-4.67-6.28-3.23-14.84-5.76-22.08-.92-2.66-2.03-5.27-4.04-7.35-2.61-2.95-7.14-3.26-10.55-1.59-.21.09-.41.2-.61.3l.29,1.56c.3-.19.6-.36.91-.51,2.22-1.08,4.76-1.48,7-.47,3.43,1.53,5.46,5.95,6.35,10.3.89,4.35.93,8.92,1.91,13.24,1.01,4.44,2.91,8.04,5.86,9.82l-.43-2.1c-.34-.34-.66-.71-.93-1.12Z"></path><path d="m247.2,61.2c-1.06-3.01-4.26-6.68-7.81-4.61-.66.42-1.2.93-1.66,1.5l-5.19,25.2c1.11-1.68,1.98-3.65,2.55-5.65,1.5-5.24.38-10.07,2.03-15.24.72-2.27,2.02-4.67,3.99-4.94,2.4-.34,4.24,2.64,5.02,5.46.78,2.82,1.14,6.02,2.9,8.06.42.49.9.87,1.42,1.16l.33-1.9c-2.23-1.93-2.4-6.1-3.59-9.04Z"></path><path d="m303.88,79.92c-.25-.85-.49-1.68-.75-2.48-.24-.73-.5-1.43-.8-2.1.03,1.4.05,2.79.06,4.19.05,1.27.03,2.55-.07,3.82.39,1.34.67,2.72.91,4.08.45-2.17.64-4.1.64-5.4,0-.7,0-1.41,0-2.11Z"></path><path d="m302.15,68.78c.1.17.19.33.28.48.54.92.98,1.94,1.33,3.01-.27-11.99-.77-24.51,1.17-35.78.89-5.18,1.02-10.84,1-16.46h-1.71c-.06,6.65-.3,13.26-1.5,19.86-1.17,9.62-.87,19.25-.58,28.88Z"></path><path d="m302.19,90.17c-.12-1.01-.26-1.96-.41-2.85-.25,1.21-.56,2.41-.95,3.57.12.89.28,1.81.49,2.71.38-.86.71-1.74.99-2.62-.04-.27-.08-.53-.11-.81Z"></path><path d="m302.33,83.35c-.1,1.33-.29,2.65-.55,3.96.16.89.3,1.84.41,2.85.03.28.07.55.11.81.39-1.21.7-2.41.94-3.54-.24-1.36-.52-2.74-.91-4.08Z"></path><path d="m302.15,68.78c.07,2.19.13,4.37.18,6.56.3.67.56,1.37.8,2.1.26.8.5,1.63.75,2.48-.01-2.51-.06-5.07-.11-7.64-.35-1.07-.79-2.1-1.33-3.01-.09-.15-.18-.31-.28-.48Z"></path><path class="cls-5" d="m244.42,82.43c-1.5-.15-3.39,1.06-4.01,2.64-1.36,3.36-.18,7,1.05,10.13.32.81.73,1.51,1.17,1.9,1.07.86,2.86.5,3.96-.06,1.35-.72,2.13-2.07,2.42-3.72,0-.03,0-.06.02-.1h-2.29l1.21-6.9c-.14-.29-.29-.58-.45-.86-.85-1.41-1.42-2.92-3.09-3.04Z"></path><path d="m244.56,79.8c-3.16-.07-5.95,2.4-6.42,5.45-.33,3.69-.3,7.21.72,10.86,1.13,4.3,5.3,5.4,9.12,3.48,2.51-1.38,3.56-3.81,3.71-6.37h-1.33c-.12,1.12-.4,2.22-.93,3.02-.54.82-1.23,1.63-2.38,2.19-1.15.56-2.87.82-4.21.41-1.43-.43-2.21-1.81-2.69-3.19-.36-1.04-.56-2.08-.73-2.72-.7-2.5-.69-5.04-.23-7.56.67-3.69,6.04-6.29,8.47-2.25.24.4.45.78.65,1.14l.35-2.01c-.95-1.36-2.29-2.47-4.11-2.48Z"></path><path d="m249.01,93.32c-.29,1.65-1.07,3-2.42,3.72-1.11.56-2.9.92-3.96.06-.44-.39-.85-1.09-1.17-1.9-1.23-3.13-2.41-6.78-1.05-10.13.62-1.58,2.51-2.79,4.01-2.64,1.66.12,2.23,1.63,3.09,3.04.16.28.31.57.45.86l.36-2.05c-.2-.37-.41-.74-.65-1.14-2.43-4.04-7.8-1.44-8.47,2.25-.46,2.52-.46,5.06.23,7.56.18.63.37,1.67.73,2.72.48,1.38,1.26,2.75,2.69,3.19,1.34.4,3.06.15,4.21-.41,1.15-.56,1.84-1.38,2.38-2.19.53-.8.81-1.89.93-3.02h-1.34s0,.06-.02.1Z"></path><path class="cls-5" d="m212.32,101.94c2.1-.49,3.47-2.59,3.56-4.7.11-1.49-.24-3.06-.65-4.7-.46-1.63-.84-3.48-1.76-4.24-.85-.75-2.43-.35-2.81.28-.32.44-.64,1.18-.88,1.93-.73,2.23-1.1,4.88-1.11,7.19.03,1.91,1.41,4.6,3.66,4.24Z"></path><path d="m212.47,103.81c2.2.01,4.05-1.55,5.09-3.36,1.54-2.61,1.05-6.07.11-8.65-.72-1.86-1.11-3.67-2.64-5.21-1.8-1.75-4.91-1.93-6.62.21-.75.96-1.07,1.89-1.4,2.8-.09.31-.17.62-.26.92v9.86c1.15,2.05,3.28,3.53,5.72,3.44Zm-2.45-16.63c1.13-.81,2.78-.81,3.91,0,1.1.79,1.59,2.14,2.01,3.41.82,2.46,1.63,5.06,1.13,7.61-.5,2.54-2.78,4.95-5.4,4.68-2.42-.25-4.12-2.66-4.38-5.03-.24-2.26.75-9.24,2.73-10.66Z"></path><path d="m211.67,102.87c2.62.27,4.9-2.13,5.4-4.68.5-2.54-.3-5.14-1.13-7.61-.42-1.27-.92-2.62-2.01-3.41-1.12-.81-2.78-.81-3.91,0-1.98,1.42-2.97,8.4-2.73,10.66.25,2.38,1.96,4.78,4.38,5.03Zm-1.9-12.37c.24-.75.56-1.49.88-1.93.39-.62,1.96-1.02,2.81-.28.92.76,1.3,2.61,1.76,4.24.41,1.64.75,3.22.65,4.7-.08,2.1-1.46,4.21-3.56,4.7-2.25.36-3.63-2.34-3.66-4.24.01-2.31.39-4.96,1.11-7.19Z"></path><path class="cls-5" d="m267.67,86.86c-.04-1.77-.33-3.88-.93-5.59-.19-.57-.46-1.13-.67-1.4-.19-.31-1.36-.7-1.97-.2-.04.03-.08.08-.11.11l1.88,10.16c.96-.33,1.72-1.41,1.8-3.08Z"></path><path d="m270.4,87.16c.2-1.69-.05-3.04-.33-4.63-.43-1.84-.81-3.86-2.51-5.14-1.21-.81-2.78-.78-4.03-.13l.23,1.24c.91-.54,2.17-.52,3.04.09,1.62,1.12,2.43,6.63,2.24,8.42-.19,1.68-1.34,3.38-3,3.85l.16.87c2.02-.51,3.8-2.15,4.2-4.57Z"></path><path d="m264.11,79.67c.6-.51,1.78-.12,1.97.2.2.27.48.83.67,1.4.6,1.71.89,3.82.93,5.59-.08,1.67-.84,2.76-1.8,3.08l.17.92c1.66-.47,2.81-2.17,3-3.85.2-1.79-.61-7.29-2.24-8.42-.87-.6-2.13-.63-3.04-.09l.24,1.28s.07-.08.11-.11Z"></path><path d="m155.61,77.44c.32.96.6,1.97.9,3,.04.12.08.25.15.33.14.15.35.06.45-.13.1-.18.12-.43.13-.66.2-3.67-.56-7.73-2.34-10.73-.34-.57-.75-1.38-1.2-1.83v5.92c.83,1.22,1.4,2.6,1.89,4.09Z"></path><path d="m190.91,79.44c-.06-2.49-.25-5.04-1.19-7.2-.42-.96-1.07-1.9-1.85-2.57-1-.87-2.51.17-2.03,1.41,1.02,2.64,1.79,4.74,1.68,8.33-.09,2.72-.2,5.43-.32,8.15h3.49c.21-2.7.29-5.42.23-8.12Z"></path><path d="m215.82,50c0,1.44,1.33,3.06,1.85,4.32.78,1.87,1.42,3.82,1.9,5.84.98,4.1,1.33,8.42.99,12.67-.04.55-.1,1.11.04,1.63.12.46.42.88.79.96v-17.52c-1.05-3.32-2.91-6.62-5.58-7.9Z"></path><path d="m270.86,56.86c-.7-.02-1.29.57-1.95.86-.94.4-1.97.17-2.95-.1s-1.99-.55-2.95-.22c-1.43.48-2.38,3.07-1.38,4.6.96,1.47,2.83.78,4.32.32,3.53-1.1,7.47.06,10.22,3,0,.21.3.7.7,1.27l-1.19-5.76c-.69-.14-1.34-.37-1.87-.88-1.04-1.01-1.62-3.04-2.94-3.07Z"></path><path class="cls-3" d="m293.13,95.95c.81.32,1.74.04,2.42-.53s1.16-1.39,1.55-2.24c1.43-3.08,1.95-6.65,1.45-10.07-.09-.65-.25-1.35-.72-1.76-.63-.55-1.61-.34-2.22.24-1.03.96-2.24,2.82-2.86,4.13-.09.2-.18.4-.26.6v9.19c.19.18.4.34.65.44Z"></path><path class="cls-3" d="m163.55,82.18c-.2.16-.33.38-.45.61-.59,1.18-.61,2.54-.71,3.83-.15,2.09-.15,4.2,0,6.29.06.77-.04,1.78.75,1.2.59-.44.9-1.6,1.13-2.33,0-.62.39-1.41.51-2.03.13-.69.24-1.39.32-2.09.1-.9.15-1.77.17-2.66.01-.49.01-.99,0-1.5,0-.35-.01-.73-.19-1.03-.3-.52-1.08-.66-1.55-.29Z"></path><path d="m206.62,27.33c-.35,1.95-1.65,3.59-1.65,5.58,0,2.05,1.34,3.67,2.61,5,.82.86,1.66,1.75,2.22,2.89.36.74.47,2.87,1.43,2.81.57-.03.8-.91.85-1.62.42-6.53-2.35-12.87-2.05-19.42.04-.86.14-1.71.27-2.55h-4.72c.09.58.21,1.16.35,1.72.46,1.82,1.02,3.71.69,5.57Z"></path><path d="m248.34,22.65c.77,1.5,2.02,3.06,2.97,4.28.89,1.14,2.25.93,2.26-1.04,0-.79-.24-1.53-.43-2.27-.29-1.17-.4-2.37-.4-3.58h-5.2c.11.93.4,1.83.8,2.61Z"></path><path d="m217.11,40.76c1.01-2.29,1-6.23-.21-8.45-.22-.41-.55-.84-1.14-.97-.7-.15-1.46.24-1.73.73-.28.49-.2,1.04-.12,1.56.2,1.3.41,2.6.61,3.9.16,1.05.33,2.1.49,3.15.06.37.19.82.69.94.66.16,1.2-.4,1.41-.87Z"></path><path d="m180.99,44.78c.11.59.27,1.17.51,1.72l-.51-1.72Z"></path><path d="m158.03,24.74c.46,1.3.98,2.58.86,3.93-.2,1.38-.93,2.65-1.13,4.12-.52,3.05-.12,6.28,1.27,9.03.25.49,1.01.18.87-.33-.72-2.71-.75-5.57-.09-8.27.4-1.4.81-2.88.85-4.43.1-1.7-.39-3.26-.77-4.65-.54-1.7-.72-2.92-.39-4.11h-2.08c-.3,1.61.04,3.36.61,4.7Z"></path><path class="cls-2" d="m31.57,83.87h.02s.97-1.17.97-1.17c-.01-.23-.03-.47-.04-.7l-.94,1.88Z"></path><path class="cls-2" d="m30.99,102.5c.95,3.56,1.68,8.02,4.95,10.19,3.32,2.02,6.8.19,8.45-3.12,4.06-8.3,2.45-17.85,3.46-26.83l-3.89,6.7h-7.73c-.02,3.24-.18,6.48-.51,9.69-.08.84-.29,1.85-.88,2.03-.85.26-1.29-1.35-1.36-2.56-.19-3.05-.37-6.11-.54-9.17h-2.38c0,.15,0,.3,0,.45-.11,4.33-.44,8.43.44,12.61Zm8.44-5.96c.11-.48.24-.97.57-1.39.33-.42.9-.75,1.56-.78.8-.02,1.54.42,1.91.96.37.54.44,1.15.49,1.74.28,3.76.43,7.43-1.29,9.89-1.72,2.46-3.23-.21-3.23-.21-.61-.75-.7-1.65-.74-2.52-.11-2.59.13-5.17.73-7.7Z"></path><path class="cls-2" d="m68.52,79.74c-.02.97-.05,1.94-.08,2.9-.03,1.03-.27,2.37-1.01,2.42-.44.03-.82-.5-.95-1.09-.04-.19-.06-.38-.07-.58l-1.96,3.41c.32,2.05.84,4.03,1.79,5.88,5.4,10.28,11.63.73,13.09-6.33.07-.34.13-.69.19-1.03l-7.15-12.28-3.85,6.69Zm7.18,5.58c.42.24.56.64.64,1.01.43,1.96-.02,4.01-1.28,5.78-.34.48-.76.95-1.36,1.28s-1.43.49-2.14.31c-1.16-.3-1.55-1.33-1.57-2.21-.02-1.27.41-2.54,1.23-3.66.55-.76,1.62-1.82,2.53-2.37.54-.33,1.4-.45,1.96-.14Z"></path><path class="cls-2" d="m123.84,78.03c-.32-.86-2.43-3.69-2.43-4.31-2.72-3.29-6.61-4.59-10.1-3.36-1.47.52-3.32,1.29-4.27-.35-.99-1.71-.05-4.61,1.37-5.16.95-.36,1.96-.05,2.92.25.96.29,1.98.56,2.91.11.65-.32,1.24-.98,1.93-.96,1.31.04,1.88,2.32,2.91,3.44,1.73,1.89,4.71.4,6.16,2.71.12.18.2.38.29.59.33-2.61.5-5.27.5-7.97,0-30-20.97-55.1-49.04-61.46.39,1.65.82,3.31.81,5.03.18,3.14-.48,6.13-.27,9.26.08,1.52.28,3.02.58,4.52.05.26-.11.51-.37.56-.22.04-.43-.07-.52-.27-.66-1.47-1.06-3.04-1.33-4.63-.65-3.11-.31-6.34.13-9.43,0-1.94-.69-3.68-1.19-5.48-1.37-.26-2.75-.48-4.14-.64.4,1.71.51,3.58.29,5.23-.15,2.22.09,4.47.76,6.62.07.25-.07.51-.32.59-.2.06-.42-.02-.53-.19-.68-1.03-1.14-2.19-1.47-3.38-.77-2.39-.55-4.73-.21-7.12-.03-.68-.23-1.32-.49-1.95-1.88-.17-3.77-.26-5.69-.26C28.21,0,0,28.21,0,63.01c0,5.78.78,11.38,2.24,16.69.41,1.03.73,2.12.99,3.26,1.17,3.51,2.64,6.89,4.39,10.09.02-.5.04-1,.07-1.5.41-6.52,1.65-12.94,3.66-18.86.32-.93.68-1.9,1.32-2.42.64-.52,1.61-.37,1.92.57.29.88-.12,1.86-.46,2.7-1.9,4.62-2.13,10.15-2.45,15.46-.18,3.03-.42,6.11-1.04,9.04.73,1.09,1.49,2.15,2.28,3.18.12-1.19.19-2.39.32-3.58.15-1.41.35-2.83.46-4.27l.35-4.3c.26-2.88.48-5.76.93-8.68.2-1.33.38-2.74.98-4,2.01-4.25,6.5-9.52,10.34-5.73l2.55-4.42c-.12-.27-.24-.54-.36-.82.3-.1.6-.14.9-.12l24.09-41.75,9.5,16.43,9.51-16.37,4.9,8.47-14.41,24.49-9.49-16.55-18.04,36.07c.02.19.05.39.07.58.08.69.15,1.39.22,2.09l16.69-20.49.68.93c3.28-4.23,7.64-.9,9.5,8.6.28,1.59.46,3.18.58,4.75l2.53-3.4c-.08-.41-.15-.81-.23-1.21-.48-2.26-1.11-4.45-1.88-6.54-.52-1.41-1.84-3.23-1.83-4.84,2.92,1.59,4.87,5.96,5.82,10.08l6.22-8.36,7.4,13.06c.46-2.29,1.18-4.47,2.84-6.43.62-.64,1.25-1.05,1.88-1.28l-7.01-12.1,5.5-7.35,4.61,7.97c-.12-1.42-.11-2.85.12-4.27.19-1.63.91-3.09,1.13-4.64.14-1.52-.35-2.98-.82-4.45-.84-2.26-1.28-5.6.39-7.8,1.32-1.98,3.34-3.49,3.61-5.89.22-1.48.12-3.13-.67-4.38-.27-.37.3-.82.6-.45,1.58,2.14,1.69,5.12.72,7.55-.88,2.1-3.11,3.96-3.33,6.07-.31,3.22,1.55,6.1,1.27,9.47-.05,1.69-.46,3.31-.84,4.88-.5,2.36-.59,4.81-.27,7.21l13.42,23.23c.57-.46,1.14-.95,1.77-1.43,2.66-1.98,6.37-3.02,9.5-1.43,3.6,2,5.18,5.77,6.32,9.51.83-2.18,1.54-4.41,2.12-6.69-.07-.21-.14-.42-.22-.64ZM14.82,50.33c.3-.41.89-.99,1.38-1.3.3-.18.77-.25,1.07-.08.23.13.3.35.35.55.24,1.07-.01,2.19-.7,3.16-.19.26-.42.52-.75.7-.33.18-.78.27-1.17.17-.63-.16-.85-.73-.86-1.21-.01-.69.22-1.39.67-2Zm10.8-6.55c-.76.18-1.73.06-2.44-.4-.55-.37-.89-.68-1.06-.8-.03.08-.05.19-.05.4.41,1.48.53,3.04.34,4.65-.26,3.35-1.06,6.66-3.06,9.46-2.34,3.19-7.8,2.92-9.83-.45-3.27-4.36-2.21-8.18.06-12.6.16-.33.67-.17.64.18-.3,3.04-.48,5.79-.03,8.66.11,1.31,1.03,2.41,2.12,3.08.88.75,2.08,1.13,3.17.71,4.39-1.9,4.84-7.77,4.08-11.93,0-.8-.19-2.06.08-2.86.39-1.5,2.18-2.52,3.61-1.72,1.34.72,1.41,1.56,2.64.69,1.43-1.13,1.15-2.99,1.25-4.74,0-.42.61-.55.78-.17,1.56,2.77,1.45,6.96-2.28,7.86Zm6.36,8.55c.35.28-.07.85-.45.6-1.69-1.14-2.28-3.13-2.54-5.01-.03-3.1,1.41-5.83,2.31-8.68.57-2.12-.46-4.38-.69-6.58-.3-2.38-.81-5.16.66-7.34.3-.44,1.02-.06.83.43-1.11,3.16,1.08,6.69,1.12,10.05.21,2.38-.2,5.12-1.13,7.33-.52,1.56-1.33,3.14-1.51,4.72-.06,1.55.23,3.42,1.41,4.47Zm25.08-34.02c-.59.95-1.55,1.56-2.62,1.85-2.67,1.09-6.51-.04-7.61-2.89-.39-.98-.67-1.94-.85-2.95,0-.96.21-1.95,0-2.89-.19-1.83.64-3.43.93-5.22.05-.32.52-.39.65-.1.79,1.71,1.21,3.63.86,5.43-.12.56-.25,1.13-.08,1.67.33.96.25,2.06.84,2.92.51.73.91,1.58,1.72,1.94.78.33,1.73.19,2.55-.24.41-.23.73-.59,1.08-.86.44-.19.77-.51,1-.93,1.03-1.9,1.23-3.96,1.96-6.13.09-.36.63-.41.79-.07,1.47,2.72.86,6.18-1.23,8.48Zm5.97-5.04c-.21.53-.75,1.16-1.4.98-.49-.14-.62-.64-.68-1.05-.16-1.18-.32-2.36-.49-3.53l-.6-4.38c-.08-.59-.16-1.2.12-1.75.27-.55,1.02-.99,1.71-.82.58.14.91.63,1.13,1.09,1.2,2.49,1.2,6.9.21,9.47Zm34.64,32.84c-.63-2.01-1.11-4.07-.95-6.13.11-1.98-.48-3.96-.15-5.95.28-1.98.74-3.93,1.41-5.81.11-.34.64-.27.65.09l.4,5.81c.19,1.91-.35,3.82,0,5.71.42,1.79.25,3.68,1.08,5.3.88,1.97,2.8,4.35,5.16,3.24,1.7-.85,1.37-1.81,1.17-3.69,0-1.57.51-3.68,2.18-4.47.78-.41,1.96-.29,2.64.19.49.3.82.65,1.18.92.29.19.42.16.82.06,1.54-.59,1.66-2.34,1.89-3.92.03-.42.66-.49.79-.1.61,1.47.89,3.44-.1,4.97-.96,1.56-3.24,2.33-4.86,1.21-.34-.21-1.14-.92-1.25-.92,0,0,.01-.02-.02-.02-.27.12-.44.48-.53.82.09,1.36.42,3.03-.24,4.49-2.5,5.21-9.82,2.99-11.27-1.82Z"></path><path class="cls-2" d="m22.19,42.47s0,0,0,0c.02-.01.03-.02,0,0Z"></path><path d="m16.24,88.1l-.77,1.34h.72c0-.08,0-.16,0-.24.02-.36.03-.73.05-1.1Z"></path><path d="m54.03,60.47l.97,1.33c.31-.54.67-1.02,1.11-1.4.22.06.56.38.76.66,1.53,1.97,2.45,4.58,2.96,7.26,0,.05.01.09.02.14l1.77,2.42c-.42-3.91-1.31-7.58-3.39-10.49-1.54-2.14-2.96-1.86-4.2.08Z"></path><path d="m49.01,92.75c-.1,26.71-14.4,26.14-17.67,16.42-2.94-8.72-2.22-12.92-2.05-19.73h-1.27c0,.13,0,.26,0,.38-.35,5.74-.42,11.87,1.18,17.53.92,4.93,4.3,10.13,9.97,9.71,3.56-.47,5.97-3.35,7.62-6.14,3.69-6.55,3.9-14.35,3.93-21.65.12-4.09.11-8.23.49-12.32l-1.56,2.68c-.4,4.23-.63,8.74-.65,13.14Z"></path><path d="m81.92,89.43h0s-1.11-1.91-1.11-1.91c0,0,0,0,0,0-1.49,5.87-4.98,11.59-9.44,11.49-3.87-.09-7.06-4.68-8.28-9.82l-.11.2-2.28-3.92c.25,3.05.87,6.04,2.35,8.85,3.79,7.73,11.44,8.99,16.24,1.31,1.25-1.92,2.14-4.02,2.77-6.2h-.12Z"></path><path d="m82.81,70.46c-.26.91-.44,1.81-.58,2.7l1.15,2.03c.17-3.01.9-6.1,2.7-8.31.6-.53.97-.68,1.5-.36l-.91-1.57c-1.91.37-3.16,3.01-3.86,5.52Z"></path><path d="m93.27,81.18h2.44c-.4-.3-.78-.67-1.12-1.11-.99-1.3-1.53-3.03-1.96-4.85l-2.68-4.64c1.05,3.53,1.03,7.7,3.33,10.6Z"></path><path d="m115.28,77.04c-2.22-1.13-4.73-.68-6.92.53-1.13.63-2.16,1.6-3.21,2.5l.81,1.39c.71-.64,1.38-1.29,2.02-1.83,1.76-1.5,4.38-2.49,6.6-1.57,3.58,1.7,4.99,6.16,5.63,9.93.06.38.11.76.15,1.14.31-.67.6-1.35.88-2.03-1-4.37-2.92-8.52-5.97-10.07Z"></path><path d="m16.19,89.44h-.72s.77-1.34.77-1.34c.13-3.77.07-7.78,2.08-11,1.1-1.71,3.81-6.56,6.03-4.75.2.22.39.45.57.7l.71-1.23c-2.05-2.26-4.94-1.59-8.63,5.15-2.33,4.26-1.69,18.33-2.8,25.89.41.5.82.99,1.25,1.48.16-.7.28-1.4.34-2.11.54-4.11.32-8.64.41-12.78Z"></path><path d="m15.95,76.41c-.6,1.25-.78,2.67-.98,4-.45,2.93-.67,5.81-.93,8.68l-.35,4.3c-.11,1.43-.3,2.85-.46,4.27-.13,1.19-.2,2.39-.32,3.58.42.55.84,1.09,1.28,1.62,1.11-7.56.47-21.63,2.8-25.89,3.69-6.73,6.58-7.4,8.63-5.15l.66-1.14c-3.85-3.79-8.33,1.48-10.34,5.73Z"></path><path d="m44.38,109.56c-1.64,3.31-5.13,5.14-8.45,3.12-3.27-2.16-4-6.63-4.95-10.19-.88-4.18-.55-8.28-.44-12.61,0-.15,0-.3,0-.45h-1.03s-.23,0-.23,0c-.18,6.82-.89,11.01,2.05,19.73,3.27,9.72,17.56,10.29,17.67-16.42.02-4.4.24-8.91.65-13.14l-1.81,3.12c-1.01,8.98.6,18.54-3.46,26.83Z"></path><path d="m115.62,75.84c-3.12-1.59-6.84-.55-9.5,1.43-.63.47-1.2.97-1.77,1.43l.8,1.38c1.04-.9,2.08-1.88,3.21-2.5,2.2-1.21,4.7-1.66,6.92-.53,3.05,1.55,4.98,5.7,5.97,10.07.24-.58.47-1.17.7-1.75-1.15-3.74-2.73-7.51-6.32-9.51Z"></path><path d="m63.18,72.56c-.12-1.58-.3-3.16-.58-4.75-1.86-9.5-6.22-12.83-9.5-8.6l.92,1.27c1.24-1.94,2.67-2.22,4.2-.08,2.08,2.91,2.97,6.57,3.39,10.49l1.39,1.91.17-.23Z"></path><path d="m95.71,81.18h.38l-3.45-5.96c.43,1.82.97,3.55,1.96,4.85.34.44.72.81,1.12,1.11Z"></path><path d="m81.2,71.34l1.03,1.81c.14-.89.32-1.79.58-2.7.71-2.51,1.96-5.15,3.86-5.52l-.76-1.3c-.62.23-1.25.63-1.88,1.28-1.66,1.97-2.38,4.14-2.84,6.43Z"></path><path d="m79.34,86.36c-1.47,7.06-7.69,16.61-13.09,6.33-.95-1.85-1.48-3.83-1.79-5.88l-1.37,2.39c1.22,5.14,4.41,9.73,8.28,9.82,4.47.1,7.96-5.62,9.44-11.49,0,0,0,0,0,0l-1.28-2.2c-.06.35-.12.7-.19,1.03Z"></path><path class="cls-2" d="m89.44,94.58c-1.67-.15-3.66.95-4.62,2.56-.52.87-.7,1.92-.9,2.9-.62,3.26.69,6.71,1.75,9.66.58,1.33,1.11,2.43,2.38,2.8,2.71.63,5.7-.83,6.62-3.55,1.3-3.54.46-7.5-1.42-10.7-1.01-1.7-1.78-3.53-3.82-3.66Z"></path><path d="m82.2,98.03c-.47,4.27-.34,8.38.88,12.58.52,1.86,2.04,4.17,4.23,4.66,3.36.89,7.32-.56,9.12-3.53,3.07-4.82.43-13.68-2.89-17.92-3.64-4.14-10.66-.77-11.34,4.21Zm13.13,12.8c-.64.95-1.45,1.89-2.81,2.55-1.36.65-3.39.95-4.97.48-1.69-.5-2.61-2.1-3.18-3.7-.43-1.21-.66-2.42-.87-3.15-.82-2.9-.81-5.86-.27-8.78.79-4.28,7.13-7.3,10-2.61,1.89,3.09,2.67,5.29,3.07,7.56.38,2.14.37,5.67-.97,7.65Z"></path><path d="m83.24,98.22c-.54,2.92-.55,5.88.27,8.78.21.73.44,1.94.87,3.15.57,1.6,1.49,3.2,3.18,3.7,1.58.47,3.61.18,4.97-.48,1.36-.65,2.18-1.6,2.81-2.55,1.34-1.98,1.35-5.51.97-7.65-.4-2.27-1.18-4.47-3.07-7.56-2.87-4.69-9.21-1.68-10,2.61Zm11.44,10.72c-.92,2.72-3.91,4.18-6.62,3.55-1.27-.38-1.8-1.48-2.38-2.8-1.06-2.95-2.38-6.39-1.75-9.66.19-.98.38-2.03.9-2.9.96-1.61,2.95-2.71,4.62-2.56,2.04.13,2.81,1.96,3.82,3.66,1.88,3.21,2.72,7.16,1.42,10.7Z"></path><path class="cls-2" d="m59.87,100.74c-.74-.87-1.69-.45-2.06.36-1.36,3.36-1.71,7.72-1.79,11.41.15,5.6,3.99,7.79,5.83,1.36.56-2.67.08-5.34-.41-8.08-.38-1.85-.67-3.94-1.56-5.05Z"></path><path d="m61.68,99.29c-2.03-2.68-5.69-1.87-6.74,1.25-1.42,4.03-1.85,7.99-1.66,12.18,1.85,10.39,11.1,8.29,11.45-1.4.06-2.12-.3-4.17-.81-6.09-.63-2.08-.86-4.03-2.24-5.94Zm1.59,13.75c-.44,3.08-2.45,5.99-4.76,5.66-2.13-.3-3.64-3.22-3.86-6.09-.21-2.74.66-11.18,2.41-12.91.99-.98,2.46-.98,3.45,0,.97.96,1.4,2.59,1.77,4.12.73,2.98,1.44,6.13.99,9.21Z"></path><path d="m60.51,99.71c-.99-.98-2.46-.98-3.45,0-1.75,1.72-2.62,10.17-2.41,12.91.22,2.88,1.73,5.79,3.86,6.09,2.31.33,4.32-2.58,4.76-5.66.44-3.08-.27-6.23-.99-9.21-.37-1.54-.81-3.17-1.77-4.12Zm1.34,14.16c-1.84,6.43-5.67,4.24-5.83-1.36.08-3.69.43-8.05,1.79-11.41.37-.81,1.32-1.22,2.06-.36.89,1.1,1.18,3.19,1.56,5.05.49,2.74.97,5.42.41,8.08Z"></path><path class="cls-2" d="m2.24,79.71c.3,1.1.63,2.19.99,3.26-.25-1.14-.58-2.24-.99-3.26Z"></path><path d="m33.48,98.61c.07,1.21.51,2.82,1.36,2.56.59-.18.8-1.2.88-2.03.32-3.21.49-6.45.51-9.69h-3.28c.17,3.06.34,6.12.54,9.17Z"></path><path d="m32.55,82.7l3.19-3.92c-.07-.7-.14-1.39-.22-2.09-.02-.19-.05-.39-.07-.58l-2.95,5.89c.01.23.03.47.04.7Z"></path><path d="m28.49,65.44c.12.28.24.55.36.82l.54-.94c-.3-.01-.6.02-.9.12Z"></path><path class="cls-2" d="m61.76,56.57c0,1.61,1.31,3.43,1.83,4.84.77,2.09,1.4,4.29,1.88,6.54.09.4.16.81.23,1.21l1.87-2.52c-.95-4.11-2.9-8.48-5.82-10.08Z"></path><path d="m67.43,85.07c.74-.05.98-1.39,1.01-2.42.03-.97.06-1.93.08-2.9l-2.11,3.66c.01.2.03.39.07.58.13.59.51,1.12.95,1.09Z"></path><path d="m119.08,67.69c-1.03-1.13-1.6-3.41-2.91-3.44-.69-.02-1.28.64-1.93.96-.93.45-1.95.19-2.91-.11-.96-.29-1.97-.61-2.92-.25-1.41.54-2.35,3.44-1.37,5.16.95,1.65,2.8.87,4.27.35,3.49-1.23,7.38.07,10.1,3.36,0,.62,2.11,3.45,2.43,4.31.08.22.16.43.22.64.64-2.5,1.13-5.07,1.46-7.68-.08-.2-.17-.4-.29-.59-1.45-2.31-4.43-.81-6.16-2.71Z"></path><path class="cls-3" d="m71.21,87.83c-.82,1.12-1.25,2.39-1.23,3.66.02.88.41,1.9,1.57,2.21.71.19,1.54.02,2.14-.31s1.02-.8,1.36-1.28c1.26-1.77,1.72-3.82,1.28-5.78-.08-.37-.22-.78-.64-1.01-.56-.32-1.42-.19-1.96.14-.9.55-1.98,1.62-2.53,2.37Z"></path><path class="cls-3" d="m15,53.54c.39.1.84.01,1.17-.17.33-.18.56-.44.75-.7.69-.97.94-2.09.7-3.16-.05-.2-.12-.42-.35-.55-.31-.17-.78-.11-1.07.08-.49.3-1.08.88-1.38,1.3-.45.61-.69,1.31-.67,2,0,.48.23,1.04.86,1.21Z"></path><path class="cls-3" d="m39.44,106.76s1.51,2.68,3.23.21c1.72-2.46,1.57-6.13,1.29-9.89-.04-.59-.12-1.21-.49-1.74-.37-.54-1.11-.98-1.91-.96-.66.02-1.23.36-1.56.78-.33.42-.46.91-.57,1.39-.6,2.53-.84,5.12-.73,7.7.04.86.13,1.76.74,2.52Z"></path><path class="cls-3" d="m11.67,89.01c.31-5.3.55-10.84,2.45-15.46.34-.84.75-1.83.46-2.7-.31-.93-1.29-1.09-1.92-.57-.64.52-1,1.49-1.32,2.42-2.01,5.92-3.25,12.34-3.66,18.86-.03.5-.05,1-.07,1.5.93,1.71,1.94,3.38,3.02,4.99.62-2.93.86-6.01,1.04-9.04Z"></path><path d="m108.93,47.93c.66-1.46.34-3.13.24-4.49.09-.34.26-.7.53-.82.03,0,.01.01.02.02.11,0,.91.72,1.25.92,1.62,1.12,3.9.35,4.86-1.21.99-1.53.71-3.5.1-4.97-.13-.39-.76-.31-.79.1-.23,1.58-.35,3.33-1.89,3.92-.4.1-.53.13-.82-.06-.36-.27-.7-.62-1.18-.92-.68-.48-1.86-.6-2.64-.19-1.66.79-2.18,2.9-2.18,4.47.2,1.88.53,2.84-1.17,3.69-2.36,1.11-4.28-1.27-5.16-3.24-.82-1.62-.66-3.52-1.08-5.3-.35-1.89.19-3.81,0-5.71l-.4-5.81c-.01-.36-.54-.43-.65-.09-.67,1.88-1.13,3.83-1.41,5.81-.33,1.99.26,3.96.15,5.95-.16,2.06.32,4.12.95,6.13,1.44,4.81,8.76,7.02,11.27,1.82Z"></path><path d="m57.49,9.91c-.73,2.17-.93,4.22-1.96,6.13-.23.43-.56.75-1,.93-.36.27-.68.62-1.08.86-.82.43-1.78.57-2.55.24-.82-.36-1.22-1.21-1.72-1.94-.59-.85-.51-1.96-.84-2.92-.17-.53-.04-1.1.08-1.67.35-1.81-.07-3.73-.86-5.43-.14-.29-.61-.22-.65.1-.29,1.79-1.12,3.39-.93,5.22.2.95-.01,1.93,0,2.89.18,1.01.46,1.97.85,2.95,1.11,2.85,4.94,3.98,7.61,2.89,1.07-.3,2.03-.9,2.62-1.85,2.09-2.29,2.69-5.76,1.23-8.48-.16-.34-.7-.29-.79.07Z"></path><path d="m22.12,42.51c-.08.03-.14,0-.09.03.02,0,.05.03.08.05.02-.04.04-.08.07-.1-.01,0-.03.02-.06.03Z"></path><path d="m27.12,36.09c-.11,1.75.17,3.62-1.25,4.74-1.23.87-1.29.04-2.64-.69-1.43-.8-3.22.22-3.61,1.72-.27.8-.09,2.06-.08,2.86.76,4.16.31,10.03-4.08,11.93-1.09.42-2.28.04-3.17-.71-1.09-.67-2.01-1.77-2.12-3.08-.46-2.86-.27-5.62.03-8.66.04-.35-.48-.51-.64-.18-2.27,4.42-3.33,8.24-.06,12.6,2.03,3.38,7.5,3.64,9.83.45,2-2.8,2.8-6.11,3.06-9.46.19-1.61.07-3.17-.34-4.65,0-.21.02-.32.05-.4-.03-.02-.06-.04-.08-.05-.05-.03,0,0,.09-.03.03,0,.05-.02.06-.03,0,0,0,0,0,0,.02-.01.01,0,0,0-.03.03-.05.06-.07.1.17.12.51.43,1.06.8.71.46,1.68.58,2.44.4,3.73-.9,3.84-5.09,2.28-7.86-.16-.38-.78-.25-.78.17Z"></path><path class="cls-2" d="m32.08,43.14c.93-2.21,1.34-4.95,1.13-7.33-.03-3.36-2.23-6.89-1.12-10.05.19-.49-.53-.87-.83-.43-1.47,2.18-.96,4.96-.66,7.34.23,2.19,1.26,4.45.69,6.58-.89,2.84-2.34,5.58-2.31,8.68.26,1.88.86,3.87,2.54,5.01.37.25.79-.32.45-.6-1.18-1.05-1.47-2.92-1.41-4.47.18-1.58.99-3.16,1.51-4.72Z"></path><path d="m91.2,48.26c.38-1.57.79-3.19.84-4.88.28-3.38-1.57-6.25-1.27-9.47.21-2.12,2.44-3.97,3.33-6.07.96-2.43.86-5.41-.72-7.55-.3-.37-.87.07-.6.45.79,1.25.89,2.89.67,4.38-.27,2.4-2.29,3.91-3.61,5.89-1.67,2.2-1.23,5.54-.39,7.8.47,1.47.96,2.93.82,4.45-.22,1.55-.94,3.01-1.13,4.64-.23,1.42-.24,2.86-.12,4.27l1.92,3.31c-.32-2.41-.23-4.85.27-7.21Z"></path><path class="cls-2" d="m76.01,6.59c-.44,3.09-.78,6.32-.13,9.43.27,1.58.67,3.16,1.33,4.63.09.2.3.31.52.27.26-.05.42-.3.37-.56-.3-1.5-.5-3.01-.58-4.52-.21-3.13.46-6.12.27-9.26.01-1.71-.42-3.38-.81-5.03-.72-.16-1.44-.31-2.16-.45.5,1.81,1.19,3.55,1.19,5.48Z"></path><path class="cls-2" d="m69.2,2.21c-.34,2.39-.56,4.73.21,7.12.33,1.19.79,2.35,1.47,3.38.11.17.32.25.53.19.25-.07.39-.34.32-.59-.67-2.15-.92-4.4-.76-6.62.23-1.65.11-3.52-.29-5.23-.65-.08-1.31-.15-1.97-.21.26.63.47,1.27.49,1.95Z"></path><path d="m170.9,31.72c-.75,2.71.45,5.57.54,8.16,0,1.14-.03,2.3-.62,3.26-1.35,1.99-4.16.74-5.15-.99-2-3.42-.48-7.79-1.35-11.57-.1-.45-.78-.34-.74.12.12,1.3-.02,2.62-.21,3.95-.43,2.78-.92,5.82.55,8.51,1.6,3.07,6.18,4.1,8.33,1.03,3.22-3.77-.52-8.29-.44-12.34.02-.54-.78-.66-.92-.14Z"></path><path d="m266.08,38.2c3.86-4.51-.68-9.96-.45-14.84.03-.55-.79-.68-.92-.14-.86,3.29.67,6.7.8,9.86.06,1.98-.27,4.5-2.39,5.22-1.94.6-4.09-.7-5.12-2.35-2.5-4.18-.53-9.48-1.56-14.09-.1-.46-.79-.34-.74.12.37,3.3-.72,6.45-.68,9.81.03,1.72.3,3.56,1.24,5.19,1.93,3.53,7.25,4.76,9.81,1.23Z"></path><path d="m420.24,42.79c4.24-.88,4.93-6.34,3.08-9.59-.24-.47-.99-.22-.88.31.66,2.87.06,6.17-2.7,7.57-1.18.39-2.63-.23-3.11-1.35-.36-.85-.3-1.91-.34-2.9-.07-2.8-.29-5.66-.43-8.45-.02-.46-.71-.47-.75-.01-.19,2.25-.43,4.5-.6,6.75-.05,1.05-.2,2.37-.17,3.45-.08,3.15,3.01,5.07,5.92,4.22Z"></path><path d="m464.59,50.99c-.04-.45-.72-.44-.75.01-.12,1.81-.3,3.62-.4,5.43l-.06,1.36c-.08,1.05.08,2.17-.74,2.9-.72.65-1.93.62-2.52-.23-.76-.76-1.28-1.65-1.43-2.81-.1-.79-.03-1.63.09-2.51.02-.19-.07-.38-.24-.47-.23-.13-.52-.05-.65.18-1.25,2.19-1.3,5.56.88,7.22,1.93,1.34,5.18,1.16,6.23-1.22.44-1.04.34-2.08.27-3.09-.15-2.25-.45-4.53-.68-6.76Z"></path></g><path class="cls-2" d="m63.03,13.28c-.21.53-.75,1.16-1.4.98-.49-.14-.62-.64-.68-1.05-.16-1.18-.32-2.36-.49-3.53l-.6-4.38c-.08-.59-.16-1.2.12-1.75.27-.55,1.02-.99,1.71-.82.58.14.91.63,1.13,1.09,1.2,2.49,1.2,6.9.21,9.47Z"></path></g></g>
  
    </g>
    </svg>